0
SECTION
2
HEADER
9
$ACADVER
1
AC1009
0
ENDSEC
0
SECTION
2
TABLES
0
TABLE
2
VPORT
70
1
0
VPORT
2
ACTIVE
70
0
10
0.0
20
0.0
11
0.0
21
0.0
12
0.0
22
0.0
13
0.0
23
0.0
14
0.0
24
0.0
15
0.0
25
0.0
16
0.0
26
0.0
36
0.0
17
0.0
27
0.0
37
0.0
40
0.0
41
0.0
42
0.0
43
0.0
44
0.0
50
0.0
51
0.0
71
0
72
1000
73
1
74
3
75
0
76
0
77
0
78
0
0
ENDTAB
0
ENDSEC
0
SECTION
2
ENTITIES
0
LINE
8
hole
62
5
39
2
10
12.522036
20
16.190883
11
12.002437
21
16.817500
0
LINE
8
hole
62
5
39
2
10
12.002437
20
16.817500
11
11.705481
21
17.633379
0
LINE
8
hole
62
5
39
2
10
11.705481
20
17.633379
11
11.705481
21
18.501621
0
LINE
8
hole
62
5
39
2
10
11.705481
20
18.501621
11
12.002437
21
19.317499
0
LINE
8
hole
62
5
39
2
10
12.002437
20
19.317499
11
12.522036
21
19.944115
0
LINE
8
hole
62
5
39
2
10
12.522036
20
19.944115
11
12.966840
21
20.255571
0
LINE
8
hole
62
5
39
2
10
12.966840
20
20.255571
11
13.733380
21
20.529519
0
LINE
8
hole
62
5
39
2
10
13.733380
20
20.529519
11
16.041400
21
20.567498
0
LINE
8
hole
62
5
39
2
10
16.041400
20
20.567498
11
29.167499
21
20.567498
0
LINE
8
hole
62
5
39
2
10
29.167499
20
20.567498
11
30.022550
21
20.416732
0
LINE
8
hole
62
5
39
2
10
30.022550
20
20.416732
11
30.774467
21
19.982611
0
LINE
8
hole
62
5
39
2
10
30.774467
20
19.982611
11
31.332563
21
19.317499
0
LINE
8
hole
62
5
39
2
10
31.332563
20
19.317499
11
31.629519
21
18.501621
0
LINE
8
hole
62
5
39
2
10
31.629519
20
18.501621
11
31.629519
21
17.633379
0
LINE
8
hole
62
5
39
2
10
31.629519
20
17.633379
11
31.332563
21
16.817500
0
LINE
8
hole
62
5
39
2
10
31.332563
20
16.817500
11
30.812962
21
16.190883
0
LINE
8
hole
62
5
39
2
10
30.812962
20
16.190883
11
30.368160
21
15.879427
0
LINE
8
hole
62
5
39
2
10
30.368160
20
15.879427
11
29.601619
21
15.605481
0
LINE
8
hole
62
5
39
2
10
29.601619
20
15.605481
11
27.293599
21
15.567500
0
LINE
8
hole
62
5
39
2
10
27.293599
20
15.567500
11
14.167500
21
15.567500
0
LINE
8
hole
62
5
39
2
10
14.167500
20
15.567500
11
13.312450
21
15.718268
0
LINE
8
hole
62
5
39
2
10
13.312450
20
15.718268
11
12.560531
21
16.152388
0
LINE
8
hole
62
5
39
2
10
12.560531
20
16.152388
11
12.522036
21
16.190883
0
LINE
8
hole
62
5
39
2
10
12.290884
20
51.422034
11
11.979430
21
51.866838
0
LINE
8
hole
62
5
39
2
10
11.979430
20
51.866838
11
11.705481
21
52.633376
0
LINE
8
hole
62
5
39
2
10
11.705481
20
52.633376
11
11.705481
21
53.501618
0
LINE
8
hole
62
5
39
2
10
11.705481
20
53.501618
11
12.002437
21
54.317497
0
LINE
8
hole
62
5
39
2
10
12.002437
20
54.317497
11
12.560531
21
54.982609
0
LINE
8
hole
62
5
39
2
10
12.560531
20
54.982609
11
13.312450
21
55.416729
0
LINE
8
hole
62
5
39
2
10
13.312450
20
55.416729
11
14.167500
21
55.567496
0
LINE
8
hole
62
5
39
2
10
14.167500
20
55.567496
11
16.041400
21
55.567496
0
LINE
8
hole
62
5
39
2
10
16.041400
20
55.567496
11
29.167499
21
55.567496
0
LINE
8
hole
62
5
39
2
10
29.167499
20
55.567496
11
30.022550
21
55.416729
0
LINE
8
hole
62
5
39
2
10
30.022550
20
55.416729
11
30.774467
21
54.982609
0
LINE
8
hole
62
5
39
2
10
30.774467
20
54.982609
11
31.332563
21
54.317497
0
LINE
8
hole
62
5
39
2
10
31.332563
20
54.317497
11
31.629519
21
53.501617
0
LINE
8
hole
62
5
39
2
10
31.629519
20
53.501617
11
31.629519
21
52.633376
0
LINE
8
hole
62
5
39
2
10
31.629519
20
52.633376
11
31.332563
21
51.817498
0
LINE
8
hole
62
5
39
2
10
31.332563
20
51.817498
11
30.774467
21
51.152386
0
LINE
8
hole
62
5
39
2
10
30.774467
20
51.152386
11
30.022550
21
50.718265
0
LINE
8
hole
62
5
39
2
10
30.022550
20
50.718265
11
29.167499
21
50.567499
0
LINE
8
hole
62
5
39
2
10
29.167499
20
50.567499
11
27.293599
21
50.567499
0
LINE
8
hole
62
5
39
2
10
27.293599
20
50.567499
11
14.167500
21
50.567499
0
LINE
8
hole
62
5
39
2
10
14.167500
20
50.567499
11
13.312450
21
50.718265
0
LINE
8
hole
62
5
39
2
10
13.312450
20
50.718265
11
12.560531
21
51.152386
0
LINE
8
hole
62
5
39
2
10
12.560531
20
51.152386
11
12.290884
21
51.422034
0
LINE
8
boundary
62
5
39
2
10
14.167500
20
10.544967
11
14.167500
21
6.667500
0
LINE
8
boundary
62
5
39
2
10
14.167500
20
6.667500
11
16.041400
21
6.667500
0
LINE
8
boundary
62
5
39
2
10
16.041400
20
6.667500
11
29.167501
21
6.667500
0
LINE
8
boundary
62
5
39
2
10
29.167501
20
6.667500
11
29.167501
21
10.544967
0
LINE
8
boundary
62
5
39
2
10
29.167501
20
10.544967
11
28.938395
21
11.080569
0
LINE
8
boundary
62
5
39
2
10
28.938395
20
11.080569
11
29.151742
21
11.646964
0
LINE
8
boundary
62
5
39
2
10
29.151742
20
11.646964
11
29.703101
21
11.896604
0
LINE
8
boundary
62
5
39
2
10
29.703101
20
11.896604
11
30.269496
21
11.683259
0
LINE
8
boundary
62
5
39
2
10
30.269496
20
11.683259
11
31.086748
21
11.667501
0
LINE
8
boundary
62
5
39
2
10
31.086748
20
11.667501
11
36.667501
21
11.667501
0
LINE
8
boundary
62
5
39
2
10
36.667501
20
11.667501
11
36.667501
21
17.638995
0
LINE
8
boundary
62
5
39
2
10
36.667501
20
17.638995
11
36.667501
21
59.467496
0
LINE
8
boundary
62
5
39
2
10
36.667501
20
59.467496
11
35.870785
21
59.467496
0
LINE
8
boundary
62
5
39
2
10
35.870785
20
59.467496
11
30.290032
21
59.467496
0
LINE
8
boundary
62
5
39
2
10
30.290032
20
59.467496
11
29.754430
21
59.238393
0
LINE
8
boundary
62
5
39
2
10
29.754430
20
59.238393
11
29.188037
21
59.451738
0
LINE
8
boundary
62
5
39
2
10
29.188037
20
59.451738
11
28.938395
21
60.003098
0
LINE
8
boundary
62
5
39
2
10
28.938395
20
60.003098
11
29.151742
21
60.569492
0
LINE
8
boundary
62
5
39
2
10
29.151742
20
60.569492
11
29.167501
21
64.467497
0
LINE
8
boundary
62
5
39
2
10
29.167501
20
64.467497
11
27.293600
21
64.467497
0
LINE
8
boundary
62
5
39
2
10
27.293600
20
64.467497
11
14.167500
21
64.467497
0
LINE
8
boundary
62
5
39
2
10
14.167500
20
64.467497
11
14.167500
21
60.590029
0
LINE
8
boundary
62
5
39
2
10
14.167500
20
60.590029
11
14.396606
21
60.054427
0
LINE
8
boundary
62
5
39
2
10
14.396606
20
60.054427
11
14.183259
21
59.488033
0
LINE
8
boundary
62
5
39
2
10
14.183259
20
59.488033
11
13.631900
21
59.238393
0
LINE
8
boundary
62
5
39
2
10
13.631900
20
59.238393
11
13.065505
21
59.451738
0
LINE
8
boundary
62
5
39
2
10
13.065505
20
59.451738
11
12.248253
21
59.467496
0
LINE
8
boundary
62
5
39
2
10
12.248253
20
59.467496
11
6.667500
21
59.467496
0
LINE
8
boundary
62
5
39
2
10
6.667500
20
59.467496
11
6.667500
21
53.496001
0
LINE
8
boundary
62
5
39
2
10
6.667500
20
53.496001
11
6.667500
21
11.667501
0
LINE
8
boundary
62
5
39
2
10
6.667500
20
11.667501
11
7.464216
21
11.667501
0
LINE
8
boundary
62
5
39
2
10
7.464216
20
11.667501
11
13.044969
21
11.667501
0
LINE
8
boundary
62
5
39
2
10
13.044969
20
11.667501
11
13.580570
21
11.896604
0
LINE
8
boundary
62
5
39
2
10
13.580570
20
11.896604
11
14.146964
21
11.683259
0
LINE
8
boundary
62
5
39
2
10
14.146964
20
11.683259
11
14.396606
21
11.131899
0
LINE
8
boundary
62
5
39
2
10
14.396606
20
11.131899
11
14.183259
21
10.565504
0
LINE
8
boundary
62
5
39
2
10
14.183259
20
10.565504
11
14.167500
21
10.544967
0
LINE
8
annotation
62
1
39
211
10
23.285352
20
27.380755
11
23.285352
21
41.947811
0
LINE
8
annotation
62
1
39
211
10
23.285352
20
41.947811
11
20.046909
21
38.708454
0
LINE
8
frame
62
5
39
2
10
0.000000
20
0.000000
11
210.058000
21
0.000000
0
LINE
8
frame
62
5
39
2
10
210.058000
20
0.000000
11
210.058000
21
296.926000
0
LINE
8
frame
62
5
39
2
10
210.058000
20
296.926000
11
0.000000
21
296.926000
0
LINE
8
frame
62
5
39
2
10
0.000000
20
296.926000
11
0.000000
21
0.000000
0
ENDSEC
0
EOF
