0
SECTION
2
HEADER
9
$ACADVER
1
AC1009
0
ENDSEC
0
SECTION
2
TABLES
0
TABLE
2
VPORT
70
1
0
VPORT
2
ACTIVE
70
0
10
0.0
20
0.0
11
0.0
21
0.0
12
0.0
22
0.0
13
0.0
23
0.0
14
0.0
24
0.0
15
0.0
25
0.0
16
0.0
26
0.0
36
0.0
17
0.0
27
0.0
37
0.0
40
0.0
41
0.0
42
0.0
43
0.0
44
0.0
50
0.0
51
0.0
71
0
72
1000
73
1
74
3
75
0
76
0
77
0
78
0
0
ENDTAB
0
ENDSEC
0
SECTION
2
ENTITIES
0
LINE
8
hole
62
5
39
2
10
21.124023
20
26.252392
11
20.589468
21
26.356496
0
LINE
8
hole
62
5
39
2
10
20.589468
20
26.356496
11
20.072616
21
26.528103
0
LINE
8
hole
62
5
39
2
10
20.072616
20
26.528103
11
19.581951
21
26.764395
0
LINE
8
hole
62
5
39
2
10
19.581951
20
26.764395
11
19.125531
21
27.061491
0
LINE
8
hole
62
5
39
2
10
19.125531
20
27.061491
11
18.710850
21
27.414514
0
LINE
8
hole
62
5
39
2
10
18.710850
20
27.414514
11
18.344717
21
27.817667
0
LINE
8
hole
62
5
39
2
10
18.344717
20
27.817667
11
18.033144
21
28.264331
0
LINE
8
hole
62
5
39
2
10
18.033144
20
28.264331
11
17.781247
21
28.747170
0
LINE
8
hole
62
5
39
2
10
17.781247
20
28.747170
11
17.593162
21
29.258257
0
LINE
8
hole
62
5
39
2
10
17.593162
20
29.258257
11
17.471978
21
29.789200
0
LINE
8
hole
62
5
39
2
10
17.471978
20
29.789200
11
17.419684
21
30.331280
0
LINE
8
hole
62
5
39
2
10
17.419684
20
30.331280
11
17.437139
21
30.875597
0
LINE
8
hole
62
5
39
2
10
17.437139
20
30.875597
11
17.524057
21
31.413213
0
LINE
8
hole
62
5
39
2
10
17.524057
20
31.413213
11
17.679010
21
31.935301
0
LINE
8
hole
62
5
39
2
10
17.679010
20
31.935301
11
17.899454
21
32.433287
0
LINE
8
hole
62
5
39
2
10
17.899454
20
32.433287
11
18.181768
21
32.898995
0
LINE
8
hole
62
5
39
2
10
18.181768
20
32.898995
11
18.521319
21
33.324778
0
LINE
8
hole
62
5
39
2
10
18.521319
20
33.324778
11
18.912530
21
33.703645
0
LINE
8
hole
62
5
39
2
10
18.912530
20
33.703645
11
19.348977
21
34.029373
0
LINE
8
hole
62
5
39
2
10
19.348977
20
34.029373
11
19.823494
21
34.296617
0
LINE
8
hole
62
5
39
2
10
19.823494
20
34.296617
11
20.328290
21
34.500986
0
LINE
8
hole
62
5
39
2
10
20.328290
20
34.500986
11
20.855076
21
34.639126
0
LINE
8
hole
62
5
39
2
10
20.855076
20
34.639126
11
21.395202
21
34.708767
0
LINE
8
hole
62
5
39
2
10
21.395202
20
34.708767
11
21.939799
21
34.708767
0
LINE
8
hole
62
5
39
2
10
21.939799
20
34.708767
11
22.479925
21
34.639126
0
LINE
8
hole
62
5
39
2
10
22.479925
20
34.639126
11
23.006710
21
34.500986
0
LINE
8
hole
62
5
39
2
10
23.006710
20
34.500986
11
23.511506
21
34.296617
0
LINE
8
hole
62
5
39
2
10
23.511506
20
34.296617
11
23.986024
21
34.029373
0
LINE
8
hole
62
5
39
2
10
23.986024
20
34.029373
11
24.422471
21
33.703645
0
LINE
8
hole
62
5
39
2
10
24.422471
20
33.703645
11
24.813682
21
33.324778
0
LINE
8
hole
62
5
39
2
10
24.813682
20
33.324778
11
25.153233
21
32.898995
0
LINE
8
hole
62
5
39
2
10
25.153233
20
32.898995
11
25.435547
21
32.433287
0
LINE
8
hole
62
5
39
2
10
25.435547
20
32.433287
11
25.655991
21
31.935301
0
LINE
8
hole
62
5
39
2
10
25.655991
20
31.935301
11
25.810944
21
31.413213
0
LINE
8
hole
62
5
39
2
10
25.810944
20
31.413213
11
25.897862
21
30.875597
0
LINE
8
hole
62
5
39
2
10
25.897862
20
30.875597
11
25.915317
21
30.331280
0
LINE
8
hole
62
5
39
2
10
25.915317
20
30.331280
11
25.863023
21
29.789200
0
LINE
8
hole
62
5
39
2
10
25.863023
20
29.789200
11
25.741839
21
29.258257
0
LINE
8
hole
62
5
39
2
10
25.741839
20
29.258257
11
25.553754
21
28.747170
0
LINE
8
hole
62
5
39
2
10
25.553754
20
28.747170
11
25.301857
21
28.264331
0
LINE
8
hole
62
5
39
2
10
25.301857
20
28.264331
11
24.990284
21
27.817667
0
LINE
8
hole
62
5
39
2
10
24.990284
20
27.817667
11
24.624151
21
27.414514
0
LINE
8
hole
62
5
39
2
10
24.624151
20
27.414514
11
24.209470
21
27.061491
0
LINE
8
hole
62
5
39
2
10
24.209470
20
27.061491
11
23.753050
21
26.764395
0
LINE
8
hole
62
5
39
2
10
23.753050
20
26.764395
11
23.262385
21
26.528103
0
LINE
8
hole
62
5
39
2
10
23.262385
20
26.528103
11
22.745532
21
26.356496
0
LINE
8
hole
62
5
39
2
10
22.745532
20
26.356496
11
22.210978
21
26.252392
0
LINE
8
hole
62
5
39
2
10
22.210978
20
26.252392
11
21.667500
21
26.217499
0
LINE
8
hole
62
5
39
2
10
21.667500
20
26.217499
11
21.124023
21
26.252392
0
LINE
8
boundary
62
5
39
2
10
9.667500
20
12.094968
11
9.667500
21
11.416933
0
LINE
8
boundary
62
5
39
2
10
9.667500
20
11.416933
11
9.667500
21
6.667500
0
LINE
8
boundary
62
5
39
2
10
9.667500
20
6.667500
11
12.665740
21
6.667500
0
LINE
8
boundary
62
5
39
2
10
12.665740
20
6.667500
11
33.667501
21
6.667500
0
LINE
8
boundary
62
5
39
2
10
33.667501
20
6.667500
11
33.667501
21
7.345536
0
LINE
8
boundary
62
5
39
2
10
33.667501
20
7.345536
11
33.667501
21
12.094968
0
LINE
8
boundary
62
5
39
2
10
33.667501
20
12.094968
11
33.438395
21
12.630568
0
LINE
8
boundary
62
5
39
2
10
33.438395
20
12.630568
11
33.651742
21
13.196963
0
LINE
8
boundary
62
5
39
2
10
33.651742
20
13.196963
11
34.203101
21
13.446604
0
LINE
8
boundary
62
5
39
2
10
34.203101
20
13.446604
11
34.769496
21
13.233259
0
LINE
8
boundary
62
5
39
2
10
34.769496
20
13.233259
11
36.667501
21
13.217500
0
LINE
8
boundary
62
5
39
2
10
36.667501
20
13.217500
11
36.667501
21
13.967060
0
LINE
8
boundary
62
5
39
2
10
36.667501
20
13.967060
11
36.667501
21
19.217499
0
LINE
8
boundary
62
5
39
2
10
36.667501
20
19.217499
11
34.790033
21
19.217499
0
LINE
8
boundary
62
5
39
2
10
34.790033
20
19.217499
11
34.254431
21
18.988395
0
LINE
8
boundary
62
5
39
2
10
34.254431
20
18.988395
11
33.688038
21
19.201741
0
LINE
8
boundary
62
5
39
2
10
33.688038
20
19.201741
11
33.438395
21
19.753101
0
LINE
8
boundary
62
5
39
2
10
33.438395
20
19.753101
11
33.651742
21
20.319494
0
LINE
8
boundary
62
5
39
2
10
33.651742
20
20.319494
11
33.667501
21
21.090208
0
LINE
8
boundary
62
5
39
2
10
33.667501
20
21.090208
11
33.667501
21
26.344968
0
LINE
8
boundary
62
5
39
2
10
33.667501
20
26.344968
11
33.438395
21
26.880569
0
LINE
8
boundary
62
5
39
2
10
33.438395
20
26.880569
11
33.651742
21
27.446962
0
LINE
8
boundary
62
5
39
2
10
33.651742
20
27.446962
11
34.203101
21
27.696604
0
LINE
8
boundary
62
5
39
2
10
34.203101
20
27.696604
11
34.769496
21
27.483258
0
LINE
8
boundary
62
5
39
2
10
34.769496
20
27.483258
11
36.667501
21
27.467499
0
LINE
8
boundary
62
5
39
2
10
36.667501
20
27.467499
11
36.667501
21
28.217059
0
LINE
8
boundary
62
5
39
2
10
36.667501
20
28.217059
11
36.667501
21
33.467499
0
LINE
8
boundary
62
5
39
2
10
36.667501
20
33.467499
11
34.790032
21
33.467499
0
LINE
8
boundary
62
5
39
2
10
34.790032
20
33.467499
11
34.254431
21
33.238394
0
LINE
8
boundary
62
5
39
2
10
34.254431
20
33.238394
11
33.688038
21
33.451741
0
LINE
8
boundary
62
5
39
2
10
33.688038
20
33.451741
11
33.438395
21
34.003101
0
LINE
8
boundary
62
5
39
2
10
33.438395
20
34.003101
11
33.651742
21
34.569494
0
LINE
8
boundary
62
5
39
2
10
33.651742
20
34.569494
11
33.667501
21
35.340208
0
LINE
8
boundary
62
5
39
2
10
33.667501
20
35.340208
11
33.667501
21
40.594967
0
LINE
8
boundary
62
5
39
2
10
33.667501
20
40.594967
11
33.438395
21
41.130569
0
LINE
8
boundary
62
5
39
2
10
33.438395
20
41.130569
11
33.651742
21
41.696962
0
LINE
8
boundary
62
5
39
2
10
33.651742
20
41.696962
11
34.203101
21
41.946604
0
LINE
8
boundary
62
5
39
2
10
34.203101
20
41.946604
11
34.769496
21
41.733258
0
LINE
8
boundary
62
5
39
2
10
34.769496
20
41.733258
11
36.667501
21
41.717499
0
LINE
8
boundary
62
5
39
2
10
36.667501
20
41.717499
11
36.667501
21
42.467059
0
LINE
8
boundary
62
5
39
2
10
36.667501
20
42.467059
11
36.667501
21
47.717499
0
LINE
8
boundary
62
5
39
2
10
36.667501
20
47.717499
11
34.790032
21
47.717499
0
LINE
8
boundary
62
5
39
2
10
34.790032
20
47.717499
11
34.254431
21
47.488394
0
LINE
8
boundary
62
5
39
2
10
34.254431
20
47.488394
11
33.688038
21
47.701740
0
LINE
8
boundary
62
5
39
2
10
33.688038
20
47.701740
11
33.438395
21
48.253101
0
LINE
8
boundary
62
5
39
2
10
33.438395
20
48.253101
11
33.651742
21
48.819494
0
LINE
8
boundary
62
5
39
2
10
33.651742
20
48.819494
11
33.667501
21
50.467499
0
LINE
8
boundary
62
5
39
2
10
33.667501
20
50.467499
11
33.667501
21
54.267499
0
LINE
8
boundary
62
5
39
2
10
33.667501
20
54.267499
11
30.669261
21
54.267499
0
LINE
8
boundary
62
5
39
2
10
30.669261
20
54.267499
11
9.667502
21
54.267498
0
LINE
8
boundary
62
5
39
2
10
9.667502
20
54.267498
11
9.667500
21
50.467499
0
LINE
8
boundary
62
5
39
2
10
9.667500
20
50.467499
11
9.667500
21
48.840030
0
LINE
8
boundary
62
5
39
2
10
9.667500
20
48.840030
11
9.896605
21
48.304430
0
LINE
8
boundary
62
5
39
2
10
9.896605
20
48.304430
11
9.683259
21
47.738035
0
LINE
8
boundary
62
5
39
2
10
9.683259
20
47.738035
11
9.131900
21
47.488394
0
LINE
8
boundary
62
5
39
2
10
9.131900
20
47.488394
11
8.565505
21
47.701740
0
LINE
8
boundary
62
5
39
2
10
8.565505
20
47.701740
11
6.667500
21
47.717499
0
LINE
8
boundary
62
5
39
2
10
6.667500
20
47.717499
11
6.667500
21
46.967939
0
LINE
8
boundary
62
5
39
2
10
6.667500
20
46.967939
11
6.667500
21
41.717499
0
LINE
8
boundary
62
5
39
2
10
6.667500
20
41.717499
11
8.853717
21
41.717499
0
LINE
8
boundary
62
5
39
2
10
8.853717
20
41.717499
11
24.167500
21
41.717499
0
LINE
8
boundary
62
5
39
2
10
24.167500
20
41.717499
11
24.837197
21
41.584288
0
LINE
8
boundary
62
5
39
2
10
24.837197
20
41.584288
11
25.404937
21
41.204937
0
LINE
8
boundary
62
5
39
2
10
25.404937
20
41.204937
11
25.784290
21
40.637195
0
LINE
8
boundary
62
5
39
2
10
25.784290
20
40.637195
11
25.917500
21
39.967499
0
LINE
8
boundary
62
5
39
2
10
25.917500
20
39.967499
11
25.784290
21
39.297803
0
LINE
8
boundary
62
5
39
2
10
25.784290
20
39.297803
11
25.404937
21
38.730062
0
LINE
8
boundary
62
5
39
2
10
25.404937
20
38.730062
11
24.837197
21
38.350710
0
LINE
8
boundary
62
5
39
2
10
24.837197
20
38.350710
11
24.167500
21
38.217499
0
LINE
8
boundary
62
5
39
2
10
24.167500
20
38.217499
11
22.356064
21
38.217499
0
LINE
8
boundary
62
5
39
2
10
22.356064
20
38.217499
11
9.667500
21
38.217499
0
LINE
8
boundary
62
5
39
2
10
9.667500
20
38.217499
11
9.667500
21
34.590031
0
LINE
8
boundary
62
5
39
2
10
9.667500
20
34.590031
11
9.896605
21
34.054430
0
LINE
8
boundary
62
5
39
2
10
9.896605
20
34.054430
11
9.683259
21
33.488036
0
LINE
8
boundary
62
5
39
2
10
9.683259
20
33.488036
11
9.131900
21
33.238394
0
LINE
8
boundary
62
5
39
2
10
9.131900
20
33.238394
11
8.565505
21
33.451741
0
LINE
8
boundary
62
5
39
2
10
8.565505
20
33.451741
11
6.667500
21
33.467499
0
LINE
8
boundary
62
5
39
2
10
6.667500
20
33.467499
11
6.667500
21
32.717939
0
LINE
8
boundary
62
5
39
2
10
6.667500
20
32.717939
11
6.667500
21
27.467499
0
LINE
8
boundary
62
5
39
2
10
6.667500
20
27.467499
11
8.544968
21
27.467499
0
LINE
8
boundary
62
5
39
2
10
8.544968
20
27.467499
11
9.080570
21
27.696604
0
LINE
8
boundary
62
5
39
2
10
9.080570
20
27.696604
11
9.646963
21
27.483258
0
LINE
8
boundary
62
5
39
2
10
9.646963
20
27.483258
11
9.896605
21
26.931898
0
LINE
8
boundary
62
5
39
2
10
9.896605
20
26.931898
11
9.683258
21
26.365504
0
LINE
8
boundary
62
5
39
2
10
9.683258
20
26.365504
11
9.667500
21
22.717500
0
LINE
8
boundary
62
5
39
2
10
9.667500
20
22.717500
11
11.478937
21
22.717500
0
LINE
8
boundary
62
5
39
2
10
11.478937
20
22.717500
11
24.167500
21
22.717500
0
LINE
8
boundary
62
5
39
2
10
24.167500
20
22.717500
11
24.837197
21
22.584288
0
LINE
8
boundary
62
5
39
2
10
24.837197
20
22.584288
11
25.404937
21
22.204937
0
LINE
8
boundary
62
5
39
2
10
25.404937
20
22.204937
11
25.784290
21
21.637196
0
LINE
8
boundary
62
5
39
2
10
25.784290
20
21.637196
11
25.917500
21
20.967499
0
LINE
8
boundary
62
5
39
2
10
25.917500
20
20.967499
11
25.784290
21
20.297804
0
LINE
8
boundary
62
5
39
2
10
25.784290
20
20.297804
11
25.404937
21
19.730062
0
LINE
8
boundary
62
5
39
2
10
25.404937
20
19.730062
11
24.837197
21
19.350710
0
LINE
8
boundary
62
5
39
2
10
24.837197
20
19.350710
11
24.167500
21
19.217499
0
LINE
8
boundary
62
5
39
2
10
24.167500
20
19.217499
11
21.981283
21
19.217499
0
LINE
8
boundary
62
5
39
2
10
21.981283
20
19.217499
11
6.667500
21
19.217499
0
LINE
8
boundary
62
5
39
2
10
6.667500
20
19.217499
11
6.667500
21
18.467939
0
LINE
8
boundary
62
5
39
2
10
6.667500
20
18.467939
11
6.667500
21
13.217500
0
LINE
8
boundary
62
5
39
2
10
6.667500
20
13.217500
11
8.544968
21
13.217500
0
LINE
8
boundary
62
5
39
2
10
8.544968
20
13.217500
11
9.080570
21
13.446604
0
LINE
8
boundary
62
5
39
2
10
9.080570
20
13.446604
11
9.646963
21
13.233259
0
LINE
8
boundary
62
5
39
2
10
9.646963
20
13.233259
11
9.896605
21
12.681898
0
LINE
8
boundary
62
5
39
2
10
9.896605
20
12.681898
11
9.683259
21
12.115505
0
LINE
8
boundary
62
5
39
2
10
9.683259
20
12.115505
11
9.667500
21
12.094968
0
LINE
8
annotation
62
1
39
211
10
31.389769
20
19.441047
11
31.389769
21
40.006303
0
LINE
8
annotation
62
1
39
211
10
31.389769
20
40.006303
11
26.817850
21
35.433093
0
LINE
8
frame
62
5
39
2
10
0.000000
20
0.000000
11
210.058000
21
0.000000
0
LINE
8
frame
62
5
39
2
10
210.058000
20
0.000000
11
210.058000
21
296.926000
0
LINE
8
frame
62
5
39
2
10
210.058000
20
296.926000
11
0.000000
21
296.926000
0
LINE
8
frame
62
5
39
2
10
0.000000
20
296.926000
11
0.000000
21
0.000000
0
ENDSEC
0
EOF
