0
SECTION
2
HEADER
9
$ACADVER
1
AC1009
0
ENDSEC
0
SECTION
2
TABLES
0
TABLE
2
VPORT
70
1
0
VPORT
2
ACTIVE
70
0
10
0.0
20
0.0
11
0.0
21
0.0
12
0.0
22
0.0
13
0.0
23
0.0
14
0.0
24
0.0
15
0.0
25
0.0
16
0.0
26
0.0
36
0.0
17
0.0
27
0.0
37
0.0
40
0.0
41
0.0
42
0.0
43
0.0
44
0.0
50
0.0
51
0.0
71
0
72
1000
73
1
74
3
75
0
76
0
77
0
78
0
0
ENDTAB
0
ENDSEC
0
SECTION
2
ENTITIES
0
LINE
8
hole
62
5
39
2
10
20.165950
20
26.491591
11
19.643486
21
26.731784
0
LINE
8
hole
62
5
39
2
10
19.643486
20
26.731784
11
19.126847
21
27.062020
0
LINE
8
hole
62
5
39
2
10
19.126847
20
27.062020
11
18.663122
21
27.463183
0
LINE
8
hole
62
5
39
2
10
18.663122
20
27.463183
11
18.261969
21
27.926917
0
LINE
8
hole
62
5
39
2
10
18.261969
20
27.926917
11
17.931742
21
28.443563
0
LINE
8
hole
62
5
39
2
10
17.931742
20
28.443563
11
17.679321
21
29.002362
0
LINE
8
hole
62
5
39
2
10
17.679321
20
29.002362
11
17.509961
21
29.591675
0
LINE
8
hole
62
5
39
2
10
17.509961
20
29.591675
11
17.427190
21
30.199229
0
LINE
8
hole
62
5
39
2
10
17.427190
20
30.199229
11
17.432732
21
30.812370
0
LINE
8
hole
62
5
39
2
10
17.432732
20
30.812370
11
17.526470
21
31.418328
0
LINE
8
hole
62
5
39
2
10
17.526470
20
31.418328
11
17.706455
21
32.004484
0
LINE
8
hole
62
5
39
2
10
17.706455
20
32.004484
11
17.968936
21
32.558629
0
LINE
8
hole
62
5
39
2
10
17.968936
20
32.558629
11
18.308446
21
33.069222
0
LINE
8
hole
62
5
39
2
10
18.308446
20
33.069222
11
18.717915
21
33.525629
0
LINE
8
hole
62
5
39
2
10
18.717915
20
33.525629
11
19.188816
21
33.918344
0
LINE
8
hole
62
5
39
2
10
19.188816
20
33.918344
11
19.711340
21
34.239189
0
LINE
8
hole
62
5
39
2
10
19.711340
20
34.239189
11
20.274605
21
34.481481
0
LINE
8
hole
62
5
39
2
10
20.274605
20
34.481481
11
20.866880
21
34.640173
0
LINE
8
hole
62
5
39
2
10
20.866880
20
34.640173
11
21.475829
21
34.711962
0
LINE
8
hole
62
5
39
2
10
21.475829
20
34.711962
11
22.088770
21
34.695352
0
LINE
8
hole
62
5
39
2
10
22.088770
20
34.695352
11
22.692937
21
34.590688
0
LINE
8
hole
62
5
39
2
10
22.692937
20
34.590688
11
23.275748
21
34.400150
0
LINE
8
hole
62
5
39
2
10
23.275748
20
34.400150
11
23.825064
21
34.127708
0
LINE
8
hole
62
5
39
2
10
23.825064
20
34.127708
11
24.329444
21
33.779034
0
LINE
8
hole
62
5
39
2
10
24.329444
20
33.779034
11
24.778384
21
33.361391
0
LINE
8
hole
62
5
39
2
10
24.778384
20
33.361391
11
25.162533
21
32.883477
0
LINE
8
hole
62
5
39
2
10
25.162533
20
32.883477
11
25.473892
21
32.355246
0
LINE
8
hole
62
5
39
2
10
25.473892
20
32.355246
11
25.705975
21
31.787699
0
LINE
8
hole
62
5
39
2
10
25.705975
20
31.787699
11
25.853949
21
31.192655
0
LINE
8
hole
62
5
39
2
10
25.853949
20
31.192655
11
25.914732
21
30.582509
0
LINE
8
hole
62
5
39
2
10
25.914732
20
30.582509
11
25.887058
21
29.969968
0
LINE
8
hole
62
5
39
2
10
25.887058
20
29.969968
11
25.771504
21
29.367789
0
LINE
8
hole
62
5
39
2
10
25.771504
20
29.367789
11
25.570475
21
28.788513
0
LINE
8
hole
62
5
39
2
10
25.570475
20
28.788513
11
25.288160
21
28.244206
0
LINE
8
hole
62
5
39
2
10
25.288160
20
28.244206
11
24.930437
21
27.746203
0
LINE
8
hole
62
5
39
2
10
24.930437
20
27.746203
11
24.504757
21
27.304876
0
LINE
8
hole
62
5
39
2
10
24.504757
20
27.304876
11
24.019985
21
26.929418
0
LINE
8
hole
62
5
39
2
10
24.019985
20
26.929418
11
23.486219
21
26.627646
0
LINE
8
hole
62
5
39
2
10
23.486219
20
26.627646
11
22.914573
21
26.405848
0
LINE
8
hole
62
5
39
2
10
22.914573
20
26.405848
11
22.316956
21
26.268641
0
LINE
8
hole
62
5
39
2
10
22.316956
20
26.268641
11
21.705812
21
26.218883
0
LINE
8
hole
62
5
39
2
10
21.705812
20
26.218883
11
21.093870
21
26.257612
0
LINE
8
hole
62
5
39
2
10
21.093870
20
26.257612
11
20.493875
21
26.384019
0
LINE
8
hole
62
5
39
2
10
20.493875
20
26.384019
11
20.165950
21
26.491591
0
LINE
8
hole
62
5
39
2
10
13.138721
20
45.990886
11
12.672458
21
46.460912
0
LINE
8
hole
62
5
39
2
10
12.672458
20
46.460912
11
12.336320
21
47.064394
0
LINE
8
hole
62
5
39
2
10
12.336320
20
47.064394
11
12.178165
21
47.736829
0
LINE
8
hole
62
5
39
2
10
12.178165
20
47.736829
11
12.210068
21
48.426873
0
LINE
8
hole
62
5
39
2
10
12.210068
20
48.426873
11
12.429592
21
49.081846
0
LINE
8
hole
62
5
39
2
10
12.429592
20
49.081846
11
12.819978
21
49.651737
0
LINE
8
hole
62
5
39
2
10
12.819978
20
49.651737
11
13.351420
21
50.093044
0
LINE
8
hole
62
5
39
2
10
13.351420
20
50.093044
11
13.983343
21
50.372063
0
LINE
8
hole
62
5
39
2
10
13.983343
20
50.372063
11
14.667500
21
50.467499
0
LINE
8
hole
62
5
39
2
10
14.667500
20
50.467499
11
16.416474
21
50.467499
0
LINE
8
hole
62
5
39
2
10
16.416474
20
50.467499
11
28.667501
21
50.467499
0
LINE
8
hole
62
5
39
2
10
28.667501
20
50.467499
11
29.351658
21
50.372063
0
LINE
8
hole
62
5
39
2
10
29.351658
20
50.372063
11
29.983582
21
50.093044
0
LINE
8
hole
62
5
39
2
10
29.983582
20
50.093044
11
30.494625
21
49.672136
0
LINE
8
hole
62
5
39
2
10
30.494625
20
49.672136
11
30.807080
21
49.258377
0
LINE
8
hole
62
5
39
2
10
30.807080
20
49.258377
11
31.072064
21
48.651658
0
LINE
8
hole
62
5
39
2
10
31.072064
20
48.651658
11
31.167500
21
47.967500
0
LINE
8
hole
62
5
39
2
10
31.167500
20
47.967500
11
31.072064
21
47.283341
0
LINE
8
hole
62
5
39
2
10
31.072064
20
47.283341
11
30.793043
21
46.651419
0
LINE
8
hole
62
5
39
2
10
30.793043
20
46.651419
11
30.351740
21
46.119978
0
LINE
8
hole
62
5
39
2
10
30.351740
20
46.119978
11
29.781847
21
45.729592
0
LINE
8
hole
62
5
39
2
10
29.781847
20
45.729592
11
29.126874
21
45.510068
0
LINE
8
hole
62
5
39
2
10
29.126874
20
45.510068
11
26.918527
21
45.467500
0
LINE
8
hole
62
5
39
2
10
26.918527
20
45.467500
11
14.667500
21
45.467500
0
LINE
8
hole
62
5
39
2
10
14.667500
20
45.467500
11
13.983343
21
45.562935
0
LINE
8
hole
62
5
39
2
10
13.983343
20
45.562935
11
13.351420
21
45.841956
0
LINE
8
hole
62
5
39
2
10
13.351420
20
45.841956
11
13.138721
21
45.990886
0
LINE
8
hole
62
5
39
2
10
13.160915
20
10.972456
11
12.672458
21
11.460914
0
LINE
8
hole
62
5
39
2
10
12.672458
20
11.460914
11
12.336320
21
12.064394
0
LINE
8
hole
62
5
39
2
10
12.336320
20
12.064394
11
12.178166
21
12.736829
0
LINE
8
hole
62
5
39
2
10
12.178166
20
12.736829
11
12.210068
21
13.426873
0
LINE
8
hole
62
5
39
2
10
12.210068
20
13.426873
11
12.429592
21
14.081846
0
LINE
8
hole
62
5
39
2
10
12.429592
20
14.081846
11
12.819978
21
14.651739
0
LINE
8
hole
62
5
39
2
10
12.819978
20
14.651739
11
13.351420
21
15.093043
0
LINE
8
hole
62
5
39
2
10
13.351420
20
15.093043
11
13.983343
21
15.372064
0
LINE
8
hole
62
5
39
2
10
13.983343
20
15.372064
11
14.667500
21
15.467499
0
LINE
8
hole
62
5
39
2
10
14.667500
20
15.467499
11
16.416474
21
15.467499
0
LINE
8
hole
62
5
39
2
10
16.416474
20
15.467499
11
28.667501
21
15.467499
0
LINE
8
hole
62
5
39
2
10
28.667501
20
15.467499
11
29.351659
21
15.372063
0
LINE
8
hole
62
5
39
2
10
29.351659
20
15.372063
11
29.983582
21
15.093043
0
LINE
8
hole
62
5
39
2
10
29.983582
20
15.093043
11
30.494625
21
14.672137
0
LINE
8
hole
62
5
39
2
10
30.494625
20
14.672137
11
30.807080
21
14.258377
0
LINE
8
hole
62
5
39
2
10
30.807080
20
14.258377
11
31.072064
21
13.651658
0
LINE
8
hole
62
5
39
2
10
31.072064
20
13.651658
11
31.167500
21
12.967499
0
LINE
8
hole
62
5
39
2
10
31.167500
20
12.967499
11
31.072064
21
12.283341
0
LINE
8
hole
62
5
39
2
10
31.072064
20
12.283341
11
30.793043
21
11.651419
0
LINE
8
hole
62
5
39
2
10
30.793043
20
11.651419
11
30.351740
21
11.119976
0
LINE
8
hole
62
5
39
2
10
30.351740
20
11.119976
11
29.781847
21
10.729592
0
LINE
8
hole
62
5
39
2
10
29.781847
20
10.729592
11
29.126874
21
10.510066
0
LINE
8
hole
62
5
39
2
10
29.126874
20
10.510066
11
26.918527
21
10.467500
0
LINE
8
hole
62
5
39
2
10
26.918527
20
10.467500
11
14.667500
21
10.467500
0
LINE
8
hole
62
5
39
2
10
14.667500
20
10.467500
11
13.983343
21
10.562935
0
LINE
8
hole
62
5
39
2
10
13.983343
20
10.562935
11
13.351420
21
10.841955
0
LINE
8
hole
62
5
39
2
10
13.351420
20
10.841955
11
13.160915
21
10.972456
0
LINE
8
boundary
62
5
39
2
10
9.741642
20
12.182507
11
9.667500
21
11.416933
0
LINE
8
boundary
62
5
39
2
10
9.667500
20
11.416933
11
9.667500
21
6.667500
0
LINE
8
boundary
62
5
39
2
10
9.667500
20
6.667500
11
12.665740
21
6.667500
0
LINE
8
boundary
62
5
39
2
10
12.665740
20
6.667500
11
33.667501
21
6.667500
0
LINE
8
boundary
62
5
39
2
10
33.667501
20
6.667500
11
33.667501
21
7.345536
0
LINE
8
boundary
62
5
39
2
10
33.667501
20
7.345536
11
33.667501
21
12.094968
0
LINE
8
boundary
62
5
39
2
10
33.667501
20
12.094968
11
33.441112
21
12.558052
0
LINE
8
boundary
62
5
39
2
10
33.441112
20
12.558052
11
33.546892
21
13.062543
0
LINE
8
boundary
62
5
39
2
10
33.546892
20
13.062543
11
33.940232
21
13.395684
0
LINE
8
boundary
62
5
39
2
10
33.940232
20
13.395684
11
34.455251
21
13.416985
0
LINE
8
boundary
62
5
39
2
10
34.455251
20
13.416985
11
35.024578
21
13.217500
0
LINE
8
boundary
62
5
39
2
10
35.024578
20
13.217500
11
36.667501
21
13.217500
0
LINE
8
boundary
62
5
39
2
10
36.667501
20
13.217500
11
36.667501
21
13.967060
0
LINE
8
boundary
62
5
39
2
10
36.667501
20
13.967060
11
36.667501
21
19.217499
0
LINE
8
boundary
62
5
39
2
10
36.667501
20
19.217499
11
34.790032
21
19.217499
0
LINE
8
boundary
62
5
39
2
10
34.790032
20
19.217499
11
34.326947
21
18.991111
0
LINE
8
boundary
62
5
39
2
10
34.326947
20
18.991111
11
33.822457
21
19.096891
0
LINE
8
boundary
62
5
39
2
10
33.822457
20
19.096891
11
33.489316
21
19.490231
0
LINE
8
boundary
62
5
39
2
10
33.489316
20
19.490231
11
33.468014
21
20.005250
0
LINE
8
boundary
62
5
39
2
10
33.468014
20
20.005250
11
33.667501
21
21.090208
0
LINE
8
boundary
62
5
39
2
10
33.667501
20
21.090208
11
33.667501
21
26.344967
0
LINE
8
boundary
62
5
39
2
10
33.667501
20
26.344967
11
33.441112
21
26.808052
0
LINE
8
boundary
62
5
39
2
10
33.441112
20
26.808052
11
33.546892
21
27.312542
0
LINE
8
boundary
62
5
39
2
10
33.546892
20
27.312542
11
33.940232
21
27.645684
0
LINE
8
boundary
62
5
39
2
10
33.940232
20
27.645684
11
34.455251
21
27.666985
0
LINE
8
boundary
62
5
39
2
10
34.455251
20
27.666985
11
35.024578
21
27.467499
0
LINE
8
boundary
62
5
39
2
10
35.024578
20
27.467499
11
36.667501
21
27.467499
0
LINE
8
boundary
62
5
39
2
10
36.667501
20
27.467499
11
36.667501
21
28.217059
0
LINE
8
boundary
62
5
39
2
10
36.667501
20
28.217059
11
36.667501
21
33.467499
0
LINE
8
boundary
62
5
39
2
10
36.667501
20
33.467499
11
34.790032
21
33.467499
0
LINE
8
boundary
62
5
39
2
10
34.790032
20
33.467499
11
34.326947
21
33.241111
0
LINE
8
boundary
62
5
39
2
10
34.326947
20
33.241111
11
33.822457
21
33.346891
0
LINE
8
boundary
62
5
39
2
10
33.822457
20
33.346891
11
33.489315
21
33.740231
0
LINE
8
boundary
62
5
39
2
10
33.489315
20
33.740231
11
33.468014
21
34.255251
0
LINE
8
boundary
62
5
39
2
10
33.468014
20
34.255251
11
33.667501
21
35.340208
0
LINE
8
boundary
62
5
39
2
10
33.667501
20
35.340208
11
33.667501
21
40.594968
0
LINE
8
boundary
62
5
39
2
10
33.667501
20
40.594968
11
33.441112
21
41.058052
0
LINE
8
boundary
62
5
39
2
10
33.441112
20
41.058052
11
33.546892
21
41.562543
0
LINE
8
boundary
62
5
39
2
10
33.546892
20
41.562543
11
33.940232
21
41.895684
0
LINE
8
boundary
62
5
39
2
10
33.940232
20
41.895684
11
34.455251
21
41.916985
0
LINE
8
boundary
62
5
39
2
10
34.455251
20
41.916985
11
35.024578
21
41.717499
0
LINE
8
boundary
62
5
39
2
10
35.024578
20
41.717499
11
36.667501
21
41.717499
0
LINE
8
boundary
62
5
39
2
10
36.667501
20
41.717499
11
36.667501
21
42.467059
0
LINE
8
boundary
62
5
39
2
10
36.667501
20
42.467059
11
36.667501
21
47.717499
0
LINE
8
boundary
62
5
39
2
10
36.667501
20
47.717499
11
34.790032
21
47.717499
0
LINE
8
boundary
62
5
39
2
10
34.790032
20
47.717499
11
34.326947
21
47.491110
0
LINE
8
boundary
62
5
39
2
10
34.326947
20
47.491110
11
33.822457
21
47.596892
0
LINE
8
boundary
62
5
39
2
10
33.822457
20
47.596892
11
33.489316
21
47.990231
0
LINE
8
boundary
62
5
39
2
10
33.489316
20
47.990231
11
33.468014
21
48.505252
0
LINE
8
boundary
62
5
39
2
10
33.468014
20
48.505252
11
33.667501
21
49.043345
0
LINE
8
boundary
62
5
39
2
10
33.667501
20
49.043345
11
33.667501
21
50.467499
0
LINE
8
boundary
62
5
39
2
10
33.667501
20
50.467499
11
33.667501
21
54.267499
0
LINE
8
boundary
62
5
39
2
10
33.667501
20
54.267499
11
30.669261
21
54.267499
0
LINE
8
boundary
62
5
39
2
10
30.669261
20
54.267499
11
9.667502
21
54.267498
0
LINE
8
boundary
62
5
39
2
10
9.667502
20
54.267498
11
9.667500
21
50.467499
0
LINE
8
boundary
62
5
39
2
10
9.667500
20
50.467499
11
9.667500
21
48.840030
0
LINE
8
boundary
62
5
39
2
10
9.667500
20
48.840030
11
9.893889
21
48.376947
0
LINE
8
boundary
62
5
39
2
10
9.893889
20
48.376947
11
9.788109
21
47.872455
0
LINE
8
boundary
62
5
39
2
10
9.788109
20
47.872455
11
9.394769
21
47.539315
0
LINE
8
boundary
62
5
39
2
10
9.394769
20
47.539315
11
8.879750
21
47.518013
0
LINE
8
boundary
62
5
39
2
10
8.879750
20
47.518013
11
8.310422
21
47.717499
0
LINE
8
boundary
62
5
39
2
10
8.310422
20
47.717499
11
6.667500
21
47.717499
0
LINE
8
boundary
62
5
39
2
10
6.667500
20
47.717499
11
6.667500
21
46.967939
0
LINE
8
boundary
62
5
39
2
10
6.667500
20
46.967939
11
6.667500
21
41.717499
0
LINE
8
boundary
62
5
39
2
10
6.667500
20
41.717499
11
8.853717
21
41.717499
0
LINE
8
boundary
62
5
39
2
10
8.853717
20
41.717499
11
24.167500
21
41.717499
0
LINE
8
boundary
62
5
39
2
10
24.167500
20
41.717499
11
24.721931
21
41.626082
0
LINE
8
boundary
62
5
39
2
10
24.721931
20
41.626082
11
25.238613
21
41.349891
0
LINE
8
boundary
62
5
39
2
10
25.238613
20
41.349891
11
25.635081
21
40.918550
0
LINE
8
boundary
62
5
39
2
10
25.635081
20
40.918550
11
25.866837
21
40.380470
0
LINE
8
boundary
62
5
39
2
10
25.866837
20
40.380470
11
25.907872
21
39.796039
0
LINE
8
boundary
62
5
39
2
10
25.907872
20
39.796039
11
25.753578
21
39.230853
0
LINE
8
boundary
62
5
39
2
10
25.753578
20
39.230853
11
25.421273
21
38.748342
0
LINE
8
boundary
62
5
39
2
10
25.421273
20
38.748342
11
24.948255
21
38.402663
0
LINE
8
boundary
62
5
39
2
10
24.948255
20
38.402663
11
24.387608
21
38.232609
0
LINE
8
boundary
62
5
39
2
10
24.387608
20
38.232609
11
22.356064
21
38.217499
0
LINE
8
boundary
62
5
39
2
10
22.356064
20
38.217499
11
9.667500
21
38.217499
0
LINE
8
boundary
62
5
39
2
10
9.667500
20
38.217499
11
9.667500
21
34.590031
0
LINE
8
boundary
62
5
39
2
10
9.667500
20
34.590031
11
9.893889
21
34.126946
0
LINE
8
boundary
62
5
39
2
10
9.893889
20
34.126946
11
9.788109
21
33.622457
0
LINE
8
boundary
62
5
39
2
10
9.788109
20
33.622457
11
9.394769
21
33.289315
0
LINE
8
boundary
62
5
39
2
10
9.394769
20
33.289315
11
8.879750
21
33.268013
0
LINE
8
boundary
62
5
39
2
10
8.879750
20
33.268013
11
8.310422
21
33.467499
0
LINE
8
boundary
62
5
39
2
10
8.310422
20
33.467499
11
6.667500
21
33.467499
0
LINE
8
boundary
62
5
39
2
10
6.667500
20
33.467499
11
6.667500
21
32.717939
0
LINE
8
boundary
62
5
39
2
10
6.667500
20
32.717939
11
6.667500
21
27.467499
0
LINE
8
boundary
62
5
39
2
10
6.667500
20
27.467499
11
8.544968
21
27.467499
0
LINE
8
boundary
62
5
39
2
10
8.544968
20
27.467499
11
9.008054
21
27.693888
0
LINE
8
boundary
62
5
39
2
10
9.008054
20
27.693888
11
9.512543
21
27.588107
0
LINE
8
boundary
62
5
39
2
10
9.512543
20
27.588107
11
9.845685
21
27.194768
0
LINE
8
boundary
62
5
39
2
10
9.845685
20
27.194768
11
9.866987
21
26.679748
0
LINE
8
boundary
62
5
39
2
10
9.866987
20
26.679748
11
9.667500
21
25.891800
0
LINE
8
boundary
62
5
39
2
10
9.667500
20
25.891800
11
9.667500
21
22.717500
0
LINE
8
boundary
62
5
39
2
10
9.667500
20
22.717500
11
11.478937
21
22.717500
0
LINE
8
boundary
62
5
39
2
10
11.478937
20
22.717500
11
24.167500
21
22.717500
0
LINE
8
boundary
62
5
39
2
10
24.167500
20
22.717500
11
24.721931
21
22.626082
0
LINE
8
boundary
62
5
39
2
10
24.721931
20
22.626082
11
25.238613
21
22.349892
0
LINE
8
boundary
62
5
39
2
10
25.238613
20
22.349892
11
25.635081
21
21.918550
0
LINE
8
boundary
62
5
39
2
10
25.635081
20
21.918550
11
25.866837
21
21.380469
0
LINE
8
boundary
62
5
39
2
10
25.866837
20
21.380469
11
25.907872
21
20.796039
0
LINE
8
boundary
62
5
39
2
10
25.907872
20
20.796039
11
25.753578
21
20.230853
0
LINE
8
boundary
62
5
39
2
10
25.753578
20
20.230853
11
25.421273
21
19.748342
0
LINE
8
boundary
62
5
39
2
10
25.421273
20
19.748342
11
24.948255
21
19.402663
0
LINE
8
boundary
62
5
39
2
10
24.948255
20
19.402663
11
24.387608
21
19.232609
0
LINE
8
boundary
62
5
39
2
10
24.387608
20
19.232609
11
21.981284
21
19.217499
0
LINE
8
boundary
62
5
39
2
10
21.981284
20
19.217499
11
6.667500
21
19.217499
0
LINE
8
boundary
62
5
39
2
10
6.667500
20
19.217499
11
6.667500
21
18.467939
0
LINE
8
boundary
62
5
39
2
10
6.667500
20
18.467939
11
6.667500
21
13.217500
0
LINE
8
boundary
62
5
39
2
10
6.667500
20
13.217500
11
8.544968
21
13.217500
0
LINE
8
boundary
62
5
39
2
10
8.544968
20
13.217500
11
9.008054
21
13.443888
0
LINE
8
boundary
62
5
39
2
10
9.008054
20
13.443888
11
9.512544
21
13.338106
0
LINE
8
boundary
62
5
39
2
10
9.512544
20
13.338106
11
9.845685
21
12.944768
0
LINE
8
boundary
62
5
39
2
10
9.845685
20
12.944768
11
9.866987
21
12.429747
0
LINE
8
boundary
62
5
39
2
10
9.866987
20
12.429747
11
9.741642
21
12.182507
0
LINE
8
annotation
62
1
39
211
10
30.818763
20
23.499353
11
30.818763
21
38.923295
0
LINE
8
annotation
62
1
39
211
10
30.818763
20
38.923295
11
27.389823
21
35.493387
0
LINE
8
frame
62
5
39
2
10
0.000000
20
0.000000
11
210.058000
21
0.000000
0
LINE
8
frame
62
5
39
2
10
210.058000
20
0.000000
11
210.058000
21
296.926000
0
LINE
8
frame
62
5
39
2
10
210.058000
20
296.926000
11
0.000000
21
296.926000
0
LINE
8
frame
62
5
39
2
10
0.000000
20
296.926000
11
0.000000
21
0.000000
0
ENDSEC
0
EOF
