0
SECTION
2
HEADER
9
$ACADVER
1
AC1009
0
ENDSEC
0
SECTION
2
TABLES
0
TABLE
2
VPORT
70
1
0
VPORT
2
ACTIVE
70
0
10
0.0
20
0.0
11
0.0
21
0.0
12
0.0
22
0.0
13
0.0
23
0.0
14
0.0
24
0.0
15
0.0
25
0.0
16
0.0
26
0.0
36
0.0
17
0.0
27
0.0
37
0.0
40
0.0
41
0.0
42
0.0
43
0.0
44
0.0
50
0.0
51
0.0
71
0
72
1000
73
1
74
3
75
0
76
0
77
0
78
0
0
ENDTAB
0
ENDSEC
0
SECTION
2
ENTITIES
0
LINE
8
hole
62
5
39
2
10
19.989040
20
89.363734
11
19.789216
21
89.846151
0
LINE
8
hole
62
5
39
2
10
19.789216
20
89.846151
11
19.681122
21
90.460266
0
LINE
8
hole
62
5
39
2
10
19.681122
20
90.460266
11
19.735657
21
91.081432
0
LINE
8
hole
62
5
39
2
10
19.735657
20
91.081432
11
19.949103
21
91.667317
0
LINE
8
hole
62
5
39
2
10
19.949103
20
91.667317
11
20.306914
21
92.177995
0
LINE
8
hole
62
5
39
2
10
20.306914
20
92.177995
11
20.784706
21
92.578664
0
LINE
8
hole
62
5
39
2
10
20.784706
20
92.578664
11
21.349919
21
92.842018
0
LINE
8
hole
62
5
39
2
10
21.349919
20
92.842018
11
21.964034
21
92.950111
0
LINE
8
hole
62
5
39
2
10
21.964034
20
92.950111
11
22.585199
21
92.895577
0
LINE
8
hole
62
5
39
2
10
22.585199
20
92.895577
11
23.171085
21
92.682131
0
LINE
8
hole
62
5
39
2
10
23.171085
20
92.682131
11
23.681763
21
92.324319
0
LINE
8
hole
62
5
39
2
10
23.681763
20
92.324319
11
24.082431
21
91.846527
0
LINE
8
hole
62
5
39
2
10
24.082431
20
91.846527
11
24.345786
21
91.281315
0
LINE
8
hole
62
5
39
2
10
24.345786
20
91.281315
11
24.453879
21
90.667200
0
LINE
8
hole
62
5
39
2
10
24.453879
20
90.667200
11
24.399344
21
90.046034
0
LINE
8
hole
62
5
39
2
10
24.399344
20
90.046034
11
24.185898
21
89.460150
0
LINE
8
hole
62
5
39
2
10
24.185898
20
89.460150
11
23.828087
21
88.949471
0
LINE
8
hole
62
5
39
2
10
23.828087
20
88.949471
11
23.350295
21
88.548802
0
LINE
8
hole
62
5
39
2
10
23.350295
20
88.548802
11
22.785082
21
88.285448
0
LINE
8
hole
62
5
39
2
10
22.785082
20
88.285448
11
22.170967
21
88.177355
0
LINE
8
hole
62
5
39
2
10
22.170967
20
88.177355
11
21.549801
21
88.231890
0
LINE
8
hole
62
5
39
2
10
21.549801
20
88.231890
11
20.963916
21
88.445336
0
LINE
8
hole
62
5
39
2
10
20.963916
20
88.445336
11
20.453238
21
88.803147
0
LINE
8
hole
62
5
39
2
10
20.453238
20
88.803147
11
20.052570
21
89.280940
0
LINE
8
hole
62
5
39
2
10
20.052570
20
89.280940
11
19.989040
21
89.363734
0
LINE
8
hole
62
5
39
2
10
20.453238
20
72.803148
11
20.052570
21
73.280940
0
LINE
8
hole
62
5
39
2
10
20.052570
20
73.280940
11
19.789216
21
73.846152
0
LINE
8
hole
62
5
39
2
10
19.789216
20
73.846152
11
19.681122
21
74.460266
0
LINE
8
hole
62
5
39
2
10
19.681122
20
74.460266
11
19.735657
21
75.081433
0
LINE
8
hole
62
5
39
2
10
19.735657
20
75.081433
11
19.949103
21
75.667317
0
LINE
8
hole
62
5
39
2
10
19.949103
20
75.667317
11
20.306914
21
76.177996
0
LINE
8
hole
62
5
39
2
10
20.306914
20
76.177996
11
20.784707
21
76.578664
0
LINE
8
hole
62
5
39
2
10
20.784707
20
76.578664
11
21.349919
21
76.842019
0
LINE
8
hole
62
5
39
2
10
21.349919
20
76.842019
11
21.964034
21
76.950112
0
LINE
8
hole
62
5
39
2
10
21.964034
20
76.950112
11
22.585199
21
76.895577
0
LINE
8
hole
62
5
39
2
10
22.585199
20
76.895577
11
23.171085
21
76.682131
0
LINE
8
hole
62
5
39
2
10
23.171085
20
76.682131
11
23.681763
21
76.324320
0
LINE
8
hole
62
5
39
2
10
23.681763
20
76.324320
11
24.082431
21
75.846527
0
LINE
8
hole
62
5
39
2
10
24.082431
20
75.846527
11
24.345786
21
75.281316
0
LINE
8
hole
62
5
39
2
10
24.345786
20
75.281316
11
24.453879
21
74.667200
0
LINE
8
hole
62
5
39
2
10
24.453879
20
74.667200
11
24.399344
21
74.046035
0
LINE
8
hole
62
5
39
2
10
24.399344
20
74.046035
11
24.185898
21
73.460150
0
LINE
8
hole
62
5
39
2
10
24.185898
20
73.460150
11
23.828087
21
72.949472
0
LINE
8
hole
62
5
39
2
10
23.828087
20
72.949472
11
23.350295
21
72.548803
0
LINE
8
hole
62
5
39
2
10
23.350295
20
72.548803
11
22.785082
21
72.285448
0
LINE
8
hole
62
5
39
2
10
22.785082
20
72.285448
11
22.170967
21
72.177356
0
LINE
8
hole
62
5
39
2
10
22.170967
20
72.177356
11
21.549801
21
72.231890
0
LINE
8
hole
62
5
39
2
10
21.549801
20
72.231890
11
20.963916
21
72.445336
0
LINE
8
hole
62
5
39
2
10
20.963916
20
72.445336
11
20.453238
21
72.803148
0
LINE
8
hole
62
5
39
2
10
20.963916
20
96.445335
11
20.453238
21
96.803147
0
LINE
8
hole
62
5
39
2
10
20.453238
20
96.803147
11
20.052570
21
97.280940
0
LINE
8
hole
62
5
39
2
10
20.052570
20
97.280940
11
19.789216
21
97.846153
0
LINE
8
hole
62
5
39
2
10
19.789216
20
97.846153
11
19.681122
21
98.460267
0
LINE
8
hole
62
5
39
2
10
19.681122
20
98.460267
11
19.735657
21
99.081433
0
LINE
8
hole
62
5
39
2
10
19.735657
20
99.081433
11
19.949103
21
99.667318
0
LINE
8
hole
62
5
39
2
10
19.949103
20
99.667318
11
20.306914
21
100.177994
0
LINE
8
hole
62
5
39
2
10
20.306914
20
100.177994
11
20.784706
21
100.578664
0
LINE
8
hole
62
5
39
2
10
20.784706
20
100.578664
11
21.349919
21
100.842019
0
LINE
8
hole
62
5
39
2
10
21.349919
20
100.842019
11
21.964034
21
100.950111
0
LINE
8
hole
62
5
39
2
10
21.964034
20
100.950111
11
22.585199
21
100.895577
0
LINE
8
hole
62
5
39
2
10
22.585199
20
100.895577
11
23.171085
21
100.682131
0
LINE
8
hole
62
5
39
2
10
23.171085
20
100.682131
11
23.681763
21
100.324318
0
LINE
8
hole
62
5
39
2
10
23.681763
20
100.324318
11
24.082431
21
99.846528
0
LINE
8
hole
62
5
39
2
10
24.082431
20
99.846528
11
24.345786
21
99.281315
0
LINE
8
hole
62
5
39
2
10
24.345786
20
99.281315
11
24.453879
21
98.667200
0
LINE
8
hole
62
5
39
2
10
24.453879
20
98.667200
11
24.399344
21
98.046035
0
LINE
8
hole
62
5
39
2
10
24.399344
20
98.046035
11
24.185898
21
97.460150
0
LINE
8
hole
62
5
39
2
10
24.185898
20
97.460150
11
23.828087
21
96.949471
0
LINE
8
hole
62
5
39
2
10
23.828087
20
96.949471
11
23.350295
21
96.548802
0
LINE
8
hole
62
5
39
2
10
23.350295
20
96.548802
11
22.785082
21
96.285448
0
LINE
8
hole
62
5
39
2
10
22.785082
20
96.285448
11
22.170967
21
96.177356
0
LINE
8
hole
62
5
39
2
10
22.170967
20
96.177356
11
21.549802
21
96.231890
0
LINE
8
hole
62
5
39
2
10
21.549802
20
96.231890
11
20.963916
21
96.445335
0
LINE
8
hole
62
5
39
2
10
20.453239
20
64.803148
11
20.052570
21
65.280939
0
LINE
8
hole
62
5
39
2
10
20.052570
20
65.280939
11
19.789216
21
65.846151
0
LINE
8
hole
62
5
39
2
10
19.789216
20
65.846151
11
19.681122
21
66.460266
0
LINE
8
hole
62
5
39
2
10
19.681122
20
66.460266
11
19.735657
21
67.081432
0
LINE
8
hole
62
5
39
2
10
19.735657
20
67.081432
11
19.949103
21
67.667317
0
LINE
8
hole
62
5
39
2
10
19.949103
20
67.667317
11
20.306914
21
68.177995
0
LINE
8
hole
62
5
39
2
10
20.306914
20
68.177995
11
20.784707
21
68.578665
0
LINE
8
hole
62
5
39
2
10
20.784707
20
68.578665
11
21.349919
21
68.842019
0
LINE
8
hole
62
5
39
2
10
21.349919
20
68.842019
11
21.964034
21
68.950111
0
LINE
8
hole
62
5
39
2
10
21.964034
20
68.950111
11
22.585199
21
68.895577
0
LINE
8
hole
62
5
39
2
10
22.585199
20
68.895577
11
23.171085
21
68.682132
0
LINE
8
hole
62
5
39
2
10
23.171085
20
68.682132
11
23.681763
21
68.324320
0
LINE
8
hole
62
5
39
2
10
23.681763
20
68.324320
11
24.082431
21
67.846527
0
LINE
8
hole
62
5
39
2
10
24.082431
20
67.846527
11
24.345786
21
67.281314
0
LINE
8
hole
62
5
39
2
10
24.345786
20
67.281314
11
24.453879
21
66.667200
0
LINE
8
hole
62
5
39
2
10
24.453879
20
66.667200
11
24.399344
21
66.046034
0
LINE
8
hole
62
5
39
2
10
24.399344
20
66.046034
11
24.185898
21
65.460148
0
LINE
8
hole
62
5
39
2
10
24.185898
20
65.460148
11
23.828087
21
64.949473
0
LINE
8
hole
62
5
39
2
10
23.828087
20
64.949473
11
23.350295
21
64.548802
0
LINE
8
hole
62
5
39
2
10
23.350295
20
64.548802
11
22.785082
21
64.285448
0
LINE
8
hole
62
5
39
2
10
22.785082
20
64.285448
11
22.170967
21
64.177356
0
LINE
8
hole
62
5
39
2
10
22.170967
20
64.177356
11
21.549802
21
64.231890
0
LINE
8
hole
62
5
39
2
10
21.549802
20
64.231890
11
20.963916
21
64.445335
0
LINE
8
hole
62
5
39
2
10
20.963916
20
64.445335
11
20.453239
21
64.803148
0
LINE
8
hole
62
5
39
2
10
29.652570
20
73.280940
11
29.389215
21
73.846152
0
LINE
8
hole
62
5
39
2
10
29.389215
20
73.846152
11
29.281122
21
74.460267
0
LINE
8
hole
62
5
39
2
10
29.281122
20
74.460267
11
29.335656
21
75.081433
0
LINE
8
hole
62
5
39
2
10
29.335656
20
75.081433
11
29.549103
21
75.667317
0
LINE
8
hole
62
5
39
2
10
29.549103
20
75.667317
11
29.906914
21
76.177996
0
LINE
8
hole
62
5
39
2
10
29.906914
20
76.177996
11
30.384706
21
76.578664
0
LINE
8
hole
62
5
39
2
10
30.384706
20
76.578664
11
30.949919
21
76.842019
0
LINE
8
hole
62
5
39
2
10
30.949919
20
76.842019
11
31.564033
21
76.950112
0
LINE
8
hole
62
5
39
2
10
31.564033
20
76.950112
11
32.185199
21
76.895577
0
LINE
8
hole
62
5
39
2
10
32.185199
20
76.895577
11
32.771085
21
76.682131
0
LINE
8
hole
62
5
39
2
10
32.771085
20
76.682131
11
33.281763
21
76.324320
0
LINE
8
hole
62
5
39
2
10
33.281763
20
76.324320
11
33.682432
21
75.846527
0
LINE
8
hole
62
5
39
2
10
33.682432
20
75.846527
11
33.945786
21
75.281315
0
LINE
8
hole
62
5
39
2
10
33.945786
20
75.281315
11
34.053878
21
74.667200
0
LINE
8
hole
62
5
39
2
10
34.053878
20
74.667200
11
33.999344
21
74.046035
0
LINE
8
hole
62
5
39
2
10
33.999344
20
74.046035
11
33.785899
21
73.460150
0
LINE
8
hole
62
5
39
2
10
33.785899
20
73.460150
11
33.428087
21
72.949472
0
LINE
8
hole
62
5
39
2
10
33.428087
20
72.949472
11
32.950295
21
72.548803
0
LINE
8
hole
62
5
39
2
10
32.950295
20
72.548803
11
32.385082
21
72.285449
0
LINE
8
hole
62
5
39
2
10
32.385082
20
72.285449
11
31.770967
21
72.177356
0
LINE
8
hole
62
5
39
2
10
31.770967
20
72.177356
11
31.149802
21
72.231890
0
LINE
8
hole
62
5
39
2
10
31.149802
20
72.231890
11
30.563916
21
72.445336
0
LINE
8
hole
62
5
39
2
10
30.563916
20
72.445336
11
30.053238
21
72.803148
0
LINE
8
hole
62
5
39
2
10
30.053238
20
72.803148
11
29.652570
21
73.280940
0
LINE
8
hole
62
5
39
2
10
21.549802
20
80.231890
11
20.963916
21
80.445336
0
LINE
8
hole
62
5
39
2
10
20.963916
20
80.445336
11
20.453238
21
80.803147
0
LINE
8
hole
62
5
39
2
10
20.453238
20
80.803147
11
20.052570
21
81.280939
0
LINE
8
hole
62
5
39
2
10
20.052570
20
81.280939
11
19.789216
21
81.846152
0
LINE
8
hole
62
5
39
2
10
19.789216
20
81.846152
11
19.681122
21
82.460266
0
LINE
8
hole
62
5
39
2
10
19.681122
20
82.460266
11
19.735657
21
83.081432
0
LINE
8
hole
62
5
39
2
10
19.735657
20
83.081432
11
19.949103
21
83.667318
0
LINE
8
hole
62
5
39
2
10
19.949103
20
83.667318
11
20.306914
21
84.177995
0
LINE
8
hole
62
5
39
2
10
20.306914
20
84.177995
11
20.784707
21
84.578664
0
LINE
8
hole
62
5
39
2
10
20.784707
20
84.578664
11
21.349919
21
84.842019
0
LINE
8
hole
62
5
39
2
10
21.349919
20
84.842019
11
21.964033
21
84.950112
0
LINE
8
hole
62
5
39
2
10
21.964033
20
84.950112
11
22.585199
21
84.895577
0
LINE
8
hole
62
5
39
2
10
22.585199
20
84.895577
11
23.171085
21
84.682131
0
LINE
8
hole
62
5
39
2
10
23.171085
20
84.682131
11
23.681763
21
84.324320
0
LINE
8
hole
62
5
39
2
10
23.681763
20
84.324320
11
24.082431
21
83.846527
0
LINE
8
hole
62
5
39
2
10
24.082431
20
83.846527
11
24.345786
21
83.281315
0
LINE
8
hole
62
5
39
2
10
24.345786
20
83.281315
11
24.453879
21
82.667200
0
LINE
8
hole
62
5
39
2
10
24.453879
20
82.667200
11
24.399344
21
82.046035
0
LINE
8
hole
62
5
39
2
10
24.399344
20
82.046035
11
24.185898
21
81.460149
0
LINE
8
hole
62
5
39
2
10
24.185898
20
81.460149
11
23.828087
21
80.949471
0
LINE
8
hole
62
5
39
2
10
23.828087
20
80.949471
11
23.350295
21
80.548803
0
LINE
8
hole
62
5
39
2
10
23.350295
20
80.548803
11
22.785082
21
80.285448
0
LINE
8
hole
62
5
39
2
10
22.785082
20
80.285448
11
22.170967
21
80.177355
0
LINE
8
hole
62
5
39
2
10
22.170967
20
80.177355
11
21.549802
21
80.231890
0
LINE
8
hole
62
5
39
2
10
29.970444
20
88.866677
11
29.652570
21
89.280940
0
LINE
8
hole
62
5
39
2
10
29.652570
20
89.280940
11
29.389215
21
89.846151
0
LINE
8
hole
62
5
39
2
10
29.389215
20
89.846151
11
29.281122
21
90.460266
0
LINE
8
hole
62
5
39
2
10
29.281122
20
90.460266
11
29.335656
21
91.081432
0
LINE
8
hole
62
5
39
2
10
29.335656
20
91.081432
11
29.549103
21
91.667317
0
LINE
8
hole
62
5
39
2
10
29.549103
20
91.667317
11
29.906914
21
92.177995
0
LINE
8
hole
62
5
39
2
10
29.906914
20
92.177995
11
30.384706
21
92.578664
0
LINE
8
hole
62
5
39
2
10
30.384706
20
92.578664
11
30.949919
21
92.842018
0
LINE
8
hole
62
5
39
2
10
30.949919
20
92.842018
11
31.564033
21
92.950111
0
LINE
8
hole
62
5
39
2
10
31.564033
20
92.950111
11
32.185199
21
92.895576
0
LINE
8
hole
62
5
39
2
10
32.185199
20
92.895576
11
32.771085
21
92.682131
0
LINE
8
hole
62
5
39
2
10
32.771085
20
92.682131
11
33.281763
21
92.324319
0
LINE
8
hole
62
5
39
2
10
33.281763
20
92.324319
11
33.682432
21
91.846527
0
LINE
8
hole
62
5
39
2
10
33.682432
20
91.846527
11
33.945786
21
91.281315
0
LINE
8
hole
62
5
39
2
10
33.945786
20
91.281315
11
34.053878
21
90.667200
0
LINE
8
hole
62
5
39
2
10
34.053878
20
90.667200
11
33.999344
21
90.046034
0
LINE
8
hole
62
5
39
2
10
33.999344
20
90.046034
11
33.785899
21
89.460150
0
LINE
8
hole
62
5
39
2
10
33.785899
20
89.460150
11
33.428087
21
88.949471
0
LINE
8
hole
62
5
39
2
10
33.428087
20
88.949471
11
32.950295
21
88.548803
0
LINE
8
hole
62
5
39
2
10
32.950295
20
88.548803
11
32.385082
21
88.285448
0
LINE
8
hole
62
5
39
2
10
32.385082
20
88.285448
11
31.770967
21
88.177355
0
LINE
8
hole
62
5
39
2
10
31.770967
20
88.177355
11
31.149802
21
88.231890
0
LINE
8
hole
62
5
39
2
10
31.149802
20
88.231890
11
30.563916
21
88.445336
0
LINE
8
hole
62
5
39
2
10
30.563916
20
88.445336
11
30.053238
21
88.803147
0
LINE
8
hole
62
5
39
2
10
30.053238
20
88.803147
11
29.970444
21
88.866677
0
LINE
8
hole
62
5
39
2
10
29.652570
20
65.280939
11
29.389215
21
65.846151
0
LINE
8
hole
62
5
39
2
10
29.389215
20
65.846151
11
29.281122
21
66.460267
0
LINE
8
hole
62
5
39
2
10
29.281122
20
66.460267
11
29.335656
21
67.081432
0
LINE
8
hole
62
5
39
2
10
29.335656
20
67.081432
11
29.549103
21
67.667317
0
LINE
8
hole
62
5
39
2
10
29.549103
20
67.667317
11
29.906914
21
68.177995
0
LINE
8
hole
62
5
39
2
10
29.906914
20
68.177995
11
30.384706
21
68.578665
0
LINE
8
hole
62
5
39
2
10
30.384706
20
68.578665
11
30.949919
21
68.842019
0
LINE
8
hole
62
5
39
2
10
30.949919
20
68.842019
11
31.564033
21
68.950111
0
LINE
8
hole
62
5
39
2
10
31.564033
20
68.950111
11
32.185199
21
68.895577
0
LINE
8
hole
62
5
39
2
10
32.185199
20
68.895577
11
32.771085
21
68.682132
0
LINE
8
hole
62
5
39
2
10
32.771085
20
68.682132
11
33.281763
21
68.324320
0
LINE
8
hole
62
5
39
2
10
33.281763
20
68.324320
11
33.682432
21
67.846527
0
LINE
8
hole
62
5
39
2
10
33.682432
20
67.846527
11
33.945786
21
67.281314
0
LINE
8
hole
62
5
39
2
10
33.945786
20
67.281314
11
34.053878
21
66.667200
0
LINE
8
hole
62
5
39
2
10
34.053878
20
66.667200
11
33.999344
21
66.046034
0
LINE
8
hole
62
5
39
2
10
33.999344
20
66.046034
11
33.785899
21
65.460148
0
LINE
8
hole
62
5
39
2
10
33.785899
20
65.460148
11
33.428087
21
64.949473
0
LINE
8
hole
62
5
39
2
10
33.428087
20
64.949473
11
32.950295
21
64.548803
0
LINE
8
hole
62
5
39
2
10
32.950295
20
64.548803
11
32.385082
21
64.285448
0
LINE
8
hole
62
5
39
2
10
32.385082
20
64.285448
11
31.770967
21
64.177356
0
LINE
8
hole
62
5
39
2
10
31.770967
20
64.177356
11
31.149802
21
64.231890
0
LINE
8
hole
62
5
39
2
10
31.149802
20
64.231890
11
30.563916
21
64.445335
0
LINE
8
hole
62
5
39
2
10
30.563916
20
64.445335
11
30.053238
21
64.803148
0
LINE
8
hole
62
5
39
2
10
30.053238
20
64.803148
11
29.652570
21
65.280939
0
LINE
8
hole
62
5
39
2
10
29.970444
20
96.866677
11
29.652570
21
97.280940
0
LINE
8
hole
62
5
39
2
10
29.652570
20
97.280940
11
29.389215
21
97.846153
0
LINE
8
hole
62
5
39
2
10
29.389215
20
97.846153
11
29.281122
21
98.460267
0
LINE
8
hole
62
5
39
2
10
29.281122
20
98.460267
11
29.335656
21
99.081433
0
LINE
8
hole
62
5
39
2
10
29.335656
20
99.081433
11
29.549103
21
99.667319
0
LINE
8
hole
62
5
39
2
10
29.549103
20
99.667319
11
29.906914
21
100.177994
0
LINE
8
hole
62
5
39
2
10
29.906914
20
100.177994
11
30.384706
21
100.578664
0
LINE
8
hole
62
5
39
2
10
30.384706
20
100.578664
11
30.949919
21
100.842019
0
LINE
8
hole
62
5
39
2
10
30.949919
20
100.842019
11
31.564034
21
100.950111
0
LINE
8
hole
62
5
39
2
10
31.564034
20
100.950111
11
32.185199
21
100.895577
0
LINE
8
hole
62
5
39
2
10
32.185199
20
100.895577
11
32.771085
21
100.682132
0
LINE
8
hole
62
5
39
2
10
32.771085
20
100.682132
11
33.281763
21
100.324318
0
LINE
8
hole
62
5
39
2
10
33.281763
20
100.324318
11
33.682432
21
99.846528
0
LINE
8
hole
62
5
39
2
10
33.682432
20
99.846528
11
33.945786
21
99.281316
0
LINE
8
hole
62
5
39
2
10
33.945786
20
99.281316
11
34.053878
21
98.667200
0
LINE
8
hole
62
5
39
2
10
34.053878
20
98.667200
11
33.999344
21
98.046035
0
LINE
8
hole
62
5
39
2
10
33.999344
20
98.046035
11
33.785899
21
97.460150
0
LINE
8
hole
62
5
39
2
10
33.785899
20
97.460150
11
33.428087
21
96.949471
0
LINE
8
hole
62
5
39
2
10
33.428087
20
96.949471
11
32.950295
21
96.548802
0
LINE
8
hole
62
5
39
2
10
32.950295
20
96.548802
11
32.385082
21
96.285448
0
LINE
8
hole
62
5
39
2
10
32.385082
20
96.285448
11
31.770967
21
96.177356
0
LINE
8
hole
62
5
39
2
10
31.770967
20
96.177356
11
31.149802
21
96.231890
0
LINE
8
hole
62
5
39
2
10
31.149802
20
96.231890
11
30.563916
21
96.445335
0
LINE
8
hole
62
5
39
2
10
30.563916
20
96.445335
11
30.053238
21
96.803147
0
LINE
8
hole
62
5
39
2
10
30.053238
20
96.803147
11
29.970444
21
96.866677
0
LINE
8
hole
62
5
39
2
10
30.053238
20
80.803147
11
29.652570
21
81.280939
0
LINE
8
hole
62
5
39
2
10
29.652570
20
81.280939
11
29.389215
21
81.846152
0
LINE
8
hole
62
5
39
2
10
29.389215
20
81.846152
11
29.281122
21
82.460267
0
LINE
8
hole
62
5
39
2
10
29.281122
20
82.460267
11
29.335656
21
83.081432
0
LINE
8
hole
62
5
39
2
10
29.335656
20
83.081432
11
29.549103
21
83.667318
0
LINE
8
hole
62
5
39
2
10
29.549103
20
83.667318
11
29.906914
21
84.177995
0
LINE
8
hole
62
5
39
2
10
29.906914
20
84.177995
11
30.384706
21
84.578664
0
LINE
8
hole
62
5
39
2
10
30.384706
20
84.578664
11
30.949919
21
84.842019
0
LINE
8
hole
62
5
39
2
10
30.949919
20
84.842019
11
31.564034
21
84.950112
0
LINE
8
hole
62
5
39
2
10
31.564034
20
84.950112
11
32.185199
21
84.895577
0
LINE
8
hole
62
5
39
2
10
32.185199
20
84.895577
11
32.771085
21
84.682131
0
LINE
8
hole
62
5
39
2
10
32.771085
20
84.682131
11
33.281763
21
84.324320
0
LINE
8
hole
62
5
39
2
10
33.281763
20
84.324320
11
33.682432
21
83.846528
0
LINE
8
hole
62
5
39
2
10
33.682432
20
83.846528
11
33.945786
21
83.281315
0
LINE
8
hole
62
5
39
2
10
33.945786
20
83.281315
11
34.053878
21
82.667200
0
LINE
8
hole
62
5
39
2
10
34.053878
20
82.667200
11
33.999344
21
82.046035
0
LINE
8
hole
62
5
39
2
10
33.999344
20
82.046035
11
33.785899
21
81.460149
0
LINE
8
hole
62
5
39
2
10
33.785899
20
81.460149
11
33.428087
21
80.949471
0
LINE
8
hole
62
5
39
2
10
33.428087
20
80.949471
11
32.950295
21
80.548803
0
LINE
8
hole
62
5
39
2
10
32.950295
20
80.548803
11
32.385082
21
80.285448
0
LINE
8
hole
62
5
39
2
10
32.385082
20
80.285448
11
31.770967
21
80.177355
0
LINE
8
hole
62
5
39
2
10
31.770967
20
80.177355
11
31.149802
21
80.231890
0
LINE
8
hole
62
5
39
2
10
31.149802
20
80.231890
11
30.563916
21
80.445336
0
LINE
8
hole
62
5
39
2
10
30.563916
20
80.445336
11
30.053238
21
80.803147
0
LINE
8
hole
62
5
39
2
10
8.741359
20
93.978124
11
8.658684
21
94.554772
0
LINE
8
hole
62
5
39
2
10
8.658684
20
94.554772
11
8.867501
21
95.405357
0
LINE
8
hole
62
5
39
2
10
8.867501
20
95.405357
11
8.867500
21
98.691201
0
LINE
8
hole
62
5
39
2
10
8.867500
20
98.691201
11
8.638395
21
99.226802
0
LINE
8
hole
62
5
39
2
10
8.638395
20
99.226802
11
8.851742
21
99.793196
0
LINE
8
hole
62
5
39
2
10
8.851742
20
99.793196
11
9.403103
21
100.042839
0
LINE
8
hole
62
5
39
2
10
9.403103
20
100.042839
11
9.969496
21
99.829491
0
LINE
8
hole
62
5
39
2
10
9.969496
20
99.829491
11
10.944969
21
99.813733
0
LINE
8
hole
62
5
39
2
10
10.944969
20
99.813733
11
11.480570
21
100.042839
0
LINE
8
hole
62
5
39
2
10
11.480570
20
100.042839
11
12.046964
21
99.829492
0
LINE
8
hole
62
5
39
2
10
12.046964
20
99.829492
11
12.296605
21
99.278131
0
LINE
8
hole
62
5
39
2
10
12.296605
20
99.278131
11
12.083259
21
98.711738
0
LINE
8
hole
62
5
39
2
10
12.083259
20
98.711738
11
12.067501
21
94.936265
0
LINE
8
hole
62
5
39
2
10
12.067501
20
94.936265
11
12.296605
21
94.400664
0
LINE
8
hole
62
5
39
2
10
12.296605
20
94.400664
11
12.083259
21
93.834271
0
LINE
8
hole
62
5
39
2
10
12.083259
20
93.834271
11
11.531899
21
93.584628
0
LINE
8
hole
62
5
39
2
10
11.531899
20
93.584628
11
10.965506
21
93.797976
0
LINE
8
hole
62
5
39
2
10
10.965506
20
93.797976
11
9.990033
21
93.813734
0
LINE
8
hole
62
5
39
2
10
9.990033
20
93.813734
11
9.454432
21
93.584628
0
LINE
8
hole
62
5
39
2
10
9.454432
20
93.584628
11
8.888038
21
93.797976
0
LINE
8
hole
62
5
39
2
10
8.888038
20
93.797976
11
8.741359
21
93.978124
0
LINE
8
hole
62
5
39
2
10
8.757118
20
65.457587
11
8.658684
21
66.054774
0
LINE
8
hole
62
5
39
2
10
8.658684
20
66.054774
11
8.867501
21
66.905358
0
LINE
8
hole
62
5
39
2
10
8.867501
20
66.905358
11
8.867501
21
70.191202
0
LINE
8
hole
62
5
39
2
10
8.867501
20
70.191202
11
8.638395
21
70.726803
0
LINE
8
hole
62
5
39
2
10
8.638395
20
70.726803
11
8.851742
21
71.293196
0
LINE
8
hole
62
5
39
2
10
8.851742
20
71.293196
11
9.403103
21
71.542839
0
LINE
8
hole
62
5
39
2
10
9.403103
20
71.542839
11
9.969496
21
71.329491
0
LINE
8
hole
62
5
39
2
10
9.969496
20
71.329491
11
10.944969
21
71.313733
0
LINE
8
hole
62
5
39
2
10
10.944969
20
71.313733
11
11.480570
21
71.542839
0
LINE
8
hole
62
5
39
2
10
11.480570
20
71.542839
11
12.046964
21
71.329491
0
LINE
8
hole
62
5
39
2
10
12.046964
20
71.329491
11
12.296605
21
70.778132
0
LINE
8
hole
62
5
39
2
10
12.296605
20
70.778132
11
12.083259
21
70.211738
0
LINE
8
hole
62
5
39
2
10
12.083259
20
70.211738
11
12.067501
21
66.436266
0
LINE
8
hole
62
5
39
2
10
12.067501
20
66.436266
11
12.296605
21
65.900665
0
LINE
8
hole
62
5
39
2
10
12.296605
20
65.900665
11
12.083259
21
65.334271
0
LINE
8
hole
62
5
39
2
10
12.083259
20
65.334271
11
11.531900
21
65.084628
0
LINE
8
hole
62
5
39
2
10
11.531900
20
65.084628
11
10.965506
21
65.297975
0
LINE
8
hole
62
5
39
2
10
10.965506
20
65.297975
11
9.990033
21
65.313734
0
LINE
8
hole
62
5
39
2
10
9.990033
20
65.313734
11
9.454432
21
65.084628
0
LINE
8
hole
62
5
39
2
10
9.454432
20
65.084628
11
8.888037
21
65.297975
0
LINE
8
hole
62
5
39
2
10
8.888037
20
65.297975
11
8.757118
21
65.457587
0
LINE
8
hole
62
5
39
2
10
8.888037
20
79.547975
11
8.638395
21
80.099335
0
LINE
8
hole
62
5
39
2
10
8.638395
20
80.099335
11
8.851742
21
80.665729
0
LINE
8
hole
62
5
39
2
10
8.851742
20
80.665729
11
8.867501
21
84.441202
0
LINE
8
hole
62
5
39
2
10
8.867501
20
84.441202
11
8.638395
21
84.976803
0
LINE
8
hole
62
5
39
2
10
8.638395
20
84.976803
11
8.851742
21
85.543197
0
LINE
8
hole
62
5
39
2
10
8.851742
20
85.543197
11
9.403103
21
85.792839
0
LINE
8
hole
62
5
39
2
10
9.403103
20
85.792839
11
9.969496
21
85.579492
0
LINE
8
hole
62
5
39
2
10
9.969496
20
85.579492
11
10.944969
21
85.563733
0
LINE
8
hole
62
5
39
2
10
10.944969
20
85.563733
11
11.480570
21
85.792839
0
LINE
8
hole
62
5
39
2
10
11.480570
20
85.792839
11
12.046964
21
85.579492
0
LINE
8
hole
62
5
39
2
10
12.046964
20
85.579492
11
12.296605
21
85.028132
0
LINE
8
hole
62
5
39
2
10
12.296605
20
85.028132
11
12.083259
21
84.461738
0
LINE
8
hole
62
5
39
2
10
12.083259
20
84.461738
11
12.067501
21
80.686266
0
LINE
8
hole
62
5
39
2
10
12.067501
20
80.686266
11
12.296605
21
80.150664
0
LINE
8
hole
62
5
39
2
10
12.296605
20
80.150664
11
12.083259
21
79.584270
0
LINE
8
hole
62
5
39
2
10
12.083259
20
79.584270
11
11.531899
21
79.334628
0
LINE
8
hole
62
5
39
2
10
11.531899
20
79.334628
11
10.965506
21
79.547975
0
LINE
8
hole
62
5
39
2
10
10.965506
20
79.547975
11
9.990033
21
79.563733
0
LINE
8
hole
62
5
39
2
10
9.990033
20
79.563733
11
9.454432
21
79.334628
0
LINE
8
hole
62
5
39
2
10
9.454432
20
79.334628
11
8.888037
21
79.547975
0
LINE
8
hole
62
5
39
2
10
16.507614
20
14.822823
11
15.677069
21
15.892092
0
LINE
8
hole
62
5
39
2
10
15.677069
20
15.892092
11
15.007150
21
17.068669
0
LINE
8
hole
62
5
39
2
10
15.007150
20
17.068669
11
14.511494
21
18.328617
0
LINE
8
hole
62
5
39
2
10
14.511494
20
18.328617
11
14.200191
21
19.646282
0
LINE
8
hole
62
5
39
2
10
14.200191
20
19.646282
11
14.079580
21
20.994833
0
LINE
8
hole
62
5
39
2
10
14.079580
20
20.994833
11
14.152117
21
22.346827
0
LINE
8
hole
62
5
39
2
10
14.152117
20
22.346827
11
14.416324
21
23.674731
0
LINE
8
hole
62
5
39
2
10
14.416324
20
23.674731
11
14.866823
21
24.951524
0
LINE
8
hole
62
5
39
2
10
14.866823
20
24.951524
11
15.494441
21
26.151204
0
LINE
8
hole
62
5
39
2
10
15.494441
20
26.151204
11
16.286403
21
27.249356
0
LINE
8
hole
62
5
39
2
10
16.286403
20
27.249356
11
17.226588
21
28.223622
0
LINE
8
hole
62
5
39
2
10
17.226588
20
28.223622
11
18.295857
21
29.054163
0
LINE
8
hole
62
5
39
2
10
18.295857
20
29.054163
11
19.472440
21
29.724088
0
LINE
8
hole
62
5
39
2
10
19.472440
20
29.724088
11
20.732386
21
30.219741
0
LINE
8
hole
62
5
39
2
10
20.732386
20
30.219741
11
22.050048
21
30.531041
0
LINE
8
hole
62
5
39
2
10
22.050048
20
30.531041
11
23.398601
21
30.651654
0
LINE
8
hole
62
5
39
2
10
23.398601
20
30.651654
11
24.750592
21
30.579115
0
LINE
8
hole
62
5
39
2
10
24.750592
20
30.579115
11
26.078498
21
30.314910
0
LINE
8
hole
62
5
39
2
10
26.078498
20
30.314910
11
27.355288
21
29.864416
0
LINE
8
hole
62
5
39
2
10
27.355288
20
29.864416
11
28.554969
21
29.236791
0
LINE
8
hole
62
5
39
2
10
28.554969
20
29.236791
11
29.653121
21
28.444833
0
LINE
8
hole
62
5
39
2
10
29.653121
20
28.444833
11
30.627387
21
27.504648
0
LINE
8
hole
62
5
39
2
10
30.627387
20
27.504648
11
31.457932
21
26.435380
0
LINE
8
hole
62
5
39
2
10
31.457932
20
26.435380
11
32.127853
21
25.258797
0
LINE
8
hole
62
5
39
2
10
32.127853
20
25.258797
11
32.623509
21
23.998847
0
LINE
8
hole
62
5
39
2
10
32.623509
20
23.998847
11
32.934810
21
22.681188
0
LINE
8
hole
62
5
39
2
10
32.934810
20
22.681188
11
33.055420
21
21.332633
0
LINE
8
hole
62
5
39
2
10
33.055420
20
21.332633
11
32.982884
21
19.980643
0
LINE
8
hole
62
5
39
2
10
32.982884
20
19.980643
11
32.718678
21
18.652735
0
LINE
8
hole
62
5
39
2
10
32.718678
20
18.652735
11
32.268180
21
17.375941
0
LINE
8
hole
62
5
39
2
10
32.268180
20
17.375941
11
31.640560
21
16.176266
0
LINE
8
hole
62
5
39
2
10
31.640560
20
16.176266
11
30.848598
21
15.078115
0
LINE
8
hole
62
5
39
2
10
30.848598
20
15.078115
11
29.908413
21
14.103849
0
LINE
8
hole
62
5
39
2
10
29.908413
20
14.103849
11
28.839144
21
13.273303
0
LINE
8
hole
62
5
39
2
10
28.839144
20
13.273303
11
27.662561
21
12.603382
0
LINE
8
hole
62
5
39
2
10
27.662561
20
12.603382
11
26.402615
21
12.107729
0
LINE
8
hole
62
5
39
2
10
26.402615
20
12.107729
11
25.084953
21
11.796419
0
LINE
8
hole
62
5
39
2
10
25.084953
20
11.796419
11
23.736400
21
11.675816
0
LINE
8
hole
62
5
39
2
10
23.736400
20
11.675816
11
22.384409
21
11.748345
0
LINE
8
hole
62
5
39
2
10
22.384409
20
11.748345
11
21.056503
21
12.012560
0
LINE
8
hole
62
5
39
2
10
21.056503
20
12.012560
11
19.779713
21
12.463055
0
LINE
8
hole
62
5
39
2
10
19.779713
20
12.463055
11
18.580031
21
13.090675
0
LINE
8
hole
62
5
39
2
10
18.580031
20
13.090675
11
17.481880
21
13.882637
0
LINE
8
hole
62
5
39
2
10
17.481880
20
13.882637
11
16.507614
21
14.822823
0
LINE
8
hole
62
5
39
2
10
16.387879
20
137.742554
11
15.677069
21
138.692087
0
LINE
8
hole
62
5
39
2
10
15.677069
20
138.692087
11
15.007150
21
139.868670
0
LINE
8
hole
62
5
39
2
10
15.007150
20
139.868670
11
14.511494
21
141.128620
0
LINE
8
hole
62
5
39
2
10
14.511494
20
141.128620
11
14.200191
21
142.446279
0
LINE
8
hole
62
5
39
2
10
14.200191
20
142.446279
11
14.079582
21
143.794834
0
LINE
8
hole
62
5
39
2
10
14.079582
20
143.794834
11
14.152117
21
145.146824
0
LINE
8
hole
62
5
39
2
10
14.152117
20
145.146824
11
14.416324
21
146.474732
0
LINE
8
hole
62
5
39
2
10
14.416324
20
146.474732
11
14.866823
21
147.751525
0
LINE
8
hole
62
5
39
2
10
14.866823
20
147.751525
11
15.494441
21
148.951201
0
LINE
8
hole
62
5
39
2
10
15.494441
20
148.951201
11
16.286403
21
150.049352
0
LINE
8
hole
62
5
39
2
10
16.286403
20
150.049352
11
17.226589
21
151.023618
0
LINE
8
hole
62
5
39
2
10
17.226589
20
151.023618
11
18.295856
21
151.854164
0
LINE
8
hole
62
5
39
2
10
18.295856
20
151.854164
11
19.472440
21
152.524085
0
LINE
8
hole
62
5
39
2
10
19.472440
20
152.524085
11
20.732386
21
153.019737
0
LINE
8
hole
62
5
39
2
10
20.732386
20
153.019737
11
22.050048
21
153.331047
0
LINE
8
hole
62
5
39
2
10
22.050048
20
153.331047
11
23.398601
21
153.451651
0
LINE
8
hole
62
5
39
2
10
23.398601
20
153.451651
11
24.750592
21
153.379121
0
LINE
8
hole
62
5
39
2
10
24.750592
20
153.379121
11
26.078498
21
153.114907
0
LINE
8
hole
62
5
39
2
10
26.078498
20
153.114907
11
27.355288
21
152.664412
0
LINE
8
hole
62
5
39
2
10
27.355288
20
152.664412
11
28.554970
21
152.036792
0
LINE
8
hole
62
5
39
2
10
28.554970
20
152.036792
11
29.653121
21
151.244829
0
LINE
8
hole
62
5
39
2
10
29.653121
20
151.244829
11
30.627387
21
150.304644
0
LINE
8
hole
62
5
39
2
10
30.627387
20
150.304644
11
31.457933
21
149.235376
0
LINE
8
hole
62
5
39
2
10
31.457933
20
149.235376
11
32.127853
21
148.058798
0
LINE
8
hole
62
5
39
2
10
32.127853
20
148.058798
11
32.623509
21
146.798849
0
LINE
8
hole
62
5
39
2
10
32.623509
20
146.798849
11
32.934810
21
145.481185
0
LINE
8
hole
62
5
39
2
10
32.934810
20
145.481185
11
33.055420
21
144.132634
0
LINE
8
hole
62
5
39
2
10
33.055420
20
144.132634
11
32.982884
21
142.780640
0
LINE
8
hole
62
5
39
2
10
32.982884
20
142.780640
11
32.718678
21
141.452736
0
LINE
8
hole
62
5
39
2
10
32.718678
20
141.452736
11
32.268180
21
140.175943
0
LINE
8
hole
62
5
39
2
10
32.268180
20
140.175943
11
31.640561
21
138.976262
0
LINE
8
hole
62
5
39
2
10
31.640561
20
138.976262
11
30.848598
21
137.878111
0
LINE
8
hole
62
5
39
2
10
30.848598
20
137.878111
11
29.908413
21
136.903845
0
LINE
8
hole
62
5
39
2
10
29.908413
20
136.903845
11
28.839145
21
136.073304
0
LINE
8
hole
62
5
39
2
10
28.839145
20
136.073304
11
27.662561
21
135.403378
0
LINE
8
hole
62
5
39
2
10
27.662561
20
135.403378
11
26.402615
21
134.907725
0
LINE
8
hole
62
5
39
2
10
26.402615
20
134.907725
11
25.084953
21
134.596426
0
LINE
8
hole
62
5
39
2
10
25.084953
20
134.596426
11
23.736400
21
134.475813
0
LINE
8
hole
62
5
39
2
10
23.736400
20
134.475813
11
22.384409
21
134.548352
0
LINE
8
hole
62
5
39
2
10
22.384409
20
134.548352
11
21.056502
21
134.812557
0
LINE
8
hole
62
5
39
2
10
21.056502
20
134.812557
11
19.779713
21
135.263051
0
LINE
8
hole
62
5
39
2
10
19.779713
20
135.263051
11
18.580031
21
135.890676
0
LINE
8
hole
62
5
39
2
10
18.580031
20
135.890676
11
17.481881
21
136.682634
0
LINE
8
hole
62
5
39
2
10
17.481881
20
136.682634
11
16.507614
21
137.622819
0
LINE
8
hole
62
5
39
2
10
16.507614
20
137.622819
11
16.387879
21
137.742554
0
LINE
8
boundary
62
5
39
2
10
14.127538
20
10.157506
11
15.445116
21
9.152208
0
LINE
8
boundary
62
5
39
2
10
15.445116
20
9.152208
11
16.868805
21
8.303816
0
LINE
8
boundary
62
5
39
2
10
16.868805
20
8.303816
11
18.380003
21
7.623425
0
LINE
8
boundary
62
5
39
2
10
18.380003
20
7.623425
11
19.958969
21
7.119925
0
LINE
8
boundary
62
5
39
2
10
19.958969
20
7.119925
11
21.585076
21
6.799893
0
LINE
8
boundary
62
5
39
2
10
21.585076
20
6.799893
11
23.237081
21
6.667500
0
LINE
8
boundary
62
5
39
2
10
23.237081
20
6.667500
11
24.893402
21
6.724485
0
LINE
8
boundary
62
5
39
2
10
24.893402
20
6.724485
11
26.532402
21
6.970098
0
LINE
8
boundary
62
5
39
2
10
26.532402
20
6.970098
11
28.132670
21
7.401128
0
LINE
8
boundary
62
5
39
2
10
28.132670
20
7.401128
11
29.673299
21
8.011961
0
LINE
8
boundary
62
5
39
2
10
29.673299
20
8.011961
11
31.134164
21
8.794593
0
LINE
8
boundary
62
5
39
2
10
31.134164
20
8.794593
11
32.496180
21
9.738824
0
LINE
8
boundary
62
5
39
2
10
32.496180
20
9.738824
11
33.741555
21
10.832295
0
LINE
8
boundary
62
5
39
2
10
33.741555
20
10.832295
11
34.854017
21
12.060739
0
LINE
8
boundary
62
5
39
2
10
34.854017
20
12.060739
11
35.819036
21
13.408107
0
LINE
8
boundary
62
5
39
2
10
35.819036
20
13.408107
11
36.624006
21
14.856777
0
LINE
8
boundary
62
5
39
2
10
36.624006
20
14.856777
11
37.258408
21
16.387849
0
LINE
8
boundary
62
5
39
2
10
37.258408
20
16.387849
11
37.713956
21
17.981314
0
LINE
8
boundary
62
5
39
2
10
37.713956
20
17.981314
11
37.984699
21
19.616358
0
LINE
8
boundary
62
5
39
2
10
37.984699
20
19.616358
11
38.067099
21
21.271605
0
LINE
8
boundary
62
5
39
2
10
38.067099
20
21.271605
11
37.960080
21
22.925447
0
LINE
8
boundary
62
5
39
2
10
37.960080
20
22.925447
11
37.665042
21
24.556276
0
LINE
8
boundary
62
5
39
2
10
37.665042
20
24.556276
11
37.185838
21
26.142783
0
LINE
8
boundary
62
5
39
2
10
37.185838
20
26.142783
11
36.528724
21
27.664250
0
LINE
8
boundary
62
5
39
2
10
36.528724
20
27.664250
11
36.069176
21
28.731009
0
LINE
8
boundary
62
5
39
2
10
36.069176
20
28.731009
11
35.736423
21
29.843853
0
LINE
8
boundary
62
5
39
2
10
35.736423
20
29.843853
11
35.534957
21
30.987781
0
LINE
8
boundary
62
5
39
2
10
35.534957
20
30.987781
11
35.467502
21
32.147361
0
LINE
8
boundary
62
5
39
2
10
35.467502
20
32.147361
11
35.467502
21
36.993747
0
LINE
8
boundary
62
5
39
2
10
35.467502
20
36.993747
11
35.467502
21
70.941202
0
LINE
8
boundary
62
5
39
2
10
35.467502
20
70.941202
11
35.238394
21
71.476803
0
LINE
8
boundary
62
5
39
2
10
35.238394
20
71.476803
11
35.451743
21
72.043196
0
LINE
8
boundary
62
5
39
2
10
35.451743
20
72.043196
11
36.003102
21
72.292838
0
LINE
8
boundary
62
5
39
2
10
36.003102
20
72.292838
11
36.569496
21
72.079492
0
LINE
8
boundary
62
5
39
2
10
36.569496
20
72.079492
11
38.467502
21
72.063733
0
LINE
8
boundary
62
5
39
2
10
38.467502
20
72.063733
11
38.467502
21
72.688367
0
LINE
8
boundary
62
5
39
2
10
38.467502
20
72.688367
11
38.467501
21
77.063733
0
LINE
8
boundary
62
5
39
2
10
38.467501
20
77.063733
11
36.590033
21
77.063733
0
LINE
8
boundary
62
5
39
2
10
36.590033
20
77.063733
11
36.054431
21
76.834628
0
LINE
8
boundary
62
5
39
2
10
36.054431
20
76.834628
11
35.488038
21
77.047975
0
LINE
8
boundary
62
5
39
2
10
35.488038
20
77.047975
11
35.238394
21
77.599335
0
LINE
8
boundary
62
5
39
2
10
35.238394
20
77.599335
11
35.451743
21
78.165729
0
LINE
8
boundary
62
5
39
2
10
35.451743
20
78.165729
11
35.467502
21
79.279991
0
LINE
8
boundary
62
5
39
2
10
35.467502
20
79.279991
11
35.467502
21
86.941201
0
LINE
8
boundary
62
5
39
2
10
35.467502
20
86.941201
11
35.238394
21
87.476802
0
LINE
8
boundary
62
5
39
2
10
35.238394
20
87.476802
11
35.451743
21
88.043196
0
LINE
8
boundary
62
5
39
2
10
35.451743
20
88.043196
11
36.003102
21
88.292838
0
LINE
8
boundary
62
5
39
2
10
36.003102
20
88.292838
11
36.569496
21
88.079491
0
LINE
8
boundary
62
5
39
2
10
36.569496
20
88.079491
11
38.467502
21
88.063733
0
LINE
8
boundary
62
5
39
2
10
38.467502
20
88.063733
11
38.467502
21
88.688366
0
LINE
8
boundary
62
5
39
2
10
38.467502
20
88.688366
11
38.467502
21
93.063734
0
LINE
8
boundary
62
5
39
2
10
38.467502
20
93.063734
11
36.590033
21
93.063734
0
LINE
8
boundary
62
5
39
2
10
36.590033
20
93.063734
11
36.054431
21
92.834628
0
LINE
8
boundary
62
5
39
2
10
36.054431
20
92.834628
11
35.488038
21
93.047975
0
LINE
8
boundary
62
5
39
2
10
35.488038
20
93.047975
11
35.238394
21
93.599334
0
LINE
8
boundary
62
5
39
2
10
35.238394
20
93.599334
11
35.451743
21
94.165728
0
LINE
8
boundary
62
5
39
2
10
35.451743
20
94.165728
11
35.467501
21
96.719461
0
LINE
8
boundary
62
5
39
2
10
35.467501
20
96.719461
11
35.467501
21
114.463733
0
LINE
8
boundary
62
5
39
2
10
35.467501
20
114.463733
11
35.467502
21
116.776922
0
LINE
8
boundary
62
5
39
2
10
35.467502
20
116.776922
11
35.467502
21
132.980106
0
LINE
8
boundary
62
5
39
2
10
35.467502
20
132.980106
11
35.534959
21
134.139685
0
LINE
8
boundary
62
5
39
2
10
35.534959
20
134.139685
11
35.736423
21
135.283614
0
LINE
8
boundary
62
5
39
2
10
35.736423
20
135.283614
11
36.069176
21
136.396458
0
LINE
8
boundary
62
5
39
2
10
36.069176
20
136.396458
11
36.528724
21
137.463217
0
LINE
8
boundary
62
5
39
2
10
36.528724
20
137.463217
11
37.185838
21
138.984684
0
LINE
8
boundary
62
5
39
2
10
37.185838
20
138.984684
11
37.665042
21
140.571191
0
LINE
8
boundary
62
5
39
2
10
37.665042
20
140.571191
11
37.960081
21
142.202020
0
LINE
8
boundary
62
5
39
2
10
37.960081
20
142.202020
11
38.067101
21
143.855862
0
LINE
8
boundary
62
5
39
2
10
38.067101
20
143.855862
11
37.984699
21
145.511108
0
LINE
8
boundary
62
5
39
2
10
37.984699
20
145.511108
11
37.713958
21
147.146153
0
LINE
8
boundary
62
5
39
2
10
37.713958
20
147.146153
11
37.258408
21
148.739618
0
LINE
8
boundary
62
5
39
2
10
37.258408
20
148.739618
11
36.624007
21
150.270690
0
LINE
8
boundary
62
5
39
2
10
36.624007
20
150.270690
11
35.819037
21
151.719360
0
LINE
8
boundary
62
5
39
2
10
35.819037
20
151.719360
11
34.854018
21
153.066728
0
LINE
8
boundary
62
5
39
2
10
34.854018
20
153.066728
11
33.741555
21
154.295171
0
LINE
8
boundary
62
5
39
2
10
33.741555
20
154.295171
11
32.496180
21
155.388643
0
LINE
8
boundary
62
5
39
2
10
32.496180
20
155.388643
11
31.134164
21
156.332874
0
LINE
8
boundary
62
5
39
2
10
31.134164
20
156.332874
11
29.673299
21
157.115505
0
LINE
8
boundary
62
5
39
2
10
29.673299
20
157.115505
11
28.132670
21
157.726339
0
LINE
8
boundary
62
5
39
2
10
28.132670
20
157.726339
11
26.532402
21
158.157369
0
LINE
8
boundary
62
5
39
2
10
26.532402
20
158.157369
11
24.893402
21
158.402981
0
LINE
8
boundary
62
5
39
2
10
24.893402
20
158.402981
11
23.237081
21
158.459967
0
LINE
8
boundary
62
5
39
2
10
23.237081
20
158.459967
11
21.585077
21
158.327574
0
LINE
8
boundary
62
5
39
2
10
21.585077
20
158.327574
11
19.958969
21
158.007542
0
LINE
8
boundary
62
5
39
2
10
19.958969
20
158.007542
11
18.380003
21
157.504042
0
LINE
8
boundary
62
5
39
2
10
18.380003
20
157.504042
11
16.868806
21
156.823651
0
LINE
8
boundary
62
5
39
2
10
16.868806
20
156.823651
11
15.445118
21
155.975259
0
LINE
8
boundary
62
5
39
2
10
15.445118
20
155.975259
11
14.127538
21
154.969961
0
LINE
8
boundary
62
5
39
2
10
14.127538
20
154.969961
11
12.933279
21
153.820885
0
LINE
8
boundary
62
5
39
2
10
12.933279
20
153.820885
11
11.877942
21
152.543025
0
LINE
8
boundary
62
5
39
2
10
11.877942
20
152.543025
11
10.975315
21
151.153085
0
LINE
8
boundary
62
5
39
2
10
10.975315
20
151.153085
11
10.237190
21
149.669243
0
LINE
8
boundary
62
5
39
2
10
10.237190
20
149.669243
11
9.743664
21
148.305537
0
LINE
8
boundary
62
5
39
2
10
9.743664
20
148.305537
11
9.338517
21
146.699740
0
LINE
8
boundary
62
5
39
2
10
9.338517
20
146.699740
11
9.094771
21
144.852616
0
LINE
8
boundary
62
5
39
2
10
9.094771
20
144.852616
11
9.087875
21
143.195328
0
LINE
8
boundary
62
5
39
2
10
9.087875
20
143.195328
11
9.270138
21
141.548075
0
LINE
8
boundary
62
5
39
2
10
9.270138
20
141.548075
11
9.639176
21
139.932385
0
LINE
8
boundary
62
5
39
2
10
9.639176
20
139.932385
11
10.190170
21
138.369357
0
LINE
8
boundary
62
5
39
2
10
10.190170
20
138.369357
11
10.915921
21
136.879410
0
LINE
8
boundary
62
5
39
2
10
10.915921
20
136.879410
11
11.806951
21
135.482015
0
LINE
8
boundary
62
5
39
2
10
11.806951
20
135.482015
11
12.851617
21
134.195429
0
LINE
8
boundary
62
5
39
2
10
12.851617
20
134.195429
11
14.036271
21
133.036440
0
LINE
8
boundary
62
5
39
2
10
14.036271
20
133.036440
11
15.345439
21
132.020211
0
LINE
8
boundary
62
5
39
2
10
15.345439
20
132.020211
11
16.762016
21
131.160007
0
LINE
8
boundary
62
5
39
2
10
16.762016
20
131.160007
11
18.267501
21
130.467065
0
LINE
8
boundary
62
5
39
2
10
18.267501
20
130.467065
11
19.492923
21
130.163554
0
LINE
8
boundary
62
5
39
2
10
19.492923
20
130.163554
11
21.018941
21
129.614338
0
LINE
8
boundary
62
5
39
2
10
21.018941
20
129.614338
11
22.302729
21
128.956151
0
LINE
8
boundary
62
5
39
2
10
22.302729
20
128.956151
11
23.502128
21
128.154422
0
LINE
8
boundary
62
5
39
2
10
23.502128
20
128.154422
11
24.601162
21
127.219844
0
LINE
8
boundary
62
5
39
2
10
24.601162
20
127.219844
11
25.585192
21
126.164851
0
LINE
8
boundary
62
5
39
2
10
25.585192
20
126.164851
11
26.441110
21
125.003503
0
LINE
8
boundary
62
5
39
2
10
26.441110
20
125.003503
11
27.157514
21
123.751266
0
LINE
8
boundary
62
5
39
2
10
27.157514
20
123.751266
11
27.724863
21
122.424830
0
LINE
8
boundary
62
5
39
2
10
27.724863
20
122.424830
11
28.135597
21
121.041853
0
LINE
8
boundary
62
5
39
2
10
28.135597
20
121.041853
11
28.384247
21
119.620762
0
LINE
8
boundary
62
5
39
2
10
28.384247
20
119.620762
11
28.457100
21
118.360419
0
LINE
8
boundary
62
5
39
2
10
28.457100
20
118.360419
11
28.467500
21
117.716169
0
LINE
8
boundary
62
5
39
2
10
28.467500
20
117.716169
11
28.467500
21
114.463733
0
LINE
8
boundary
62
5
39
2
10
28.467500
20
114.463733
11
28.467500
21
113.604554
0
LINE
8
boundary
62
5
39
2
10
28.467500
20
113.604554
11
28.467500
21
107.586264
0
LINE
8
boundary
62
5
39
2
10
28.467500
20
107.586264
11
28.696606
21
107.050663
0
LINE
8
boundary
62
5
39
2
10
28.696606
20
107.050663
11
28.483259
21
106.484268
0
LINE
8
boundary
62
5
39
2
10
28.483259
20
106.484268
11
27.931899
21
106.234629
0
LINE
8
boundary
62
5
39
2
10
27.931899
20
106.234629
11
27.365505
21
106.447973
0
LINE
8
boundary
62
5
39
2
10
27.365505
20
106.447973
11
24.761801
21
106.463731
0
LINE
8
boundary
62
5
39
2
10
24.761801
20
106.463731
11
6.667500
21
106.463731
0
LINE
8
boundary
62
5
39
2
10
6.667500
20
106.463731
11
6.667500
21
104.463734
0
LINE
8
boundary
62
5
39
2
10
6.667500
20
104.463734
11
6.667500
21
98.742092
0
LINE
8
boundary
62
5
39
2
10
6.667500
20
98.742092
11
6.667500
21
58.663736
0
LINE
8
boundary
62
5
39
2
10
6.667500
20
58.663736
11
9.250668
21
58.663736
0
LINE
8
boundary
62
5
39
2
10
9.250668
20
58.663736
11
27.344968
21
58.663736
0
LINE
8
boundary
62
5
39
2
10
27.344968
20
58.663736
11
27.880570
21
58.892837
0
LINE
8
boundary
62
5
39
2
10
27.880570
20
58.892837
11
28.446964
21
58.679494
0
LINE
8
boundary
62
5
39
2
10
28.446964
20
58.679494
11
28.696606
21
58.128134
0
LINE
8
boundary
62
5
39
2
10
28.696606
20
58.128134
11
28.483259
21
57.561739
0
LINE
8
boundary
62
5
39
2
10
28.483259
20
57.561739
11
28.467500
21
56.217701
0
LINE
8
boundary
62
5
39
2
10
28.467500
20
56.217701
11
28.467500
21
46.946976
0
LINE
8
boundary
62
5
39
2
10
28.467500
20
46.946976
11
28.394648
21
45.686633
0
LINE
8
boundary
62
5
39
2
10
28.394648
20
45.686633
11
28.135598
21
44.085616
0
LINE
8
boundary
62
5
39
2
10
28.135598
20
44.085616
11
27.724863
21
42.702637
0
LINE
8
boundary
62
5
39
2
10
27.724863
20
42.702637
11
27.157515
21
41.376201
0
LINE
8
boundary
62
5
39
2
10
27.157515
20
41.376201
11
26.441110
21
40.123964
0
LINE
8
boundary
62
5
39
2
10
26.441110
20
40.123964
11
25.585192
21
38.962616
0
LINE
8
boundary
62
5
39
2
10
25.585192
20
38.962616
11
24.601162
21
37.907623
0
LINE
8
boundary
62
5
39
2
10
24.601162
20
37.907623
11
23.502128
21
36.973045
0
LINE
8
boundary
62
5
39
2
10
23.502128
20
36.973045
11
22.302729
21
36.171316
0
LINE
8
boundary
62
5
39
2
10
22.302729
20
36.171316
11
21.018941
21
35.513129
0
LINE
8
boundary
62
5
39
2
10
21.018941
20
35.513129
11
19.667866
21
35.007243
0
LINE
8
boundary
62
5
39
2
10
19.667866
20
35.007243
11
18.442444
21
34.703731
0
LINE
8
boundary
62
5
39
2
10
18.442444
20
34.703731
11
16.762016
21
33.967460
0
LINE
8
boundary
62
5
39
2
10
16.762016
20
33.967460
11
15.345439
21
33.107256
0
LINE
8
boundary
62
5
39
2
10
15.345439
20
33.107256
11
14.036271
21
32.091027
0
LINE
8
boundary
62
5
39
2
10
14.036271
20
32.091027
11
12.851617
21
30.932037
0
LINE
8
boundary
62
5
39
2
10
12.851617
20
30.932037
11
11.806952
21
29.645452
0
LINE
8
boundary
62
5
39
2
10
11.806952
20
29.645452
11
10.915921
21
28.248057
0
LINE
8
boundary
62
5
39
2
10
10.915921
20
28.248057
11
10.190170
21
26.758110
0
LINE
8
boundary
62
5
39
2
10
10.190170
20
26.758110
11
9.639176
21
25.195082
0
LINE
8
boundary
62
5
39
2
10
9.639176
20
25.195082
11
9.270136
21
23.579392
0
LINE
8
boundary
62
5
39
2
10
9.270136
20
23.579392
11
9.087875
21
21.932139
0
LINE
8
boundary
62
5
39
2
10
9.087875
20
21.932139
11
9.094772
21
20.274851
0
LINE
8
boundary
62
5
39
2
10
9.094772
20
20.274851
11
9.290737
21
18.629179
0
LINE
8
boundary
62
5
39
2
10
9.290737
20
18.629179
11
9.625427
21
17.218066
0
LINE
8
boundary
62
5
39
2
10
9.625427
20
17.218066
11
10.166733
21
15.652909
0
LINE
8
boundary
62
5
39
2
10
10.166733
20
15.652909
11
10.975315
21
13.974382
0
LINE
8
boundary
62
5
39
2
10
10.975315
20
13.974382
11
11.877942
21
12.584441
0
LINE
8
boundary
62
5
39
2
10
11.877942
20
12.584441
11
12.933279
21
11.306582
0
LINE
8
boundary
62
5
39
2
10
12.933279
20
11.306582
11
14.127538
21
10.157506
0
LINE
8
annotation
62
1
39
211
10
33.876371
20
38.786203
11
33.876371
21
55.181429
0
LINE
8
annotation
62
1
39
211
10
33.876371
20
55.181429
11
30.231502
21
51.535532
0
LINE
8
frame
62
5
39
2
10
0.000000
20
0.000000
11
210.058000
21
0.000000
0
LINE
8
frame
62
5
39
2
10
210.058000
20
0.000000
11
210.058000
21
296.926000
0
LINE
8
frame
62
5
39
2
10
210.058000
20
296.926000
11
0.000000
21
296.926000
0
LINE
8
frame
62
5
39
2
10
0.000000
20
296.926000
11
0.000000
21
0.000000
0
ENDSEC
0
EOF
