0
SECTION
2
HEADER
9
$ACADVER
1
AC1009
0
ENDSEC
0
SECTION
2
TABLES
0
TABLE
2
VPORT
70
1
0
VPORT
2
ACTIVE
70
0
10
0.0
20
0.0
11
0.0
21
0.0
12
0.0
22
0.0
13
0.0
23
0.0
14
0.0
24
0.0
15
0.0
25
0.0
16
0.0
26
0.0
36
0.0
17
0.0
27
0.0
37
0.0
40
0.0
41
0.0
42
0.0
43
0.0
44
0.0
50
0.0
51
0.0
71
0
72
1000
73
1
74
3
75
0
76
0
77
0
78
0
0
ENDTAB
0
ENDSEC
0
SECTION
2
ENTITIES
0
LINE
8
hole
62
5
39
2
10
15.335017
20
36.528765
11
15.551742
21
37.069494
0
LINE
8
hole
62
5
39
2
10
15.551742
20
37.069494
11
15.567500
21
39.844967
0
LINE
8
hole
62
5
39
2
10
15.567500
20
39.844967
11
15.338396
21
40.380568
0
LINE
8
hole
62
5
39
2
10
15.338396
20
40.380568
11
15.551742
21
40.946962
0
LINE
8
hole
62
5
39
2
10
15.551742
20
40.946962
11
16.103102
21
41.196604
0
LINE
8
hole
62
5
39
2
10
16.103102
20
41.196604
11
16.669495
21
40.983257
0
LINE
8
hole
62
5
39
2
10
16.669495
20
40.983257
11
17.644967
21
40.967499
0
LINE
8
hole
62
5
39
2
10
17.644967
20
40.967499
11
18.180568
21
41.196604
0
LINE
8
hole
62
5
39
2
10
18.180568
20
41.196604
11
18.746962
21
40.983257
0
LINE
8
hole
62
5
39
2
10
18.746962
20
40.983257
11
18.996604
21
40.431898
0
LINE
8
hole
62
5
39
2
10
18.996604
20
40.431898
11
18.783257
21
39.865504
0
LINE
8
hole
62
5
39
2
10
18.783257
20
39.865504
11
18.767499
21
37.090031
0
LINE
8
hole
62
5
39
2
10
18.767499
20
37.090031
11
18.996604
21
36.554429
0
LINE
8
hole
62
5
39
2
10
18.996604
20
36.554429
11
18.783257
21
35.988036
0
LINE
8
hole
62
5
39
2
10
18.783257
20
35.988036
11
18.231898
21
35.738394
0
LINE
8
hole
62
5
39
2
10
18.231898
20
35.738394
11
17.665504
21
35.951741
0
LINE
8
hole
62
5
39
2
10
17.665504
20
35.951741
11
16.690032
21
35.967499
0
LINE
8
hole
62
5
39
2
10
16.690032
20
35.967499
11
16.154431
21
35.738394
0
LINE
8
hole
62
5
39
2
10
16.154431
20
35.738394
11
15.588037
21
35.951740
0
LINE
8
hole
62
5
39
2
10
15.588037
20
35.951740
11
15.338396
21
36.503100
0
LINE
8
hole
62
5
39
2
10
15.338396
20
36.503100
11
15.335017
21
36.528765
0
LINE
8
hole
62
5
39
2
10
15.441357
20
20.131891
11
15.358684
21
20.708539
0
LINE
8
hole
62
5
39
2
10
15.358684
20
20.708539
11
15.567500
21
21.434196
0
LINE
8
hole
62
5
39
2
10
15.567500
20
21.434196
11
15.567500
21
23.844968
0
LINE
8
hole
62
5
39
2
10
15.567500
20
23.844968
11
15.338396
21
24.380569
0
LINE
8
hole
62
5
39
2
10
15.338396
20
24.380569
11
15.551742
21
24.946963
0
LINE
8
hole
62
5
39
2
10
15.551742
20
24.946963
11
16.103102
21
25.196605
0
LINE
8
hole
62
5
39
2
10
16.103102
20
25.196605
11
16.669495
21
24.983258
0
LINE
8
hole
62
5
39
2
10
16.669495
20
24.983258
11
17.644967
21
24.967500
0
LINE
8
hole
62
5
39
2
10
17.644967
20
24.967500
11
18.180568
21
25.196605
0
LINE
8
hole
62
5
39
2
10
18.180568
20
25.196605
11
18.746962
21
24.983258
0
LINE
8
hole
62
5
39
2
10
18.746962
20
24.983258
11
18.996604
21
24.431898
0
LINE
8
hole
62
5
39
2
10
18.996604
20
24.431898
11
18.783257
21
23.865505
0
LINE
8
hole
62
5
39
2
10
18.783257
20
23.865505
11
18.767499
21
21.090031
0
LINE
8
hole
62
5
39
2
10
18.767499
20
21.090031
11
18.996604
21
20.554430
0
LINE
8
hole
62
5
39
2
10
18.996604
20
20.554430
11
18.783257
21
19.988037
0
LINE
8
hole
62
5
39
2
10
18.783257
20
19.988037
11
18.231898
21
19.738394
0
LINE
8
hole
62
5
39
2
10
18.231898
20
19.738394
11
17.665504
21
19.951741
0
LINE
8
hole
62
5
39
2
10
17.665504
20
19.951741
11
16.690032
21
19.967500
0
LINE
8
hole
62
5
39
2
10
16.690032
20
19.967500
11
16.154431
21
19.738395
0
LINE
8
hole
62
5
39
2
10
16.154431
20
19.738395
11
15.588037
21
19.951741
0
LINE
8
hole
62
5
39
2
10
15.588037
20
19.951741
11
15.441357
21
20.131891
0
LINE
8
hole
62
5
39
2
10
42.257116
20
20.111354
11
42.158683
21
20.708539
0
LINE
8
hole
62
5
39
2
10
42.158683
20
20.708539
11
42.367500
21
21.434196
0
LINE
8
hole
62
5
39
2
10
42.367500
20
21.434196
11
42.367500
21
23.844968
0
LINE
8
hole
62
5
39
2
10
42.367500
20
23.844968
11
42.138394
21
24.380569
0
LINE
8
hole
62
5
39
2
10
42.138394
20
24.380569
11
42.351741
21
24.946963
0
LINE
8
hole
62
5
39
2
10
42.351741
20
24.946963
11
42.903101
21
25.196605
0
LINE
8
hole
62
5
39
2
10
42.903101
20
25.196605
11
43.469494
21
24.983258
0
LINE
8
hole
62
5
39
2
10
43.469494
20
24.983258
11
44.444966
21
24.967500
0
LINE
8
hole
62
5
39
2
10
44.444966
20
24.967500
11
44.980567
21
25.196605
0
LINE
8
hole
62
5
39
2
10
44.980567
20
25.196605
11
45.546961
21
24.983258
0
LINE
8
hole
62
5
39
2
10
45.546961
20
24.983258
11
45.796603
21
24.431898
0
LINE
8
hole
62
5
39
2
10
45.796603
20
24.431898
11
45.583257
21
23.865505
0
LINE
8
hole
62
5
39
2
10
45.583257
20
23.865505
11
45.567498
21
21.090031
0
LINE
8
hole
62
5
39
2
10
45.567498
20
21.090031
11
45.796603
21
20.554430
0
LINE
8
hole
62
5
39
2
10
45.796603
20
20.554430
11
45.583257
21
19.988037
0
LINE
8
hole
62
5
39
2
10
45.583257
20
19.988037
11
45.031896
21
19.738394
0
LINE
8
hole
62
5
39
2
10
45.031896
20
19.738394
11
44.465503
21
19.951741
0
LINE
8
hole
62
5
39
2
10
44.465503
20
19.951741
11
43.490031
21
19.967500
0
LINE
8
hole
62
5
39
2
10
43.490031
20
19.967500
11
42.954430
21
19.738394
0
LINE
8
hole
62
5
39
2
10
42.954430
20
19.738394
11
42.388036
21
19.951741
0
LINE
8
hole
62
5
39
2
10
42.388036
20
19.951741
11
42.257116
21
20.111354
0
LINE
8
hole
62
5
39
2
10
42.388036
20
35.951741
11
42.138394
21
36.503100
0
LINE
8
hole
62
5
39
2
10
42.138394
20
36.503100
11
42.351741
21
37.069494
0
LINE
8
hole
62
5
39
2
10
42.351741
20
37.069494
11
42.367500
21
39.844967
0
LINE
8
hole
62
5
39
2
10
42.367500
20
39.844967
11
42.138394
21
40.380568
0
LINE
8
hole
62
5
39
2
10
42.138394
20
40.380568
11
42.351741
21
40.946962
0
LINE
8
hole
62
5
39
2
10
42.351741
20
40.946962
11
42.903101
21
41.196604
0
LINE
8
hole
62
5
39
2
10
42.903101
20
41.196604
11
43.469494
21
40.983257
0
LINE
8
hole
62
5
39
2
10
43.469494
20
40.983257
11
44.444966
21
40.967499
0
LINE
8
hole
62
5
39
2
10
44.444966
20
40.967499
11
44.980567
21
41.196604
0
LINE
8
hole
62
5
39
2
10
44.980567
20
41.196604
11
45.546961
21
40.983257
0
LINE
8
hole
62
5
39
2
10
45.546961
20
40.983257
11
45.796603
21
40.431898
0
LINE
8
hole
62
5
39
2
10
45.796603
20
40.431898
11
45.583257
21
39.865504
0
LINE
8
hole
62
5
39
2
10
45.583257
20
39.865504
11
45.567498
21
37.090031
0
LINE
8
hole
62
5
39
2
10
45.567498
20
37.090031
11
45.796603
21
36.554430
0
LINE
8
hole
62
5
39
2
10
45.796603
20
36.554430
11
45.583257
21
35.988036
0
LINE
8
hole
62
5
39
2
10
45.583257
20
35.988036
11
45.031896
21
35.738394
0
LINE
8
hole
62
5
39
2
10
45.031896
20
35.738394
11
44.465503
21
35.951741
0
LINE
8
hole
62
5
39
2
10
44.465503
20
35.951741
11
43.490031
21
35.967499
0
LINE
8
hole
62
5
39
2
10
43.490031
20
35.967499
11
42.954430
21
35.738394
0
LINE
8
hole
62
5
39
2
10
42.954430
20
35.738394
11
42.388036
21
35.951741
0
LINE
8
hole
62
5
39
2
10
8.950630
20
40.693877
11
8.448235
21
41.350686
0
LINE
8
hole
62
5
39
2
10
8.448235
20
41.350686
11
8.187905
21
42.191669
0
LINE
8
hole
62
5
39
2
10
8.187905
20
42.191669
11
8.248952
21
43.069904
0
LINE
8
hole
62
5
39
2
10
8.248952
20
43.069904
11
8.623131
21
43.866780
0
LINE
8
hole
62
5
39
2
10
8.623131
20
43.866780
11
9.259911
21
44.474676
0
LINE
8
hole
62
5
39
2
10
9.259911
20
44.474676
11
10.073285
21
44.811492
0
LINE
8
hole
62
5
39
2
10
10.073285
20
44.811492
11
10.953406
21
44.831739
0
LINE
8
hole
62
5
39
2
10
10.953406
20
44.831739
11
11.781409
21
44.532680
0
LINE
8
hole
62
5
39
2
10
11.781409
20
44.532680
11
12.445467
21
43.954710
0
LINE
8
hole
62
5
39
2
10
12.445467
20
43.954710
11
12.855896
21
43.175882
0
LINE
8
hole
62
5
39
2
10
12.855896
20
43.175882
11
12.957263
21
42.301384
0
LINE
8
hole
62
5
39
2
10
12.957263
20
42.301384
11
12.735878
21
41.449319
0
LINE
8
hole
62
5
39
2
10
12.735878
20
41.449319
11
12.221644
21
40.734766
0
LINE
8
hole
62
5
39
2
10
12.221644
20
40.734766
11
11.484008
21
40.254228
0
LINE
8
hole
62
5
39
2
10
11.484008
20
40.254228
11
10.622592
21
40.072604
0
LINE
8
hole
62
5
39
2
10
10.622592
20
40.072604
11
9.753736
21
40.214425
0
LINE
8
hole
62
5
39
2
10
9.753736
20
40.214425
11
8.994784
21
40.660535
0
LINE
8
hole
62
5
39
2
10
8.994784
20
40.660535
11
8.950630
21
40.693877
0
LINE
8
hole
62
5
39
2
10
8.419109
20
17.397729
11
8.187905
21
18.191670
0
LINE
8
hole
62
5
39
2
10
8.187905
20
18.191670
11
8.248951
21
19.069905
0
LINE
8
hole
62
5
39
2
10
8.248951
20
19.069905
11
8.623131
21
19.866782
0
LINE
8
hole
62
5
39
2
10
8.623131
20
19.866782
11
9.259911
21
20.474678
0
LINE
8
hole
62
5
39
2
10
9.259911
20
20.474678
11
10.073285
21
20.811494
0
LINE
8
hole
62
5
39
2
10
10.073285
20
20.811494
11
10.953406
21
20.831740
0
LINE
8
hole
62
5
39
2
10
10.953406
20
20.831740
11
11.781409
21
20.532683
0
LINE
8
hole
62
5
39
2
10
11.781409
20
20.532683
11
12.445467
21
19.954711
0
LINE
8
hole
62
5
39
2
10
12.445467
20
19.954711
11
12.855896
21
19.175883
0
LINE
8
hole
62
5
39
2
10
12.855896
20
19.175883
11
12.957263
21
18.301384
0
LINE
8
hole
62
5
39
2
10
12.957263
20
18.301384
11
12.735878
21
17.449321
0
LINE
8
hole
62
5
39
2
10
12.735878
20
17.449321
11
12.221644
21
16.734766
0
LINE
8
hole
62
5
39
2
10
12.221644
20
16.734766
11
11.484008
21
16.254229
0
LINE
8
hole
62
5
39
2
10
11.484008
20
16.254229
11
10.622592
21
16.072605
0
LINE
8
hole
62
5
39
2
10
10.622592
20
16.072605
11
9.753736
21
16.214425
0
LINE
8
hole
62
5
39
2
10
9.753736
20
16.214425
11
8.994784
21
16.660535
0
LINE
8
hole
62
5
39
2
10
8.994784
20
16.660535
11
8.448235
21
17.350687
0
LINE
8
hole
62
5
39
2
10
8.448235
20
17.350687
11
8.419109
21
17.397729
0
LINE
8
hole
62
5
39
2
10
48.419108
20
17.397729
11
48.187902
21
18.191670
0
LINE
8
hole
62
5
39
2
10
48.187902
20
18.191670
11
48.248949
21
19.069904
0
LINE
8
hole
62
5
39
2
10
48.248949
20
19.069904
11
48.623131
21
19.866782
0
LINE
8
hole
62
5
39
2
10
48.623131
20
19.866782
11
49.259908
21
20.474678
0
LINE
8
hole
62
5
39
2
10
49.259908
20
20.474678
11
50.073283
21
20.811494
0
LINE
8
hole
62
5
39
2
10
50.073283
20
20.811494
11
50.953404
21
20.831740
0
LINE
8
hole
62
5
39
2
10
50.953404
20
20.831740
11
51.781407
21
20.532683
0
LINE
8
hole
62
5
39
2
10
51.781407
20
20.532683
11
52.445466
21
19.954711
0
LINE
8
hole
62
5
39
2
10
52.445466
20
19.954711
11
52.855893
21
19.175883
0
LINE
8
hole
62
5
39
2
10
52.855893
20
19.175883
11
52.957260
21
18.301385
0
LINE
8
hole
62
5
39
2
10
52.957260
20
18.301385
11
52.735877
21
17.449321
0
LINE
8
hole
62
5
39
2
10
52.735877
20
17.449321
11
52.221643
21
16.734766
0
LINE
8
hole
62
5
39
2
10
52.221643
20
16.734766
11
51.484007
21
16.254228
0
LINE
8
hole
62
5
39
2
10
51.484007
20
16.254228
11
50.622591
21
16.072605
0
LINE
8
hole
62
5
39
2
10
50.622591
20
16.072605
11
49.753735
21
16.214425
0
LINE
8
hole
62
5
39
2
10
49.753735
20
16.214425
11
48.994783
21
16.660535
0
LINE
8
hole
62
5
39
2
10
48.994783
20
16.660535
11
48.448234
21
17.350687
0
LINE
8
hole
62
5
39
2
10
48.448234
20
17.350687
11
48.419108
21
17.397729
0
LINE
8
hole
62
5
39
2
10
48.994783
20
40.660535
11
48.448234
21
41.350686
0
LINE
8
hole
62
5
39
2
10
48.448234
20
41.350686
11
48.187902
21
42.191669
0
LINE
8
hole
62
5
39
2
10
48.187902
20
42.191669
11
48.248949
21
43.069904
0
LINE
8
hole
62
5
39
2
10
48.248949
20
43.069904
11
48.623131
21
43.866780
0
LINE
8
hole
62
5
39
2
10
48.623131
20
43.866780
11
49.259908
21
44.474676
0
LINE
8
hole
62
5
39
2
10
49.259908
20
44.474676
11
50.073283
21
44.811492
0
LINE
8
hole
62
5
39
2
10
50.073283
20
44.811492
11
50.953404
21
44.831739
0
LINE
8
hole
62
5
39
2
10
50.953404
20
44.831739
11
51.781407
21
44.532681
0
LINE
8
hole
62
5
39
2
10
51.781407
20
44.532681
11
52.445466
21
43.954710
0
LINE
8
hole
62
5
39
2
10
52.445466
20
43.954710
11
52.855893
21
43.175882
0
LINE
8
hole
62
5
39
2
10
52.855893
20
43.175882
11
52.957260
21
42.301384
0
LINE
8
hole
62
5
39
2
10
52.957260
20
42.301384
11
52.735877
21
41.449319
0
LINE
8
hole
62
5
39
2
10
52.735877
20
41.449319
11
52.221643
21
40.734766
0
LINE
8
hole
62
5
39
2
10
52.221643
20
40.734766
11
51.484007
21
40.254228
0
LINE
8
hole
62
5
39
2
10
51.484007
20
40.254228
11
50.622591
21
40.072604
0
LINE
8
hole
62
5
39
2
10
50.622591
20
40.072604
11
49.753735
21
40.214425
0
LINE
8
hole
62
5
39
2
10
49.753735
20
40.214425
11
48.994783
21
40.660535
0
LINE
8
hole
62
5
39
2
10
48.994783
20
24.660535
11
48.448234
21
25.350686
0
LINE
8
hole
62
5
39
2
10
48.448234
20
25.350686
11
48.187902
21
26.191669
0
LINE
8
hole
62
5
39
2
10
48.187902
20
26.191669
11
48.248949
21
27.069904
0
LINE
8
hole
62
5
39
2
10
48.248949
20
27.069904
11
48.623131
21
27.866781
0
LINE
8
hole
62
5
39
2
10
48.623131
20
27.866781
11
49.259908
21
28.474678
0
LINE
8
hole
62
5
39
2
10
49.259908
20
28.474678
11
50.073283
21
28.811493
0
LINE
8
hole
62
5
39
2
10
50.073283
20
28.811493
11
50.953404
21
28.831740
0
LINE
8
hole
62
5
39
2
10
50.953404
20
28.831740
11
51.781407
21
28.532683
0
LINE
8
hole
62
5
39
2
10
51.781407
20
28.532683
11
52.445466
21
27.954711
0
LINE
8
hole
62
5
39
2
10
52.445466
20
27.954711
11
52.855893
21
27.175883
0
LINE
8
hole
62
5
39
2
10
52.855893
20
27.175883
11
52.957260
21
26.301384
0
LINE
8
hole
62
5
39
2
10
52.957260
20
26.301384
11
52.735877
21
25.449319
0
LINE
8
hole
62
5
39
2
10
52.735877
20
25.449319
11
52.221643
21
24.734766
0
LINE
8
hole
62
5
39
2
10
52.221643
20
24.734766
11
51.484007
21
24.254229
0
LINE
8
hole
62
5
39
2
10
51.484007
20
24.254229
11
50.622591
21
24.072604
0
LINE
8
hole
62
5
39
2
10
50.622591
20
24.072604
11
49.753735
21
24.214425
0
LINE
8
hole
62
5
39
2
10
49.753735
20
24.214425
11
48.994783
21
24.660535
0
LINE
8
hole
62
5
39
2
10
8.419109
20
25.397727
11
8.187905
21
26.191669
0
LINE
8
hole
62
5
39
2
10
8.187905
20
26.191669
11
8.248951
21
27.069904
0
LINE
8
hole
62
5
39
2
10
8.248951
20
27.069904
11
8.623132
21
27.866781
0
LINE
8
hole
62
5
39
2
10
8.623132
20
27.866781
11
9.259911
21
28.474678
0
LINE
8
hole
62
5
39
2
10
9.259911
20
28.474678
11
10.073285
21
28.811493
0
LINE
8
hole
62
5
39
2
10
10.073285
20
28.811493
11
10.953406
21
28.831740
0
LINE
8
hole
62
5
39
2
10
10.953406
20
28.831740
11
11.781409
21
28.532683
0
LINE
8
hole
62
5
39
2
10
11.781409
20
28.532683
11
12.445467
21
27.954711
0
LINE
8
hole
62
5
39
2
10
12.445467
20
27.954711
11
12.855896
21
27.175883
0
LINE
8
hole
62
5
39
2
10
12.855896
20
27.175883
11
12.957263
21
26.301384
0
LINE
8
hole
62
5
39
2
10
12.957263
20
26.301384
11
12.735878
21
25.449319
0
LINE
8
hole
62
5
39
2
10
12.735878
20
25.449319
11
12.221644
21
24.734766
0
LINE
8
hole
62
5
39
2
10
12.221644
20
24.734766
11
11.484008
21
24.254229
0
LINE
8
hole
62
5
39
2
10
11.484008
20
24.254229
11
10.622592
21
24.072604
0
LINE
8
hole
62
5
39
2
10
10.622592
20
24.072604
11
9.753736
21
24.214425
0
LINE
8
hole
62
5
39
2
10
9.753736
20
24.214425
11
8.994784
21
24.660535
0
LINE
8
hole
62
5
39
2
10
8.994784
20
24.660535
11
8.448235
21
25.350686
0
LINE
8
hole
62
5
39
2
10
8.448235
20
25.350686
11
8.419109
21
25.397727
0
LINE
8
hole
62
5
39
2
10
48.448234
20
33.350686
11
48.187902
21
34.191669
0
LINE
8
hole
62
5
39
2
10
48.187902
20
34.191669
11
48.248949
21
35.069904
0
LINE
8
hole
62
5
39
2
10
48.248949
20
35.069904
11
48.623131
21
35.866781
0
LINE
8
hole
62
5
39
2
10
48.623131
20
35.866781
11
49.259908
21
36.474677
0
LINE
8
hole
62
5
39
2
10
49.259908
20
36.474677
11
50.073283
21
36.811494
0
LINE
8
hole
62
5
39
2
10
50.073283
20
36.811494
11
50.953404
21
36.831740
0
LINE
8
hole
62
5
39
2
10
50.953404
20
36.831740
11
51.781407
21
36.532682
0
LINE
8
hole
62
5
39
2
10
51.781407
20
36.532682
11
52.445466
21
35.954710
0
LINE
8
hole
62
5
39
2
10
52.445466
20
35.954710
11
52.855893
21
35.175883
0
LINE
8
hole
62
5
39
2
10
52.855893
20
35.175883
11
52.957260
21
34.301384
0
LINE
8
hole
62
5
39
2
10
52.957260
20
34.301384
11
52.735877
21
33.449320
0
LINE
8
hole
62
5
39
2
10
52.735877
20
33.449320
11
52.221643
21
32.734766
0
LINE
8
hole
62
5
39
2
10
52.221643
20
32.734766
11
51.484007
21
32.254228
0
LINE
8
hole
62
5
39
2
10
51.484007
20
32.254228
11
50.622591
21
32.072604
0
LINE
8
hole
62
5
39
2
10
50.622591
20
32.072604
11
49.753735
21
32.214424
0
LINE
8
hole
62
5
39
2
10
49.753735
20
32.214424
11
48.994783
21
32.660535
0
LINE
8
hole
62
5
39
2
10
48.994783
20
32.660535
11
48.448234
21
33.350686
0
LINE
8
hole
62
5
39
2
10
8.652258
20
33.021176
11
8.279105
21
33.759116
0
LINE
8
hole
62
5
39
2
10
8.279105
20
33.759116
11
8.177738
21
34.633615
0
LINE
8
hole
62
5
39
2
10
8.177738
20
34.633615
11
8.399121
21
35.485679
0
LINE
8
hole
62
5
39
2
10
8.399121
20
35.485679
11
8.913356
21
36.200232
0
LINE
8
hole
62
5
39
2
10
8.913356
20
36.200232
11
9.650992
21
36.680770
0
LINE
8
hole
62
5
39
2
10
9.650992
20
36.680770
11
10.512407
21
36.862394
0
LINE
8
hole
62
5
39
2
10
10.512407
20
36.862394
11
11.381263
21
36.720574
0
LINE
8
hole
62
5
39
2
10
11.381263
20
36.720574
11
12.140216
21
36.274464
0
LINE
8
hole
62
5
39
2
10
12.140216
20
36.274464
11
12.686764
21
35.584313
0
LINE
8
hole
62
5
39
2
10
12.686764
20
35.584313
11
12.947096
21
34.743330
0
LINE
8
hole
62
5
39
2
10
12.947096
20
34.743330
11
12.886049
21
33.865094
0
LINE
8
hole
62
5
39
2
10
12.886049
20
33.865094
11
12.511868
21
33.068217
0
LINE
8
hole
62
5
39
2
10
12.511868
20
33.068217
11
11.875090
21
32.460321
0
LINE
8
hole
62
5
39
2
10
11.875090
20
32.460321
11
11.061715
21
32.123505
0
LINE
8
hole
62
5
39
2
10
11.061715
20
32.123505
11
10.181594
21
32.103259
0
LINE
8
hole
62
5
39
2
10
10.181594
20
32.103259
11
9.353592
21
32.402316
0
LINE
8
hole
62
5
39
2
10
9.353592
20
32.402316
11
8.689533
21
32.980288
0
LINE
8
hole
62
5
39
2
10
8.689533
20
32.980288
11
8.652258
21
33.021176
0
LINE
8
hole
62
5
39
2
10
27.086889
20
21.628079
11
26.375942
21
21.947280
0
LINE
8
hole
62
5
39
2
10
26.375942
20
21.947280
11
25.596514
21
22.377222
0
LINE
8
hole
62
5
39
2
10
25.596514
20
22.377222
11
24.860771
21
22.878260
0
LINE
8
hole
62
5
39
2
10
24.860771
20
22.878260
11
24.175179
21
23.445995
0
LINE
8
hole
62
5
39
2
10
24.175179
20
23.445995
11
23.545763
21
24.075434
0
LINE
8
hole
62
5
39
2
10
23.545763
20
24.075434
11
22.978054
21
24.761046
0
LINE
8
hole
62
5
39
2
10
22.978054
20
24.761046
11
22.477042
21
25.496808
0
LINE
8
hole
62
5
39
2
10
22.477042
20
25.496808
11
22.047128
21
26.276252
0
LINE
8
hole
62
5
39
2
10
22.047128
20
26.276252
11
21.692091
21
27.092528
0
LINE
8
hole
62
5
39
2
10
21.692091
20
27.092528
11
21.415052
21
27.938464
0
LINE
8
hole
62
5
39
2
10
21.415052
20
27.938464
11
21.218446
21
28.806626
0
LINE
8
hole
62
5
39
2
10
21.218446
20
28.806626
11
21.104000
21
29.689383
0
LINE
8
hole
62
5
39
2
10
21.104000
20
29.689383
11
21.072719
21
30.578978
0
LINE
8
hole
62
5
39
2
10
21.072719
20
30.578978
11
21.124878
21
31.467594
0
LINE
8
hole
62
5
39
2
10
21.124878
20
31.467594
11
21.260019
21
32.347420
0
LINE
8
hole
62
5
39
2
10
21.260019
20
32.347420
11
21.476955
21
33.210726
0
LINE
8
hole
62
5
39
2
10
21.476955
20
33.210726
11
21.773779
21
34.049925
0
LINE
8
hole
62
5
39
2
10
21.773779
20
34.049925
11
22.147882
21
34.857641
0
LINE
8
hole
62
5
39
2
10
22.147882
20
34.857641
11
22.595977
21
35.626775
0
LINE
8
hole
62
5
39
2
10
22.595977
20
35.626775
11
23.114127
21
36.350570
0
LINE
8
hole
62
5
39
2
10
23.114127
20
36.350570
11
23.697776
21
37.022665
0
LINE
8
hole
62
5
39
2
10
23.697776
20
37.022665
11
24.341798
21
37.637153
0
LINE
8
hole
62
5
39
2
10
24.341798
20
37.637153
11
25.040531
21
38.188633
0
LINE
8
hole
62
5
39
2
10
25.040531
20
38.188633
11
25.787835
21
38.672260
0
LINE
8
hole
62
5
39
2
10
25.787835
20
38.672260
11
26.577143
21
39.083783
0
LINE
8
hole
62
5
39
2
10
26.577143
20
39.083783
11
27.401518
21
39.419586
0
LINE
8
hole
62
5
39
2
10
27.401518
20
39.419586
11
28.253716
21
39.676717
0
LINE
8
hole
62
5
39
2
10
28.253716
20
39.676717
11
29.126248
21
39.852918
0
LINE
8
hole
62
5
39
2
10
29.126248
20
39.852918
11
30.011445
21
39.946639
0
LINE
8
hole
62
5
39
2
10
30.011445
20
39.946639
11
30.901529
21
39.957058
0
LINE
8
hole
62
5
39
2
10
30.901529
20
39.957058
11
31.788678
21
39.884082
0
LINE
8
hole
62
5
39
2
10
31.788678
20
39.884082
11
32.665095
21
39.728351
0
LINE
8
hole
62
5
39
2
10
32.665095
20
39.728351
11
33.523078
21
39.491237
0
LINE
8
hole
62
5
39
2
10
33.523078
20
39.491237
11
34.355087
21
39.174822
0
LINE
8
hole
62
5
39
2
10
34.355087
20
39.174822
11
35.153811
21
38.781886
0
LINE
8
hole
62
5
39
2
10
35.153811
20
38.781886
11
35.912230
21
38.315883
0
LINE
8
hole
62
5
39
2
10
35.912230
20
38.315883
11
36.623680
21
37.780909
0
LINE
8
hole
62
5
39
2
10
36.623680
20
37.780909
11
37.281908
21
37.181664
0
LINE
8
hole
62
5
39
2
10
37.281908
20
37.181664
11
37.881129
21
36.523414
0
LINE
8
hole
62
5
39
2
10
37.881129
20
36.523414
11
38.416078
21
35.811946
0
LINE
8
hole
62
5
39
2
10
38.416078
20
35.811946
11
38.882052
21
35.053510
0
LINE
8
hole
62
5
39
2
10
38.882052
20
35.053510
11
39.274959
21
34.254771
0
LINE
8
hole
62
5
39
2
10
39.274959
20
34.254771
11
39.591344
21
33.422750
0
LINE
8
hole
62
5
39
2
10
39.591344
20
33.422750
11
39.828427
21
32.564759
0
LINE
8
hole
62
5
39
2
10
39.828427
20
32.564759
11
39.984125
21
31.688336
0
LINE
8
hole
62
5
39
2
10
39.984125
20
31.688336
11
40.057069
21
30.801185
0
LINE
8
hole
62
5
39
2
10
40.057069
20
30.801185
11
40.046619
21
29.911101
0
LINE
8
hole
62
5
39
2
10
40.046619
20
29.911101
11
39.952866
21
29.025907
0
LINE
8
hole
62
5
39
2
10
39.952866
20
29.025907
11
39.776634
21
28.153382
0
LINE
8
hole
62
5
39
2
10
39.776634
20
28.153382
11
39.519471
21
27.301193
0
LINE
8
hole
62
5
39
2
10
39.519471
20
27.301193
11
39.183638
21
26.476830
0
LINE
8
hole
62
5
39
2
10
39.183638
20
26.476830
11
38.772086
21
25.687537
0
LINE
8
hole
62
5
39
2
10
38.772086
20
25.687537
11
38.288432
21
24.940250
0
LINE
8
hole
62
5
39
2
10
38.288432
20
24.940250
11
37.736926
21
24.241538
0
LINE
8
hole
62
5
39
2
10
37.736926
20
24.241538
11
37.122416
21
23.597539
0
LINE
8
hole
62
5
39
2
10
37.122416
20
23.597539
11
36.450300
21
23.013913
0
LINE
8
hole
62
5
39
2
10
36.450300
20
23.013913
11
35.726486
21
22.495791
0
LINE
8
hole
62
5
39
2
10
35.726486
20
22.495791
11
34.957335
21
22.047723
0
LINE
8
hole
62
5
39
2
10
34.957335
20
22.047723
11
34.149605
21
21.673649
0
LINE
8
hole
62
5
39
2
10
34.149605
20
21.673649
11
33.310396
21
21.376855
0
LINE
8
hole
62
5
39
2
10
33.310396
20
21.376855
11
32.447082
21
21.159951
0
LINE
8
hole
62
5
39
2
10
32.447082
20
21.159951
11
31.567251
21
21.024842
0
LINE
8
hole
62
5
39
2
10
31.567251
20
21.024842
11
30.678633
21
20.972714
0
LINE
8
hole
62
5
39
2
10
30.678633
20
20.972714
11
29.789039
21
21.004028
0
LINE
8
hole
62
5
39
2
10
29.789039
20
21.004028
11
28.906286
21
21.118507
0
LINE
8
hole
62
5
39
2
10
28.906286
20
21.118507
11
28.038132
21
21.315144
0
LINE
8
hole
62
5
39
2
10
28.038132
20
21.315144
11
27.192206
21
21.592214
0
LINE
8
hole
62
5
39
2
10
27.192206
20
21.592214
11
27.086889
21
21.628079
0
LINE
8
boundary
62
5
39
2
10
14.444969
20
14.567501
11
14.980569
21
14.796605
0
LINE
8
boundary
62
5
39
2
10
14.980569
20
14.796605
11
15.546963
21
14.583259
0
LINE
8
boundary
62
5
39
2
10
15.546963
20
14.583259
11
15.796605
21
14.031899
0
LINE
8
boundary
62
5
39
2
10
15.796605
20
14.031899
11
15.583259
21
13.465506
0
LINE
8
boundary
62
5
39
2
10
15.583259
20
13.465506
11
15.567500
21
12.598283
0
LINE
8
boundary
62
5
39
2
10
15.567500
20
12.598283
11
15.567500
21
6.667500
0
LINE
8
boundary
62
5
39
2
10
15.567500
20
6.667500
11
19.315300
21
6.667500
0
LINE
8
boundary
62
5
39
2
10
19.315300
20
6.667500
11
45.567498
21
6.667500
0
LINE
8
boundary
62
5
39
2
10
45.567498
20
6.667500
11
45.567498
21
7.514187
0
LINE
8
boundary
62
5
39
2
10
45.567498
20
7.514187
11
45.567498
21
13.444969
0
LINE
8
boundary
62
5
39
2
10
45.567498
20
13.444969
11
45.338393
21
13.980569
0
LINE
8
boundary
62
5
39
2
10
45.338393
20
13.980569
11
45.551740
21
14.546964
0
LINE
8
boundary
62
5
39
2
10
45.551740
20
14.546964
11
46.103100
21
14.796605
0
LINE
8
boundary
62
5
39
2
10
46.103100
20
14.796605
11
46.669493
21
14.583259
0
LINE
8
boundary
62
5
39
2
10
46.669493
20
14.583259
11
47.661643
21
14.567501
0
LINE
8
boundary
62
5
39
2
10
47.661643
20
14.567501
11
54.467498
21
14.567501
0
LINE
8
boundary
62
5
39
2
10
54.467498
20
14.567501
11
54.467498
21
18.540168
0
LINE
8
boundary
62
5
39
2
10
54.467498
20
18.540168
11
54.467498
21
46.367498
0
LINE
8
boundary
62
5
39
2
10
54.467498
20
46.367498
11
53.495885
21
46.367498
0
LINE
8
boundary
62
5
39
2
10
53.495885
20
46.367498
11
46.690030
21
46.367498
0
LINE
8
boundary
62
5
39
2
10
46.690030
20
46.367498
11
46.154429
21
46.138393
0
LINE
8
boundary
62
5
39
2
10
46.154429
20
46.138393
11
45.588035
21
46.351739
0
LINE
8
boundary
62
5
39
2
10
45.588035
20
46.351739
11
45.338393
21
46.903100
0
LINE
8
boundary
62
5
39
2
10
45.338393
20
46.903100
11
45.551740
21
47.469493
0
LINE
8
boundary
62
5
39
2
10
45.551740
20
47.469493
11
45.567498
21
48.336716
0
LINE
8
boundary
62
5
39
2
10
45.567498
20
48.336716
11
45.567498
21
54.267499
0
LINE
8
boundary
62
5
39
2
10
45.567498
20
54.267499
11
41.819699
21
54.267499
0
LINE
8
boundary
62
5
39
2
10
41.819699
20
54.267499
11
15.567500
21
54.267499
0
LINE
8
boundary
62
5
39
2
10
15.567500
20
54.267499
11
15.567500
21
53.420812
0
LINE
8
boundary
62
5
39
2
10
15.567500
20
53.420812
11
15.567500
21
47.490029
0
LINE
8
boundary
62
5
39
2
10
15.567500
20
47.490029
11
15.796605
21
46.954429
0
LINE
8
boundary
62
5
39
2
10
15.796605
20
46.954429
11
15.583259
21
46.388034
0
LINE
8
boundary
62
5
39
2
10
15.583259
20
46.388034
11
15.031898
21
46.138393
0
LINE
8
boundary
62
5
39
2
10
15.031898
20
46.138393
11
14.465505
21
46.351739
0
LINE
8
boundary
62
5
39
2
10
14.465505
20
46.351739
11
13.473355
21
46.367498
0
LINE
8
boundary
62
5
39
2
10
13.473355
20
46.367498
11
6.667500
21
46.367498
0
LINE
8
boundary
62
5
39
2
10
6.667500
20
46.367498
11
6.667500
21
42.394831
0
LINE
8
boundary
62
5
39
2
10
6.667500
20
42.394831
11
6.667500
21
14.567501
0
LINE
8
boundary
62
5
39
2
10
6.667500
20
14.567501
11
7.639113
21
14.567501
0
LINE
8
boundary
62
5
39
2
10
7.639113
20
14.567501
11
14.444969
21
14.567501
0
LINE
8
annotation
62
1
39
211
10
41.424656
20
11.112540
11
41.424656
21
21.438372
0
LINE
8
annotation
62
1
39
211
10
41.424656
20
21.438372
11
39.129091
21
19.142159
0
LINE
8
frame
62
5
39
2
10
0.000000
20
0.000000
11
215.900000
21
0.000000
0
LINE
8
frame
62
5
39
2
10
215.900000
20
0.000000
11
215.900000
21
279.400000
0
LINE
8
frame
62
5
39
2
10
215.900000
20
279.400000
11
0.000000
21
279.400000
0
LINE
8
frame
62
5
39
2
10
0.000000
20
279.400000
11
0.000000
21
0.000000
0
ENDSEC
0
EOF
