0
SECTION
2
HEADER
9
$ACADVER
1
AC1009
0
ENDSEC
0
SECTION
2
TABLES
0
TABLE
2
VPORT
70
1
0
VPORT
2
ACTIVE
70
0
10
0.0
20
0.0
11
0.0
21
0.0
12
0.0
22
0.0
13
0.0
23
0.0
14
0.0
24
0.0
15
0.0
25
0.0
16
0.0
26
0.0
36
0.0
17
0.0
27
0.0
37
0.0
40
0.0
41
0.0
42
0.0
43
0.0
44
0.0
50
0.0
51
0.0
71
0
72
1000
73
1
74
3
75
0
76
0
77
0
78
0
0
ENDTAB
0
ENDSEC
0
SECTION
2
ENTITIES
0
LINE
8
hole
62
5
39
2
10
42.460248
20
35.889673
11
42.162062
21
36.323327
0
LINE
8
hole
62
5
39
2
10
42.162062
20
36.323327
11
42.209383
21
36.864218
0
LINE
8
hole
62
5
39
2
10
42.209383
20
36.864218
11
42.367500
21
37.434196
0
LINE
8
hole
62
5
39
2
10
42.367500
20
37.434196
11
42.367500
21
39.844967
0
LINE
8
hole
62
5
39
2
10
42.367500
20
39.844967
11
42.138036
21
40.337053
0
LINE
8
hole
62
5
39
2
10
42.138036
20
40.337053
11
42.278563
21
40.861510
0
LINE
8
hole
62
5
39
2
10
42.278563
20
40.861510
11
42.723328
21
41.172936
0
LINE
8
hole
62
5
39
2
10
42.723328
20
41.172936
11
43.264219
21
41.125614
0
LINE
8
hole
62
5
39
2
10
43.264219
20
41.125614
11
44.444966
21
40.967499
0
LINE
8
hole
62
5
39
2
10
44.444966
20
40.967499
11
44.937053
21
41.196962
0
LINE
8
hole
62
5
39
2
10
44.937053
20
41.196962
11
45.461509
21
41.056435
0
LINE
8
hole
62
5
39
2
10
45.461509
20
41.056435
11
45.772936
21
40.611670
0
LINE
8
hole
62
5
39
2
10
45.772936
20
40.611670
11
45.725614
21
40.070780
0
LINE
8
hole
62
5
39
2
10
45.725614
20
40.070780
11
45.567498
21
39.500802
0
LINE
8
hole
62
5
39
2
10
45.567498
20
39.500802
11
45.567498
21
37.090031
0
LINE
8
hole
62
5
39
2
10
45.567498
20
37.090031
11
45.796961
21
36.597945
0
LINE
8
hole
62
5
39
2
10
45.796961
20
36.597945
11
45.656434
21
36.073489
0
LINE
8
hole
62
5
39
2
10
45.656434
20
36.073489
11
45.211671
21
35.762062
0
LINE
8
hole
62
5
39
2
10
45.211671
20
35.762062
11
44.670781
21
35.809383
0
LINE
8
hole
62
5
39
2
10
44.670781
20
35.809383
11
43.490031
21
35.967499
0
LINE
8
hole
62
5
39
2
10
43.490031
20
35.967499
11
42.997944
21
35.738036
0
LINE
8
hole
62
5
39
2
10
42.997944
20
35.738036
11
42.473489
21
35.878563
0
LINE
8
hole
62
5
39
2
10
42.473489
20
35.878563
11
42.460248
21
35.889673
0
LINE
8
hole
62
5
39
2
10
42.209383
20
20.193312
11
42.162062
21
20.734204
0
LINE
8
hole
62
5
39
2
10
42.162062
20
20.734204
11
42.367500
21
21.434196
0
LINE
8
hole
62
5
39
2
10
42.367500
20
21.434196
11
42.367500
21
23.844968
0
LINE
8
hole
62
5
39
2
10
42.367500
20
23.844968
11
42.138036
21
24.337054
0
LINE
8
hole
62
5
39
2
10
42.138036
20
24.337054
11
42.278563
21
24.861509
0
LINE
8
hole
62
5
39
2
10
42.278563
20
24.861509
11
42.723328
21
25.172937
0
LINE
8
hole
62
5
39
2
10
42.723328
20
25.172937
11
43.264219
21
25.125616
0
LINE
8
hole
62
5
39
2
10
43.264219
20
25.125616
11
44.444966
21
24.967500
0
LINE
8
hole
62
5
39
2
10
44.444966
20
24.967500
11
44.937053
21
25.196963
0
LINE
8
hole
62
5
39
2
10
44.937053
20
25.196963
11
45.461509
21
25.056436
0
LINE
8
hole
62
5
39
2
10
45.461509
20
25.056436
11
45.772936
21
24.611671
0
LINE
8
hole
62
5
39
2
10
45.772936
20
24.611671
11
45.725614
21
24.070780
0
LINE
8
hole
62
5
39
2
10
45.725614
20
24.070780
11
45.567498
21
23.500803
0
LINE
8
hole
62
5
39
2
10
45.567498
20
23.500803
11
45.567498
21
21.090031
0
LINE
8
hole
62
5
39
2
10
45.567498
20
21.090031
11
45.796961
21
20.597945
0
LINE
8
hole
62
5
39
2
10
45.796961
20
20.597945
11
45.656434
21
20.073489
0
LINE
8
hole
62
5
39
2
10
45.656434
20
20.073489
11
45.211671
21
19.762062
0
LINE
8
hole
62
5
39
2
10
45.211671
20
19.762062
11
44.670781
21
19.809384
0
LINE
8
hole
62
5
39
2
10
44.670781
20
19.809384
11
43.490031
21
19.967500
0
LINE
8
hole
62
5
39
2
10
43.490031
20
19.967500
11
42.997944
21
19.738037
0
LINE
8
hole
62
5
39
2
10
42.997944
20
19.738037
11
42.473489
21
19.878564
0
LINE
8
hole
62
5
39
2
10
42.473489
20
19.878564
11
42.209383
21
20.193312
0
LINE
8
hole
62
5
39
2
10
15.556390
20
35.980740
11
15.338037
21
36.459585
0
LINE
8
hole
62
5
39
2
10
15.338037
20
36.459585
11
15.478564
21
36.984041
0
LINE
8
hole
62
5
39
2
10
15.478564
20
36.984041
11
15.567500
21
39.844967
0
LINE
8
hole
62
5
39
2
10
15.567500
20
39.844967
11
15.338037
21
40.337053
0
LINE
8
hole
62
5
39
2
10
15.338037
20
40.337053
11
15.478564
21
40.861510
0
LINE
8
hole
62
5
39
2
10
15.478564
20
40.861510
11
15.923327
21
41.172936
0
LINE
8
hole
62
5
39
2
10
15.923327
20
41.172936
11
16.464218
21
41.125614
0
LINE
8
hole
62
5
39
2
10
16.464218
20
41.125614
11
17.644967
21
40.967499
0
LINE
8
hole
62
5
39
2
10
17.644967
20
40.967499
11
18.137054
21
41.196962
0
LINE
8
hole
62
5
39
2
10
18.137054
20
41.196962
11
18.661510
21
41.056435
0
LINE
8
hole
62
5
39
2
10
18.661510
20
41.056435
11
18.972937
21
40.611670
0
LINE
8
hole
62
5
39
2
10
18.972937
20
40.611670
11
18.925616
21
40.070780
0
LINE
8
hole
62
5
39
2
10
18.925616
20
40.070780
11
18.767499
21
39.500802
0
LINE
8
hole
62
5
39
2
10
18.767499
20
39.500802
11
18.767499
21
37.090031
0
LINE
8
hole
62
5
39
2
10
18.767499
20
37.090031
11
18.996963
21
36.597945
0
LINE
8
hole
62
5
39
2
10
18.996963
20
36.597945
11
18.856436
21
36.073489
0
LINE
8
hole
62
5
39
2
10
18.856436
20
36.073489
11
18.411670
21
35.762062
0
LINE
8
hole
62
5
39
2
10
18.411670
20
35.762062
11
17.870780
21
35.809383
0
LINE
8
hole
62
5
39
2
10
17.870780
20
35.809383
11
16.690032
21
35.967499
0
LINE
8
hole
62
5
39
2
10
16.690032
20
35.967499
11
16.197946
21
35.738035
0
LINE
8
hole
62
5
39
2
10
16.197946
20
35.738035
11
15.673489
21
35.878563
0
LINE
8
hole
62
5
39
2
10
15.673489
20
35.878563
11
15.556390
21
35.980740
0
LINE
8
hole
62
5
39
2
10
15.478564
20
20.073489
11
15.338037
21
20.597945
0
LINE
8
hole
62
5
39
2
10
15.338037
20
20.597945
11
15.567500
21
21.090031
0
LINE
8
hole
62
5
39
2
10
15.567500
20
21.090031
11
15.567500
21
23.844968
0
LINE
8
hole
62
5
39
2
10
15.567500
20
23.844968
11
15.338037
21
24.337054
0
LINE
8
hole
62
5
39
2
10
15.338037
20
24.337054
11
15.478564
21
24.861509
0
LINE
8
hole
62
5
39
2
10
15.478564
20
24.861509
11
15.923327
21
25.172937
0
LINE
8
hole
62
5
39
2
10
15.923327
20
25.172937
11
16.464218
21
25.125616
0
LINE
8
hole
62
5
39
2
10
16.464218
20
25.125616
11
17.644967
21
24.967500
0
LINE
8
hole
62
5
39
2
10
17.644967
20
24.967500
11
18.137054
21
25.196963
0
LINE
8
hole
62
5
39
2
10
18.137054
20
25.196963
11
18.661510
21
25.056436
0
LINE
8
hole
62
5
39
2
10
18.661510
20
25.056436
11
18.972937
21
24.611671
0
LINE
8
hole
62
5
39
2
10
18.972937
20
24.611671
11
18.925616
21
24.070780
0
LINE
8
hole
62
5
39
2
10
18.925616
20
24.070780
11
18.767499
21
23.500803
0
LINE
8
hole
62
5
39
2
10
18.767499
20
23.500803
11
18.767499
21
21.090031
0
LINE
8
hole
62
5
39
2
10
18.767499
20
21.090031
11
18.996963
21
20.597945
0
LINE
8
hole
62
5
39
2
10
18.996963
20
20.597945
11
18.856436
21
20.073489
0
LINE
8
hole
62
5
39
2
10
18.856436
20
20.073489
11
18.411670
21
19.762062
0
LINE
8
hole
62
5
39
2
10
18.411670
20
19.762062
11
17.870780
21
19.809384
0
LINE
8
hole
62
5
39
2
10
17.870780
20
19.809384
11
16.690032
21
19.967500
0
LINE
8
hole
62
5
39
2
10
16.690032
20
19.967500
11
16.197946
21
19.738037
0
LINE
8
hole
62
5
39
2
10
16.197946
20
19.738037
11
15.673490
21
19.878564
0
LINE
8
hole
62
5
39
2
10
15.673490
20
19.878564
11
15.478564
21
20.073489
0
LINE
8
hole
62
5
39
2
10
8.961587
20
40.683951
11
8.506132
21
41.241179
0
LINE
8
hole
62
5
39
2
10
8.506132
20
41.241179
11
8.284966
21
41.725858
0
LINE
8
hole
62
5
39
2
10
8.284966
20
41.725858
11
8.169143
21
42.436159
0
LINE
8
hole
62
5
39
2
10
8.169143
20
42.436159
11
8.219944
21
42.966487
0
LINE
8
hole
62
5
39
2
10
8.219944
20
42.966487
11
8.474792
21
43.639535
0
LINE
8
hole
62
5
39
2
10
8.474792
20
43.639535
11
8.783951
21
44.073412
0
LINE
8
hole
62
5
39
2
10
8.783951
20
44.073412
11
9.341180
21
44.528867
0
LINE
8
hole
62
5
39
2
10
9.341180
20
44.528867
11
9.825860
21
44.750035
0
LINE
8
hole
62
5
39
2
10
9.825860
20
44.750035
11
10.536160
21
44.865856
0
LINE
8
hole
62
5
39
2
10
10.536160
20
44.865856
11
11.066488
21
44.815052
0
LINE
8
hole
62
5
39
2
10
11.066488
20
44.815052
11
11.739538
21
44.560207
0
LINE
8
hole
62
5
39
2
10
11.739538
20
44.560207
11
12.173414
21
44.251045
0
LINE
8
hole
62
5
39
2
10
12.173414
20
44.251045
11
12.628867
21
43.693818
0
LINE
8
hole
62
5
39
2
10
12.628867
20
43.693818
11
12.850035
21
43.209141
0
LINE
8
hole
62
5
39
2
10
12.850035
20
43.209141
11
12.965858
21
42.498839
0
LINE
8
hole
62
5
39
2
10
12.965858
20
42.498839
11
12.915055
21
41.968511
0
LINE
8
hole
62
5
39
2
10
12.915055
20
41.968511
11
12.660207
21
41.295461
0
LINE
8
hole
62
5
39
2
10
12.660207
20
41.295461
11
12.351048
21
40.861586
0
LINE
8
hole
62
5
39
2
10
12.351048
20
40.861586
11
11.793821
21
40.406131
0
LINE
8
hole
62
5
39
2
10
11.793821
20
40.406131
11
11.309141
21
40.184963
0
LINE
8
hole
62
5
39
2
10
11.309141
20
40.184963
11
10.598840
21
40.069142
0
LINE
8
hole
62
5
39
2
10
10.598840
20
40.069142
11
10.068513
21
40.119944
0
LINE
8
hole
62
5
39
2
10
10.068513
20
40.119944
11
9.395463
21
40.374791
0
LINE
8
hole
62
5
39
2
10
9.395463
20
40.374791
11
8.961587
21
40.683951
0
LINE
8
hole
62
5
39
2
10
48.806142
20
40.839395
11
48.489039
21
41.267499
0
LINE
8
hole
62
5
39
2
10
48.489039
20
41.267499
11
48.228066
21
41.938197
0
LINE
8
hole
62
5
39
2
10
48.228066
20
41.938197
11
48.167498
21
42.467499
0
LINE
8
hole
62
5
39
2
10
48.167498
20
42.467499
11
48.276841
21
43.178827
0
LINE
8
hole
62
5
39
2
10
48.276841
20
43.178827
11
48.489039
21
43.667497
0
LINE
8
hole
62
5
39
2
10
48.489039
20
43.667497
11
48.939393
21
44.228854
0
LINE
8
hole
62
5
39
2
10
48.939393
20
44.228854
11
49.367498
21
44.545960
0
LINE
8
hole
62
5
39
2
10
49.367498
20
44.545960
11
50.038197
21
44.806930
0
LINE
8
hole
62
5
39
2
10
50.038197
20
44.806930
11
50.567499
21
44.867499
0
LINE
8
hole
62
5
39
2
10
50.567499
20
44.867499
11
51.278825
21
44.758157
0
LINE
8
hole
62
5
39
2
10
51.278825
20
44.758157
11
51.767498
21
44.545959
0
LINE
8
hole
62
5
39
2
10
51.767498
20
44.545959
11
52.328856
21
44.095603
0
LINE
8
hole
62
5
39
2
10
52.328856
20
44.095603
11
52.645959
21
43.667497
0
LINE
8
hole
62
5
39
2
10
52.645959
20
43.667497
11
52.906931
21
42.996801
0
LINE
8
hole
62
5
39
2
10
52.906931
20
42.996801
11
52.967498
21
42.467499
0
LINE
8
hole
62
5
39
2
10
52.967498
20
42.467499
11
52.858156
21
41.756172
0
LINE
8
hole
62
5
39
2
10
52.858156
20
41.756172
11
52.645959
21
41.267499
0
LINE
8
hole
62
5
39
2
10
52.645959
20
41.267499
11
52.195603
21
40.706142
0
LINE
8
hole
62
5
39
2
10
52.195603
20
40.706142
11
51.767498
21
40.389038
0
LINE
8
hole
62
5
39
2
10
51.767498
20
40.389038
11
51.096800
21
40.128067
0
LINE
8
hole
62
5
39
2
10
51.096800
20
40.128067
11
50.567499
21
40.067499
0
LINE
8
hole
62
5
39
2
10
50.567499
20
40.067499
11
49.856172
21
40.176841
0
LINE
8
hole
62
5
39
2
10
49.856172
20
40.176841
11
49.367498
21
40.389038
0
LINE
8
hole
62
5
39
2
10
49.367498
20
40.389038
11
48.806142
21
40.839395
0
LINE
8
hole
62
5
39
2
10
49.367498
20
16.389039
11
48.806142
21
16.839395
0
LINE
8
hole
62
5
39
2
10
48.806142
20
16.839395
11
48.489039
21
17.267501
0
LINE
8
hole
62
5
39
2
10
48.489039
20
17.267501
11
48.228066
21
17.938198
0
LINE
8
hole
62
5
39
2
10
48.228066
20
17.938198
11
48.167498
21
18.467500
0
LINE
8
hole
62
5
39
2
10
48.167498
20
18.467500
11
48.276841
21
19.178827
0
LINE
8
hole
62
5
39
2
10
48.276841
20
19.178827
11
48.489039
21
19.667500
0
LINE
8
hole
62
5
39
2
10
48.489039
20
19.667500
11
48.939393
21
20.228856
0
LINE
8
hole
62
5
39
2
10
48.939393
20
20.228856
11
49.367498
21
20.545960
0
LINE
8
hole
62
5
39
2
10
49.367498
20
20.545960
11
50.038197
21
20.806932
0
LINE
8
hole
62
5
39
2
10
50.038197
20
20.806932
11
50.567499
21
20.867499
0
LINE
8
hole
62
5
39
2
10
50.567499
20
20.867499
11
51.278825
21
20.758158
0
LINE
8
hole
62
5
39
2
10
51.278825
20
20.758158
11
51.767498
21
20.545960
0
LINE
8
hole
62
5
39
2
10
51.767498
20
20.545960
11
52.328856
21
20.095604
0
LINE
8
hole
62
5
39
2
10
52.328856
20
20.095604
11
52.645959
21
19.667500
0
LINE
8
hole
62
5
39
2
10
52.645959
20
19.667500
11
52.906931
21
18.996801
0
LINE
8
hole
62
5
39
2
10
52.906931
20
18.996801
11
52.967498
21
18.467500
0
LINE
8
hole
62
5
39
2
10
52.967498
20
18.467500
11
52.858156
21
17.756172
0
LINE
8
hole
62
5
39
2
10
52.858156
20
17.756172
11
52.645959
21
17.267501
0
LINE
8
hole
62
5
39
2
10
52.645959
20
17.267501
11
52.195603
21
16.706145
0
LINE
8
hole
62
5
39
2
10
52.195603
20
16.706145
11
51.767498
21
16.389039
0
LINE
8
hole
62
5
39
2
10
51.767498
20
16.389039
11
51.096800
21
16.128069
0
LINE
8
hole
62
5
39
2
10
51.096800
20
16.128069
11
50.567499
21
16.067500
0
LINE
8
hole
62
5
39
2
10
50.567499
20
16.067500
11
49.856171
21
16.176841
0
LINE
8
hole
62
5
39
2
10
49.856171
20
16.176841
11
49.367498
21
16.389039
0
LINE
8
hole
62
5
39
2
10
8.645609
20
17.032426
11
8.374990
21
17.491332
0
LINE
8
hole
62
5
39
2
10
8.374990
20
17.491332
11
8.185557
21
18.185635
0
LINE
8
hole
62
5
39
2
10
8.185557
20
18.185635
11
8.180648
21
18.718368
0
LINE
8
hole
62
5
39
2
10
8.180648
20
18.718368
11
8.363744
21
19.414369
0
LINE
8
hole
62
5
39
2
10
8.363744
20
19.414369
11
8.625859
21
19.878185
0
LINE
8
hole
62
5
39
2
10
8.625859
20
19.878185
11
9.132427
21
20.389390
0
LINE
8
hole
62
5
39
2
10
9.132427
20
20.389390
11
9.591333
21
20.660008
0
LINE
8
hole
62
5
39
2
10
9.591333
20
20.660008
11
10.285636
21
20.849442
0
LINE
8
hole
62
5
39
2
10
10.285636
20
20.849442
11
10.818369
21
20.854351
0
LINE
8
hole
62
5
39
2
10
10.818369
20
20.854351
11
11.514369
21
20.671255
0
LINE
8
hole
62
5
39
2
10
11.514369
20
20.671255
11
11.978185
21
20.409140
0
LINE
8
hole
62
5
39
2
10
11.978185
20
20.409140
11
12.489390
21
19.902574
0
LINE
8
hole
62
5
39
2
10
12.489390
20
19.902574
11
12.760008
21
19.443667
0
LINE
8
hole
62
5
39
2
10
12.760008
20
19.443667
11
12.949443
21
18.749365
0
LINE
8
hole
62
5
39
2
10
12.949443
20
18.749365
11
12.954353
21
18.216632
0
LINE
8
hole
62
5
39
2
10
12.954353
20
18.216632
11
12.771254
21
17.520631
0
LINE
8
hole
62
5
39
2
10
12.771254
20
17.520631
11
12.509140
21
17.056816
0
LINE
8
hole
62
5
39
2
10
12.509140
20
17.056816
11
12.002574
21
16.545610
0
LINE
8
hole
62
5
39
2
10
12.002574
20
16.545610
11
11.543668
21
16.274991
0
LINE
8
hole
62
5
39
2
10
11.543668
20
16.274991
11
10.849365
21
16.085557
0
LINE
8
hole
62
5
39
2
10
10.849365
20
16.085557
11
10.316632
21
16.080647
0
LINE
8
hole
62
5
39
2
10
10.316632
20
16.080647
11
9.620632
21
16.263744
0
LINE
8
hole
62
5
39
2
10
9.620632
20
16.263744
11
9.156816
21
16.525860
0
LINE
8
hole
62
5
39
2
10
9.156816
20
16.525860
11
8.645609
21
17.032426
0
LINE
8
hole
62
5
39
2
10
48.389239
20
33.463369
11
48.219943
21
33.968511
0
LINE
8
hole
62
5
39
2
10
48.219943
20
33.968511
11
48.179003
21
34.687027
0
LINE
8
hole
62
5
39
2
10
48.179003
20
34.687027
11
48.284963
21
35.209140
0
LINE
8
hole
62
5
39
2
10
48.284963
20
35.209140
11
48.608766
21
35.851863
0
LINE
8
hole
62
5
39
2
10
48.608766
20
35.851863
11
48.961584
21
36.251047
0
LINE
8
hole
62
5
39
2
10
48.961584
20
36.251047
11
49.563368
21
36.645760
0
LINE
8
hole
62
5
39
2
10
49.563368
20
36.645760
11
50.068510
21
36.815053
0
LINE
8
hole
62
5
39
2
10
50.068510
20
36.815053
11
50.787026
21
36.855994
0
LINE
8
hole
62
5
39
2
10
50.787026
20
36.855994
11
51.309138
21
36.750035
0
LINE
8
hole
62
5
39
2
10
51.309138
20
36.750035
11
51.951862
21
36.426233
0
LINE
8
hole
62
5
39
2
10
51.951862
20
36.426233
11
52.351047
21
36.073413
0
LINE
8
hole
62
5
39
2
10
52.351047
20
36.073413
11
52.745760
21
35.471630
0
LINE
8
hole
62
5
39
2
10
52.745760
20
35.471630
11
52.915054
21
34.966487
0
LINE
8
hole
62
5
39
2
10
52.915054
20
34.966487
11
52.955993
21
34.247971
0
LINE
8
hole
62
5
39
2
10
52.955993
20
34.247971
11
52.850033
21
33.725858
0
LINE
8
hole
62
5
39
2
10
52.850033
20
33.725858
11
52.526232
21
33.083135
0
LINE
8
hole
62
5
39
2
10
52.526232
20
33.083135
11
52.173412
21
32.683952
0
LINE
8
hole
62
5
39
2
10
52.173412
20
32.683952
11
51.571628
21
32.289238
0
LINE
8
hole
62
5
39
2
10
51.571628
20
32.289238
11
51.066486
21
32.119945
0
LINE
8
hole
62
5
39
2
10
51.066486
20
32.119945
11
50.347970
21
32.079004
0
LINE
8
hole
62
5
39
2
10
50.347970
20
32.079004
11
49.825858
21
32.184964
0
LINE
8
hole
62
5
39
2
10
49.825858
20
32.184964
11
49.183134
21
32.508766
0
LINE
8
hole
62
5
39
2
10
49.183134
20
32.508766
11
48.783950
21
32.861586
0
LINE
8
hole
62
5
39
2
10
48.783950
20
32.861586
11
48.389239
21
33.463369
0
LINE
8
hole
62
5
39
2
10
8.806143
20
32.839395
11
8.489040
21
33.267499
0
LINE
8
hole
62
5
39
2
10
8.489040
20
33.267499
11
8.228067
21
33.938197
0
LINE
8
hole
62
5
39
2
10
8.228067
20
33.938197
11
8.167501
21
34.467499
0
LINE
8
hole
62
5
39
2
10
8.167501
20
34.467499
11
8.276843
21
35.178826
0
LINE
8
hole
62
5
39
2
10
8.276843
20
35.178826
11
8.489040
21
35.667499
0
LINE
8
hole
62
5
39
2
10
8.489040
20
35.667499
11
8.939396
21
36.228855
0
LINE
8
hole
62
5
39
2
10
8.939396
20
36.228855
11
9.367500
21
36.545960
0
LINE
8
hole
62
5
39
2
10
9.367500
20
36.545960
11
10.038199
21
36.806931
0
LINE
8
hole
62
5
39
2
10
10.038199
20
36.806931
11
10.567500
21
36.867499
0
LINE
8
hole
62
5
39
2
10
10.567500
20
36.867499
11
11.278827
21
36.758157
0
LINE
8
hole
62
5
39
2
10
11.278827
20
36.758157
11
11.767501
21
36.545960
0
LINE
8
hole
62
5
39
2
10
11.767501
20
36.545960
11
12.328857
21
36.095604
0
LINE
8
hole
62
5
39
2
10
12.328857
20
36.095604
11
12.645960
21
35.667499
0
LINE
8
hole
62
5
39
2
10
12.645960
20
35.667499
11
12.906932
21
34.996801
0
LINE
8
hole
62
5
39
2
10
12.906932
20
34.996801
11
12.967500
21
34.467499
0
LINE
8
hole
62
5
39
2
10
12.967500
20
34.467499
11
12.858158
21
33.756172
0
LINE
8
hole
62
5
39
2
10
12.858158
20
33.756172
11
12.645960
21
33.267499
0
LINE
8
hole
62
5
39
2
10
12.645960
20
33.267499
11
12.195605
21
32.706143
0
LINE
8
hole
62
5
39
2
10
12.195605
20
32.706143
11
11.767501
21
32.389038
0
LINE
8
hole
62
5
39
2
10
11.767501
20
32.389038
11
11.096802
21
32.128068
0
LINE
8
hole
62
5
39
2
10
11.096802
20
32.128068
11
10.567500
21
32.067499
0
LINE
8
hole
62
5
39
2
10
10.567500
20
32.067499
11
9.856174
21
32.176841
0
LINE
8
hole
62
5
39
2
10
9.856174
20
32.176841
11
9.367500
21
32.389038
0
LINE
8
hole
62
5
39
2
10
9.367500
20
32.389038
11
8.806143
21
32.839395
0
LINE
8
hole
62
5
39
2
10
8.806143
20
24.839395
11
8.489040
21
25.267500
0
LINE
8
hole
62
5
39
2
10
8.489040
20
25.267500
11
8.228067
21
25.938197
0
LINE
8
hole
62
5
39
2
10
8.228067
20
25.938197
11
8.167501
21
26.467499
0
LINE
8
hole
62
5
39
2
10
8.167501
20
26.467499
11
8.276843
21
27.178827
0
LINE
8
hole
62
5
39
2
10
8.276843
20
27.178827
11
8.489040
21
27.667500
0
LINE
8
hole
62
5
39
2
10
8.489040
20
27.667500
11
8.939395
21
28.228856
0
LINE
8
hole
62
5
39
2
10
8.939395
20
28.228856
11
9.367500
21
28.545960
0
LINE
8
hole
62
5
39
2
10
9.367500
20
28.545960
11
10.038199
21
28.806931
0
LINE
8
hole
62
5
39
2
10
10.038199
20
28.806931
11
10.567500
21
28.867499
0
LINE
8
hole
62
5
39
2
10
10.567500
20
28.867499
11
11.278827
21
28.758158
0
LINE
8
hole
62
5
39
2
10
11.278827
20
28.758158
11
11.767501
21
28.545960
0
LINE
8
hole
62
5
39
2
10
11.767501
20
28.545960
11
12.328857
21
28.095604
0
LINE
8
hole
62
5
39
2
10
12.328857
20
28.095604
11
12.645960
21
27.667499
0
LINE
8
hole
62
5
39
2
10
12.645960
20
27.667499
11
12.906932
21
26.996801
0
LINE
8
hole
62
5
39
2
10
12.906932
20
26.996801
11
12.967500
21
26.467499
0
LINE
8
hole
62
5
39
2
10
12.967500
20
26.467499
11
12.858158
21
25.756173
0
LINE
8
hole
62
5
39
2
10
12.858158
20
25.756173
11
12.645960
21
25.267500
0
LINE
8
hole
62
5
39
2
10
12.645960
20
25.267500
11
12.195605
21
24.706143
0
LINE
8
hole
62
5
39
2
10
12.195605
20
24.706143
11
11.767501
21
24.389039
0
LINE
8
hole
62
5
39
2
10
11.767501
20
24.389039
11
11.096802
21
24.128068
0
LINE
8
hole
62
5
39
2
10
11.096802
20
24.128068
11
10.567500
21
24.067499
0
LINE
8
hole
62
5
39
2
10
10.567500
20
24.067499
11
9.856174
21
24.176841
0
LINE
8
hole
62
5
39
2
10
9.856174
20
24.176841
11
9.367500
21
24.389039
0
LINE
8
hole
62
5
39
2
10
9.367500
20
24.389039
11
8.806143
21
24.839395
0
LINE
8
hole
62
5
39
2
10
49.183134
20
24.508766
11
48.783950
21
24.861586
0
LINE
8
hole
62
5
39
2
10
48.783950
20
24.861586
11
48.389239
21
25.463369
0
LINE
8
hole
62
5
39
2
10
48.389239
20
25.463369
11
48.219943
21
25.968511
0
LINE
8
hole
62
5
39
2
10
48.219943
20
25.968511
11
48.179003
21
26.687028
0
LINE
8
hole
62
5
39
2
10
48.179003
20
26.687028
11
48.284963
21
27.209140
0
LINE
8
hole
62
5
39
2
10
48.284963
20
27.209140
11
48.608766
21
27.851864
0
LINE
8
hole
62
5
39
2
10
48.608766
20
27.851864
11
48.961584
21
28.251047
0
LINE
8
hole
62
5
39
2
10
48.961584
20
28.251047
11
49.563368
21
28.645761
0
LINE
8
hole
62
5
39
2
10
49.563368
20
28.645761
11
50.068510
21
28.815053
0
LINE
8
hole
62
5
39
2
10
50.068510
20
28.815053
11
50.787026
21
28.855994
0
LINE
8
hole
62
5
39
2
10
50.787026
20
28.855994
11
51.309138
21
28.750035
0
LINE
8
hole
62
5
39
2
10
51.309138
20
28.750035
11
51.951862
21
28.426233
0
LINE
8
hole
62
5
39
2
10
51.951862
20
28.426233
11
52.351047
21
28.073413
0
LINE
8
hole
62
5
39
2
10
52.351047
20
28.073413
11
52.745760
21
27.471630
0
LINE
8
hole
62
5
39
2
10
52.745760
20
27.471630
11
52.915054
21
26.966488
0
LINE
8
hole
62
5
39
2
10
52.915054
20
26.966488
11
52.955993
21
26.247971
0
LINE
8
hole
62
5
39
2
10
52.955993
20
26.247971
11
52.850033
21
25.725859
0
LINE
8
hole
62
5
39
2
10
52.850033
20
25.725859
11
52.526232
21
25.083135
0
LINE
8
hole
62
5
39
2
10
52.526232
20
25.083135
11
52.173412
21
24.683952
0
LINE
8
hole
62
5
39
2
10
52.173412
20
24.683952
11
51.571628
21
24.289238
0
LINE
8
hole
62
5
39
2
10
51.571628
20
24.289238
11
51.066486
21
24.119945
0
LINE
8
hole
62
5
39
2
10
51.066486
20
24.119945
11
50.347970
21
24.079004
0
LINE
8
hole
62
5
39
2
10
50.347970
20
24.079004
11
49.825858
21
24.184964
0
LINE
8
hole
62
5
39
2
10
49.825858
20
24.184964
11
49.183134
21
24.508766
0
LINE
8
hole
62
5
39
2
10
21.499938
20
43.844655
11
21.179814
21
44.328870
0
LINE
8
hole
62
5
39
2
10
21.179814
20
44.328870
11
21.067499
21
44.898368
0
LINE
8
hole
62
5
39
2
10
21.067499
20
44.898368
11
21.067499
21
47.967499
0
LINE
8
hole
62
5
39
2
10
21.067499
20
47.967499
11
21.122983
21
48.484955
0
LINE
8
hole
62
5
39
2
10
21.122983
20
48.484955
11
21.362696
21
49.145991
0
LINE
8
hole
62
5
39
2
10
21.362696
20
49.145991
11
21.655556
21
49.576191
0
LINE
8
hole
62
5
39
2
10
21.655556
20
49.576191
11
22.178574
21
50.046173
0
LINE
8
hole
62
5
39
2
10
22.178574
20
50.046173
11
22.639649
21
50.287523
0
LINE
8
hole
62
5
39
2
10
22.639649
20
50.287523
11
23.322456
21
50.455461
0
LINE
8
hole
62
5
39
2
10
23.322456
20
50.455461
11
25.316473
21
50.467499
0
LINE
8
hole
62
5
39
2
10
25.316473
20
50.467499
11
37.567499
21
50.467499
0
LINE
8
hole
62
5
39
2
10
37.567499
20
50.467499
11
38.084956
21
50.412015
0
LINE
8
hole
62
5
39
2
10
38.084956
20
50.412015
11
38.745990
21
50.172301
0
LINE
8
hole
62
5
39
2
10
38.745990
20
50.172301
11
39.176192
21
49.879441
0
LINE
8
hole
62
5
39
2
10
39.176192
20
49.879441
11
39.646173
21
49.356423
0
LINE
8
hole
62
5
39
2
10
39.646173
20
49.356423
11
39.887523
21
48.895350
0
LINE
8
hole
62
5
39
2
10
39.887523
20
48.895350
11
40.055461
21
48.212540
0
LINE
8
hole
62
5
39
2
10
40.055461
20
48.212540
11
40.067499
21
47.584082
0
LINE
8
hole
62
5
39
2
10
40.067499
20
47.584082
11
40.067499
21
44.898368
0
LINE
8
hole
62
5
39
2
10
40.067499
20
44.898368
11
39.955185
21
44.328870
0
LINE
8
hole
62
5
39
2
10
39.955185
20
44.328870
11
39.635061
21
43.844655
0
LINE
8
hole
62
5
39
2
10
39.635061
20
43.844655
11
39.155067
21
43.518236
0
LINE
8
hole
62
5
39
2
10
39.155067
20
43.518236
11
38.587084
21
43.398496
0
LINE
8
hole
62
5
39
2
10
38.587084
20
43.398496
11
38.016167
21
43.503366
0
LINE
8
hole
62
5
39
2
10
38.016167
20
43.503366
11
37.280530
21
43.881491
0
LINE
8
hole
62
5
39
2
10
37.280530
20
43.881491
11
36.708890
21
44.152647
0
LINE
8
hole
62
5
39
2
10
36.708890
20
44.152647
11
36.126325
21
44.399457
0
LINE
8
hole
62
5
39
2
10
36.126325
20
44.399457
11
35.533870
21
44.621479
0
LINE
8
hole
62
5
39
2
10
35.533870
20
44.621479
11
34.932578
21
44.818321
0
LINE
8
hole
62
5
39
2
10
34.932578
20
44.818321
11
34.323522
21
44.989629
0
LINE
8
hole
62
5
39
2
10
34.323522
20
44.989629
11
33.707783
21
45.135103
0
LINE
8
hole
62
5
39
2
10
33.707783
20
45.135103
11
33.086457
21
45.254481
0
LINE
8
hole
62
5
39
2
10
33.086457
20
45.254481
11
32.460649
21
45.347552
0
LINE
8
hole
62
5
39
2
10
32.460649
20
45.347552
11
31.831473
21
45.414149
0
LINE
8
hole
62
5
39
2
10
31.831473
20
45.414149
11
31.278931
21
45.449158
0
LINE
8
hole
62
5
39
2
10
31.278931
20
45.449158
11
30.646522
21
45.465831
0
LINE
8
hole
62
5
39
2
10
30.646522
20
45.465831
11
30.013972
21
45.455823
0
LINE
8
hole
62
5
39
2
10
30.013972
20
45.455823
11
29.382407
21
45.419147
0
LINE
8
hole
62
5
39
2
10
29.382407
20
45.419147
11
28.674350
21
45.347552
0
LINE
8
hole
62
5
39
2
10
28.674350
20
45.347552
11
28.048542
21
45.254481
0
LINE
8
hole
62
5
39
2
10
28.048542
20
45.254481
11
27.427216
21
45.135103
0
LINE
8
hole
62
5
39
2
10
27.427216
20
45.135103
11
26.811477
21
44.989629
0
LINE
8
hole
62
5
39
2
10
26.811477
20
44.989629
11
26.202420
21
44.818321
0
LINE
8
hole
62
5
39
2
10
26.202420
20
44.818321
11
25.601129
21
44.621479
0
LINE
8
hole
62
5
39
2
10
25.601129
20
44.621479
11
25.008674
21
44.399457
0
LINE
8
hole
62
5
39
2
10
25.008674
20
44.399457
11
24.426108
21
44.152647
0
LINE
8
hole
62
5
39
2
10
24.426108
20
44.152647
11
23.854469
21
43.881491
0
LINE
8
hole
62
5
39
2
10
23.854469
20
43.881491
11
23.294772
21
43.586470
0
LINE
8
hole
62
5
39
2
10
23.294772
20
43.586470
11
22.742234
21
43.408580
0
LINE
8
hole
62
5
39
2
10
22.742234
20
43.408580
11
22.163530
21
43.453790
0
LINE
8
hole
62
5
39
2
10
22.163530
20
43.453790
11
21.645320
21
43.715329
0
LINE
8
hole
62
5
39
2
10
21.645320
20
43.715329
11
21.499938
21
43.844655
0
LINE
8
hole
62
5
39
2
10
21.167701
20
12.271520
11
21.067499
21
12.967500
0
LINE
8
hole
62
5
39
2
10
21.067499
20
12.967500
11
21.067499
21
16.036630
0
LINE
8
hole
62
5
39
2
10
21.067499
20
16.036630
11
21.179814
21
16.606128
0
LINE
8
hole
62
5
39
2
10
21.179814
20
16.606128
11
21.499938
21
17.090344
0
LINE
8
hole
62
5
39
2
10
21.499938
20
17.090344
11
21.979931
21
17.416762
0
LINE
8
hole
62
5
39
2
10
21.979931
20
17.416762
11
22.547915
21
17.536503
0
LINE
8
hole
62
5
39
2
10
22.547915
20
17.536503
11
23.118831
21
17.431632
0
LINE
8
hole
62
5
39
2
10
23.118831
20
17.431632
11
23.854469
21
17.053508
0
LINE
8
hole
62
5
39
2
10
23.854469
20
17.053508
11
24.426108
21
16.782352
0
LINE
8
hole
62
5
39
2
10
24.426108
20
16.782352
11
25.008674
21
16.535542
0
LINE
8
hole
62
5
39
2
10
25.008674
20
16.535542
11
25.601129
21
16.313520
0
LINE
8
hole
62
5
39
2
10
25.601129
20
16.313520
11
26.202420
21
16.116678
0
LINE
8
hole
62
5
39
2
10
26.202420
20
16.116678
11
26.811477
21
15.945369
0
LINE
8
hole
62
5
39
2
10
26.811477
20
15.945369
11
27.427216
21
15.799896
0
LINE
8
hole
62
5
39
2
10
27.427216
20
15.799896
11
28.048542
21
15.680517
0
LINE
8
hole
62
5
39
2
10
28.048542
20
15.680517
11
28.674350
21
15.587447
0
LINE
8
hole
62
5
39
2
10
28.674350
20
15.587447
11
29.303525
21
15.520849
0
LINE
8
hole
62
5
39
2
10
29.303525
20
15.520849
11
29.856068
21
15.485841
0
LINE
8
hole
62
5
39
2
10
29.856068
20
15.485841
11
30.488477
21
15.469167
0
LINE
8
hole
62
5
39
2
10
30.488477
20
15.469167
11
31.121027
21
15.479176
0
LINE
8
hole
62
5
39
2
10
31.121027
20
15.479176
11
31.752592
21
15.515851
0
LINE
8
hole
62
5
39
2
10
31.752592
20
15.515851
11
32.460649
21
15.587447
0
LINE
8
hole
62
5
39
2
10
32.460649
20
15.587447
11
33.086457
21
15.680517
0
LINE
8
hole
62
5
39
2
10
33.086457
20
15.680517
11
33.707783
21
15.799896
0
LINE
8
hole
62
5
39
2
10
33.707783
20
15.799896
11
34.323522
21
15.945369
0
LINE
8
hole
62
5
39
2
10
34.323522
20
15.945369
11
34.932578
21
16.116678
0
LINE
8
hole
62
5
39
2
10
34.932578
20
16.116678
11
35.533870
21
16.313520
0
LINE
8
hole
62
5
39
2
10
35.533870
20
16.313520
11
36.126325
21
16.535542
0
LINE
8
hole
62
5
39
2
10
36.126325
20
16.535542
11
36.708890
21
16.782352
0
LINE
8
hole
62
5
39
2
10
36.708890
20
16.782352
11
37.280530
21
17.053508
0
LINE
8
hole
62
5
39
2
10
37.280530
20
17.053508
11
37.840226
21
17.348528
0
LINE
8
hole
62
5
39
2
10
37.840226
20
17.348528
11
38.392764
21
17.526418
0
LINE
8
hole
62
5
39
2
10
38.392764
20
17.526418
11
38.971469
21
17.481208
0
LINE
8
hole
62
5
39
2
10
38.971469
20
17.481208
11
39.489678
21
17.219669
0
LINE
8
hole
62
5
39
2
10
39.489678
20
17.219669
11
39.869788
21
16.780969
0
LINE
8
hole
62
5
39
2
10
39.869788
20
16.780969
11
40.054878
21
16.230800
0
LINE
8
hole
62
5
39
2
10
40.054878
20
16.230800
11
40.067499
21
15.653214
0
LINE
8
hole
62
5
39
2
10
40.067499
20
15.653214
11
40.067499
21
12.967500
0
LINE
8
hole
62
5
39
2
10
40.067499
20
12.967500
11
40.012016
21
12.450043
0
LINE
8
hole
62
5
39
2
10
40.012016
20
12.450043
11
39.772302
21
11.789008
0
LINE
8
hole
62
5
39
2
10
39.772302
20
11.789008
11
39.479443
21
11.358807
0
LINE
8
hole
62
5
39
2
10
39.479443
20
11.358807
11
38.956424
21
10.888825
0
LINE
8
hole
62
5
39
2
10
38.956424
20
10.888825
11
38.495350
21
10.647476
0
LINE
8
hole
62
5
39
2
10
38.495350
20
10.647476
11
37.812542
21
10.479537
0
LINE
8
hole
62
5
39
2
10
37.812542
20
10.479537
11
35.818526
21
10.467500
0
LINE
8
hole
62
5
39
2
10
35.818526
20
10.467500
11
23.567500
21
10.467500
0
LINE
8
hole
62
5
39
2
10
23.567500
20
10.467500
11
23.050043
21
10.522983
0
LINE
8
hole
62
5
39
2
10
23.050043
20
10.522983
11
22.389008
21
10.762697
0
LINE
8
hole
62
5
39
2
10
22.389008
20
10.762697
11
21.958807
21
11.055558
0
LINE
8
hole
62
5
39
2
10
21.958807
20
11.055558
11
21.488825
21
11.578575
0
LINE
8
hole
62
5
39
2
10
21.488825
20
11.578575
11
21.247475
21
12.039648
0
LINE
8
hole
62
5
39
2
10
21.247475
20
12.039648
11
21.167701
21
12.271520
0
LINE
8
hole
62
5
39
2
10
24.123536
20
23.487145
11
23.460937
21
24.165214
0
LINE
8
hole
62
5
39
2
10
23.460937
20
24.165214
11
23.095259
21
24.601016
0
LINE
8
hole
62
5
39
2
10
23.095259
20
24.601016
11
22.548952
21
25.375846
0
LINE
8
hole
62
5
39
2
10
22.548952
20
25.375846
11
22.257250
21
25.864266
0
LINE
8
hole
62
5
39
2
10
22.257250
20
25.864266
11
21.841146
21
26.716130
0
LINE
8
hole
62
5
39
2
10
21.841146
20
26.716130
11
21.630848
21
27.244730
0
LINE
8
hole
62
5
39
2
10
21.630848
20
27.244730
11
21.355540
21
28.151935
0
LINE
8
hole
62
5
39
2
10
21.355540
20
28.151935
11
21.232001
21
28.707256
0
LINE
8
hole
62
5
39
2
10
21.232001
20
28.707256
11
21.104502
21
29.646703
0
LINE
8
hole
62
5
39
2
10
21.104502
20
29.646703
11
21.070866
21
30.214604
0
LINE
8
hole
62
5
39
2
10
21.070866
20
30.214604
11
21.094422
21
31.162370
0
LINE
8
hole
62
5
39
2
10
21.094422
20
31.162370
11
21.151548
21
31.728392
0
LINE
8
hole
62
5
39
2
10
21.151548
20
31.728392
11
21.325559
21
32.660344
0
LINE
8
hole
62
5
39
2
10
21.325559
20
32.660344
11
21.471990
21
33.210073
0
LINE
8
hole
62
5
39
2
10
21.471990
20
33.210073
11
21.792026
21
34.102481
0
LINE
8
hole
62
5
39
2
10
21.792026
20
34.102481
11
22.024034
21
34.621919
0
LINE
8
hole
62
5
39
2
10
22.024034
20
34.621919
11
22.481945
21
35.452059
0
LINE
8
hole
62
5
39
2
10
22.481945
20
35.452059
11
22.793623
21
35.927979
0
LINE
8
hole
62
5
39
2
10
22.793623
20
35.927979
11
23.377749
21
36.674714
0
LINE
8
hole
62
5
39
2
10
23.377749
20
36.674714
11
23.761160
21
37.094998
0
LINE
8
hole
62
5
39
2
10
23.761160
20
37.094998
11
24.456627
21
37.739312
0
LINE
8
hole
62
5
39
2
10
24.456627
20
37.739312
11
24.902010
21
38.093259
0
LINE
8
hole
62
5
39
2
10
24.902010
20
38.093259
11
25.691109
21
38.618747
0
LINE
8
hole
62
5
39
2
10
25.691109
20
38.618747
11
26.187121
21
38.897344
0
LINE
8
hole
62
5
39
2
10
26.187121
20
38.897344
11
27.049759
21
39.290624
0
LINE
8
hole
62
5
39
2
10
27.049759
20
39.290624
11
27.583771
21
39.486777
0
LINE
8
hole
62
5
39
2
10
27.583771
20
39.486777
11
28.497983
21
39.737835
0
LINE
8
hole
62
5
39
2
10
28.497983
20
39.737835
11
29.056396
21
39.846548
0
LINE
8
hole
62
5
39
2
10
29.056396
20
39.846548
11
29.998903
21
39.948993
0
LINE
8
hole
62
5
39
2
10
29.998903
20
39.948993
11
30.567499
21
39.967499
0
LINE
8
hole
62
5
39
2
10
30.567499
20
39.967499
11
31.514302
21
39.918721
0
LINE
8
hole
62
5
39
2
10
31.514302
20
39.918721
11
32.078602
21
39.846548
0
LINE
8
hole
62
5
39
2
10
32.078602
20
39.846548
11
33.005592
21
39.647789
0
LINE
8
hole
62
5
39
2
10
33.005592
20
39.647789
11
33.551228
21
39.486777
0
LINE
8
hole
62
5
39
2
10
33.551228
20
39.486777
11
34.434800
21
39.143098
0
LINE
8
hole
62
5
39
2
10
34.434800
20
39.143098
11
34.947878
21
38.897344
0
LINE
8
hole
62
5
39
2
10
34.947878
20
38.897344
11
35.765534
21
38.417497
0
LINE
8
hole
62
5
39
2
10
35.765534
20
38.417497
11
36.232989
21
38.093259
0
LINE
8
hole
62
5
39
2
10
36.232989
20
38.093259
11
36.963910
21
37.489462
0
LINE
8
hole
62
5
39
2
10
36.963910
20
37.489462
11
37.373839
21
37.094998
0
LINE
8
hole
62
5
39
2
10
37.373839
20
37.094998
11
37.999411
21
36.382626
0
LINE
8
hole
62
5
39
2
10
37.999411
20
36.382626
11
38.341375
21
35.927979
0
LINE
8
hole
62
5
39
2
10
38.341375
20
35.927979
11
38.845671
21
35.125171
0
LINE
8
hole
62
5
39
2
10
38.845671
20
35.125171
11
39.110965
21
34.621919
0
LINE
8
hole
62
5
39
2
10
39.110965
20
34.621919
11
39.481141
21
33.749116
0
LINE
8
hole
62
5
39
2
10
39.481141
20
33.749116
11
39.663008
21
33.210073
0
LINE
8
hole
62
5
39
2
10
39.663008
20
33.210073
11
39.889641
21
32.289501
0
LINE
8
hole
62
5
39
2
10
39.889641
20
32.289501
11
39.983450
21
31.728392
0
LINE
8
hole
62
5
39
2
10
39.983450
20
31.728392
11
40.060769
21
30.783491
0
LINE
8
hole
62
5
39
2
10
40.060769
20
30.783491
11
40.064132
21
30.214604
0
LINE
8
hole
62
5
39
2
10
40.064132
20
30.214604
11
39.990167
21
29.269435
0
LINE
8
hole
62
5
39
2
10
39.990167
20
29.269435
11
39.902998
21
28.707257
0
LINE
8
hole
62
5
39
2
10
39.902998
20
28.707257
11
39.679633
21
27.785886
0
LINE
8
hole
62
5
39
2
10
39.679633
20
27.785886
11
39.504151
21
27.244730
0
LINE
8
hole
62
5
39
2
10
39.504151
20
27.244730
11
39.137074
21
26.370620
0
LINE
8
hole
62
5
39
2
10
39.137074
20
26.370620
11
38.877749
21
25.864266
0
LINE
8
hole
62
5
39
2
10
38.877749
20
25.864266
11
38.376305
21
25.059673
0
LINE
8
hole
62
5
39
2
10
38.376305
20
25.059673
11
38.039740
21
24.601016
0
LINE
8
hole
62
5
39
2
10
38.039740
20
24.601016
11
37.416699
21
23.886428
0
LINE
8
hole
62
5
39
2
10
37.416699
20
23.886428
11
37.011462
21
23.487146
0
LINE
8
hole
62
5
39
2
10
37.011462
20
23.487146
11
36.282688
21
22.880758
0
LINE
8
hole
62
5
39
2
10
36.282688
20
22.880758
11
35.819100
21
22.551018
0
LINE
8
hole
62
5
39
2
10
35.819100
20
22.551018
11
35.003151
21
22.068272
0
LINE
8
hole
62
5
39
2
10
35.003151
20
22.068272
11
34.493015
21
21.816469
0
LINE
8
hole
62
5
39
2
10
34.493015
20
21.816469
11
33.610668
21
21.469657
0
LINE
8
hole
62
5
39
2
10
33.610668
20
21.469657
11
33.066973
21
21.302205
0
LINE
8
hole
62
5
39
2
10
33.066973
20
21.302205
11
32.140695
21
21.100158
0
LINE
8
hole
62
5
39
2
10
32.140695
20
21.100158
11
31.577287
21
21.021319
0
LINE
8
hole
62
5
39
2
10
31.577287
20
21.021319
11
30.630664
21
20.969181
0
LINE
8
hole
62
5
39
2
10
30.630664
20
20.969181
11
30.061889
21
20.980964
0
LINE
8
hole
62
5
39
2
10
30.061889
20
20.980964
11
29.119024
21
21.080064
0
LINE
8
hole
62
5
39
2
10
29.119024
20
21.080064
11
28.559364
21
21.182167
0
LINE
8
hole
62
5
39
2
10
28.559364
20
21.182167
11
27.644267
21
21.429980
0
LINE
8
hole
62
5
39
2
10
27.644267
20
21.429980
11
27.107974
21
21.619806
0
LINE
8
hole
62
5
39
2
10
27.107974
20
21.619806
11
26.243945
21
22.010023
0
LINE
8
hole
62
5
39
2
10
26.243945
20
22.010023
11
25.744674
21
22.282736
0
LINE
8
hole
62
5
39
2
10
25.744674
20
22.282736
11
24.953716
21
22.805420
0
LINE
8
hole
62
5
39
2
10
24.953716
20
22.805420
11
24.504180
21
23.154077
0
LINE
8
hole
62
5
39
2
10
24.504180
20
23.154077
11
24.123536
21
23.487145
0
LINE
8
boundary
62
5
39
2
10
7.639113
20
14.567501
11
14.444969
21
14.567501
0
LINE
8
boundary
62
5
39
2
10
14.444969
20
14.567501
11
14.937053
21
14.796964
0
LINE
8
boundary
62
5
39
2
10
14.937053
20
14.796964
11
15.461511
21
14.656437
0
LINE
8
boundary
62
5
39
2
10
15.461511
20
14.656437
11
15.772938
21
14.211671
0
LINE
8
boundary
62
5
39
2
10
15.772938
20
14.211671
11
15.725615
21
13.670782
0
LINE
8
boundary
62
5
39
2
10
15.725615
20
13.670782
11
15.567500
21
12.598283
0
LINE
8
boundary
62
5
39
2
10
15.567500
20
12.598283
11
15.567500
21
6.667500
0
LINE
8
boundary
62
5
39
2
10
15.567500
20
6.667500
11
19.315300
21
6.667500
0
LINE
8
boundary
62
5
39
2
10
19.315300
20
6.667500
11
45.567498
21
6.667500
0
LINE
8
boundary
62
5
39
2
10
45.567498
20
6.667500
11
45.567498
21
7.514187
0
LINE
8
boundary
62
5
39
2
10
45.567498
20
7.514187
11
45.567498
21
13.444969
0
LINE
8
boundary
62
5
39
2
10
45.567498
20
13.444969
11
45.338035
21
13.937055
0
LINE
8
boundary
62
5
39
2
10
45.338035
20
13.937055
11
45.478564
21
14.461512
0
LINE
8
boundary
62
5
39
2
10
45.478564
20
14.461512
11
45.923327
21
14.772937
0
LINE
8
boundary
62
5
39
2
10
45.923327
20
14.772937
11
46.464217
21
14.725616
0
LINE
8
boundary
62
5
39
2
10
46.464217
20
14.725616
11
47.661643
21
14.567501
0
LINE
8
boundary
62
5
39
2
10
47.661643
20
14.567501
11
54.467498
21
14.567501
0
LINE
8
boundary
62
5
39
2
10
54.467498
20
14.567501
11
54.467498
21
18.540168
0
LINE
8
boundary
62
5
39
2
10
54.467498
20
18.540168
11
54.467498
21
46.367498
0
LINE
8
boundary
62
5
39
2
10
54.467498
20
46.367498
11
53.495885
21
46.367498
0
LINE
8
boundary
62
5
39
2
10
53.495885
20
46.367498
11
46.690030
21
46.367498
0
LINE
8
boundary
62
5
39
2
10
46.690030
20
46.367498
11
46.197945
21
46.138035
0
LINE
8
boundary
62
5
39
2
10
46.197945
20
46.138035
11
45.673487
21
46.278562
0
LINE
8
boundary
62
5
39
2
10
45.673487
20
46.278562
11
45.362060
21
46.723328
0
LINE
8
boundary
62
5
39
2
10
45.362060
20
46.723328
11
45.409383
21
47.264217
0
LINE
8
boundary
62
5
39
2
10
45.409383
20
47.264217
11
45.567498
21
48.336716
0
LINE
8
boundary
62
5
39
2
10
45.567498
20
48.336716
11
45.567498
21
54.267499
0
LINE
8
boundary
62
5
39
2
10
45.567498
20
54.267499
11
41.819699
21
54.267498
0
LINE
8
boundary
62
5
39
2
10
41.819699
20
54.267498
11
15.567500
21
54.267499
0
LINE
8
boundary
62
5
39
2
10
15.567500
20
54.267499
11
15.567500
21
53.420812
0
LINE
8
boundary
62
5
39
2
10
15.567500
20
53.420812
11
15.567500
21
47.490029
0
LINE
8
boundary
62
5
39
2
10
15.567500
20
47.490029
11
15.796963
21
46.997943
0
LINE
8
boundary
62
5
39
2
10
15.796963
20
46.997943
11
15.656435
21
46.473487
0
LINE
8
boundary
62
5
39
2
10
15.656435
20
46.473487
11
15.211672
21
46.162061
0
LINE
8
boundary
62
5
39
2
10
15.211672
20
46.162061
11
14.670782
21
46.209383
0
LINE
8
boundary
62
5
39
2
10
14.670782
20
46.209383
11
13.473356
21
46.367498
0
LINE
8
boundary
62
5
39
2
10
13.473356
20
46.367498
11
6.667500
21
46.367498
0
LINE
8
boundary
62
5
39
2
10
6.667500
20
46.367498
11
6.667500
21
42.394831
0
LINE
8
boundary
62
5
39
2
10
6.667500
20
42.394831
11
6.667500
21
14.567501
0
LINE
8
boundary
62
5
39
2
10
6.667500
20
14.567501
11
7.639113
21
14.567501
0
LINE
8
annotation
62
1
39
211
10
18.633896
20
44.205397
11
18.633896
21
51.089286
0
LINE
8
annotation
62
1
39
211
10
18.633896
20
51.089286
11
17.103519
21
49.558477
0
LINE
8
frame
62
5
39
2
10
0.000000
20
0.000000
11
210.058000
21
0.000000
0
LINE
8
frame
62
5
39
2
10
210.058000
20
0.000000
11
210.058000
21
296.926000
0
LINE
8
frame
62
5
39
2
10
210.058000
20
296.926000
11
0.000000
21
296.926000
0
LINE
8
frame
62
5
39
2
10
0.000000
20
296.926000
11
0.000000
21
0.000000
0
ENDSEC
0
EOF
