0
SECTION
2
HEADER
9
$ACADVER
1
AC1009
0
ENDSEC
0
SECTION
2
TABLES
0
TABLE
2
VPORT
70
1
0
VPORT
2
ACTIVE
70
0
10
0.0
20
0.0
11
0.0
21
0.0
12
0.0
22
0.0
13
0.0
23
0.0
14
0.0
24
0.0
15
0.0
25
0.0
16
0.0
26
0.0
36
0.0
17
0.0
27
0.0
37
0.0
40
0.0
41
0.0
42
0.0
43
0.0
44
0.0
50
0.0
51
0.0
71
0
72
1000
73
1
74
3
75
0
76
0
77
0
78
0
0
ENDTAB
0
ENDSEC
0
SECTION
2
ENTITIES
0
LINE
8
hole
62
5
39
2
10
13.125884
20
49.106214
11
12.411401
21
49.599529
0
LINE
8
hole
62
5
39
2
10
12.411401
20
49.599529
11
11.908731
21
50.307457
0
LINE
8
hole
62
5
39
2
10
11.908731
20
50.307457
11
11.678502
21
51.144618
0
LINE
8
hole
62
5
39
2
10
11.678502
20
51.144618
11
11.748483
21
52.010033
0
LINE
8
hole
62
5
39
2
10
11.748483
20
52.010033
11
12.110232
21
52.799324
0
LINE
8
hole
62
5
39
2
10
12.110232
20
52.799324
11
12.720118
21
53.417287
0
LINE
8
hole
62
5
39
2
10
12.720118
20
53.417287
11
13.240955
21
53.700846
0
LINE
8
hole
62
5
39
2
10
13.240955
20
53.700846
11
14.255814
21
54.143474
0
LINE
8
hole
62
5
39
2
10
14.255814
20
54.143474
11
15.445220
21
54.574950
0
LINE
8
hole
62
5
39
2
10
15.445220
20
54.574950
11
16.659527
21
54.930353
0
LINE
8
hole
62
5
39
2
10
16.659527
20
54.930353
11
17.893877
21
55.208264
0
LINE
8
hole
62
5
39
2
10
17.893877
20
55.208264
11
19.143330
21
55.407571
0
LINE
8
hole
62
5
39
2
10
19.143330
20
55.407571
11
20.402885
21
55.527475
0
LINE
8
hole
62
5
39
2
10
20.402885
20
55.527475
11
21.509516
21
55.562497
0
LINE
8
hole
62
5
39
2
10
21.509516
20
55.562497
11
22.774132
21
55.532475
0
LINE
8
hole
62
5
39
2
10
22.774132
20
55.532475
11
24.191671
21
55.407571
0
LINE
8
hole
62
5
39
2
10
24.191671
20
55.407571
11
25.441123
21
55.208264
0
LINE
8
hole
62
5
39
2
10
25.441123
20
55.208264
11
26.675474
21
54.930353
0
LINE
8
hole
62
5
39
2
10
26.675474
20
54.930353
11
27.889781
21
54.574950
0
LINE
8
hole
62
5
39
2
10
27.889781
20
54.574950
11
29.079185
21
54.143474
0
LINE
8
hole
62
5
39
2
10
29.079185
20
54.143474
11
30.238929
21
53.637656
0
LINE
8
hole
62
5
39
2
10
30.238929
20
53.637656
11
30.946858
21
53.134985
0
LINE
8
hole
62
5
39
2
10
30.946858
20
53.134985
11
31.440171
21
52.420505
0
LINE
8
hole
62
5
39
2
10
31.440171
20
52.420505
11
31.659366
21
51.580387
0
LINE
8
hole
62
5
39
2
10
31.659366
20
51.580387
11
31.578005
21
50.715967
0
LINE
8
hole
62
5
39
2
10
31.578005
20
50.715967
11
31.205903
21
49.931503
0
LINE
8
hole
62
5
39
2
10
31.205903
20
49.931503
11
30.587938
21
49.321616
0
LINE
8
hole
62
5
39
2
10
30.587938
20
49.321616
11
29.849926
21
48.978150
0
LINE
8
hole
62
5
39
2
10
29.849926
20
48.978150
11
29.314561
21
48.887377
0
LINE
8
hole
62
5
39
2
10
29.314561
20
48.887377
11
28.504580
21
48.968381
0
LINE
8
hole
62
5
39
2
10
28.504580
20
48.968381
11
27.206093
21
49.502706
0
LINE
8
hole
62
5
39
2
10
27.206093
20
49.502706
11
26.163267
21
49.873235
0
LINE
8
hole
62
5
39
2
10
26.163267
20
49.873235
11
25.095955
21
50.165844
0
LINE
8
hole
62
5
39
2
10
25.095955
20
50.165844
11
24.009968
21
50.378941
0
LINE
8
hole
62
5
39
2
10
24.009968
20
50.378941
11
22.911223
21
50.511365
0
LINE
8
hole
62
5
39
2
10
22.911223
20
50.511365
11
21.805703
21
50.562395
0
LINE
8
hole
62
5
39
2
10
21.805703
20
50.562395
11
20.699431
21
50.531751
0
LINE
8
hole
62
5
39
2
10
20.699431
20
50.531751
11
19.598432
21
50.419601
0
LINE
8
hole
62
5
39
2
10
19.598432
20
50.419601
11
18.508702
21
50.226556
0
LINE
8
hole
62
5
39
2
10
18.508702
20
50.226556
11
17.436177
21
49.953670
0
LINE
8
hole
62
5
39
2
10
17.436177
20
49.953670
11
16.386699
21
49.602425
0
LINE
8
hole
62
5
39
2
10
16.386699
20
49.602425
11
15.365984
21
49.174736
0
LINE
8
hole
62
5
39
2
10
15.365984
20
49.174736
11
14.830421
21
48.968381
0
LINE
8
hole
62
5
39
2
10
14.830421
20
48.968381
11
13.966000
21
48.887019
0
LINE
8
hole
62
5
39
2
10
13.966000
20
48.887019
11
13.177163
21
49.087932
0
LINE
8
hole
62
5
39
2
10
13.177163
20
49.087932
11
13.125884
21
49.106214
0
LINE
8
hole
62
5
39
2
10
12.720118
20
17.717710
11
12.110232
21
18.335673
0
LINE
8
hole
62
5
39
2
10
12.110232
20
18.335673
11
11.748483
21
19.124964
0
LINE
8
hole
62
5
39
2
10
11.748483
20
19.124964
11
11.678502
21
19.990379
0
LINE
8
hole
62
5
39
2
10
11.678502
20
19.990379
11
11.908731
21
20.827540
0
LINE
8
hole
62
5
39
2
10
11.908731
20
20.827540
11
12.411401
21
21.535468
0
LINE
8
hole
62
5
39
2
10
12.411401
20
21.535468
11
13.125884
21
22.028782
0
LINE
8
hole
62
5
39
2
10
13.125884
20
22.028782
11
13.966000
21
22.247978
0
LINE
8
hole
62
5
39
2
10
13.966000
20
22.247978
11
14.830421
21
22.166616
0
LINE
8
hole
62
5
39
2
10
14.830421
20
22.166616
11
15.365984
21
21.960262
0
LINE
8
hole
62
5
39
2
10
15.365984
20
21.960262
11
16.255963
21
21.577673
0
LINE
8
hole
62
5
39
2
10
16.255963
20
21.577673
11
17.302470
21
21.216662
0
LINE
8
hole
62
5
39
2
10
17.302470
20
21.216662
11
18.372753
21
20.933818
0
LINE
8
hole
62
5
39
2
10
18.372753
20
20.933818
11
19.460981
21
20.730678
0
LINE
8
hole
62
5
39
2
10
19.460981
20
20.730678
11
20.561228
21
20.608349
0
LINE
8
hole
62
5
39
2
10
20.561228
20
20.608349
11
21.667500
21
20.567498
0
LINE
8
hole
62
5
39
2
10
21.667500
20
20.567498
11
22.773772
21
20.608349
0
LINE
8
hole
62
5
39
2
10
22.773772
20
20.608349
11
23.874019
21
20.730678
0
LINE
8
hole
62
5
39
2
10
23.874019
20
20.730678
11
24.962248
21
20.933818
0
LINE
8
hole
62
5
39
2
10
24.962248
20
20.933818
11
26.032531
21
21.216662
0
LINE
8
hole
62
5
39
2
10
26.032531
20
21.216662
11
27.079038
21
21.577673
0
LINE
8
hole
62
5
39
2
10
27.079038
20
21.577673
11
28.096071
21
22.014881
0
LINE
8
hole
62
5
39
2
10
28.096071
20
22.014881
11
28.933231
21
22.245110
0
LINE
8
hole
62
5
39
2
10
28.933231
20
22.245110
11
29.798647
21
22.175129
0
LINE
8
hole
62
5
39
2
10
29.798647
20
22.175129
11
30.540613
21
21.840290
0
LINE
8
hole
62
5
39
2
10
30.540613
20
21.840290
11
30.958865
21
21.493996
0
LINE
8
hole
62
5
39
2
10
30.958865
20
21.493996
11
31.426270
21
20.827540
0
LINE
8
hole
62
5
39
2
10
31.426270
20
20.827540
11
31.656499
21
19.990379
0
LINE
8
hole
62
5
39
2
10
31.656499
20
19.990379
11
31.586518
21
19.124964
0
LINE
8
hole
62
5
39
2
10
31.586518
20
19.124964
11
31.224769
21
18.335673
0
LINE
8
hole
62
5
39
2
10
31.224769
20
18.335673
11
30.614882
21
17.717710
0
LINE
8
hole
62
5
39
2
10
30.614882
20
17.717710
11
30.094046
21
17.434151
0
LINE
8
hole
62
5
39
2
10
30.094046
20
17.434151
11
29.079185
21
16.991523
0
LINE
8
hole
62
5
39
2
10
29.079185
20
16.991523
11
27.889781
21
16.560047
0
LINE
8
hole
62
5
39
2
10
27.889781
20
16.560047
11
26.675474
21
16.204643
0
LINE
8
hole
62
5
39
2
10
26.675474
20
16.204643
11
25.441123
21
15.926732
0
LINE
8
hole
62
5
39
2
10
25.441123
20
15.926732
11
24.191671
21
15.727426
0
LINE
8
hole
62
5
39
2
10
24.191671
20
15.727426
11
22.932116
21
15.607522
0
LINE
8
hole
62
5
39
2
10
22.932116
20
15.607522
11
21.825485
21
15.572500
0
LINE
8
hole
62
5
39
2
10
21.825485
20
15.572500
11
20.560869
21
15.602522
0
LINE
8
hole
62
5
39
2
10
20.560869
20
15.602522
11
19.143330
21
15.727426
0
LINE
8
hole
62
5
39
2
10
19.143330
20
15.727426
11
17.893877
21
15.926732
0
LINE
8
hole
62
5
39
2
10
17.893877
20
15.926732
11
16.659527
21
16.204643
0
LINE
8
hole
62
5
39
2
10
16.659527
20
16.204643
11
15.445220
21
16.560047
0
LINE
8
hole
62
5
39
2
10
15.445220
20
16.560047
11
14.255814
21
16.991523
0
LINE
8
hole
62
5
39
2
10
14.255814
20
16.991523
11
13.096072
21
17.497341
0
LINE
8
hole
62
5
39
2
10
13.096072
20
17.497341
11
12.720118
21
17.717710
0
LINE
8
hole
62
5
39
2
10
15.333832
20
27.828983
11
14.674725
21
28.418997
0
LINE
8
hole
62
5
39
2
10
14.674725
20
28.418997
11
14.070340
21
29.064950
0
LINE
8
hole
62
5
39
2
10
14.070340
20
29.064950
11
13.525406
21
29.761788
0
LINE
8
hole
62
5
39
2
10
13.525406
20
29.761788
11
13.044186
21
30.504058
0
LINE
8
hole
62
5
39
2
10
13.044186
20
30.504058
11
12.630447
21
31.285951
0
LINE
8
hole
62
5
39
2
10
12.630447
20
31.285951
11
12.287426
21
32.101349
0
LINE
8
hole
62
5
39
2
10
12.287426
20
32.101349
11
12.017807
21
32.943871
0
LINE
8
hole
62
5
39
2
10
12.017807
20
32.943871
11
11.823702
21
33.806923
0
LINE
8
hole
62
5
39
2
10
11.823702
20
33.806923
11
11.706627
21
34.683753
0
LINE
8
hole
62
5
39
2
10
11.706627
20
34.683753
11
11.667501
21
35.567498
0
LINE
8
hole
62
5
39
2
10
11.667501
20
35.567498
11
11.706627
21
36.451244
0
LINE
8
hole
62
5
39
2
10
11.706627
20
36.451244
11
11.823703
21
37.328074
0
LINE
8
hole
62
5
39
2
10
11.823703
20
37.328074
11
12.017807
21
38.191126
0
LINE
8
hole
62
5
39
2
10
12.017807
20
38.191126
11
12.287426
21
39.033648
0
LINE
8
hole
62
5
39
2
10
12.287426
20
39.033648
11
12.630447
21
39.849046
0
LINE
8
hole
62
5
39
2
10
12.630447
20
39.849046
11
13.044186
21
40.630939
0
LINE
8
hole
62
5
39
2
10
13.044186
20
40.630939
11
13.525406
21
41.373209
0
LINE
8
hole
62
5
39
2
10
13.525406
20
41.373209
11
14.070340
21
42.070047
0
LINE
8
hole
62
5
39
2
10
14.070340
20
42.070047
11
14.674725
21
42.716001
0
LINE
8
hole
62
5
39
2
10
14.674725
20
42.716001
11
15.333832
21
43.306014
0
LINE
8
hole
62
5
39
2
10
15.333832
20
43.306014
11
16.042501
21
43.835471
0
LINE
8
hole
62
5
39
2
10
16.042501
20
43.835471
11
16.763916
21
44.140733
0
LINE
8
hole
62
5
39
2
10
16.763916
20
44.140733
11
17.547243
21
44.145493
0
LINE
8
hole
62
5
39
2
10
17.547243
20
44.145493
11
18.228856
21
43.872021
0
LINE
8
hole
62
5
39
2
10
18.228856
20
43.872021
11
18.827903
21
43.296805
0
LINE
8
hole
62
5
39
2
10
18.827903
20
43.296805
11
19.128774
21
42.573547
0
LINE
8
hole
62
5
39
2
10
19.128774
20
42.573547
11
19.167500
21
40.529252
0
LINE
8
hole
62
5
39
2
10
19.167500
20
40.529252
11
19.167500
21
28.953120
0
LINE
8
hole
62
5
39
2
10
19.167500
20
28.953120
11
19.014094
21
28.184947
0
LINE
8
hole
62
5
39
2
10
19.014094
20
28.184947
11
18.577409
21
27.534615
0
LINE
8
hole
62
5
39
2
10
18.577409
20
27.534615
11
17.967896
21
27.124889
0
LINE
8
hole
62
5
39
2
10
17.967896
20
27.124889
11
17.155344
21
26.953158
0
LINE
8
hole
62
5
39
2
10
17.155344
20
26.953158
11
16.388117
21
27.111230
0
LINE
8
hole
62
5
39
2
10
16.388117
20
27.111230
11
15.333832
21
27.828983
0
LINE
8
hole
62
5
39
2
10
24.726298
20
27.572540
11
24.320906
21
28.184947
0
LINE
8
hole
62
5
39
2
10
24.320906
20
28.184947
11
24.167500
21
28.953120
0
LINE
8
hole
62
5
39
2
10
24.167500
20
28.953120
11
24.167500
21
30.605745
0
LINE
8
hole
62
5
39
2
10
24.167500
20
30.605745
11
24.167500
21
42.181876
0
LINE
8
hole
62
5
39
2
10
24.167500
20
42.181876
11
24.320906
21
42.950050
0
LINE
8
hole
62
5
39
2
10
24.320906
20
42.950050
11
24.757591
21
43.600381
0
LINE
8
hole
62
5
39
2
10
24.757591
20
43.600381
11
25.367105
21
44.010109
0
LINE
8
hole
62
5
39
2
10
25.367105
20
44.010109
11
26.179657
21
44.181839
0
LINE
8
hole
62
5
39
2
10
26.179657
20
44.181839
11
26.946883
21
44.023767
0
LINE
8
hole
62
5
39
2
10
26.946883
20
44.023767
11
28.001169
21
43.306014
0
LINE
8
hole
62
5
39
2
10
28.001169
20
43.306014
11
28.660275
21
42.716001
0
LINE
8
hole
62
5
39
2
10
28.660275
20
42.716001
11
29.264660
21
42.070047
0
LINE
8
hole
62
5
39
2
10
29.264660
20
42.070047
11
29.809595
21
41.373209
0
LINE
8
hole
62
5
39
2
10
29.809595
20
41.373209
11
30.290815
21
40.630939
0
LINE
8
hole
62
5
39
2
10
30.290815
20
40.630939
11
30.704554
21
39.849046
0
LINE
8
hole
62
5
39
2
10
30.704554
20
39.849046
11
31.047575
21
39.033648
0
LINE
8
hole
62
5
39
2
10
31.047575
20
39.033648
11
31.317192
21
38.191126
0
LINE
8
hole
62
5
39
2
10
31.317192
20
38.191126
11
31.511298
21
37.328074
0
LINE
8
hole
62
5
39
2
10
31.511298
20
37.328074
11
31.628373
21
36.451244
0
LINE
8
hole
62
5
39
2
10
31.628373
20
36.451244
11
31.667499
21
35.567498
0
LINE
8
hole
62
5
39
2
10
31.667499
20
35.567498
11
31.628373
21
34.683753
0
LINE
8
hole
62
5
39
2
10
31.628373
20
34.683753
11
31.511298
21
33.806923
0
LINE
8
hole
62
5
39
2
10
31.511298
20
33.806923
11
31.317192
21
32.943871
0
LINE
8
hole
62
5
39
2
10
31.317192
20
32.943871
11
31.047575
21
32.101349
0
LINE
8
hole
62
5
39
2
10
31.047575
20
32.101349
11
30.704554
21
31.285951
0
LINE
8
hole
62
5
39
2
10
30.704554
20
31.285951
11
30.290815
21
30.504058
0
LINE
8
hole
62
5
39
2
10
30.290815
20
30.504058
11
29.809595
21
29.761788
0
LINE
8
hole
62
5
39
2
10
29.809595
20
29.761788
11
29.264660
21
29.064950
0
LINE
8
hole
62
5
39
2
10
29.264660
20
29.064950
11
28.660276
21
28.418997
0
LINE
8
hole
62
5
39
2
10
28.660276
20
28.418997
11
28.001169
21
27.828983
0
LINE
8
hole
62
5
39
2
10
28.001169
20
27.828983
11
27.292500
21
27.299526
0
LINE
8
hole
62
5
39
2
10
27.292500
20
27.299526
11
26.571085
21
26.994264
0
LINE
8
hole
62
5
39
2
10
26.571085
20
26.994264
11
25.787758
21
26.989503
0
LINE
8
hole
62
5
39
2
10
25.787758
20
26.989503
11
25.106145
21
27.262976
0
LINE
8
hole
62
5
39
2
10
25.106145
20
27.262976
11
24.726298
21
27.572540
0
LINE
8
boundary
62
5
39
2
10
7.464216
20
11.667501
11
13.044969
21
11.667501
0
LINE
8
boundary
62
5
39
2
10
13.044969
20
11.667501
11
13.580570
21
11.896604
0
LINE
8
boundary
62
5
39
2
10
13.580570
20
11.896604
11
14.146965
21
11.683259
0
LINE
8
boundary
62
5
39
2
10
14.146965
20
11.683259
11
14.396606
21
11.131899
0
LINE
8
boundary
62
5
39
2
10
14.396606
20
11.131899
11
14.183259
21
10.565504
0
LINE
8
boundary
62
5
39
2
10
14.183259
20
10.565504
11
14.167500
21
6.667500
0
LINE
8
boundary
62
5
39
2
10
14.167500
20
6.667500
11
16.041400
21
6.667500
0
LINE
8
boundary
62
5
39
2
10
16.041400
20
6.667500
11
29.167501
21
6.667500
0
LINE
8
boundary
62
5
39
2
10
29.167501
20
6.667500
11
29.167501
21
10.544967
0
LINE
8
boundary
62
5
39
2
10
29.167501
20
10.544967
11
28.938395
21
11.080570
0
LINE
8
boundary
62
5
39
2
10
28.938395
20
11.080570
11
29.151743
21
11.646964
0
LINE
8
boundary
62
5
39
2
10
29.151743
20
11.646964
11
29.703102
21
11.896605
0
LINE
8
boundary
62
5
39
2
10
29.703102
20
11.896605
11
30.269496
21
11.683259
0
LINE
8
boundary
62
5
39
2
10
30.269496
20
11.683259
11
31.086749
21
11.667501
0
LINE
8
boundary
62
5
39
2
10
31.086749
20
11.667501
11
36.667501
21
11.667501
0
LINE
8
boundary
62
5
39
2
10
36.667501
20
11.667501
11
36.667501
21
17.638995
0
LINE
8
boundary
62
5
39
2
10
36.667501
20
17.638995
11
36.667501
21
59.467496
0
LINE
8
boundary
62
5
39
2
10
36.667501
20
59.467496
11
35.870785
21
59.467496
0
LINE
8
boundary
62
5
39
2
10
35.870785
20
59.467496
11
30.290032
21
59.467496
0
LINE
8
boundary
62
5
39
2
10
30.290032
20
59.467496
11
29.754430
21
59.238393
0
LINE
8
boundary
62
5
39
2
10
29.754430
20
59.238393
11
29.188037
21
59.451738
0
LINE
8
boundary
62
5
39
2
10
29.188037
20
59.451738
11
28.938395
21
60.003098
0
LINE
8
boundary
62
5
39
2
10
28.938395
20
60.003098
11
29.151742
21
60.569492
0
LINE
8
boundary
62
5
39
2
10
29.151742
20
60.569492
11
29.167501
21
64.467497
0
LINE
8
boundary
62
5
39
2
10
29.167501
20
64.467497
11
27.293600
21
64.467497
0
LINE
8
boundary
62
5
39
2
10
27.293600
20
64.467497
11
14.167500
21
64.467497
0
LINE
8
boundary
62
5
39
2
10
14.167500
20
64.467497
11
14.167500
21
60.590029
0
LINE
8
boundary
62
5
39
2
10
14.167500
20
60.590029
11
14.396606
21
60.054427
0
LINE
8
boundary
62
5
39
2
10
14.396606
20
60.054427
11
14.183259
21
59.488033
0
LINE
8
boundary
62
5
39
2
10
14.183259
20
59.488033
11
13.631900
21
59.238393
0
LINE
8
boundary
62
5
39
2
10
13.631900
20
59.238393
11
13.065505
21
59.451738
0
LINE
8
boundary
62
5
39
2
10
13.065505
20
59.451738
11
12.248253
21
59.467496
0
LINE
8
boundary
62
5
39
2
10
12.248253
20
59.467496
11
6.667500
21
59.467496
0
LINE
8
boundary
62
5
39
2
10
6.667500
20
59.467496
11
6.667500
21
53.496002
0
LINE
8
boundary
62
5
39
2
10
6.667500
20
53.496002
11
6.667500
21
11.667501
0
LINE
8
boundary
62
5
39
2
10
6.667500
20
11.667501
11
7.464216
21
11.667501
0
LINE
8
annotation
62
1
39
211
10
23.285352
20
27.380755
11
23.285352
21
41.947811
0
LINE
8
annotation
62
1
39
211
10
23.285352
20
41.947811
11
20.046909
21
38.708454
0
LINE
8
frame
62
5
39
2
10
0.000000
20
0.000000
11
210.058000
21
0.000000
0
LINE
8
frame
62
5
39
2
10
210.058000
20
0.000000
11
210.058000
21
296.926000
0
LINE
8
frame
62
5
39
2
10
210.058000
20
296.926000
11
0.000000
21
296.926000
0
LINE
8
frame
62
5
39
2
10
0.000000
20
296.926000
11
0.000000
21
0.000000
0
ENDSEC
0
EOF
