0
SECTION
2
HEADER
9
$ACADVER
1
AC1009
0
ENDSEC
0
SECTION
2
TABLES
0
TABLE
2
VPORT
70
1
0
VPORT
2
ACTIVE
70
0
10
0.0
20
0.0
11
0.0
21
0.0
12
0.0
22
0.0
13
0.0
23
0.0
14
0.0
24
0.0
15
0.0
25
0.0
16
0.0
26
0.0
36
0.0
17
0.0
27
0.0
37
0.0
40
0.0
41
0.0
42
0.0
43
0.0
44
0.0
50
0.0
51
0.0
71
0
72
1000
73
1
74
3
75
0
76
0
77
0
78
0
0
ENDTAB
0
ENDSEC
0
SECTION
2
ENTITIES
0
LINE
8
hole
62
5
39
2
10
12.252389
20
16.460530
11
11.818270
21
17.212447
0
LINE
8
hole
62
5
39
2
10
11.818270
20
17.212447
11
11.667502
21
18.067499
0
LINE
8
hole
62
5
39
2
10
11.667502
20
18.067499
11
11.818270
21
18.922551
0
LINE
8
hole
62
5
39
2
10
11.818270
20
18.922551
11
12.252389
21
19.674467
0
LINE
8
hole
62
5
39
2
10
12.252389
20
19.674467
11
12.917501
21
20.232564
0
LINE
8
hole
62
5
39
2
10
12.917501
20
20.232564
11
13.733380
21
20.529519
0
LINE
8
hole
62
5
39
2
10
13.733380
20
20.529519
11
16.041400
21
20.567498
0
LINE
8
hole
62
5
39
2
10
16.041400
20
20.567498
11
29.167501
21
20.567498
0
LINE
8
hole
62
5
39
2
10
29.167501
20
20.567498
11
30.022550
21
20.416732
0
LINE
8
hole
62
5
39
2
10
30.022550
20
20.416732
11
30.774469
21
19.982611
0
LINE
8
hole
62
5
39
2
10
30.774469
20
19.982611
11
31.332564
21
19.317499
0
LINE
8
hole
62
5
39
2
10
31.332564
20
19.317499
11
31.629519
21
18.501620
0
LINE
8
hole
62
5
39
2
10
31.629519
20
18.501620
11
31.629519
21
17.633379
0
LINE
8
hole
62
5
39
2
10
31.629519
20
17.633379
11
31.332564
21
16.817500
0
LINE
8
hole
62
5
39
2
10
31.332564
20
16.817500
11
30.774469
21
16.152388
0
LINE
8
hole
62
5
39
2
10
30.774469
20
16.152388
11
30.022550
21
15.718268
0
LINE
8
hole
62
5
39
2
10
30.022550
20
15.718268
11
29.167501
21
15.567500
0
LINE
8
hole
62
5
39
2
10
29.167501
20
15.567500
11
27.293600
21
15.567500
0
LINE
8
hole
62
5
39
2
10
27.293600
20
15.567500
11
14.167500
21
15.567500
0
LINE
8
hole
62
5
39
2
10
14.167500
20
15.567500
11
13.312451
21
15.718268
0
LINE
8
hole
62
5
39
2
10
13.312451
20
15.718268
11
12.560532
21
16.152388
0
LINE
8
hole
62
5
39
2
10
12.560532
20
16.152388
11
12.252389
21
16.460530
0
LINE
8
boundary
62
5
39
2
10
14.167500
20
10.544967
11
14.167500
21
6.667500
0
LINE
8
boundary
62
5
39
2
10
14.167500
20
6.667500
11
16.041400
21
6.667500
0
LINE
8
boundary
62
5
39
2
10
16.041400
20
6.667500
11
29.167501
21
6.667500
0
LINE
8
boundary
62
5
39
2
10
29.167501
20
6.667500
11
29.167501
21
10.544967
0
LINE
8
boundary
62
5
39
2
10
29.167501
20
10.544967
11
28.938395
21
11.080569
0
LINE
8
boundary
62
5
39
2
10
28.938395
20
11.080569
11
29.151742
21
11.646964
0
LINE
8
boundary
62
5
39
2
10
29.151742
20
11.646964
11
29.703101
21
11.896605
0
LINE
8
boundary
62
5
39
2
10
29.703101
20
11.896605
11
30.269496
21
11.683259
0
LINE
8
boundary
62
5
39
2
10
30.269496
20
11.683259
11
31.086748
21
11.667501
0
LINE
8
boundary
62
5
39
2
10
31.086748
20
11.667501
11
36.667501
21
11.667501
0
LINE
8
boundary
62
5
39
2
10
36.667501
20
11.667501
11
36.667501
21
17.638995
0
LINE
8
boundary
62
5
39
2
10
36.667501
20
17.638995
11
36.667501
21
59.467496
0
LINE
8
boundary
62
5
39
2
10
36.667501
20
59.467496
11
35.870785
21
59.467496
0
LINE
8
boundary
62
5
39
2
10
35.870785
20
59.467496
11
30.290032
21
59.467496
0
LINE
8
boundary
62
5
39
2
10
30.290032
20
59.467496
11
29.754430
21
59.238393
0
LINE
8
boundary
62
5
39
2
10
29.754430
20
59.238393
11
29.188037
21
59.451738
0
LINE
8
boundary
62
5
39
2
10
29.188037
20
59.451738
11
28.938395
21
60.003098
0
LINE
8
boundary
62
5
39
2
10
28.938395
20
60.003098
11
29.151742
21
60.569492
0
LINE
8
boundary
62
5
39
2
10
29.151742
20
60.569492
11
29.167501
21
64.467497
0
LINE
8
boundary
62
5
39
2
10
29.167501
20
64.467497
11
27.293600
21
64.467497
0
LINE
8
boundary
62
5
39
2
10
27.293600
20
64.467497
11
14.167500
21
64.467497
0
LINE
8
boundary
62
5
39
2
10
14.167500
20
64.467497
11
14.167500
21
60.590029
0
LINE
8
boundary
62
5
39
2
10
14.167500
20
60.590029
11
14.396606
21
60.054427
0
LINE
8
boundary
62
5
39
2
10
14.396606
20
60.054427
11
14.183259
21
59.488033
0
LINE
8
boundary
62
5
39
2
10
14.183259
20
59.488033
11
13.631900
21
59.238393
0
LINE
8
boundary
62
5
39
2
10
13.631900
20
59.238393
11
13.065505
21
59.451738
0
LINE
8
boundary
62
5
39
2
10
13.065505
20
59.451738
11
12.248253
21
59.467496
0
LINE
8
boundary
62
5
39
2
10
12.248253
20
59.467496
11
6.667500
21
59.467496
0
LINE
8
boundary
62
5
39
2
10
6.667500
20
59.467496
11
6.667500
21
55.567496
0
LINE
8
boundary
62
5
39
2
10
6.667500
20
55.567496
11
7.292134
21
55.567496
0
LINE
8
boundary
62
5
39
2
10
7.292134
20
55.567496
11
11.667501
21
55.567496
0
LINE
8
boundary
62
5
39
2
10
11.667501
20
55.567496
11
13.853718
21
55.567496
0
LINE
8
boundary
62
5
39
2
10
13.853718
20
55.567496
11
29.167499
21
55.567496
0
LINE
8
boundary
62
5
39
2
10
29.167499
20
55.567496
11
30.022550
21
55.416729
0
LINE
8
boundary
62
5
39
2
10
30.022550
20
55.416729
11
30.774469
21
54.982609
0
LINE
8
boundary
62
5
39
2
10
30.774469
20
54.982609
11
31.332563
21
54.317497
0
LINE
8
boundary
62
5
39
2
10
31.332563
20
54.317497
11
31.629519
21
53.501617
0
LINE
8
boundary
62
5
39
2
10
31.629519
20
53.501617
11
31.629519
21
52.633376
0
LINE
8
boundary
62
5
39
2
10
31.629519
20
52.633376
11
31.332563
21
51.817498
0
LINE
8
boundary
62
5
39
2
10
31.332563
20
51.817498
11
30.812964
21
51.190881
0
LINE
8
boundary
62
5
39
2
10
30.812964
20
51.190881
11
30.368160
21
50.879426
0
LINE
8
boundary
62
5
39
2
10
30.368160
20
50.879426
11
29.601620
21
50.605478
0
LINE
8
boundary
62
5
39
2
10
29.601620
20
50.605478
11
28.855183
21
50.567499
0
LINE
8
boundary
62
5
39
2
10
28.855183
20
50.567499
11
26.667500
21
50.567499
0
LINE
8
boundary
62
5
39
2
10
26.667500
20
50.567499
11
25.812450
21
50.416730
0
LINE
8
boundary
62
5
39
2
10
25.812450
20
50.416730
11
25.060531
21
49.982610
0
LINE
8
boundary
62
5
39
2
10
25.060531
20
49.982610
11
24.502437
21
49.317498
0
LINE
8
boundary
62
5
39
2
10
24.502437
20
49.317498
11
24.205481
21
48.501618
0
LINE
8
boundary
62
5
39
2
10
24.205481
20
48.501618
11
24.167500
21
47.046862
0
LINE
8
boundary
62
5
39
2
10
24.167500
20
47.046862
11
24.167500
21
39.897625
0
LINE
8
boundary
62
5
39
2
10
24.167500
20
39.897625
11
24.698627
21
39.543962
0
LINE
8
boundary
62
5
39
2
10
24.698627
20
39.543962
11
25.180387
21
39.125535
0
LINE
8
boundary
62
5
39
2
10
25.180387
20
39.125535
11
25.604932
21
38.649158
0
LINE
8
boundary
62
5
39
2
10
25.604932
20
38.649158
11
25.965348
21
38.122591
0
LINE
8
boundary
62
5
39
2
10
25.965348
20
38.122591
11
26.255766
21
37.554409
0
LINE
8
boundary
62
5
39
2
10
26.255766
20
37.554409
11
26.471455
21
36.953866
0
LINE
8
boundary
62
5
39
2
10
26.471455
20
36.953866
11
26.608901
21
36.330744
0
LINE
8
boundary
62
5
39
2
10
26.608901
20
36.330744
11
26.665868
21
35.695190
0
LINE
8
boundary
62
5
39
2
10
26.665868
20
35.695190
11
26.641427
21
35.057558
0
LINE
8
boundary
62
5
39
2
10
26.641427
20
35.057558
11
26.535976
21
34.428230
0
LINE
8
boundary
62
5
39
2
10
26.535976
20
34.428230
11
26.351232
21
33.817458
0
LINE
8
boundary
62
5
39
2
10
26.351232
20
33.817458
11
26.090205
21
33.235188
0
LINE
8
boundary
62
5
39
2
10
26.090205
20
33.235188
11
25.757146
21
32.690904
0
LINE
8
boundary
62
5
39
2
10
25.757146
20
32.690904
11
25.357478
21
32.193472
0
LINE
8
boundary
62
5
39
2
10
25.357478
20
32.193472
11
24.897712
21
31.750992
0
LINE
8
boundary
62
5
39
2
10
24.897712
20
31.750992
11
24.385336
21
31.370671
0
LINE
8
boundary
62
5
39
2
10
24.385336
20
31.370671
11
23.828695
21
31.058704
0
LINE
8
boundary
62
5
39
2
10
23.828695
20
31.058704
11
23.236854
21
30.820171
0
LINE
8
boundary
62
5
39
2
10
23.236854
20
30.820171
11
22.696584
21
30.679097
0
LINE
8
boundary
62
5
39
2
10
22.696584
20
30.679097
11
22.065616
21
30.587841
0
LINE
8
boundary
62
5
39
2
10
22.065616
20
30.587841
11
21.428164
21
30.577689
0
LINE
8
boundary
62
5
39
2
10
21.428164
20
30.577689
11
20.794610
21
30.648805
0
LINE
8
boundary
62
5
39
2
10
20.794610
20
30.648805
11
20.175272
21
30.800032
0
LINE
8
boundary
62
5
39
2
10
20.175272
20
30.800032
11
19.506302
21
31.058704
0
LINE
8
boundary
62
5
39
2
10
19.506302
20
31.058704
11
18.949661
21
31.370672
0
LINE
8
boundary
62
5
39
2
10
18.949661
20
31.370672
11
18.437285
21
31.750993
0
LINE
8
boundary
62
5
39
2
10
18.437285
20
31.750993
11
17.977519
21
32.193473
0
LINE
8
boundary
62
5
39
2
10
17.977519
20
32.193473
11
17.577852
21
32.690906
0
LINE
8
boundary
62
5
39
2
10
17.577852
20
32.690906
11
17.244793
21
33.235190
0
LINE
8
boundary
62
5
39
2
10
17.244793
20
33.235190
11
16.983766
21
33.817460
0
LINE
8
boundary
62
5
39
2
10
16.983766
20
33.817460
11
16.799022
21
34.428232
0
LINE
8
boundary
62
5
39
2
10
16.799022
20
34.428232
11
16.693572
21
35.057560
0
LINE
8
boundary
62
5
39
2
10
16.693572
20
35.057560
11
16.669131
21
35.695193
0
LINE
8
boundary
62
5
39
2
10
16.669131
20
35.695193
11
16.726098
21
36.330746
0
LINE
8
boundary
62
5
39
2
10
16.726098
20
36.330746
11
16.863545
21
36.953868
0
LINE
8
boundary
62
5
39
2
10
16.863545
20
36.953868
11
17.079234
21
37.554411
0
LINE
8
boundary
62
5
39
2
10
17.079234
20
37.554411
11
17.369653
21
38.122593
0
LINE
8
boundary
62
5
39
2
10
17.369653
20
38.122593
11
17.730069
21
38.649160
0
LINE
8
boundary
62
5
39
2
10
17.730069
20
38.649160
11
18.154614
21
39.125537
0
LINE
8
boundary
62
5
39
2
10
18.154614
20
39.125537
11
18.636374
21
39.543963
0
LINE
8
boundary
62
5
39
2
10
18.636374
20
39.543963
11
19.167501
21
39.897626
0
LINE
8
boundary
62
5
39
2
10
19.167501
20
39.897626
11
19.167501
21
40.918261
0
LINE
8
boundary
62
5
39
2
10
19.167501
20
40.918261
11
19.167500
21
48.067497
0
LINE
8
boundary
62
5
39
2
10
19.167500
20
48.067497
11
19.016732
21
48.922549
0
LINE
8
boundary
62
5
39
2
10
19.016732
20
48.922549
11
18.582612
21
49.674466
0
LINE
8
boundary
62
5
39
2
10
18.582612
20
49.674466
11
17.917500
21
50.232561
0
LINE
8
boundary
62
5
39
2
10
17.917500
20
50.232561
11
17.101621
21
50.529517
0
LINE
8
boundary
62
5
39
2
10
17.101621
20
50.529517
11
16.042868
21
50.567499
0
LINE
8
boundary
62
5
39
2
10
16.042868
20
50.567499
11
11.667502
21
50.567499
0
LINE
8
boundary
62
5
39
2
10
11.667502
20
50.567499
11
11.042868
21
50.567499
0
LINE
8
boundary
62
5
39
2
10
11.042868
20
50.567499
11
6.667500
21
50.567499
0
LINE
8
boundary
62
5
39
2
10
6.667500
20
50.567499
11
6.667500
21
45.707851
0
LINE
8
boundary
62
5
39
2
10
6.667500
20
45.707851
11
6.667500
21
11.667501
0
LINE
8
boundary
62
5
39
2
10
6.667500
20
11.667501
11
7.464216
21
11.667501
0
LINE
8
boundary
62
5
39
2
10
7.464216
20
11.667501
11
13.044969
21
11.667501
0
LINE
8
boundary
62
5
39
2
10
13.044969
20
11.667501
11
13.580570
21
11.896605
0
LINE
8
boundary
62
5
39
2
10
13.580570
20
11.896605
11
14.146964
21
11.683259
0
LINE
8
boundary
62
5
39
2
10
14.146964
20
11.683259
11
14.396606
21
11.131899
0
LINE
8
boundary
62
5
39
2
10
14.396606
20
11.131899
11
14.183259
21
10.565504
0
LINE
8
boundary
62
5
39
2
10
14.183259
20
10.565504
11
14.167500
21
10.544967
0
LINE
8
annotation
62
1
39
211
10
12.446769
20
29.187186
11
12.446769
21
43.754242
0
LINE
8
annotation
62
1
39
211
10
12.446769
20
43.754242
11
9.208325
21
40.514885
0
LINE
8
frame
62
5
39
2
10
0.000000
20
0.000000
11
210.058000
21
0.000000
0
LINE
8
frame
62
5
39
2
10
210.058000
20
0.000000
11
210.058000
21
296.926000
0
LINE
8
frame
62
5
39
2
10
210.058000
20
296.926000
11
0.000000
21
296.926000
0
LINE
8
frame
62
5
39
2
10
0.000000
20
296.926000
11
0.000000
21
0.000000
0
ENDSEC
0
EOF
