0
SECTION
2
HEADER
9
$ACADVER
1
AC1009
0
ENDSEC
0
SECTION
2
TABLES
0
TABLE
2
VPORT
70
1
0
VPORT
2
ACTIVE
70
0
10
0.0
20
0.0
11
0.0
21
0.0
12
0.0
22
0.0
13
0.0
23
0.0
14
0.0
24
0.0
15
0.0
25
0.0
16
0.0
26
0.0
36
0.0
17
0.0
27
0.0
37
0.0
40
0.0
41
0.0
42
0.0
43
0.0
44
0.0
50
0.0
51
0.0
71
0
72
1000
73
1
74
3
75
0
76
0
77
0
78
0
0
ENDTAB
0
ENDSEC
0
SECTION
2
ENTITIES
0
LINE
8
hole
62
5
39
2
10
20.963916
20
96.449104
11
20.453238
21
96.806914
0
LINE
8
hole
62
5
39
2
10
20.453238
20
96.806914
11
20.052570
21
97.284705
0
LINE
8
hole
62
5
39
2
10
20.052570
20
97.284705
11
19.789216
21
97.849918
0
LINE
8
hole
62
5
39
2
10
19.789216
20
97.849918
11
19.681122
21
98.464033
0
LINE
8
hole
62
5
39
2
10
19.681122
20
98.464033
11
19.735657
21
99.085200
0
LINE
8
hole
62
5
39
2
10
19.735657
20
99.085200
11
19.949103
21
99.671085
0
LINE
8
hole
62
5
39
2
10
19.949103
20
99.671085
11
20.306914
21
100.181762
0
LINE
8
hole
62
5
39
2
10
20.306914
20
100.181762
11
20.784706
21
100.582430
0
LINE
8
hole
62
5
39
2
10
20.784706
20
100.582430
11
21.349918
21
100.845784
0
LINE
8
hole
62
5
39
2
10
21.349918
20
100.845784
11
21.964033
21
100.953877
0
LINE
8
hole
62
5
39
2
10
21.964033
20
100.953877
11
22.585199
21
100.899343
0
LINE
8
hole
62
5
39
2
10
22.585199
20
100.899343
11
23.171085
21
100.685897
0
LINE
8
hole
62
5
39
2
10
23.171085
20
100.685897
11
23.681762
21
100.328086
0
LINE
8
hole
62
5
39
2
10
23.681762
20
100.328086
11
24.082431
21
99.850295
0
LINE
8
hole
62
5
39
2
10
24.082431
20
99.850295
11
24.345786
21
99.285082
0
LINE
8
hole
62
5
39
2
10
24.345786
20
99.285082
11
24.453878
21
98.670967
0
LINE
8
hole
62
5
39
2
10
24.453878
20
98.670967
11
24.399344
21
98.049801
0
LINE
8
hole
62
5
39
2
10
24.399344
20
98.049801
11
24.185898
21
97.463915
0
LINE
8
hole
62
5
39
2
10
24.185898
20
97.463915
11
23.828087
21
96.953238
0
LINE
8
hole
62
5
39
2
10
23.828087
20
96.953238
11
23.350294
21
96.552570
0
LINE
8
hole
62
5
39
2
10
23.350294
20
96.552570
11
22.785082
21
96.289216
0
LINE
8
hole
62
5
39
2
10
22.785082
20
96.289216
11
22.170967
21
96.181123
0
LINE
8
hole
62
5
39
2
10
22.170967
20
96.181123
11
21.549801
21
96.235658
0
LINE
8
hole
62
5
39
2
10
21.549801
20
96.235658
11
20.963916
21
96.449104
0
LINE
8
hole
62
5
39
2
10
20.370444
20
64.870444
11
20.052570
21
65.284705
0
LINE
8
hole
62
5
39
2
10
20.052570
20
65.284705
11
19.789215
21
65.849918
0
LINE
8
hole
62
5
39
2
10
19.789215
20
65.849918
11
19.681122
21
66.464033
0
LINE
8
hole
62
5
39
2
10
19.681122
20
66.464033
11
19.735657
21
67.085200
0
LINE
8
hole
62
5
39
2
10
19.735657
20
67.085200
11
19.949103
21
67.671086
0
LINE
8
hole
62
5
39
2
10
19.949103
20
67.671086
11
20.306914
21
68.181762
0
LINE
8
hole
62
5
39
2
10
20.306914
20
68.181762
11
20.784706
21
68.582430
0
LINE
8
hole
62
5
39
2
10
20.784706
20
68.582430
11
21.349919
21
68.845784
0
LINE
8
hole
62
5
39
2
10
21.349919
20
68.845784
11
21.964033
21
68.953877
0
LINE
8
hole
62
5
39
2
10
21.964033
20
68.953877
11
22.585199
21
68.899343
0
LINE
8
hole
62
5
39
2
10
22.585199
20
68.899343
11
23.171084
21
68.685897
0
LINE
8
hole
62
5
39
2
10
23.171084
20
68.685897
11
23.681762
21
68.328086
0
LINE
8
hole
62
5
39
2
10
23.681762
20
68.328086
11
24.082431
21
67.850295
0
LINE
8
hole
62
5
39
2
10
24.082431
20
67.850295
11
24.345785
21
67.285083
0
LINE
8
hole
62
5
39
2
10
24.345785
20
67.285083
11
24.453879
21
66.670967
0
LINE
8
hole
62
5
39
2
10
24.453879
20
66.670967
11
24.399344
21
66.049801
0
LINE
8
hole
62
5
39
2
10
24.399344
20
66.049801
11
24.185898
21
65.463915
0
LINE
8
hole
62
5
39
2
10
24.185898
20
65.463915
11
23.828087
21
64.953238
0
LINE
8
hole
62
5
39
2
10
23.828087
20
64.953238
11
23.350294
21
64.552570
0
LINE
8
hole
62
5
39
2
10
23.350294
20
64.552570
11
22.785082
21
64.289216
0
LINE
8
hole
62
5
39
2
10
22.785082
20
64.289216
11
22.170967
21
64.181123
0
LINE
8
hole
62
5
39
2
10
22.170967
20
64.181123
11
21.549801
21
64.235658
0
LINE
8
hole
62
5
39
2
10
21.549801
20
64.235658
11
20.963916
21
64.449104
0
LINE
8
hole
62
5
39
2
10
20.963916
20
64.449104
11
20.453238
21
64.806914
0
LINE
8
hole
62
5
39
2
10
20.453238
20
64.806914
11
20.370444
21
64.870444
0
LINE
8
hole
62
5
39
2
10
30.053238
20
64.806914
11
29.652569
21
65.284705
0
LINE
8
hole
62
5
39
2
10
29.652569
20
65.284705
11
29.389215
21
65.849918
0
LINE
8
hole
62
5
39
2
10
29.389215
20
65.849918
11
29.281122
21
66.464033
0
LINE
8
hole
62
5
39
2
10
29.281122
20
66.464033
11
29.335656
21
67.085200
0
LINE
8
hole
62
5
39
2
10
29.335656
20
67.085200
11
29.549102
21
67.671086
0
LINE
8
hole
62
5
39
2
10
29.549102
20
67.671086
11
29.906914
21
68.181762
0
LINE
8
hole
62
5
39
2
10
29.906914
20
68.181762
11
30.384706
21
68.582430
0
LINE
8
hole
62
5
39
2
10
30.384706
20
68.582430
11
30.949918
21
68.845784
0
LINE
8
hole
62
5
39
2
10
30.949918
20
68.845784
11
31.564033
21
68.953877
0
LINE
8
hole
62
5
39
2
10
31.564033
20
68.953877
11
32.185200
21
68.899343
0
LINE
8
hole
62
5
39
2
10
32.185200
20
68.899343
11
32.771085
21
68.685897
0
LINE
8
hole
62
5
39
2
10
32.771085
20
68.685897
11
33.281763
21
68.328086
0
LINE
8
hole
62
5
39
2
10
33.281763
20
68.328086
11
33.682431
21
67.850295
0
LINE
8
hole
62
5
39
2
10
33.682431
20
67.850295
11
33.945786
21
67.285083
0
LINE
8
hole
62
5
39
2
10
33.945786
20
67.285083
11
34.053879
21
66.670967
0
LINE
8
hole
62
5
39
2
10
34.053879
20
66.670967
11
33.999344
21
66.049801
0
LINE
8
hole
62
5
39
2
10
33.999344
20
66.049801
11
33.785898
21
65.463915
0
LINE
8
hole
62
5
39
2
10
33.785898
20
65.463915
11
33.428087
21
64.953238
0
LINE
8
hole
62
5
39
2
10
33.428087
20
64.953238
11
32.950295
21
64.552570
0
LINE
8
hole
62
5
39
2
10
32.950295
20
64.552570
11
32.385082
21
64.289216
0
LINE
8
hole
62
5
39
2
10
32.385082
20
64.289216
11
31.770967
21
64.181123
0
LINE
8
hole
62
5
39
2
10
31.770967
20
64.181123
11
31.149801
21
64.235658
0
LINE
8
hole
62
5
39
2
10
31.149801
20
64.235658
11
30.563916
21
64.449104
0
LINE
8
hole
62
5
39
2
10
30.563916
20
64.449104
11
30.053238
21
64.806914
0
LINE
8
hole
62
5
39
2
10
20.370444
20
72.870444
11
20.052569
21
73.284707
0
LINE
8
hole
62
5
39
2
10
20.052569
20
73.284707
11
19.789215
21
73.849920
0
LINE
8
hole
62
5
39
2
10
19.789215
20
73.849920
11
19.681122
21
74.464034
0
LINE
8
hole
62
5
39
2
10
19.681122
20
74.464034
11
19.735657
21
75.085199
0
LINE
8
hole
62
5
39
2
10
19.735657
20
75.085199
11
19.949103
21
75.671084
0
LINE
8
hole
62
5
39
2
10
19.949103
20
75.671084
11
20.306914
21
76.181762
0
LINE
8
hole
62
5
39
2
10
20.306914
20
76.181762
11
20.784706
21
76.582432
0
LINE
8
hole
62
5
39
2
10
20.784706
20
76.582432
11
21.349918
21
76.845786
0
LINE
8
hole
62
5
39
2
10
21.349918
20
76.845786
11
21.964033
21
76.953879
0
LINE
8
hole
62
5
39
2
10
21.964033
20
76.953879
11
22.585199
21
76.899344
0
LINE
8
hole
62
5
39
2
10
22.585199
20
76.899344
11
23.171084
21
76.685898
0
LINE
8
hole
62
5
39
2
10
23.171084
20
76.685898
11
23.681762
21
76.328087
0
LINE
8
hole
62
5
39
2
10
23.681762
20
76.328087
11
24.082431
21
75.850294
0
LINE
8
hole
62
5
39
2
10
24.082431
20
75.850294
11
24.345785
21
75.285081
0
LINE
8
hole
62
5
39
2
10
24.345785
20
75.285081
11
24.453879
21
74.670967
0
LINE
8
hole
62
5
39
2
10
24.453879
20
74.670967
11
24.399344
21
74.049802
0
LINE
8
hole
62
5
39
2
10
24.399344
20
74.049802
11
24.185898
21
73.463917
0
LINE
8
hole
62
5
39
2
10
24.185898
20
73.463917
11
23.828087
21
72.953238
0
LINE
8
hole
62
5
39
2
10
23.828087
20
72.953238
11
23.350294
21
72.552570
0
LINE
8
hole
62
5
39
2
10
23.350294
20
72.552570
11
22.785082
21
72.289215
0
LINE
8
hole
62
5
39
2
10
22.785082
20
72.289215
11
22.170967
21
72.181122
0
LINE
8
hole
62
5
39
2
10
22.170967
20
72.181122
11
21.549801
21
72.235657
0
LINE
8
hole
62
5
39
2
10
21.549801
20
72.235657
11
20.963916
21
72.449103
0
LINE
8
hole
62
5
39
2
10
20.963916
20
72.449103
11
20.453238
21
72.806914
0
LINE
8
hole
62
5
39
2
10
20.453238
20
72.806914
11
20.370444
21
72.870444
0
LINE
8
hole
62
5
39
2
10
20.453238
20
88.806914
11
20.052570
21
89.284706
0
LINE
8
hole
62
5
39
2
10
20.052570
20
89.284706
11
19.789215
21
89.849919
0
LINE
8
hole
62
5
39
2
10
19.789215
20
89.849919
11
19.681122
21
90.464033
0
LINE
8
hole
62
5
39
2
10
19.681122
20
90.464033
11
19.735657
21
91.085198
0
LINE
8
hole
62
5
39
2
10
19.735657
20
91.085198
11
19.949103
21
91.671084
0
LINE
8
hole
62
5
39
2
10
19.949103
20
91.671084
11
20.306914
21
92.181762
0
LINE
8
hole
62
5
39
2
10
20.306914
20
92.181762
11
20.784706
21
92.582430
0
LINE
8
hole
62
5
39
2
10
20.784706
20
92.582430
11
21.349918
21
92.845785
0
LINE
8
hole
62
5
39
2
10
21.349918
20
92.845785
11
21.964033
21
92.953878
0
LINE
8
hole
62
5
39
2
10
21.964033
20
92.953878
11
22.585199
21
92.899344
0
LINE
8
hole
62
5
39
2
10
22.585199
20
92.899344
11
23.171085
21
92.685897
0
LINE
8
hole
62
5
39
2
10
23.171085
20
92.685897
11
23.681763
21
92.328086
0
LINE
8
hole
62
5
39
2
10
23.681763
20
92.328086
11
24.082431
21
91.850294
0
LINE
8
hole
62
5
39
2
10
24.082431
20
91.850294
11
24.345786
21
91.285081
0
LINE
8
hole
62
5
39
2
10
24.345786
20
91.285081
11
24.453878
21
90.670967
0
LINE
8
hole
62
5
39
2
10
24.453878
20
90.670967
11
24.399344
21
90.049801
0
LINE
8
hole
62
5
39
2
10
24.399344
20
90.049801
11
24.185898
21
89.463916
0
LINE
8
hole
62
5
39
2
10
24.185898
20
89.463916
11
23.828087
21
88.953238
0
LINE
8
hole
62
5
39
2
10
23.828087
20
88.953238
11
23.350294
21
88.552569
0
LINE
8
hole
62
5
39
2
10
23.350294
20
88.552569
11
22.785082
21
88.289215
0
LINE
8
hole
62
5
39
2
10
22.785082
20
88.289215
11
22.170967
21
88.181122
0
LINE
8
hole
62
5
39
2
10
22.170967
20
88.181122
11
21.549801
21
88.235656
0
LINE
8
hole
62
5
39
2
10
21.549801
20
88.235656
11
20.963916
21
88.449102
0
LINE
8
hole
62
5
39
2
10
20.963916
20
88.449102
11
20.453238
21
88.806914
0
LINE
8
hole
62
5
39
2
10
29.652569
20
97.284705
11
29.389215
21
97.849918
0
LINE
8
hole
62
5
39
2
10
29.389215
20
97.849918
11
29.281122
21
98.464033
0
LINE
8
hole
62
5
39
2
10
29.281122
20
98.464033
11
29.335656
21
99.085199
0
LINE
8
hole
62
5
39
2
10
29.335656
20
99.085199
11
29.549102
21
99.671085
0
LINE
8
hole
62
5
39
2
10
29.549102
20
99.671085
11
29.906914
21
100.181762
0
LINE
8
hole
62
5
39
2
10
29.906914
20
100.181762
11
30.384706
21
100.582430
0
LINE
8
hole
62
5
39
2
10
30.384706
20
100.582430
11
30.949918
21
100.845784
0
LINE
8
hole
62
5
39
2
10
30.949918
20
100.845784
11
31.564033
21
100.953877
0
LINE
8
hole
62
5
39
2
10
31.564033
20
100.953877
11
32.185200
21
100.899343
0
LINE
8
hole
62
5
39
2
10
32.185200
20
100.899343
11
32.771085
21
100.685897
0
LINE
8
hole
62
5
39
2
10
32.771085
20
100.685897
11
33.281763
21
100.328086
0
LINE
8
hole
62
5
39
2
10
33.281763
20
100.328086
11
33.682431
21
99.850295
0
LINE
8
hole
62
5
39
2
10
33.682431
20
99.850295
11
33.945786
21
99.285082
0
LINE
8
hole
62
5
39
2
10
33.945786
20
99.285082
11
34.053879
21
98.670967
0
LINE
8
hole
62
5
39
2
10
34.053879
20
98.670967
11
33.999345
21
98.049801
0
LINE
8
hole
62
5
39
2
10
33.999345
20
98.049801
11
33.785898
21
97.463915
0
LINE
8
hole
62
5
39
2
10
33.785898
20
97.463915
11
33.428087
21
96.953238
0
LINE
8
hole
62
5
39
2
10
33.428087
20
96.953238
11
32.950295
21
96.552570
0
LINE
8
hole
62
5
39
2
10
32.950295
20
96.552570
11
32.385082
21
96.289216
0
LINE
8
hole
62
5
39
2
10
32.385082
20
96.289216
11
31.770967
21
96.181123
0
LINE
8
hole
62
5
39
2
10
31.770967
20
96.181123
11
31.149801
21
96.235658
0
LINE
8
hole
62
5
39
2
10
31.149801
20
96.235658
11
30.563916
21
96.449104
0
LINE
8
hole
62
5
39
2
10
30.563916
20
96.449104
11
30.053238
21
96.806914
0
LINE
8
hole
62
5
39
2
10
30.053238
20
96.806914
11
29.652569
21
97.284705
0
LINE
8
hole
62
5
39
2
10
21.549801
20
80.235657
11
20.963916
21
80.449103
0
LINE
8
hole
62
5
39
2
10
20.963916
20
80.449103
11
20.453238
21
80.806914
0
LINE
8
hole
62
5
39
2
10
20.453238
20
80.806914
11
20.052570
21
81.284706
0
LINE
8
hole
62
5
39
2
10
20.052570
20
81.284706
11
19.789215
21
81.849919
0
LINE
8
hole
62
5
39
2
10
19.789215
20
81.849919
11
19.681122
21
82.464033
0
LINE
8
hole
62
5
39
2
10
19.681122
20
82.464033
11
19.735657
21
83.085199
0
LINE
8
hole
62
5
39
2
10
19.735657
20
83.085199
11
19.949103
21
83.671085
0
LINE
8
hole
62
5
39
2
10
19.949103
20
83.671085
11
20.306914
21
84.181763
0
LINE
8
hole
62
5
39
2
10
20.306914
20
84.181763
11
20.784706
21
84.582431
0
LINE
8
hole
62
5
39
2
10
20.784706
20
84.582431
11
21.349919
21
84.845786
0
LINE
8
hole
62
5
39
2
10
21.349919
20
84.845786
11
21.964033
21
84.953879
0
LINE
8
hole
62
5
39
2
10
21.964033
20
84.953879
11
22.585199
21
84.899344
0
LINE
8
hole
62
5
39
2
10
22.585199
20
84.899344
11
23.171085
21
84.685898
0
LINE
8
hole
62
5
39
2
10
23.171085
20
84.685898
11
23.681762
21
84.328087
0
LINE
8
hole
62
5
39
2
10
23.681762
20
84.328087
11
24.082431
21
83.850294
0
LINE
8
hole
62
5
39
2
10
24.082431
20
83.850294
11
24.345785
21
83.285082
0
LINE
8
hole
62
5
39
2
10
24.345785
20
83.285082
11
24.453878
21
82.670967
0
LINE
8
hole
62
5
39
2
10
24.453878
20
82.670967
11
24.399344
21
82.049801
0
LINE
8
hole
62
5
39
2
10
24.399344
20
82.049801
11
24.185898
21
81.463916
0
LINE
8
hole
62
5
39
2
10
24.185898
20
81.463916
11
23.828087
21
80.953238
0
LINE
8
hole
62
5
39
2
10
23.828087
20
80.953238
11
23.350294
21
80.552569
0
LINE
8
hole
62
5
39
2
10
23.350294
20
80.552569
11
22.785082
21
80.289215
0
LINE
8
hole
62
5
39
2
10
22.785082
20
80.289215
11
22.170967
21
80.181122
0
LINE
8
hole
62
5
39
2
10
22.170967
20
80.181122
11
21.549801
21
80.235657
0
LINE
8
hole
62
5
39
2
10
30.053238
20
88.806914
11
29.652569
21
89.284706
0
LINE
8
hole
62
5
39
2
10
29.652569
20
89.284706
11
29.389215
21
89.849919
0
LINE
8
hole
62
5
39
2
10
29.389215
20
89.849919
11
29.281122
21
90.464033
0
LINE
8
hole
62
5
39
2
10
29.281122
20
90.464033
11
29.335656
21
91.085198
0
LINE
8
hole
62
5
39
2
10
29.335656
20
91.085198
11
29.549102
21
91.671084
0
LINE
8
hole
62
5
39
2
10
29.549102
20
91.671084
11
29.906914
21
92.181762
0
LINE
8
hole
62
5
39
2
10
29.906914
20
92.181762
11
30.384706
21
92.582430
0
LINE
8
hole
62
5
39
2
10
30.384706
20
92.582430
11
30.949918
21
92.845785
0
LINE
8
hole
62
5
39
2
10
30.949918
20
92.845785
11
31.564033
21
92.953878
0
LINE
8
hole
62
5
39
2
10
31.564033
20
92.953878
11
32.185200
21
92.899343
0
LINE
8
hole
62
5
39
2
10
32.185200
20
92.899343
11
32.771085
21
92.685897
0
LINE
8
hole
62
5
39
2
10
32.771085
20
92.685897
11
33.281763
21
92.328086
0
LINE
8
hole
62
5
39
2
10
33.281763
20
92.328086
11
33.682431
21
91.850294
0
LINE
8
hole
62
5
39
2
10
33.682431
20
91.850294
11
33.945786
21
91.285081
0
LINE
8
hole
62
5
39
2
10
33.945786
20
91.285081
11
34.053879
21
90.670967
0
LINE
8
hole
62
5
39
2
10
34.053879
20
90.670967
11
33.999345
21
90.049801
0
LINE
8
hole
62
5
39
2
10
33.999345
20
90.049801
11
33.785898
21
89.463916
0
LINE
8
hole
62
5
39
2
10
33.785898
20
89.463916
11
33.428087
21
88.953238
0
LINE
8
hole
62
5
39
2
10
33.428087
20
88.953238
11
32.950295
21
88.552569
0
LINE
8
hole
62
5
39
2
10
32.950295
20
88.552569
11
32.385082
21
88.289215
0
LINE
8
hole
62
5
39
2
10
32.385082
20
88.289215
11
31.770967
21
88.181122
0
LINE
8
hole
62
5
39
2
10
31.770967
20
88.181122
11
31.149801
21
88.235657
0
LINE
8
hole
62
5
39
2
10
31.149801
20
88.235657
11
30.563916
21
88.449102
0
LINE
8
hole
62
5
39
2
10
30.563916
20
88.449102
11
30.053238
21
88.806914
0
LINE
8
hole
62
5
39
2
10
29.652569
20
73.284707
11
29.389214
21
73.849920
0
LINE
8
hole
62
5
39
2
10
29.389214
20
73.849920
11
29.281122
21
74.464034
0
LINE
8
hole
62
5
39
2
10
29.281122
20
74.464034
11
29.335656
21
75.085199
0
LINE
8
hole
62
5
39
2
10
29.335656
20
75.085199
11
29.549102
21
75.671084
0
LINE
8
hole
62
5
39
2
10
29.549102
20
75.671084
11
29.906914
21
76.181763
0
LINE
8
hole
62
5
39
2
10
29.906914
20
76.181763
11
30.384706
21
76.582432
0
LINE
8
hole
62
5
39
2
10
30.384706
20
76.582432
11
30.949918
21
76.845786
0
LINE
8
hole
62
5
39
2
10
30.949918
20
76.845786
11
31.564033
21
76.953878
0
LINE
8
hole
62
5
39
2
10
31.564033
20
76.953878
11
32.185200
21
76.899344
0
LINE
8
hole
62
5
39
2
10
32.185200
20
76.899344
11
32.771085
21
76.685898
0
LINE
8
hole
62
5
39
2
10
32.771085
20
76.685898
11
33.281763
21
76.328087
0
LINE
8
hole
62
5
39
2
10
33.281763
20
76.328087
11
33.682431
21
75.850294
0
LINE
8
hole
62
5
39
2
10
33.682431
20
75.850294
11
33.945786
21
75.285082
0
LINE
8
hole
62
5
39
2
10
33.945786
20
75.285082
11
34.053879
21
74.670967
0
LINE
8
hole
62
5
39
2
10
34.053879
20
74.670967
11
33.999344
21
74.049802
0
LINE
8
hole
62
5
39
2
10
33.999344
20
74.049802
11
33.785898
21
73.463917
0
LINE
8
hole
62
5
39
2
10
33.785898
20
73.463917
11
33.428087
21
72.953238
0
LINE
8
hole
62
5
39
2
10
33.428087
20
72.953238
11
32.950295
21
72.552570
0
LINE
8
hole
62
5
39
2
10
32.950295
20
72.552570
11
32.385082
21
72.289216
0
LINE
8
hole
62
5
39
2
10
32.385082
20
72.289216
11
31.770967
21
72.181122
0
LINE
8
hole
62
5
39
2
10
31.770967
20
72.181122
11
31.149801
21
72.235657
0
LINE
8
hole
62
5
39
2
10
31.149801
20
72.235657
11
30.563916
21
72.449103
0
LINE
8
hole
62
5
39
2
10
30.563916
20
72.449103
11
30.053238
21
72.806914
0
LINE
8
hole
62
5
39
2
10
30.053238
20
72.806914
11
29.652569
21
73.284707
0
LINE
8
hole
62
5
39
2
10
29.349278
20
81.946335
11
29.281122
21
82.464034
0
LINE
8
hole
62
5
39
2
10
29.281122
20
82.464034
11
29.335656
21
83.085199
0
LINE
8
hole
62
5
39
2
10
29.335656
20
83.085199
11
29.549102
21
83.671084
0
LINE
8
hole
62
5
39
2
10
29.549102
20
83.671084
11
29.906914
21
84.181763
0
LINE
8
hole
62
5
39
2
10
29.906914
20
84.181763
11
30.384706
21
84.582431
0
LINE
8
hole
62
5
39
2
10
30.384706
20
84.582431
11
30.949918
21
84.845786
0
LINE
8
hole
62
5
39
2
10
30.949918
20
84.845786
11
31.564033
21
84.953879
0
LINE
8
hole
62
5
39
2
10
31.564033
20
84.953879
11
32.185200
21
84.899344
0
LINE
8
hole
62
5
39
2
10
32.185200
20
84.899344
11
32.771085
21
84.685898
0
LINE
8
hole
62
5
39
2
10
32.771085
20
84.685898
11
33.281763
21
84.328087
0
LINE
8
hole
62
5
39
2
10
33.281763
20
84.328087
11
33.682431
21
83.850294
0
LINE
8
hole
62
5
39
2
10
33.682431
20
83.850294
11
33.945786
21
83.285082
0
LINE
8
hole
62
5
39
2
10
33.945786
20
83.285082
11
34.053879
21
82.670967
0
LINE
8
hole
62
5
39
2
10
34.053879
20
82.670967
11
33.999344
21
82.049802
0
LINE
8
hole
62
5
39
2
10
33.999344
20
82.049802
11
33.785898
21
81.463916
0
LINE
8
hole
62
5
39
2
10
33.785898
20
81.463916
11
33.428087
21
80.953238
0
LINE
8
hole
62
5
39
2
10
33.428087
20
80.953238
11
32.950295
21
80.552569
0
LINE
8
hole
62
5
39
2
10
32.950295
20
80.552569
11
32.385082
21
80.289215
0
LINE
8
hole
62
5
39
2
10
32.385082
20
80.289215
11
31.770967
21
80.181122
0
LINE
8
hole
62
5
39
2
10
31.770967
20
80.181122
11
31.149801
21
80.235656
0
LINE
8
hole
62
5
39
2
10
31.149801
20
80.235656
11
30.563916
21
80.449103
0
LINE
8
hole
62
5
39
2
10
30.563916
20
80.449103
11
30.053238
21
80.806914
0
LINE
8
hole
62
5
39
2
10
30.053238
20
80.806914
11
29.652569
21
81.284706
0
LINE
8
hole
62
5
39
2
10
29.652569
20
81.284706
11
29.389215
21
81.849919
0
LINE
8
hole
62
5
39
2
10
29.389215
20
81.849919
11
29.349278
21
81.946335
0
LINE
8
hole
62
5
39
2
10
8.888037
20
93.801742
11
8.638395
21
94.353101
0
LINE
8
hole
62
5
39
2
10
8.638395
20
94.353101
11
8.851742
21
94.919495
0
LINE
8
hole
62
5
39
2
10
8.851742
20
94.919495
11
8.867501
21
98.694968
0
LINE
8
hole
62
5
39
2
10
8.867501
20
98.694968
11
8.638395
21
99.230570
0
LINE
8
hole
62
5
39
2
10
8.638395
20
99.230570
11
8.851742
21
99.796963
0
LINE
8
hole
62
5
39
2
10
8.851742
20
99.796963
11
9.403101
21
100.046607
0
LINE
8
hole
62
5
39
2
10
9.403101
20
100.046607
11
9.969496
21
99.833258
0
LINE
8
hole
62
5
39
2
10
9.969496
20
99.833258
11
10.944969
21
99.817499
0
LINE
8
hole
62
5
39
2
10
10.944969
20
99.817499
11
11.480569
21
100.046607
0
LINE
8
hole
62
5
39
2
10
11.480569
20
100.046607
11
12.046963
21
99.833258
0
LINE
8
hole
62
5
39
2
10
12.046963
20
99.833258
11
12.296606
21
99.281899
0
LINE
8
hole
62
5
39
2
10
12.296606
20
99.281899
11
12.083258
21
98.715505
0
LINE
8
hole
62
5
39
2
10
12.083258
20
98.715505
11
12.067500
21
94.940032
0
LINE
8
hole
62
5
39
2
10
12.067500
20
94.940032
11
12.296606
21
94.404431
0
LINE
8
hole
62
5
39
2
10
12.296606
20
94.404431
11
12.083258
21
93.838037
0
LINE
8
hole
62
5
39
2
10
12.083258
20
93.838037
11
11.531899
21
93.588396
0
LINE
8
hole
62
5
39
2
10
11.531899
20
93.588396
11
10.965505
21
93.801742
0
LINE
8
hole
62
5
39
2
10
10.965505
20
93.801742
11
9.990033
21
93.817500
0
LINE
8
hole
62
5
39
2
10
9.990033
20
93.817500
11
9.454430
21
93.588396
0
LINE
8
hole
62
5
39
2
10
9.454430
20
93.588396
11
8.888037
21
93.801742
0
LINE
8
hole
62
5
39
2
10
8.867500
20
79.567500
11
8.638395
21
80.103102
0
LINE
8
hole
62
5
39
2
10
8.638395
20
80.103102
11
8.851742
21
80.669496
0
LINE
8
hole
62
5
39
2
10
8.851742
20
80.669496
11
8.867501
21
84.444968
0
LINE
8
hole
62
5
39
2
10
8.867501
20
84.444968
11
8.638395
21
84.980570
0
LINE
8
hole
62
5
39
2
10
8.638395
20
84.980570
11
8.851742
21
85.546963
0
LINE
8
hole
62
5
39
2
10
8.851742
20
85.546963
11
9.403101
21
85.796605
0
LINE
8
hole
62
5
39
2
10
9.403101
20
85.796605
11
9.969496
21
85.583259
0
LINE
8
hole
62
5
39
2
10
9.969496
20
85.583259
11
10.944969
21
85.567500
0
LINE
8
hole
62
5
39
2
10
10.944969
20
85.567500
11
11.480569
21
85.796605
0
LINE
8
hole
62
5
39
2
10
11.480569
20
85.796605
11
12.046963
21
85.583259
0
LINE
8
hole
62
5
39
2
10
12.046963
20
85.583259
11
12.296606
21
85.031899
0
LINE
8
hole
62
5
39
2
10
12.296606
20
85.031899
11
12.083258
21
84.465505
0
LINE
8
hole
62
5
39
2
10
12.083258
20
84.465505
11
12.067500
21
80.690032
0
LINE
8
hole
62
5
39
2
10
12.067500
20
80.690032
11
12.296606
21
80.154431
0
LINE
8
hole
62
5
39
2
10
12.296606
20
80.154431
11
12.083258
21
79.588037
0
LINE
8
hole
62
5
39
2
10
12.083258
20
79.588037
11
11.531899
21
79.338395
0
LINE
8
hole
62
5
39
2
10
11.531899
20
79.338395
11
10.965506
21
79.551742
0
LINE
8
hole
62
5
39
2
10
10.965506
20
79.551742
11
9.990033
21
79.567500
0
LINE
8
hole
62
5
39
2
10
9.990033
20
79.567500
11
9.454430
21
79.338395
0
LINE
8
hole
62
5
39
2
10
9.454430
20
79.338395
11
8.888037
21
79.551742
0
LINE
8
hole
62
5
39
2
10
8.888037
20
79.551742
11
8.867500
21
79.567500
0
LINE
8
hole
62
5
39
2
10
8.888037
20
65.301742
11
8.638394
21
65.853102
0
LINE
8
hole
62
5
39
2
10
8.638394
20
65.853102
11
8.851742
21
66.419496
0
LINE
8
hole
62
5
39
2
10
8.851742
20
66.419496
11
8.867501
21
70.194969
0
LINE
8
hole
62
5
39
2
10
8.867501
20
70.194969
11
8.638395
21
70.730570
0
LINE
8
hole
62
5
39
2
10
8.638395
20
70.730570
11
8.851742
21
71.296963
0
LINE
8
hole
62
5
39
2
10
8.851742
20
71.296963
11
9.403101
21
71.546605
0
LINE
8
hole
62
5
39
2
10
9.403101
20
71.546605
11
9.969496
21
71.333259
0
LINE
8
hole
62
5
39
2
10
9.969496
20
71.333259
11
10.944969
21
71.317500
0
LINE
8
hole
62
5
39
2
10
10.944969
20
71.317500
11
11.480569
21
71.546605
0
LINE
8
hole
62
5
39
2
10
11.480569
20
71.546605
11
12.046963
21
71.333259
0
LINE
8
hole
62
5
39
2
10
12.046963
20
71.333259
11
12.296606
21
70.781899
0
LINE
8
hole
62
5
39
2
10
12.296606
20
70.781899
11
12.083258
21
70.215505
0
LINE
8
hole
62
5
39
2
10
12.083258
20
70.215505
11
12.067500
21
66.440032
0
LINE
8
hole
62
5
39
2
10
12.067500
20
66.440032
11
12.296606
21
65.904431
0
LINE
8
hole
62
5
39
2
10
12.296606
20
65.904431
11
12.083258
21
65.338037
0
LINE
8
hole
62
5
39
2
10
12.083258
20
65.338037
11
11.531899
21
65.088393
0
LINE
8
hole
62
5
39
2
10
11.531899
20
65.088393
11
10.965506
21
65.301742
0
LINE
8
hole
62
5
39
2
10
10.965506
20
65.301742
11
9.990033
21
65.317501
0
LINE
8
hole
62
5
39
2
10
9.990033
20
65.317501
11
9.454430
21
65.088394
0
LINE
8
hole
62
5
39
2
10
9.454430
20
65.088394
11
8.888037
21
65.301742
0
LINE
8
hole
62
5
39
2
10
21.838870
20
140.084938
11
21.165539
21
140.473678
0
LINE
8
hole
62
5
39
2
10
21.165539
20
140.473678
11
20.491621
21
141.049423
0
LINE
8
hole
62
5
39
2
10
20.491621
20
141.049423
11
19.952135
21
141.752705
0
LINE
8
hole
62
5
39
2
10
19.952135
20
141.752705
11
19.570657
21
142.552779
0
LINE
8
hole
62
5
39
2
10
19.570657
20
142.552779
11
19.363860
21
143.414681
0
LINE
8
hole
62
5
39
2
10
19.363860
20
143.414681
11
19.340783
21
144.300749
0
LINE
8
hole
62
5
39
2
10
19.340783
20
144.300749
11
19.502433
21
145.172252
0
LINE
8
hole
62
5
39
2
10
19.502433
20
145.172252
11
19.841747
21
145.991104
0
LINE
8
hole
62
5
39
2
10
19.841747
20
145.991104
11
20.343893
21
146.721510
0
LINE
8
hole
62
5
39
2
10
20.343893
20
146.721510
11
20.986927
21
147.331556
0
LINE
8
hole
62
5
39
2
10
20.986927
20
147.331556
11
21.742744
21
147.794573
0
LINE
8
hole
62
5
39
2
10
21.742744
20
147.794573
11
22.578312
21
148.090330
0
LINE
8
hole
62
5
39
2
10
22.578312
20
148.090330
11
23.457112
21
148.205900
0
LINE
8
hole
62
5
39
2
10
23.457112
20
148.205900
11
24.340737
21
148.136232
0
LINE
8
hole
62
5
39
2
10
24.340737
20
148.136232
11
25.190567
21
147.884371
0
LINE
8
hole
62
5
39
2
10
25.190567
20
147.884371
11
25.969462
21
147.461325
0
LINE
8
hole
62
5
39
2
10
25.969462
20
147.461325
11
26.643380
21
146.885579
0
LINE
8
hole
62
5
39
2
10
26.643380
20
146.885579
11
27.182867
21
146.182303
0
LINE
8
hole
62
5
39
2
10
27.182867
20
146.182303
11
27.564345
21
145.382224
0
LINE
8
hole
62
5
39
2
10
27.564345
20
145.382224
11
27.771141
21
144.520316
0
LINE
8
hole
62
5
39
2
10
27.771141
20
144.520316
11
27.794219
21
143.634248
0
LINE
8
hole
62
5
39
2
10
27.794219
20
143.634248
11
27.632568
21
142.762749
0
LINE
8
hole
62
5
39
2
10
27.632568
20
142.762749
11
27.293255
21
141.943904
0
LINE
8
hole
62
5
39
2
10
27.293255
20
141.943904
11
26.791108
21
141.213493
0
LINE
8
hole
62
5
39
2
10
26.791108
20
141.213493
11
26.148074
21
140.603447
0
LINE
8
hole
62
5
39
2
10
26.148074
20
140.603447
11
25.392257
21
140.140435
0
LINE
8
hole
62
5
39
2
10
25.392257
20
140.140435
11
24.556689
21
139.844673
0
LINE
8
hole
62
5
39
2
10
24.556689
20
139.844673
11
23.677889
21
139.729102
0
LINE
8
hole
62
5
39
2
10
23.677889
20
139.729102
11
22.794264
21
139.798770
0
LINE
8
hole
62
5
39
2
10
22.794264
20
139.798770
11
21.944434
21
140.050637
0
LINE
8
hole
62
5
39
2
10
21.944434
20
140.050637
11
21.838870
21
140.084938
0
LINE
8
hole
62
5
39
2
10
19.570657
20
19.752776
11
19.363860
21
20.614684
0
LINE
8
hole
62
5
39
2
10
19.363860
20
20.614684
11
19.340783
21
21.500752
0
LINE
8
hole
62
5
39
2
10
19.340783
20
21.500752
11
19.502433
21
22.372251
0
LINE
8
hole
62
5
39
2
10
19.502433
20
22.372251
11
19.841747
21
23.191097
0
LINE
8
hole
62
5
39
2
10
19.841747
20
23.191097
11
20.343893
21
23.921508
0
LINE
8
hole
62
5
39
2
10
20.343893
20
23.921508
11
20.986927
21
24.531554
0
LINE
8
hole
62
5
39
2
10
20.986927
20
24.531554
11
21.742744
21
24.994566
0
LINE
8
hole
62
5
39
2
10
21.742744
20
24.994566
11
22.578312
21
25.290327
0
LINE
8
hole
62
5
39
2
10
22.578312
20
25.290327
11
23.457112
21
25.405898
0
LINE
8
hole
62
5
39
2
10
23.457112
20
25.405898
11
24.340737
21
25.336230
0
LINE
8
hole
62
5
39
2
10
24.340737
20
25.336230
11
25.190567
21
25.084363
0
LINE
8
hole
62
5
39
2
10
25.190567
20
25.084363
11
25.969462
21
24.661322
0
LINE
8
hole
62
5
39
2
10
25.969462
20
24.661322
11
26.643379
21
24.085577
0
LINE
8
hole
62
5
39
2
10
26.643379
20
24.085577
11
27.182866
21
23.382295
0
LINE
8
hole
62
5
39
2
10
27.182866
20
23.382295
11
27.564344
21
22.582221
0
LINE
8
hole
62
5
39
2
10
27.564344
20
22.582221
11
27.771141
21
21.720319
0
LINE
8
hole
62
5
39
2
10
27.771141
20
21.720319
11
27.794219
21
20.834252
0
LINE
8
hole
62
5
39
2
10
27.794219
20
20.834252
11
27.632568
21
19.962748
0
LINE
8
hole
62
5
39
2
10
27.632568
20
19.962748
11
27.293255
21
19.143896
0
LINE
8
hole
62
5
39
2
10
27.293255
20
19.143896
11
26.791108
21
18.413490
0
LINE
8
hole
62
5
39
2
10
26.791108
20
18.413490
11
26.148074
21
17.803445
0
LINE
8
hole
62
5
39
2
10
26.148074
20
17.803445
11
25.392257
21
17.340428
0
LINE
8
hole
62
5
39
2
10
25.392257
20
17.340428
11
24.556689
21
17.044670
0
LINE
8
hole
62
5
39
2
10
24.556689
20
17.044670
11
23.677889
21
16.929101
0
LINE
8
hole
62
5
39
2
10
23.677889
20
16.929101
11
22.794264
21
16.998768
0
LINE
8
hole
62
5
39
2
10
22.794264
20
16.998768
11
21.944434
21
17.250630
0
LINE
8
hole
62
5
39
2
10
21.944434
20
17.250630
11
21.165539
21
17.673676
0
LINE
8
hole
62
5
39
2
10
21.165539
20
17.673676
11
20.491621
21
18.249421
0
LINE
8
hole
62
5
39
2
10
20.491621
20
18.249421
11
19.952135
21
18.952698
0
LINE
8
hole
62
5
39
2
10
19.952135
20
18.952698
11
19.570657
21
19.752776
0
LINE
8
boundary
62
5
39
2
10
17.245927
20
8.118066
11
18.754672
21
7.489537
0
LINE
8
boundary
62
5
39
2
10
18.754672
20
7.489537
11
20.324568
21
7.034792
0
LINE
8
boundary
62
5
39
2
10
20.324568
20
7.034792
11
21.935668
21
6.759615
0
LINE
8
boundary
62
5
39
2
10
21.935668
20
6.759615
11
23.363641
21
6.679008
0
LINE
8
boundary
62
5
39
2
10
23.363641
20
6.679008
11
24.995474
21
6.748108
0
LINE
8
boundary
62
5
39
2
10
24.995474
20
6.748108
11
26.810433
21
7.034792
0
LINE
8
boundary
62
5
39
2
10
26.810433
20
7.034792
11
28.380329
21
7.489537
0
LINE
8
boundary
62
5
39
2
10
28.380329
20
7.489537
11
29.889075
21
8.118066
0
LINE
8
boundary
62
5
39
2
10
29.889075
20
8.118066
11
31.317500
21
8.912403
0
LINE
8
boundary
62
5
39
2
10
31.317500
20
8.912403
11
31.317500
21
10.755708
0
LINE
8
boundary
62
5
39
2
10
31.317500
20
10.755708
11
31.317500
21
23.667498
0
LINE
8
boundary
62
5
39
2
10
31.317500
20
23.667498
11
31.530116
21
24.489772
0
LINE
8
boundary
62
5
39
2
10
31.530116
20
24.489772
11
31.830064
21
24.904935
0
LINE
8
boundary
62
5
39
2
10
31.830064
20
24.904935
11
32.561840
21
25.336033
0
LINE
8
boundary
62
5
39
2
10
32.561840
20
25.336033
11
33.067500
21
25.417500
0
LINE
8
boundary
62
5
39
2
10
33.067500
20
25.417500
11
33.889773
21
25.204884
0
LINE
8
boundary
62
5
39
2
10
33.889773
20
25.204884
11
34.304938
21
24.904935
0
LINE
8
boundary
62
5
39
2
10
34.304938
20
24.904935
11
34.736030
21
24.173159
0
LINE
8
boundary
62
5
39
2
10
34.736030
20
24.173159
11
34.817500
21
23.667498
0
LINE
8
boundary
62
5
39
2
10
34.817500
20
23.667498
11
34.817500
21
22.212341
0
LINE
8
boundary
62
5
39
2
10
34.817500
20
22.212341
11
34.817500
21
12.019408
0
LINE
8
boundary
62
5
39
2
10
34.817500
20
12.019408
11
35.791027
21
13.367794
0
LINE
8
boundary
62
5
39
2
10
35.791027
20
13.367794
11
36.603748
21
14.818783
0
LINE
8
boundary
62
5
39
2
10
36.603748
20
14.818783
11
37.244976
21
16.353289
0
LINE
8
boundary
62
5
39
2
10
37.244976
20
16.353289
11
37.706275
21
17.951120
0
LINE
8
boundary
62
5
39
2
10
37.706275
20
17.951120
11
37.981574
21
19.591275
0
LINE
8
boundary
62
5
39
2
10
37.981574
20
19.591275
11
38.067253
21
21.252166
0
LINE
8
boundary
62
5
39
2
10
38.067253
20
21.252166
11
37.962185
21
22.911930
0
LINE
8
boundary
62
5
39
2
10
37.962185
20
22.911930
11
37.667753
21
24.548755
0
LINE
8
boundary
62
5
39
2
10
37.667753
20
24.548755
11
37.187829
21
26.141099
0
LINE
8
boundary
62
5
39
2
10
37.187829
20
26.141099
11
36.528724
21
27.668011
0
LINE
8
boundary
62
5
39
2
10
36.528724
20
27.668011
11
36.069174
21
28.734770
0
LINE
8
boundary
62
5
39
2
10
36.069174
20
28.734770
11
35.736423
21
29.847626
0
LINE
8
boundary
62
5
39
2
10
35.736423
20
29.847626
11
35.534957
21
30.991548
0
LINE
8
boundary
62
5
39
2
10
35.534957
20
30.991548
11
35.467502
21
32.151128
0
LINE
8
boundary
62
5
39
2
10
35.467502
20
32.151128
11
35.467502
21
36.997513
0
LINE
8
boundary
62
5
39
2
10
35.467502
20
36.997513
11
35.467502
21
70.944969
0
LINE
8
boundary
62
5
39
2
10
35.467502
20
70.944969
11
35.238394
21
71.480570
0
LINE
8
boundary
62
5
39
2
10
35.238394
20
71.480570
11
35.451743
21
72.046963
0
LINE
8
boundary
62
5
39
2
10
35.451743
20
72.046963
11
36.003102
21
72.296605
0
LINE
8
boundary
62
5
39
2
10
36.003102
20
72.296605
11
36.569495
21
72.083258
0
LINE
8
boundary
62
5
39
2
10
36.569495
20
72.083258
11
38.467500
21
72.067500
0
LINE
8
boundary
62
5
39
2
10
38.467500
20
72.067500
11
38.467500
21
72.692133
0
LINE
8
boundary
62
5
39
2
10
38.467500
20
72.692133
11
38.467500
21
77.067500
0
LINE
8
boundary
62
5
39
2
10
38.467500
20
77.067500
11
36.590032
21
77.067500
0
LINE
8
boundary
62
5
39
2
10
36.590032
20
77.067500
11
36.054431
21
76.838395
0
LINE
8
boundary
62
5
39
2
10
36.054431
20
76.838395
11
35.488038
21
77.051742
0
LINE
8
boundary
62
5
39
2
10
35.488038
20
77.051742
11
35.238394
21
77.603102
0
LINE
8
boundary
62
5
39
2
10
35.238394
20
77.603102
11
35.451743
21
78.169496
0
LINE
8
boundary
62
5
39
2
10
35.451743
20
78.169496
11
35.467502
21
79.283757
0
LINE
8
boundary
62
5
39
2
10
35.467502
20
79.283757
11
35.467502
21
86.944968
0
LINE
8
boundary
62
5
39
2
10
35.467502
20
86.944968
11
35.238394
21
87.480569
0
LINE
8
boundary
62
5
39
2
10
35.238394
20
87.480569
11
35.451743
21
88.046963
0
LINE
8
boundary
62
5
39
2
10
35.451743
20
88.046963
11
36.003102
21
88.296605
0
LINE
8
boundary
62
5
39
2
10
36.003102
20
88.296605
11
36.569495
21
88.083258
0
LINE
8
boundary
62
5
39
2
10
36.569495
20
88.083258
11
38.467500
21
88.067500
0
LINE
8
boundary
62
5
39
2
10
38.467500
20
88.067500
11
38.467500
21
88.692133
0
LINE
8
boundary
62
5
39
2
10
38.467500
20
88.692133
11
38.467500
21
93.067501
0
LINE
8
boundary
62
5
39
2
10
38.467500
20
93.067501
11
36.590032
21
93.067501
0
LINE
8
boundary
62
5
39
2
10
36.590032
20
93.067501
11
36.054431
21
92.838396
0
LINE
8
boundary
62
5
39
2
10
36.054431
20
92.838396
11
35.488038
21
93.051742
0
LINE
8
boundary
62
5
39
2
10
35.488038
20
93.051742
11
35.238394
21
93.603102
0
LINE
8
boundary
62
5
39
2
10
35.238394
20
93.603102
11
35.451743
21
94.169495
0
LINE
8
boundary
62
5
39
2
10
35.451743
20
94.169495
11
35.467502
21
96.723228
0
LINE
8
boundary
62
5
39
2
10
35.467502
20
96.723228
11
35.467502
21
114.467500
0
LINE
8
boundary
62
5
39
2
10
35.467502
20
114.467500
11
35.467502
21
116.780689
0
LINE
8
boundary
62
5
39
2
10
35.467502
20
116.780689
11
35.467502
21
132.983872
0
LINE
8
boundary
62
5
39
2
10
35.467502
20
132.983872
11
35.534959
21
134.143452
0
LINE
8
boundary
62
5
39
2
10
35.534959
20
134.143452
11
35.736423
21
135.287375
0
LINE
8
boundary
62
5
39
2
10
35.736423
20
135.287375
11
36.069174
21
136.400230
0
LINE
8
boundary
62
5
39
2
10
36.069174
20
136.400230
11
36.528724
21
137.466990
0
LINE
8
boundary
62
5
39
2
10
36.528724
20
137.466990
11
37.187829
21
138.993901
0
LINE
8
boundary
62
5
39
2
10
37.187829
20
138.993901
11
37.667753
21
140.586246
0
LINE
8
boundary
62
5
39
2
10
37.667753
20
140.586246
11
37.962186
21
142.223070
0
LINE
8
boundary
62
5
39
2
10
37.962186
20
142.223070
11
38.067254
21
143.882835
0
LINE
8
boundary
62
5
39
2
10
38.067254
20
143.882835
11
37.981574
21
145.543725
0
LINE
8
boundary
62
5
39
2
10
37.981574
20
145.543725
11
37.706276
21
147.183881
0
LINE
8
boundary
62
5
39
2
10
37.706276
20
147.183881
11
37.244977
21
148.781712
0
LINE
8
boundary
62
5
39
2
10
37.244977
20
148.781712
11
36.603748
21
150.316217
0
LINE
8
boundary
62
5
39
2
10
36.603748
20
150.316217
11
35.791027
21
151.767207
0
LINE
8
boundary
62
5
39
2
10
35.791027
20
151.767207
11
34.817500
21
153.115592
0
LINE
8
boundary
62
5
39
2
10
34.817500
20
153.115592
11
34.817500
21
151.660435
0
LINE
8
boundary
62
5
39
2
10
34.817500
20
151.660435
11
34.817500
21
141.467502
0
LINE
8
boundary
62
5
39
2
10
34.817500
20
141.467502
11
34.604885
21
140.645229
0
LINE
8
boundary
62
5
39
2
10
34.604885
20
140.645229
11
34.304938
21
140.230066
0
LINE
8
boundary
62
5
39
2
10
34.304938
20
140.230066
11
33.573161
21
139.798967
0
LINE
8
boundary
62
5
39
2
10
33.573161
20
139.798967
11
33.067500
21
139.717500
0
LINE
8
boundary
62
5
39
2
10
33.067500
20
139.717500
11
32.245228
21
139.930117
0
LINE
8
boundary
62
5
39
2
10
32.245228
20
139.930117
11
31.830064
21
140.230066
0
LINE
8
boundary
62
5
39
2
10
31.830064
20
140.230066
11
31.398971
21
140.961841
0
LINE
8
boundary
62
5
39
2
10
31.398971
20
140.961841
11
31.317500
21
141.467502
0
LINE
8
boundary
62
5
39
2
10
31.317500
20
141.467502
11
31.317500
21
143.310807
0
LINE
8
boundary
62
5
39
2
10
31.317500
20
143.310807
11
31.317500
21
156.222597
0
LINE
8
boundary
62
5
39
2
10
31.317500
20
156.222597
11
29.889075
21
157.016935
0
LINE
8
boundary
62
5
39
2
10
29.889075
20
157.016935
11
28.380329
21
157.645463
0
LINE
8
boundary
62
5
39
2
10
28.380329
20
157.645463
11
26.810433
21
158.100208
0
LINE
8
boundary
62
5
39
2
10
26.810433
20
158.100208
11
25.199333
21
158.375385
0
LINE
8
boundary
62
5
39
2
10
25.199333
20
158.375385
11
23.771360
21
158.455993
0
LINE
8
boundary
62
5
39
2
10
23.771360
20
158.455993
11
22.139527
21
158.386893
0
LINE
8
boundary
62
5
39
2
10
22.139527
20
158.386893
11
20.324568
21
158.100208
0
LINE
8
boundary
62
5
39
2
10
20.324568
20
158.100208
11
18.754672
21
157.645464
0
LINE
8
boundary
62
5
39
2
10
18.754672
20
157.645464
11
17.245926
21
157.016935
0
LINE
8
boundary
62
5
39
2
10
17.245926
20
157.016935
11
15.817501
21
156.222597
0
LINE
8
boundary
62
5
39
2
10
15.817501
20
156.222597
11
15.817501
21
154.379293
0
LINE
8
boundary
62
5
39
2
10
15.817501
20
154.379293
11
15.817501
21
141.467503
0
LINE
8
boundary
62
5
39
2
10
15.817501
20
141.467503
11
15.604885
21
140.645229
0
LINE
8
boundary
62
5
39
2
10
15.604885
20
140.645229
11
15.304938
21
140.230066
0
LINE
8
boundary
62
5
39
2
10
15.304938
20
140.230066
11
14.573161
21
139.798967
0
LINE
8
boundary
62
5
39
2
10
14.573161
20
139.798967
11
14.067500
21
139.717500
0
LINE
8
boundary
62
5
39
2
10
14.067500
20
139.717500
11
13.245228
21
139.930117
0
LINE
8
boundary
62
5
39
2
10
13.245228
20
139.930117
11
12.830064
21
140.230066
0
LINE
8
boundary
62
5
39
2
10
12.830064
20
140.230066
11
12.398972
21
140.961841
0
LINE
8
boundary
62
5
39
2
10
12.398972
20
140.961841
11
12.317501
21
141.467502
0
LINE
8
boundary
62
5
39
2
10
12.317501
20
141.467502
11
12.317501
21
142.922659
0
LINE
8
boundary
62
5
39
2
10
12.317501
20
142.922659
11
12.317501
21
153.115592
0
LINE
8
boundary
62
5
39
2
10
12.317501
20
153.115592
11
11.376926
21
151.818609
0
LINE
8
boundary
62
5
39
2
10
11.376926
20
151.818609
11
10.585179
21
150.425780
0
LINE
8
boundary
62
5
39
2
10
10.585179
20
150.425780
11
9.951928
21
148.954097
0
LINE
8
boundary
62
5
39
2
10
9.951928
20
148.954097
11
9.484902
21
147.421542
0
LINE
8
boundary
62
5
39
2
10
9.484902
20
147.421542
11
9.189804
21
145.846814
0
LINE
8
boundary
62
5
39
2
10
9.189804
20
145.846814
11
9.070236
21
144.249146
0
LINE
8
boundary
62
5
39
2
10
9.070236
20
144.249146
11
9.127659
21
142.648038
0
LINE
8
boundary
62
5
39
2
10
9.127659
20
142.648038
11
9.361370
21
141.063040
0
LINE
8
boundary
62
5
39
2
10
9.361370
20
141.063040
11
9.768519
21
139.513503
0
LINE
8
boundary
62
5
39
2
10
9.768519
20
139.513503
11
10.344131
21
138.018337
0
LINE
8
boundary
62
5
39
2
10
10.344131
20
138.018337
11
11.081183
21
136.595810
0
LINE
8
boundary
62
5
39
2
10
11.081183
20
136.595810
11
11.970673
21
135.263272
0
LINE
8
boundary
62
5
39
2
10
11.970673
20
135.263272
11
12.872935
21
134.190197
0
LINE
8
boundary
62
5
39
2
10
12.872935
20
134.190197
11
14.161806
21
132.931968
0
LINE
8
boundary
62
5
39
2
10
14.161806
20
132.931968
11
15.436698
21
131.961663
0
LINE
8
boundary
62
5
39
2
10
15.436698
20
131.961663
11
16.810854
21
131.137934
0
LINE
8
boundary
62
5
39
2
10
16.810854
20
131.137934
11
18.267500
21
130.470835
0
LINE
8
boundary
62
5
39
2
10
18.267500
20
130.470835
11
19.492923
21
130.167321
0
LINE
8
boundary
62
5
39
2
10
19.492923
20
130.167321
11
21.018940
21
129.618105
0
LINE
8
boundary
62
5
39
2
10
21.018940
20
129.618105
11
22.302729
21
128.959917
0
LINE
8
boundary
62
5
39
2
10
22.302729
20
128.959917
11
23.502128
21
128.158189
0
LINE
8
boundary
62
5
39
2
10
23.502128
20
128.158189
11
24.601162
21
127.223610
0
LINE
8
boundary
62
5
39
2
10
24.601162
20
127.223610
11
25.585192
21
126.168615
0
LINE
8
boundary
62
5
39
2
10
25.585192
20
126.168615
11
26.441110
21
125.007270
0
LINE
8
boundary
62
5
39
2
10
26.441110
20
125.007270
11
27.157514
21
123.755033
0
LINE
8
boundary
62
5
39
2
10
27.157514
20
123.755033
11
27.724863
21
122.428597
0
LINE
8
boundary
62
5
39
2
10
27.724863
20
122.428597
11
28.135597
21
121.045623
0
LINE
8
boundary
62
5
39
2
10
28.135597
20
121.045623
11
28.384248
21
119.624528
0
LINE
8
boundary
62
5
39
2
10
28.384248
20
119.624528
11
28.457099
21
118.364184
0
LINE
8
boundary
62
5
39
2
10
28.457099
20
118.364184
11
28.467500
21
116.860754
0
LINE
8
boundary
62
5
39
2
10
28.467500
20
116.860754
11
28.467500
21
107.590031
0
LINE
8
boundary
62
5
39
2
10
28.467500
20
107.590031
11
28.696606
21
107.054430
0
LINE
8
boundary
62
5
39
2
10
28.696606
20
107.054430
11
28.483258
21
106.488036
0
LINE
8
boundary
62
5
39
2
10
28.483258
20
106.488036
11
27.931899
21
106.238395
0
LINE
8
boundary
62
5
39
2
10
27.931899
20
106.238395
11
27.365506
21
106.451741
0
LINE
8
boundary
62
5
39
2
10
27.365506
20
106.451741
11
24.761802
21
106.467500
0
LINE
8
boundary
62
5
39
2
10
24.761802
20
106.467500
11
6.667500
21
106.467499
0
LINE
8
boundary
62
5
39
2
10
6.667500
20
106.467499
11
6.667500
21
100.745859
0
LINE
8
boundary
62
5
39
2
10
6.667500
20
100.745859
11
6.667500
21
60.667502
0
LINE
8
boundary
62
5
39
2
10
6.667500
20
60.667502
11
6.667500
21
58.667501
0
LINE
8
boundary
62
5
39
2
10
6.667500
20
58.667501
11
8.116649
21
58.667501
0
LINE
8
boundary
62
5
39
2
10
8.116649
20
58.667501
11
18.267500
21
58.667501
0
LINE
8
boundary
62
5
39
2
10
18.267500
20
58.667501
11
19.401518
21
58.667501
0
LINE
8
boundary
62
5
39
2
10
19.401518
20
58.667501
11
27.344968
21
58.667503
0
LINE
8
boundary
62
5
39
2
10
27.344968
20
58.667503
11
27.880570
21
58.896607
0
LINE
8
boundary
62
5
39
2
10
27.880570
20
58.896607
11
28.446963
21
58.683261
0
LINE
8
boundary
62
5
39
2
10
28.446963
20
58.683261
11
28.696606
21
58.131900
0
LINE
8
boundary
62
5
39
2
10
28.696606
20
58.131900
11
28.483258
21
57.565509
0
LINE
8
boundary
62
5
39
2
10
28.483258
20
57.565509
11
28.467500
21
56.221471
0
LINE
8
boundary
62
5
39
2
10
28.467500
20
56.221471
11
28.467500
21
46.950745
0
LINE
8
boundary
62
5
39
2
10
28.467500
20
46.950745
11
28.394648
21
45.690401
0
LINE
8
boundary
62
5
39
2
10
28.394648
20
45.690401
11
28.135597
21
44.089383
0
LINE
8
boundary
62
5
39
2
10
28.135597
20
44.089383
11
27.724863
21
42.706404
0
LINE
8
boundary
62
5
39
2
10
27.724863
20
42.706404
11
27.157514
21
41.379968
0
LINE
8
boundary
62
5
39
2
10
27.157514
20
41.379968
11
26.441110
21
40.127731
0
LINE
8
boundary
62
5
39
2
10
26.441110
20
40.127731
11
25.585192
21
38.966386
0
LINE
8
boundary
62
5
39
2
10
25.585192
20
38.966386
11
24.601162
21
37.911390
0
LINE
8
boundary
62
5
39
2
10
24.601162
20
37.911390
11
23.502128
21
36.976812
0
LINE
8
boundary
62
5
39
2
10
23.502128
20
36.976812
11
22.302729
21
36.175083
0
LINE
8
boundary
62
5
39
2
10
22.302729
20
36.175083
11
21.018940
21
35.516896
0
LINE
8
boundary
62
5
39
2
10
21.018940
20
35.516896
11
19.667866
21
35.011010
0
LINE
8
boundary
62
5
39
2
10
19.667866
20
35.011010
11
18.442443
21
34.707495
0
LINE
8
boundary
62
5
39
2
10
18.442443
20
34.707495
11
16.810854
21
33.997067
0
LINE
8
boundary
62
5
39
2
10
16.810854
20
33.997067
11
15.436698
21
33.173337
0
LINE
8
boundary
62
5
39
2
10
15.436698
20
33.173337
11
14.161806
21
32.203033
0
LINE
8
boundary
62
5
39
2
10
14.161806
20
32.203033
11
13.001743
21
31.097998
0
LINE
8
boundary
62
5
39
2
10
13.001743
20
31.097998
11
12.099480
21
30.024922
0
LINE
8
boundary
62
5
39
2
10
12.099480
20
30.024922
11
11.081181
21
28.539191
0
LINE
8
boundary
62
5
39
2
10
11.081181
20
28.539191
11
10.344131
21
27.116664
0
LINE
8
boundary
62
5
39
2
10
10.344131
20
27.116664
11
9.768519
21
25.621497
0
LINE
8
boundary
62
5
39
2
10
9.768519
20
25.621497
11
9.361370
21
24.071961
0
LINE
8
boundary
62
5
39
2
10
9.361370
20
24.071961
11
9.127659
21
22.486962
0
LINE
8
boundary
62
5
39
2
10
9.127659
20
22.486962
11
9.070236
21
20.885854
0
LINE
8
boundary
62
5
39
2
10
9.070236
20
20.885854
11
9.189804
21
19.288187
0
LINE
8
boundary
62
5
39
2
10
9.189804
20
19.288187
11
9.484902
21
17.713459
0
LINE
8
boundary
62
5
39
2
10
9.484902
20
17.713459
11
9.951928
21
16.180903
0
LINE
8
boundary
62
5
39
2
10
9.951928
20
16.180903
11
10.585179
21
14.709221
0
LINE
8
boundary
62
5
39
2
10
10.585179
20
14.709221
11
11.376926
21
13.316392
0
LINE
8
boundary
62
5
39
2
10
11.376926
20
13.316392
11
12.317501
21
12.019408
0
LINE
8
boundary
62
5
39
2
10
12.317501
20
12.019408
11
12.317500
21
13.474565
0
LINE
8
boundary
62
5
39
2
10
12.317500
20
13.474565
11
12.317501
21
23.667498
0
LINE
8
boundary
62
5
39
2
10
12.317501
20
23.667498
11
12.530116
21
24.489772
0
LINE
8
boundary
62
5
39
2
10
12.530116
20
24.489772
11
12.830065
21
24.904935
0
LINE
8
boundary
62
5
39
2
10
12.830065
20
24.904935
11
13.561840
21
25.336033
0
LINE
8
boundary
62
5
39
2
10
13.561840
20
25.336033
11
14.067500
21
25.417500
0
LINE
8
boundary
62
5
39
2
10
14.067500
20
25.417500
11
14.889773
21
25.204884
0
LINE
8
boundary
62
5
39
2
10
14.889773
20
25.204884
11
15.304938
21
24.904935
0
LINE
8
boundary
62
5
39
2
10
15.304938
20
24.904935
11
15.736030
21
24.173159
0
LINE
8
boundary
62
5
39
2
10
15.736030
20
24.173159
11
15.817501
21
23.667498
0
LINE
8
boundary
62
5
39
2
10
15.817501
20
23.667498
11
15.817501
21
21.824193
0
LINE
8
boundary
62
5
39
2
10
15.817501
20
21.824193
11
15.817501
21
8.912403
0
LINE
8
boundary
62
5
39
2
10
15.817501
20
8.912403
11
17.245927
21
8.118066
0
LINE
8
annotation
62
1
39
211
10
33.876931
20
109.951163
11
33.876931
21
126.347203
0
LINE
8
annotation
62
1
39
211
10
33.876931
20
126.347203
11
30.231882
21
122.701125
0
LINE
8
frame
62
5
39
2
10
0.000000
20
0.000000
11
210.058000
21
0.000000
0
LINE
8
frame
62
5
39
2
10
210.058000
20
0.000000
11
210.058000
21
296.926000
0
LINE
8
frame
62
5
39
2
10
210.058000
20
296.926000
11
0.000000
21
296.926000
0
LINE
8
frame
62
5
39
2
10
0.000000
20
296.926000
11
0.000000
21
0.000000
0
ENDSEC
0
EOF
