0
SECTION
2
HEADER
9
$ACADVER
1
AC1009
0
ENDSEC
0
SECTION
2
TABLES
0
TABLE
2
VPORT
70
1
0
VPORT
2
ACTIVE
70
0
10
0.0
20
0.0
11
0.0
21
0.0
12
0.0
22
0.0
13
0.0
23
0.0
14
0.0
24
0.0
15
0.0
25
0.0
16
0.0
26
0.0
36
0.0
17
0.0
27
0.0
37
0.0
40
0.0
41
0.0
42
0.0
43
0.0
44
0.0
50
0.0
51
0.0
71
0
72
1000
73
1
74
3
75
0
76
0
77
0
78
0
0
ENDTAB
0
ENDSEC
0
SECTION
2
ENTITIES
0
LINE
8
hole
62
5
39
2
10
107.070297
20
71.172476
11
106.688938
21
71.669539
0
LINE
8
hole
62
5
39
2
10
106.688938
20
71.669539
11
106.449257
21
72.248478
0
LINE
8
hole
62
5
39
2
10
106.449257
20
72.248478
11
106.367541
21
72.869645
0
LINE
8
hole
62
5
39
2
10
106.367541
20
72.869645
11
106.449352
21
73.490763
0
LINE
8
hole
62
5
39
2
10
106.449352
20
73.490763
11
106.689146
21
74.069578
0
LINE
8
hole
62
5
39
2
10
106.689146
20
74.069578
11
107.070601
21
74.566581
0
LINE
8
hole
62
5
39
2
10
107.070601
20
74.566581
11
107.567681
21
74.947927
0
LINE
8
hole
62
5
39
2
10
107.567681
20
74.947927
11
108.146534
21
75.187610
0
LINE
8
hole
62
5
39
2
10
108.146534
20
75.187610
11
108.767860
21
75.268608
0
LINE
8
hole
62
5
39
2
10
108.767860
20
75.268608
11
109.388459
21
75.187644
0
LINE
8
hole
62
5
39
2
10
109.388459
20
75.187644
11
109.967330
21
74.947949
0
LINE
8
hole
62
5
39
2
10
109.967330
20
74.947949
11
110.464406
21
74.566595
0
LINE
8
hole
62
5
39
2
10
110.464406
20
74.566595
11
110.845795
21
74.069613
0
LINE
8
hole
62
5
39
2
10
110.845795
20
74.069613
11
111.085598
21
73.490826
0
LINE
8
hole
62
5
39
2
10
111.085598
20
73.490826
11
111.167487
21
72.869670
0
LINE
8
hole
62
5
39
2
10
111.167487
20
72.869670
11
111.085763
21
72.248544
0
LINE
8
hole
62
5
39
2
10
111.085763
20
72.248544
11
110.846109
21
71.669562
0
LINE
8
hole
62
5
39
2
10
110.846109
20
71.669562
11
110.464730
21
71.172474
0
LINE
8
hole
62
5
39
2
10
110.464730
20
71.172474
11
109.967708
21
70.791005
0
LINE
8
hole
62
5
39
2
10
109.967708
20
70.791005
11
109.388930
21
70.551219
0
LINE
8
hole
62
5
39
2
10
109.388930
20
70.551219
11
108.767515
21
70.469386
0
LINE
8
hole
62
5
39
2
10
108.767515
20
70.469386
11
108.146057
21
70.551267
0
LINE
8
hole
62
5
39
2
10
108.146057
20
70.551267
11
107.567288
21
70.791060
0
LINE
8
hole
62
5
39
2
10
107.567288
20
70.791060
11
107.070297
21
71.172476
0
LINE
8
hole
62
5
39
2
10
22.870288
20
71.172459
11
22.488932
21
71.669529
0
LINE
8
hole
62
5
39
2
10
22.488932
20
71.669529
11
22.249276
21
72.248507
0
LINE
8
hole
62
5
39
2
10
22.249276
20
72.248507
11
22.167533
21
72.869657
0
LINE
8
hole
62
5
39
2
10
22.167533
20
72.869657
11
22.249399
21
73.490821
0
LINE
8
hole
62
5
39
2
10
22.249399
20
73.490821
11
22.489204
21
74.069609
0
LINE
8
hole
62
5
39
2
10
22.489204
20
74.069609
11
22.870628
21
74.566605
0
LINE
8
hole
62
5
39
2
10
22.870628
20
74.566605
11
23.367698
21
74.947952
0
LINE
8
hole
62
5
39
2
10
23.367698
20
74.947952
11
23.946538
21
75.187649
0
LINE
8
hole
62
5
39
2
10
23.946538
20
75.187649
11
24.567129
21
75.268608
0
LINE
8
hole
62
5
39
2
10
24.567129
20
75.268608
11
25.188472
21
75.187648
0
LINE
8
hole
62
5
39
2
10
25.188472
20
75.187648
11
25.767356
21
74.947937
0
LINE
8
hole
62
5
39
2
10
25.767356
20
74.947937
11
26.264442
21
74.566580
0
LINE
8
hole
62
5
39
2
10
26.264442
20
74.566580
11
26.645854
21
74.069579
0
LINE
8
hole
62
5
39
2
10
26.645854
20
74.069579
11
26.885667
21
73.490783
0
LINE
8
hole
62
5
39
2
10
26.885667
20
73.490783
11
26.967502
21
72.869654
0
LINE
8
hole
62
5
39
2
10
26.967502
20
72.869654
11
26.885787
21
72.248505
0
LINE
8
hole
62
5
39
2
10
26.885787
20
72.248505
11
26.646111
21
71.669574
0
LINE
8
hole
62
5
39
2
10
26.646111
20
71.669574
11
26.264719
21
71.172496
0
LINE
8
hole
62
5
39
2
10
26.264719
20
71.172496
11
25.767715
21
70.791052
0
LINE
8
hole
62
5
39
2
10
25.767715
20
70.791052
11
25.188942
21
70.551260
0
LINE
8
hole
62
5
39
2
10
25.188942
20
70.551260
11
24.567498
21
70.469390
0
LINE
8
hole
62
5
39
2
10
24.567498
20
70.469390
11
23.946069
21
70.551223
0
LINE
8
hole
62
5
39
2
10
23.946069
20
70.551223
11
23.367294
21
70.791016
0
LINE
8
hole
62
5
39
2
10
23.367294
20
70.791016
11
22.870288
21
71.172459
0
LINE
8
hole
62
5
39
2
10
43.870294
20
10.772472
11
43.488932
21
11.269541
0
LINE
8
hole
62
5
39
2
10
43.488932
20
11.269541
11
43.249258
21
11.848487
0
LINE
8
hole
62
5
39
2
10
43.249258
20
11.848487
11
43.167528
21
12.469653
0
LINE
8
hole
62
5
39
2
10
43.167528
20
12.469653
11
43.249344
21
13.090788
0
LINE
8
hole
62
5
39
2
10
43.249344
20
13.090788
11
43.489151
21
13.669583
0
LINE
8
hole
62
5
39
2
10
43.489151
20
13.669583
11
43.870604
21
14.166577
0
LINE
8
hole
62
5
39
2
10
43.870604
20
14.166577
11
44.367928
21
14.547856
0
LINE
8
hole
62
5
39
2
10
44.367928
20
14.547856
11
44.946664
21
14.787619
0
LINE
8
hole
62
5
39
2
10
44.946664
20
14.787619
11
45.567475
21
14.869370
0
LINE
8
hole
62
5
39
2
10
45.567475
20
14.869370
11
46.188345
21
14.787623
0
LINE
8
hole
62
5
39
2
10
46.188345
20
14.787623
11
46.767189
21
14.547922
0
LINE
8
hole
62
5
39
2
10
46.767189
20
14.547922
11
47.264205
21
14.166566
0
LINE
8
hole
62
5
39
2
10
47.264205
20
14.166566
11
47.645649
21
13.669565
0
LINE
8
hole
62
5
39
2
10
47.645649
20
13.669565
11
47.885682
21
13.090749
0
LINE
8
hole
62
5
39
2
10
47.885682
20
13.090749
11
47.967503
21
12.469608
0
LINE
8
hole
62
5
39
2
10
47.967503
20
12.469608
11
47.885801
21
11.848438
0
LINE
8
hole
62
5
39
2
10
47.885801
20
11.848438
11
47.646096
21
11.269565
0
LINE
8
hole
62
5
39
2
10
47.646096
20
11.269565
11
47.264718
21
10.772490
0
LINE
8
hole
62
5
39
2
10
47.264718
20
10.772490
11
46.767718
21
10.391048
0
LINE
8
hole
62
5
39
2
10
46.767718
20
10.391048
11
46.188944
21
10.151255
0
LINE
8
hole
62
5
39
2
10
46.188944
20
10.151255
11
45.567505
21
10.069388
0
LINE
8
hole
62
5
39
2
10
45.567505
20
10.069388
11
44.946049
21
10.151260
0
LINE
8
hole
62
5
39
2
10
44.946049
20
10.151260
11
44.367280
21
10.391054
0
LINE
8
hole
62
5
39
2
10
44.367280
20
10.391054
11
43.870294
21
10.772472
0
LINE
8
hole
62
5
39
2
10
85.946941
20
10.933263
11
85.526775
21
11.661158
0
LINE
8
hole
62
5
39
2
10
85.526775
20
11.661158
11
85.393960
21
12.268633
0
LINE
8
hole
62
5
39
2
10
85.393960
20
12.268633
11
85.422859
21
12.889801
0
LINE
8
hole
62
5
39
2
10
85.422859
20
12.889801
11
85.611776
21
13.482350
0
LINE
8
hole
62
5
39
2
10
85.611776
20
13.482350
11
86.070821
21
14.166577
0
LINE
8
hole
62
5
39
2
10
86.070821
20
14.166577
11
86.567837
21
14.547928
0
LINE
8
hole
62
5
39
2
10
86.567837
20
14.547928
11
87.146649
21
14.787631
0
LINE
8
hole
62
5
39
2
10
87.146649
20
14.787631
11
87.767508
21
14.869370
0
LINE
8
hole
62
5
39
2
10
87.767508
20
14.869370
11
88.388332
21
14.787611
0
LINE
8
hole
62
5
39
2
10
88.388332
20
14.787611
11
88.967099
21
14.547854
0
LINE
8
hole
62
5
39
2
10
88.967099
20
14.547854
11
89.464438
21
14.166579
0
LINE
8
hole
62
5
39
2
10
89.464438
20
14.166579
11
89.845852
21
13.669577
0
LINE
8
hole
62
5
39
2
10
89.845852
20
13.669577
11
90.085663
21
13.090782
0
LINE
8
hole
62
5
39
2
10
90.085663
20
13.090782
11
90.167502
21
12.469650
0
LINE
8
hole
62
5
39
2
10
90.167502
20
12.469650
11
90.085789
21
11.848506
0
LINE
8
hole
62
5
39
2
10
90.085789
20
11.848506
11
89.846112
21
11.269571
0
LINE
8
hole
62
5
39
2
10
89.846112
20
11.269571
11
89.464721
21
10.772490
0
LINE
8
hole
62
5
39
2
10
89.464721
20
10.772490
11
88.967720
21
10.391048
0
LINE
8
hole
62
5
39
2
10
88.967720
20
10.391048
11
88.388947
21
10.151255
0
LINE
8
hole
62
5
39
2
10
88.388947
20
10.151255
11
87.767507
21
10.069388
0
LINE
8
hole
62
5
39
2
10
87.767507
20
10.069388
11
87.146052
21
10.151260
0
LINE
8
hole
62
5
39
2
10
87.146052
20
10.151260
11
86.567280
21
10.391054
0
LINE
8
hole
62
5
39
2
10
86.567280
20
10.391054
11
86.070297
21
10.772472
0
LINE
8
hole
62
5
39
2
10
86.070297
20
10.772472
11
85.946941
21
10.933263
0
LINE
8
hole
62
5
39
2
10
73.131041
20
51.849259
11
72.588959
21
52.469671
0
LINE
8
hole
62
5
39
2
10
72.588959
20
52.469671
11
72.349257
21
53.048461
0
LINE
8
hole
62
5
39
2
10
72.349257
20
53.048461
11
72.267534
21
53.669406
0
LINE
8
hole
62
5
39
2
10
72.267534
20
53.669406
11
72.349312
21
54.290591
0
LINE
8
hole
62
5
39
2
10
72.349312
20
54.290591
11
72.589159
21
54.869557
0
LINE
8
hole
62
5
39
2
10
72.589159
20
54.869557
11
72.970594
21
55.366589
0
LINE
8
hole
62
5
39
2
10
72.970594
20
55.366589
11
73.467813
21
55.747935
0
LINE
8
hole
62
5
39
2
10
73.467813
20
55.747935
11
74.046647
21
55.987633
0
LINE
8
hole
62
5
39
2
10
74.046647
20
55.987633
11
74.667495
21
56.069357
0
LINE
8
hole
62
5
39
2
10
74.667495
20
56.069357
11
75.288348
21
55.987626
0
LINE
8
hole
62
5
39
2
10
75.288348
20
55.987626
11
75.867204
21
55.747928
0
LINE
8
hole
62
5
39
2
10
75.867204
20
55.747928
11
76.364255
21
55.366582
0
LINE
8
hole
62
5
39
2
10
76.364255
20
55.366582
11
76.745729
21
54.869620
0
LINE
8
hole
62
5
39
2
10
76.745729
20
54.869620
11
76.985482
21
54.290854
0
LINE
8
hole
62
5
39
2
10
76.985482
20
54.290854
11
77.067524
21
53.669570
0
LINE
8
hole
62
5
39
2
10
77.067524
20
53.669570
11
76.985801
21
53.048411
0
LINE
8
hole
62
5
39
2
10
76.985801
20
53.048411
11
76.746104
21
52.469560
0
LINE
8
hole
62
5
39
2
10
76.746104
20
52.469560
11
76.364740
21
51.972480
0
LINE
8
hole
62
5
39
2
10
76.364740
20
51.972480
11
75.867729
21
51.591022
0
LINE
8
hole
62
5
39
2
10
75.867729
20
51.591022
11
75.288947
21
51.351223
0
LINE
8
hole
62
5
39
2
10
75.288947
20
51.351223
11
74.667506
21
51.269370
0
LINE
8
hole
62
5
39
2
10
74.667506
20
51.269370
11
74.046102
21
51.351174
0
LINE
8
hole
62
5
39
2
10
74.046102
20
51.351174
11
73.467291
21
51.591030
0
LINE
8
hole
62
5
39
2
10
73.467291
20
51.591030
11
73.131041
21
51.849259
0
LINE
8
hole
62
5
39
2
10
64.970280
20
51.972625
11
64.588959
21
52.469671
0
LINE
8
hole
62
5
39
2
10
64.588959
20
52.469671
11
64.349257
21
53.048461
0
LINE
8
hole
62
5
39
2
10
64.349257
20
53.048461
11
64.267531
21
53.669401
0
LINE
8
hole
62
5
39
2
10
64.267531
20
53.669401
11
64.349316
21
54.290584
0
LINE
8
hole
62
5
39
2
10
64.349316
20
54.290584
11
64.589155
21
54.869554
0
LINE
8
hole
62
5
39
2
10
64.589155
20
54.869554
11
64.970594
21
55.366588
0
LINE
8
hole
62
5
39
2
10
64.970594
20
55.366588
11
65.467813
21
55.747935
0
LINE
8
hole
62
5
39
2
10
65.467813
20
55.747935
11
66.046647
21
55.987633
0
LINE
8
hole
62
5
39
2
10
66.046647
20
55.987633
11
66.667489
21
56.069361
0
LINE
8
hole
62
5
39
2
10
66.667489
20
56.069361
11
67.288347
21
55.987626
0
LINE
8
hole
62
5
39
2
10
67.288347
20
55.987626
11
67.867212
21
55.747929
0
LINE
8
hole
62
5
39
2
10
67.867212
20
55.747929
11
68.364439
21
55.366576
0
LINE
8
hole
62
5
39
2
10
68.364439
20
55.366576
11
68.745852
21
54.869576
0
LINE
8
hole
62
5
39
2
10
68.745852
20
54.869576
11
68.985662
21
54.290783
0
LINE
8
hole
62
5
39
2
10
68.985662
20
54.290783
11
69.067502
21
53.669652
0
LINE
8
hole
62
5
39
2
10
69.067502
20
53.669652
11
68.985791
21
53.048508
0
LINE
8
hole
62
5
39
2
10
68.985791
20
53.048508
11
68.746101
21
52.469690
0
LINE
8
hole
62
5
39
2
10
68.746101
20
52.469690
11
68.364736
21
51.972643
0
LINE
8
hole
62
5
39
2
10
68.364736
20
51.972643
11
67.867722
21
51.591021
0
LINE
8
hole
62
5
39
2
10
67.867722
20
51.591021
11
67.288902
21
51.351168
0
LINE
8
hole
62
5
39
2
10
67.288902
20
51.351168
11
66.667506
21
51.269359
0
LINE
8
hole
62
5
39
2
10
66.667506
20
51.269359
11
66.046065
21
51.351202
0
LINE
8
hole
62
5
39
2
10
66.046065
20
51.351202
11
65.467276
21
51.591044
0
LINE
8
hole
62
5
39
2
10
65.467276
20
51.591044
11
64.970280
21
51.972625
0
LINE
8
hole
62
5
39
2
10
56.970276
20
51.972462
11
56.588932
21
52.469531
0
LINE
8
hole
62
5
39
2
10
56.588932
20
52.469531
11
56.349234
21
53.048376
0
LINE
8
hole
62
5
39
2
10
56.349234
20
53.048376
11
56.267457
21
53.669427
0
LINE
8
hole
62
5
39
2
10
56.267457
20
53.669427
11
56.349293
21
54.290591
0
LINE
8
hole
62
5
39
2
10
56.349293
20
54.290591
11
56.589266
21
54.869614
0
LINE
8
hole
62
5
39
2
10
56.589266
20
54.869614
11
56.970771
21
55.366592
0
LINE
8
hole
62
5
39
2
10
56.970771
20
55.366592
11
57.467822
21
55.747934
0
LINE
8
hole
62
5
39
2
10
57.467822
20
55.747934
11
58.046648
21
55.987633
0
LINE
8
hole
62
5
39
2
10
58.046648
20
55.987633
11
58.667494
21
56.069357
0
LINE
8
hole
62
5
39
2
10
58.667494
20
56.069357
11
59.288347
21
55.987626
0
LINE
8
hole
62
5
39
2
10
59.288347
20
55.987626
11
59.867212
21
55.747929
0
LINE
8
hole
62
5
39
2
10
59.867212
20
55.747929
11
60.364438
21
55.366579
0
LINE
8
hole
62
5
39
2
10
60.364438
20
55.366579
11
60.745852
21
54.869576
0
LINE
8
hole
62
5
39
2
10
60.745852
20
54.869576
11
60.985662
21
54.290783
0
LINE
8
hole
62
5
39
2
10
60.985662
20
54.290783
11
61.067501
21
53.669652
0
LINE
8
hole
62
5
39
2
10
61.067501
20
53.669652
11
60.985791
21
53.048508
0
LINE
8
hole
62
5
39
2
10
60.985791
20
53.048508
11
60.746100
21
52.469689
0
LINE
8
hole
62
5
39
2
10
60.746100
20
52.469689
11
60.364735
21
51.972643
0
LINE
8
hole
62
5
39
2
10
60.364735
20
51.972643
11
59.867717
21
51.591002
0
LINE
8
hole
62
5
39
2
10
59.867717
20
51.591002
11
59.288925
21
51.351208
0
LINE
8
hole
62
5
39
2
10
59.288925
20
51.351208
11
58.667509
21
51.269368
0
LINE
8
hole
62
5
39
2
10
58.667509
20
51.269368
11
58.046050
21
51.351231
0
LINE
8
hole
62
5
39
2
10
58.046050
20
51.351231
11
57.467270
21
51.591031
0
LINE
8
hole
62
5
39
2
10
57.467270
20
51.591031
11
56.970276
21
51.972462
0
LINE
8
hole
62
5
39
2
10
73.467292
20
61.191012
11
72.970290
21
61.572448
0
LINE
8
hole
62
5
39
2
10
72.970290
20
61.572448
11
72.588961
21
62.069671
0
LINE
8
hole
62
5
39
2
10
72.588961
20
62.069671
11
72.349257
21
62.648462
0
LINE
8
hole
62
5
39
2
10
72.349257
20
62.648462
11
72.267531
21
63.269404
0
LINE
8
hole
62
5
39
2
10
72.267531
20
63.269404
11
72.349311
21
63.890595
0
LINE
8
hole
62
5
39
2
10
72.349311
20
63.890595
11
72.589159
21
64.469558
0
LINE
8
hole
62
5
39
2
10
72.589159
20
64.469558
11
72.970597
21
64.966588
0
LINE
8
hole
62
5
39
2
10
72.970597
20
64.966588
11
73.467814
21
65.347937
0
LINE
8
hole
62
5
39
2
10
73.467814
20
65.347937
11
74.046635
21
65.587642
0
LINE
8
hole
62
5
39
2
10
74.046635
20
65.587642
11
74.667466
21
65.669356
0
LINE
8
hole
62
5
39
2
10
74.667466
20
65.669356
11
75.288325
21
65.587613
0
LINE
8
hole
62
5
39
2
10
75.288325
20
65.587613
11
75.867336
21
65.347941
0
LINE
8
hole
62
5
39
2
10
75.867336
20
65.347941
11
76.364421
21
64.966569
0
LINE
8
hole
62
5
39
2
10
76.364421
20
64.966569
11
76.745839
21
64.469569
0
LINE
8
hole
62
5
39
2
10
76.745839
20
64.469569
11
76.985646
21
63.890803
0
LINE
8
hole
62
5
39
2
10
76.985646
20
63.890803
11
77.067470
21
63.269686
0
LINE
8
hole
62
5
39
2
10
77.067470
20
63.269686
11
76.985733
21
62.648573
0
LINE
8
hole
62
5
39
2
10
76.985733
20
62.648573
11
76.746102
21
62.069547
0
LINE
8
hole
62
5
39
2
10
76.746102
20
62.069547
11
76.364722
21
61.572464
0
LINE
8
hole
62
5
39
2
10
76.364722
20
61.572464
11
75.867709
21
61.191001
0
LINE
8
hole
62
5
39
2
10
75.867709
20
61.191001
11
75.288916
21
60.951198
0
LINE
8
hole
62
5
39
2
10
75.288916
20
60.951198
11
74.667506
21
60.869378
0
LINE
8
hole
62
5
39
2
10
74.667506
20
60.869378
11
74.046078
21
60.951203
0
LINE
8
hole
62
5
39
2
10
74.046078
20
60.951203
11
73.467292
21
61.191012
0
LINE
8
hole
62
5
39
2
10
102.070297
20
10.772472
11
101.688937
21
11.269536
0
LINE
8
hole
62
5
39
2
10
101.688937
20
11.269536
11
101.449257
21
11.848479
0
LINE
8
hole
62
5
39
2
10
101.449257
20
11.848479
11
101.367540
21
12.469641
0
LINE
8
hole
62
5
39
2
10
101.367540
20
12.469641
11
101.449352
21
13.090763
0
LINE
8
hole
62
5
39
2
10
101.449352
20
13.090763
11
101.689156
21
13.669552
0
LINE
8
hole
62
5
39
2
10
101.689156
20
13.669552
11
102.070592
21
14.166589
0
LINE
8
hole
62
5
39
2
10
102.070592
20
14.166589
11
102.567679
21
14.547942
0
LINE
8
hole
62
5
39
2
10
102.567679
20
14.547942
11
103.146525
21
14.787572
0
LINE
8
hole
62
5
39
2
10
103.146525
20
14.787572
11
103.767497
21
14.869379
0
LINE
8
hole
62
5
39
2
10
103.767497
20
14.869379
11
104.388459
21
14.787652
0
LINE
8
hole
62
5
39
2
10
104.388459
20
14.787652
11
104.967337
21
14.547946
0
LINE
8
hole
62
5
39
2
10
104.967337
20
14.547946
11
105.464416
21
14.166588
0
LINE
8
hole
62
5
39
2
10
105.464416
20
14.166588
11
105.845816
21
13.669601
0
LINE
8
hole
62
5
39
2
10
105.845816
20
13.669601
11
106.085606
21
13.090823
0
LINE
8
hole
62
5
39
2
10
106.085606
20
13.090823
11
106.167525
21
12.469588
0
LINE
8
hole
62
5
39
2
10
106.167525
20
12.469588
11
106.085795
21
11.848432
0
LINE
8
hole
62
5
39
2
10
106.085795
20
11.848432
11
105.846100
21
11.269565
0
LINE
8
hole
62
5
39
2
10
105.846100
20
11.269565
11
105.464725
21
10.772490
0
LINE
8
hole
62
5
39
2
10
105.464725
20
10.772490
11
104.967720
21
10.391048
0
LINE
8
hole
62
5
39
2
10
104.967720
20
10.391048
11
104.388949
21
10.151255
0
LINE
8
hole
62
5
39
2
10
104.388949
20
10.151255
11
103.767510
21
10.069388
0
LINE
8
hole
62
5
39
2
10
103.767510
20
10.069388
11
103.146056
21
10.151260
0
LINE
8
hole
62
5
39
2
10
103.146056
20
10.151260
11
102.567287
21
10.391055
0
LINE
8
hole
62
5
39
2
10
102.567287
20
10.391055
11
102.070297
21
10.772472
0
LINE
8
hole
62
5
39
2
10
56.349303
20
62.648537
11
56.267529
21
63.269483
0
LINE
8
hole
62
5
39
2
10
56.267529
20
63.269483
11
56.349293
21
63.890593
0
LINE
8
hole
62
5
39
2
10
56.349293
20
63.890593
11
56.589156
21
64.469566
0
LINE
8
hole
62
5
39
2
10
56.589156
20
64.469566
11
56.970606
21
64.966579
0
LINE
8
hole
62
5
39
2
10
56.970606
20
64.966579
11
57.467690
21
65.347946
0
LINE
8
hole
62
5
39
2
10
57.467690
20
65.347946
11
58.046669
21
65.587617
0
LINE
8
hole
62
5
39
2
10
58.046669
20
65.587617
11
58.667520
21
65.669354
0
LINE
8
hole
62
5
39
2
10
58.667520
20
65.669354
11
59.288360
21
65.587635
0
LINE
8
hole
62
5
39
2
10
59.288360
20
65.587635
11
59.867213
21
65.347930
0
LINE
8
hole
62
5
39
2
10
59.867213
20
65.347930
11
60.364439
21
64.966582
0
LINE
8
hole
62
5
39
2
10
60.364439
20
64.966582
11
60.745852
21
64.469579
0
LINE
8
hole
62
5
39
2
10
60.745852
20
64.469579
11
60.985662
21
63.890785
0
LINE
8
hole
62
5
39
2
10
60.985662
20
63.890785
11
61.067501
21
63.269654
0
LINE
8
hole
62
5
39
2
10
61.067501
20
63.269654
11
60.985790
21
62.648509
0
LINE
8
hole
62
5
39
2
10
60.985790
20
62.648509
11
60.746098
21
62.069689
0
LINE
8
hole
62
5
39
2
10
60.746098
20
62.069689
11
60.364734
21
61.572463
0
LINE
8
hole
62
5
39
2
10
60.364734
20
61.572463
11
59.867707
21
61.191001
0
LINE
8
hole
62
5
39
2
10
59.867707
20
61.191001
11
59.288915
21
60.951198
0
LINE
8
hole
62
5
39
2
10
59.288915
20
60.951198
11
58.667505
21
60.869378
0
LINE
8
hole
62
5
39
2
10
58.667505
20
60.869378
11
58.046078
21
60.951203
0
LINE
8
hole
62
5
39
2
10
58.046078
20
60.951203
11
57.467290
21
61.191012
0
LINE
8
hole
62
5
39
2
10
57.467290
20
61.191012
11
56.970296
21
61.572445
0
LINE
8
hole
62
5
39
2
10
56.970296
20
61.572445
11
56.588935
21
62.069516
0
LINE
8
hole
62
5
39
2
10
56.588935
20
62.069516
11
56.349303
21
62.648537
0
LINE
8
hole
62
5
39
2
10
38.870293
20
71.172476
11
38.488942
21
71.669539
0
LINE
8
hole
62
5
39
2
10
38.488942
20
71.669539
11
38.249257
21
72.248460
0
LINE
8
hole
62
5
39
2
10
38.249257
20
72.248460
11
38.167528
21
72.869622
0
LINE
8
hole
62
5
39
2
10
38.167528
20
72.869622
11
38.249334
21
73.490776
0
LINE
8
hole
62
5
39
2
10
38.249334
20
73.490776
11
38.489159
21
74.069573
0
LINE
8
hole
62
5
39
2
10
38.489159
20
74.069573
11
38.870599
21
74.566565
0
LINE
8
hole
62
5
39
2
10
38.870599
20
74.566565
11
39.367675
21
74.947911
0
LINE
8
hole
62
5
39
2
10
39.367675
20
74.947911
11
39.946515
21
75.187658
0
LINE
8
hole
62
5
39
2
10
39.946515
20
75.187658
11
40.567493
21
75.269387
0
LINE
8
hole
62
5
39
2
10
40.567493
20
75.269387
11
41.188461
21
75.187659
0
LINE
8
hole
62
5
39
2
10
41.188461
20
75.187659
11
41.767336
21
74.947950
0
LINE
8
hole
62
5
39
2
10
41.767336
20
74.947950
11
42.264421
21
74.566590
0
LINE
8
hole
62
5
39
2
10
42.264421
20
74.566590
11
42.645828
21
74.069597
0
LINE
8
hole
62
5
39
2
10
42.645828
20
74.069597
11
42.885638
21
73.490808
0
LINE
8
hole
62
5
39
2
10
42.885638
20
73.490808
11
42.967463
21
72.869685
0
LINE
8
hole
62
5
39
2
10
42.967463
20
72.869685
11
42.885804
21
72.248446
0
LINE
8
hole
62
5
39
2
10
42.885804
20
72.248446
11
42.646095
21
71.669568
0
LINE
8
hole
62
5
39
2
10
42.646095
20
71.669568
11
42.264717
21
71.172495
0
LINE
8
hole
62
5
39
2
10
42.264717
20
71.172495
11
41.767719
21
70.791052
0
LINE
8
hole
62
5
39
2
10
41.767719
20
70.791052
11
41.188944
21
70.551260
0
LINE
8
hole
62
5
39
2
10
41.188944
20
70.551260
11
40.567504
21
70.469393
0
LINE
8
hole
62
5
39
2
10
40.567504
20
70.469393
11
39.946048
21
70.551267
0
LINE
8
hole
62
5
39
2
10
39.946048
20
70.551267
11
39.367279
21
70.791061
0
LINE
8
hole
62
5
39
2
10
39.367279
20
70.791061
11
38.870293
21
71.172476
0
LINE
8
hole
62
5
39
2
10
99.070298
20
71.172476
11
98.688936
21
71.669543
0
LINE
8
hole
62
5
39
2
10
98.688936
20
71.669543
11
98.449275
21
72.248478
0
LINE
8
hole
62
5
39
2
10
98.449275
20
72.248478
11
98.367528
21
72.869630
0
LINE
8
hole
62
5
39
2
10
98.367528
20
72.869630
11
98.449354
21
73.490763
0
LINE
8
hole
62
5
39
2
10
98.449354
20
73.490763
11
98.689156
21
74.069554
0
LINE
8
hole
62
5
39
2
10
98.689156
20
74.069554
11
99.070590
21
74.566590
0
LINE
8
hole
62
5
39
2
10
99.070590
20
74.566590
11
99.567677
21
74.947941
0
LINE
8
hole
62
5
39
2
10
99.567677
20
74.947941
11
100.146524
21
75.187578
0
LINE
8
hole
62
5
39
2
10
100.146524
20
75.187578
11
100.767489
21
75.269423
0
LINE
8
hole
62
5
39
2
10
100.767489
20
75.269423
11
101.388480
21
75.187652
0
LINE
8
hole
62
5
39
2
10
101.388480
20
75.187652
11
101.967359
21
74.947937
0
LINE
8
hole
62
5
39
2
10
101.967359
20
74.947937
11
102.464446
21
74.566580
0
LINE
8
hole
62
5
39
2
10
102.464446
20
74.566580
11
102.845854
21
74.069579
0
LINE
8
hole
62
5
39
2
10
102.845854
20
74.069579
11
103.085665
21
73.490783
0
LINE
8
hole
62
5
39
2
10
103.085665
20
73.490783
11
103.167506
21
72.869654
0
LINE
8
hole
62
5
39
2
10
103.167506
20
72.869654
11
103.085790
21
72.248505
0
LINE
8
hole
62
5
39
2
10
103.085790
20
72.248505
11
102.846112
21
71.669574
0
LINE
8
hole
62
5
39
2
10
102.846112
20
71.669574
11
102.464723
21
71.172495
0
LINE
8
hole
62
5
39
2
10
102.464723
20
71.172495
11
101.967721
21
70.791050
0
LINE
8
hole
62
5
39
2
10
101.967721
20
70.791050
11
101.388946
21
70.551260
0
LINE
8
hole
62
5
39
2
10
101.388946
20
70.551260
11
100.767509
21
70.469393
0
LINE
8
hole
62
5
39
2
10
100.767509
20
70.469393
11
100.146056
21
70.551267
0
LINE
8
hole
62
5
39
2
10
100.146056
20
70.551267
11
99.567286
21
70.791060
0
LINE
8
hole
62
5
39
2
10
99.567286
20
70.791060
11
99.070298
21
71.172476
0
LINE
8
hole
62
5
39
2
10
35.870295
20
10.772472
11
35.488935
21
11.269541
0
LINE
8
hole
62
5
39
2
10
35.488935
20
11.269541
11
35.249271
21
11.848477
0
LINE
8
hole
62
5
39
2
10
35.249271
20
11.848477
11
35.167525
21
12.469627
0
LINE
8
hole
62
5
39
2
10
35.167525
20
12.469627
11
35.249341
21
13.090783
0
LINE
8
hole
62
5
39
2
10
35.249341
20
13.090783
11
35.489164
21
13.669558
0
LINE
8
hole
62
5
39
2
10
35.489164
20
13.669558
11
35.870590
21
14.166589
0
LINE
8
hole
62
5
39
2
10
35.870590
20
14.166589
11
36.367681
21
14.547909
0
LINE
8
hole
62
5
39
2
10
36.367681
20
14.547909
11
36.946514
21
14.787654
0
LINE
8
hole
62
5
39
2
10
36.946514
20
14.787654
11
37.567481
21
14.869421
0
LINE
8
hole
62
5
39
2
10
37.567481
20
14.869421
11
38.188462
21
14.787650
0
LINE
8
hole
62
5
39
2
10
38.188462
20
14.787650
11
38.767338
21
14.547940
0
LINE
8
hole
62
5
39
2
10
38.767338
20
14.547940
11
39.264436
21
14.166576
0
LINE
8
hole
62
5
39
2
10
39.264436
20
14.166576
11
39.645849
21
13.669577
0
LINE
8
hole
62
5
39
2
10
39.645849
20
13.669577
11
39.885661
21
13.090782
0
LINE
8
hole
62
5
39
2
10
39.885661
20
13.090782
11
39.967500
21
12.469650
0
LINE
8
hole
62
5
39
2
10
39.967500
20
12.469650
11
39.885786
21
11.848506
0
LINE
8
hole
62
5
39
2
10
39.885786
20
11.848506
11
39.646108
21
11.269571
0
LINE
8
hole
62
5
39
2
10
39.646108
20
11.269571
11
39.264717
21
10.772490
0
LINE
8
hole
62
5
39
2
10
39.264717
20
10.772490
11
38.767718
21
10.391048
0
LINE
8
hole
62
5
39
2
10
38.767718
20
10.391048
11
38.188945
21
10.151255
0
LINE
8
hole
62
5
39
2
10
38.188945
20
10.151255
11
37.567502
21
10.069388
0
LINE
8
hole
62
5
39
2
10
37.567502
20
10.069388
11
36.946049
21
10.151260
0
LINE
8
hole
62
5
39
2
10
36.946049
20
10.151260
11
36.367282
21
10.391054
0
LINE
8
hole
62
5
39
2
10
36.367282
20
10.391054
11
35.870295
21
10.772472
0
LINE
8
hole
62
5
39
2
10
30.870296
20
71.172476
11
30.488945
21
71.669539
0
LINE
8
hole
62
5
39
2
10
30.488945
20
71.669539
11
30.249256
21
72.248464
0
LINE
8
hole
62
5
39
2
10
30.249256
20
72.248464
11
30.167525
21
72.869645
0
LINE
8
hole
62
5
39
2
10
30.167525
20
72.869645
11
30.249351
21
73.490778
0
LINE
8
hole
62
5
39
2
10
30.249351
20
73.490778
11
30.489155
21
74.069574
0
LINE
8
hole
62
5
39
2
10
30.489155
20
74.069574
11
30.870593
21
74.566577
0
LINE
8
hole
62
5
39
2
10
30.870593
20
74.566577
11
31.367677
21
74.947910
0
LINE
8
hole
62
5
39
2
10
31.367677
20
74.947910
11
31.946518
21
75.187657
0
LINE
8
hole
62
5
39
2
10
31.946518
20
75.187657
11
32.567505
21
75.269423
0
LINE
8
hole
62
5
39
2
10
32.567505
20
75.269423
11
33.188476
21
75.187653
0
LINE
8
hole
62
5
39
2
10
33.188476
20
75.187653
11
33.767355
21
74.947937
0
LINE
8
hole
62
5
39
2
10
33.767355
20
74.947937
11
34.264440
21
74.566579
0
LINE
8
hole
62
5
39
2
10
34.264440
20
74.566579
11
34.645853
21
74.069579
0
LINE
8
hole
62
5
39
2
10
34.645853
20
74.069579
11
34.885661
21
73.490783
0
LINE
8
hole
62
5
39
2
10
34.885661
20
73.490783
11
34.967502
21
72.869654
0
LINE
8
hole
62
5
39
2
10
34.967502
20
72.869654
11
34.885787
21
72.248505
0
LINE
8
hole
62
5
39
2
10
34.885787
20
72.248505
11
34.646111
21
71.669574
0
LINE
8
hole
62
5
39
2
10
34.646111
20
71.669574
11
34.264719
21
71.172495
0
LINE
8
hole
62
5
39
2
10
34.264719
20
71.172495
11
33.767717
21
70.791052
0
LINE
8
hole
62
5
39
2
10
33.767717
20
70.791052
11
33.188942
21
70.551259
0
LINE
8
hole
62
5
39
2
10
33.188942
20
70.551259
11
32.567508
21
70.469396
0
LINE
8
hole
62
5
39
2
10
32.567508
20
70.469396
11
31.946053
21
70.551267
0
LINE
8
hole
62
5
39
2
10
31.946053
20
70.551267
11
31.367282
21
70.791061
0
LINE
8
hole
62
5
39
2
10
31.367282
20
70.791061
11
30.870296
21
71.172476
0
LINE
8
hole
62
5
39
2
10
64.588961
20
62.069671
11
64.349257
21
62.648462
0
LINE
8
hole
62
5
39
2
10
64.349257
20
62.648462
11
64.267531
21
63.269404
0
LINE
8
hole
62
5
39
2
10
64.267531
20
63.269404
11
64.349316
21
63.890586
0
LINE
8
hole
62
5
39
2
10
64.349316
20
63.890586
11
64.589155
21
64.469554
0
LINE
8
hole
62
5
39
2
10
64.589155
20
64.469554
11
64.970594
21
64.966591
0
LINE
8
hole
62
5
39
2
10
64.970594
20
64.966591
11
65.467734
21
65.347957
0
LINE
8
hole
62
5
39
2
10
65.467734
20
65.347957
11
66.046574
21
65.587663
0
LINE
8
hole
62
5
39
2
10
66.046574
20
65.587663
11
66.667495
21
65.669415
0
LINE
8
hole
62
5
39
2
10
66.667495
20
65.669415
11
67.288421
21
65.587655
0
LINE
8
hole
62
5
39
2
10
67.288421
20
65.587655
11
67.867292
21
65.347951
0
LINE
8
hole
62
5
39
2
10
67.867292
20
65.347951
11
68.364439
21
64.966578
0
LINE
8
hole
62
5
39
2
10
68.364439
20
64.966578
11
68.745852
21
64.469579
0
LINE
8
hole
62
5
39
2
10
68.745852
20
64.469579
11
68.985662
21
63.890785
0
LINE
8
hole
62
5
39
2
10
68.985662
20
63.890785
11
69.067502
21
63.269654
0
LINE
8
hole
62
5
39
2
10
69.067502
20
63.269654
11
68.985791
21
62.648509
0
LINE
8
hole
62
5
39
2
10
68.985791
20
62.648509
11
68.746098
21
62.069688
0
LINE
8
hole
62
5
39
2
10
68.746098
20
62.069688
11
68.364734
21
61.572463
0
LINE
8
hole
62
5
39
2
10
68.364734
20
61.572463
11
67.867708
21
61.191001
0
LINE
8
hole
62
5
39
2
10
67.867708
20
61.191001
11
67.288916
21
60.951198
0
LINE
8
hole
62
5
39
2
10
67.288916
20
60.951198
11
66.667506
21
60.869378
0
LINE
8
hole
62
5
39
2
10
66.667506
20
60.869378
11
66.046082
21
60.951198
0
LINE
8
hole
62
5
39
2
10
66.046082
20
60.951198
11
65.467292
21
61.191012
0
LINE
8
hole
62
5
39
2
10
65.467292
20
61.191012
11
64.970290
21
61.572448
0
LINE
8
hole
62
5
39
2
10
64.970290
20
61.572448
11
64.588961
21
62.069671
0
LINE
8
hole
62
5
39
2
10
28.367281
20
10.391054
11
27.870293
21
10.772472
0
LINE
8
hole
62
5
39
2
10
27.870293
20
10.772472
11
27.488941
21
11.269532
0
LINE
8
hole
62
5
39
2
10
27.488941
20
11.269532
11
27.249244
21
11.848399
0
LINE
8
hole
62
5
39
2
10
27.249244
20
11.848399
11
27.167497
21
12.469575
0
LINE
8
hole
62
5
39
2
10
27.167497
20
12.469575
11
27.249392
21
13.090816
0
LINE
8
hole
62
5
39
2
10
27.249392
20
13.090816
11
27.489185
21
13.669601
0
LINE
8
hole
62
5
39
2
10
27.489185
20
13.669601
11
27.870614
21
14.166601
0
LINE
8
hole
62
5
39
2
10
27.870614
20
14.166601
11
28.367693
21
14.547949
0
LINE
8
hole
62
5
39
2
10
28.367693
20
14.547949
11
28.946534
21
14.787654
0
LINE
8
hole
62
5
39
2
10
28.946534
20
14.787654
11
29.567511
21
14.869421
0
LINE
8
hole
62
5
39
2
10
29.567511
20
14.869421
11
30.188475
21
14.787650
0
LINE
8
hole
62
5
39
2
10
30.188475
20
14.787650
11
30.767355
21
14.547936
0
LINE
8
hole
62
5
39
2
10
30.767355
20
14.547936
11
31.264438
21
14.166577
0
LINE
8
hole
62
5
39
2
10
31.264438
20
14.166577
11
31.645855
21
13.669577
0
LINE
8
hole
62
5
39
2
10
31.645855
20
13.669577
11
31.885665
21
13.090782
0
LINE
8
hole
62
5
39
2
10
31.885665
20
13.090782
11
31.967503
21
12.469650
0
LINE
8
hole
62
5
39
2
10
31.967503
20
12.469650
11
31.885788
21
11.848506
0
LINE
8
hole
62
5
39
2
10
31.885788
20
11.848506
11
31.646112
21
11.269571
0
LINE
8
hole
62
5
39
2
10
31.646112
20
11.269571
11
31.264719
21
10.772490
0
LINE
8
hole
62
5
39
2
10
31.264719
20
10.772490
11
30.767716
21
10.391048
0
LINE
8
hole
62
5
39
2
10
30.767716
20
10.391048
11
30.188941
21
10.151255
0
LINE
8
hole
62
5
39
2
10
30.188941
20
10.151255
11
29.567506
21
10.069388
0
LINE
8
hole
62
5
39
2
10
29.567506
20
10.069388
11
28.946052
21
10.151260
0
LINE
8
hole
62
5
39
2
10
28.946052
20
10.151260
11
28.367281
21
10.391054
0
LINE
8
hole
62
5
39
2
10
94.070297
20
10.772472
11
93.688943
21
11.269533
0
LINE
8
hole
62
5
39
2
10
93.688943
20
11.269533
11
93.449261
21
11.848458
0
LINE
8
hole
62
5
39
2
10
93.449261
20
11.848458
11
93.367527
21
12.469627
0
LINE
8
hole
62
5
39
2
10
93.367527
20
12.469627
11
93.449353
21
13.090763
0
LINE
8
hole
62
5
39
2
10
93.449353
20
13.090763
11
93.689156
21
13.669552
0
LINE
8
hole
62
5
39
2
10
93.689156
20
13.669552
11
94.070592
21
14.166589
0
LINE
8
hole
62
5
39
2
10
94.070592
20
14.166589
11
94.567688
21
14.547948
0
LINE
8
hole
62
5
39
2
10
94.567688
20
14.547948
11
95.146530
21
14.787654
0
LINE
8
hole
62
5
39
2
10
95.146530
20
14.787654
11
95.767509
21
14.869422
0
LINE
8
hole
62
5
39
2
10
95.767509
20
14.869422
11
96.388478
21
14.787650
0
LINE
8
hole
62
5
39
2
10
96.388478
20
14.787650
11
96.967361
21
14.547936
0
LINE
8
hole
62
5
39
2
10
96.967361
20
14.547936
11
97.464442
21
14.166576
0
LINE
8
hole
62
5
39
2
10
97.464442
20
14.166576
11
97.845855
21
13.669577
0
LINE
8
hole
62
5
39
2
10
97.845855
20
13.669577
11
98.085664
21
13.090782
0
LINE
8
hole
62
5
39
2
10
98.085664
20
13.090782
11
98.167506
21
12.469650
0
LINE
8
hole
62
5
39
2
10
98.167506
20
12.469650
11
98.085792
21
11.848506
0
LINE
8
hole
62
5
39
2
10
98.085792
20
11.848506
11
97.846113
21
11.269571
0
LINE
8
hole
62
5
39
2
10
97.846113
20
11.269571
11
97.464722
21
10.772490
0
LINE
8
hole
62
5
39
2
10
97.464722
20
10.772490
11
96.967722
21
10.391048
0
LINE
8
hole
62
5
39
2
10
96.967722
20
10.391048
11
96.388948
21
10.151255
0
LINE
8
hole
62
5
39
2
10
96.388948
20
10.151255
11
95.767508
21
10.069388
0
LINE
8
hole
62
5
39
2
10
95.767508
20
10.069388
11
95.146052
21
10.151260
0
LINE
8
hole
62
5
39
2
10
95.146052
20
10.151260
11
94.567282
21
10.391054
0
LINE
8
hole
62
5
39
2
10
94.567282
20
10.391054
11
94.070297
21
10.772472
0
LINE
8
hole
62
5
39
2
10
91.070297
20
71.172476
11
90.688941
21
71.669537
0
LINE
8
hole
62
5
39
2
10
90.688941
20
71.669537
11
90.449229
21
72.248410
0
LINE
8
hole
62
5
39
2
10
90.449229
20
72.248410
11
90.367556
21
72.869673
0
LINE
8
hole
62
5
39
2
10
90.367556
20
72.869673
11
90.449359
21
73.490798
0
LINE
8
hole
62
5
39
2
10
90.449359
20
73.490798
11
90.689167
21
74.069592
0
LINE
8
hole
62
5
39
2
10
90.689167
20
74.069592
11
91.070605
21
74.566599
0
LINE
8
hole
62
5
39
2
10
91.070605
20
74.566599
11
91.567689
21
74.947954
0
LINE
8
hole
62
5
39
2
10
91.567689
20
74.947954
11
92.146534
21
75.187661
0
LINE
8
hole
62
5
39
2
10
92.146534
20
75.187661
11
92.767507
21
75.269432
0
LINE
8
hole
62
5
39
2
10
92.767507
20
75.269432
11
93.388480
21
75.187653
0
LINE
8
hole
62
5
39
2
10
93.388480
20
75.187653
11
93.967357
21
74.947937
0
LINE
8
hole
62
5
39
2
10
93.967357
20
74.947937
11
94.464440
21
74.566580
0
LINE
8
hole
62
5
39
2
10
94.464440
20
74.566580
11
94.845852
21
74.069579
0
LINE
8
hole
62
5
39
2
10
94.845852
20
74.069579
11
95.085663
21
73.490783
0
LINE
8
hole
62
5
39
2
10
95.085663
20
73.490783
11
95.167504
21
72.869654
0
LINE
8
hole
62
5
39
2
10
95.167504
20
72.869654
11
95.085790
21
72.248505
0
LINE
8
hole
62
5
39
2
10
95.085790
20
72.248505
11
94.846112
21
71.669574
0
LINE
8
hole
62
5
39
2
10
94.846112
20
71.669574
11
94.464721
21
71.172495
0
LINE
8
hole
62
5
39
2
10
94.464721
20
71.172495
11
93.967719
21
70.791050
0
LINE
8
hole
62
5
39
2
10
93.967719
20
70.791050
11
93.388947
21
70.551260
0
LINE
8
hole
62
5
39
2
10
93.388947
20
70.551260
11
92.767506
21
70.469393
0
LINE
8
hole
62
5
39
2
10
92.767506
20
70.469393
11
92.146052
21
70.551267
0
LINE
8
hole
62
5
39
2
10
92.146052
20
70.551267
11
91.567281
21
70.791060
0
LINE
8
hole
62
5
39
2
10
91.567281
20
70.791060
11
91.070297
21
71.172476
0
LINE
8
hole
62
5
39
2
10
59.166861
20
71.269881
11
58.935069
21
71.831611
0
LINE
8
hole
62
5
39
2
10
58.935069
20
71.831611
11
59.167505
21
72.391946
0
LINE
8
hole
62
5
39
2
10
59.167505
20
72.391946
11
59.167505
21
73.346755
0
LINE
8
hole
62
5
39
2
10
59.167505
20
73.346755
11
58.935029
21
73.909036
0
LINE
8
hole
62
5
39
2
10
58.935029
20
73.909036
11
59.111238
21
74.396062
0
LINE
8
hole
62
5
39
2
10
59.111238
20
74.396062
11
59.615770
21
74.685649
0
LINE
8
hole
62
5
39
2
10
59.615770
20
74.685649
11
60.125501
21
74.595560
0
LINE
8
hole
62
5
39
2
10
60.125501
20
74.595560
11
69.538376
21
74.469324
0
LINE
8
hole
62
5
39
2
10
69.538376
20
74.469324
11
73.044936
21
74.469324
0
LINE
8
hole
62
5
39
2
10
73.044936
20
74.469324
11
73.606706
21
74.700808
0
LINE
8
hole
62
5
39
2
10
73.606706
20
74.700808
11
74.166945
21
74.469977
0
LINE
8
hole
62
5
39
2
10
74.166945
20
74.469977
11
74.399978
21
73.909032
0
LINE
8
hole
62
5
39
2
10
74.399978
20
73.909032
11
74.167505
21
73.346700
0
LINE
8
hole
62
5
39
2
10
74.167505
20
73.346700
11
74.167506
21
72.654386
0
LINE
8
hole
62
5
39
2
10
74.167506
20
72.654386
11
74.336402
21
72.123124
0
LINE
8
hole
62
5
39
2
10
74.336402
20
72.123124
11
74.329729
21
71.520673
0
LINE
8
hole
62
5
39
2
10
74.329729
20
71.520673
11
73.917789
21
71.107834
0
LINE
8
hole
62
5
39
2
10
73.917789
20
71.107834
11
73.399946
21
71.064067
0
LINE
8
hole
62
5
39
2
10
73.399946
20
71.064067
11
63.797201
21
71.269326
0
LINE
8
hole
62
5
39
2
10
63.797201
20
71.269326
11
60.290078
21
71.269326
0
LINE
8
hole
62
5
39
2
10
60.290078
20
71.269326
11
59.728771
21
71.036830
0
LINE
8
hole
62
5
39
2
10
59.728771
20
71.036830
11
59.240784
21
71.213054
0
LINE
8
hole
62
5
39
2
10
59.240784
20
71.213054
11
59.166861
21
71.269881
0
LINE
8
hole
62
5
39
2
10
20.431065
20
37.143651
11
20.097381
21
37.539759
0
LINE
8
hole
62
5
39
2
10
20.097381
20
37.539759
11
20.098606
21
38.123141
0
LINE
8
hole
62
5
39
2
10
20.098606
20
38.123141
11
20.267505
21
38.654442
0
LINE
8
hole
62
5
39
2
10
20.267505
20
38.654442
11
20.267505
21
39.346755
0
LINE
8
hole
62
5
39
2
10
20.267505
20
39.346755
11
20.035343
21
39.909215
0
LINE
8
hole
62
5
39
2
10
20.035343
20
39.909215
11
20.211425
21
40.396111
0
LINE
8
hole
62
5
39
2
10
20.211425
20
40.396111
11
20.716032
21
40.686962
0
LINE
8
hole
62
5
39
2
10
20.716032
20
40.686962
11
21.225492
21
40.595557
0
LINE
8
hole
62
5
39
2
10
21.225492
20
40.595557
11
30.637729
21
40.469324
0
LINE
8
hole
62
5
39
2
10
30.637729
20
40.469324
11
34.144934
21
40.469324
0
LINE
8
hole
62
5
39
2
10
34.144934
20
40.469324
11
34.706109
21
40.701789
0
LINE
8
hole
62
5
39
2
10
34.706109
20
40.701789
11
35.192358
21
40.526451
0
LINE
8
hole
62
5
39
2
10
35.192358
20
40.526451
11
35.487719
21
40.001454
0
LINE
8
hole
62
5
39
2
10
35.487719
20
40.001454
11
35.336987
21
39.437335
0
LINE
8
hole
62
5
39
2
10
35.336987
20
39.437335
11
35.267507
21
38.654386
0
LINE
8
hole
62
5
39
2
10
35.267507
20
38.654386
11
35.436405
21
38.123124
0
LINE
8
hole
62
5
39
2
10
35.436405
20
38.123124
11
35.437610
21
37.539883
0
LINE
8
hole
62
5
39
2
10
35.437610
20
37.539883
11
35.103969
21
37.143879
0
LINE
8
hole
62
5
39
2
10
35.103969
20
37.143879
11
34.499766
21
37.064742
0
LINE
8
hole
62
5
39
2
10
34.499766
20
37.064742
11
24.896705
21
37.269324
0
LINE
8
hole
62
5
39
2
10
24.896705
20
37.269324
11
21.390077
21
37.269324
0
LINE
8
hole
62
5
39
2
10
21.390077
20
37.269324
11
20.828771
21
37.036819
0
LINE
8
hole
62
5
39
2
10
20.828771
20
37.036819
11
20.431065
21
37.143651
0
LINE
8
hole
62
5
39
2
10
108.438273
20
37.269325
11
99.190079
21
37.269325
0
LINE
8
hole
62
5
39
2
10
99.190079
20
37.269325
11
98.721822
21
37.049745
0
LINE
8
hole
62
5
39
2
10
98.721822
20
37.049745
11
98.140725
21
37.213342
0
LINE
8
hole
62
5
39
2
10
98.140725
20
37.213342
11
97.847054
21
37.739033
0
LINE
8
hole
62
5
39
2
10
97.847054
20
37.739033
11
97.998284
21
38.301752
0
LINE
8
hole
62
5
39
2
10
97.998284
20
38.301752
11
98.067510
21
39.346755
0
LINE
8
hole
62
5
39
2
10
98.067510
20
39.346755
11
97.834957
21
39.908922
0
LINE
8
hole
62
5
39
2
10
97.834957
20
39.908922
11
98.011244
21
40.396064
0
LINE
8
hole
62
5
39
2
10
98.011244
20
40.396064
11
98.536900
21
40.689627
0
LINE
8
hole
62
5
39
2
10
98.536900
20
40.689627
11
99.099488
21
40.538814
0
LINE
8
hole
62
5
39
2
10
99.099488
20
40.538814
11
102.697128
21
40.469325
0
LINE
8
hole
62
5
39
2
10
102.697128
20
40.469325
11
111.944936
21
40.469325
0
LINE
8
hole
62
5
39
2
10
111.944936
20
40.469325
11
112.414470
21
40.689449
0
LINE
8
hole
62
5
39
2
10
112.414470
20
40.689449
11
112.976329
21
40.539267
0
LINE
8
hole
62
5
39
2
10
112.976329
20
40.539267
11
113.272501
21
40.114499
0
LINE
8
hole
62
5
39
2
10
113.272501
20
40.114499
11
113.229581
21
39.597781
0
LINE
8
hole
62
5
39
2
10
113.229581
20
39.597781
11
113.067512
21
38.654386
0
LINE
8
hole
62
5
39
2
10
113.067512
20
38.654386
11
113.236407
21
38.123137
0
LINE
8
hole
62
5
39
2
10
113.236407
20
38.123137
11
113.237622
21
37.539748
0
LINE
8
hole
62
5
39
2
10
113.237622
20
37.539748
11
112.903944
21
37.143653
0
LINE
8
hole
62
5
39
2
10
112.903944
20
37.143653
11
112.392788
21
37.051821
0
LINE
8
hole
62
5
39
2
10
112.392788
20
37.051821
11
108.438273
21
37.269325
0
LINE
8
hole
62
5
39
2
10
16.772933
20
21.245618
11
16.495749
21
21.764261
0
LINE
8
hole
62
5
39
2
10
16.495749
20
21.764261
11
16.325080
21
22.327016
0
LINE
8
hole
62
5
39
2
10
16.325080
20
22.327016
11
16.267467
21
22.912266
0
LINE
8
hole
62
5
39
2
10
16.267467
20
22.912266
11
16.267484
21
29.551536
0
LINE
8
hole
62
5
39
2
10
16.267484
20
29.551536
11
16.267493
21
32.069342
0
LINE
8
hole
62
5
39
2
10
16.267493
20
32.069342
11
16.335840
21
32.587389
0
LINE
8
hole
62
5
39
2
10
16.335840
20
32.587389
11
16.535676
21
33.069676
0
LINE
8
hole
62
5
39
2
10
16.535676
20
33.069676
11
16.853541
21
33.483817
0
LINE
8
hole
62
5
39
2
10
16.853541
20
33.483817
11
17.267941
21
33.801533
0
LINE
8
hole
62
5
39
2
10
17.267941
20
33.801533
11
17.750434
21
34.001108
0
LINE
8
hole
62
5
39
2
10
17.750434
20
34.001108
11
18.267956
21
34.069258
0
LINE
8
hole
62
5
39
2
10
18.267956
20
34.069258
11
25.663658
21
34.069292
0
LINE
8
hole
62
5
39
2
10
25.663658
20
34.069292
11
45.167229
21
34.069381
0
LINE
8
hole
62
5
39
2
10
45.167229
20
34.069381
11
45.684847
21
34.001277
0
LINE
8
hole
62
5
39
2
10
45.684847
20
34.001277
11
46.167205
21
33.801555
0
LINE
8
hole
62
5
39
2
10
46.167205
20
33.801555
11
46.581411
21
33.483803
0
LINE
8
hole
62
5
39
2
10
46.581411
20
33.483803
11
46.899244
21
33.069676
0
LINE
8
hole
62
5
39
2
10
46.899244
20
33.069676
11
47.099033
21
32.587410
0
LINE
8
hole
62
5
39
2
10
47.099033
20
32.587410
11
47.167514
21
32.069321
0
LINE
8
hole
62
5
39
2
10
47.167514
20
32.069321
11
47.167530
21
28.274994
0
LINE
8
hole
62
5
39
2
10
47.167530
20
28.274994
11
47.167582
21
18.269559
0
LINE
8
hole
62
5
39
2
10
47.167582
20
18.269559
11
47.099426
21
17.751895
0
LINE
8
hole
62
5
39
2
10
47.099426
20
17.751895
11
46.899689
21
17.269537
0
LINE
8
hole
62
5
39
2
10
46.899689
20
17.269537
11
46.581917
21
16.855310
0
LINE
8
hole
62
5
39
2
10
46.581917
20
16.855310
11
46.167769
21
16.537457
0
LINE
8
hole
62
5
39
2
10
46.167769
20
16.537457
11
45.685466
21
16.337613
0
LINE
8
hole
62
5
39
2
10
45.685466
20
16.337613
11
45.167490
21
16.269391
0
LINE
8
hole
62
5
39
2
10
45.167490
20
16.269391
11
29.030094
21
16.269357
0
LINE
8
hole
62
5
39
2
10
29.030094
20
16.269357
11
22.910135
21
16.269327
0
LINE
8
hole
62
5
39
2
10
22.910135
20
16.269327
11
22.324590
21
16.327002
0
LINE
8
hole
62
5
39
2
10
22.324590
20
16.327002
11
21.761798
21
16.497789
0
LINE
8
hole
62
5
39
2
10
21.761798
20
16.497789
11
21.243187
21
16.775046
0
LINE
8
hole
62
5
39
2
10
21.243187
20
16.775046
11
20.788610
21
17.148146
0
LINE
8
hole
62
5
39
2
10
20.788610
20
17.148146
11
18.147666
21
19.789159
0
LINE
8
hole
62
5
39
2
10
18.147666
20
19.789159
11
17.146168
21
20.790685
0
LINE
8
hole
62
5
39
2
10
17.146168
20
20.790685
11
16.772933
21
21.245618
0
LINE
8
hole
62
5
39
2
10
86.753082
20
16.855313
11
86.435310
21
17.269543
0
LINE
8
hole
62
5
39
2
10
86.435310
20
17.269543
11
86.235577
21
17.751918
0
LINE
8
hole
62
5
39
2
10
86.235577
20
17.751918
11
86.167429
21
18.269576
0
LINE
8
hole
62
5
39
2
10
86.167429
20
18.269576
11
86.167485
21
28.274998
0
LINE
8
hole
62
5
39
2
10
86.167485
20
28.274998
11
86.167497
21
32.069320
0
LINE
8
hole
62
5
39
2
10
86.167497
20
32.069320
11
86.235976
21
32.587413
0
LINE
8
hole
62
5
39
2
10
86.235976
20
32.587413
11
86.435769
21
33.069679
0
LINE
8
hole
62
5
39
2
10
86.435769
20
33.069679
11
86.753599
21
33.483806
0
LINE
8
hole
62
5
39
2
10
86.753599
20
33.483806
11
87.167808
21
33.801562
0
LINE
8
hole
62
5
39
2
10
87.167808
20
33.801562
11
87.650167
21
34.001282
0
LINE
8
hole
62
5
39
2
10
87.650167
20
34.001282
11
88.167786
21
34.069383
0
LINE
8
hole
62
5
39
2
10
88.167786
20
34.069383
11
95.564182
21
34.069353
0
LINE
8
hole
62
5
39
2
10
95.564182
20
34.069353
11
115.067066
21
34.069254
0
LINE
8
hole
62
5
39
2
10
115.067066
20
34.069254
11
115.584582
21
34.001105
0
LINE
8
hole
62
5
39
2
10
115.584582
20
34.001105
11
116.067075
21
33.801530
0
LINE
8
hole
62
5
39
2
10
116.067075
20
33.801530
11
116.481475
21
33.483810
0
LINE
8
hole
62
5
39
2
10
116.481475
20
33.483810
11
116.799336
21
33.069670
0
LINE
8
hole
62
5
39
2
10
116.799336
20
33.069670
11
116.999172
21
32.587387
0
LINE
8
hole
62
5
39
2
10
116.999172
20
32.587387
11
117.067519
21
32.069343
0
LINE
8
hole
62
5
39
2
10
117.067519
20
32.069343
11
117.067546
21
25.430112
0
LINE
8
hole
62
5
39
2
10
117.067546
20
25.430112
11
117.067552
21
22.912273
0
LINE
8
hole
62
5
39
2
10
117.067552
20
22.912273
11
117.009931
21
22.327012
0
LINE
8
hole
62
5
39
2
10
117.009931
20
22.327012
11
116.839261
21
21.764257
0
LINE
8
hole
62
5
39
2
10
116.839261
20
21.764257
11
116.562085
21
21.245620
0
LINE
8
hole
62
5
39
2
10
116.562085
20
21.245620
11
116.188848
21
20.790687
0
LINE
8
hole
62
5
39
2
10
116.188848
20
20.790687
11
113.547953
21
18.149718
0
LINE
8
hole
62
5
39
2
10
113.547953
20
18.149718
11
112.546410
21
17.148149
0
LINE
8
hole
62
5
39
2
10
112.546410
20
17.148149
11
112.091821
21
16.775045
0
LINE
8
hole
62
5
39
2
10
112.091821
20
16.775045
11
111.573208
21
16.497791
0
LINE
8
hole
62
5
39
2
10
111.573208
20
16.497791
11
111.010430
21
16.327000
0
LINE
8
hole
62
5
39
2
10
111.010430
20
16.327000
11
110.424883
21
16.269327
0
LINE
8
hole
62
5
39
2
10
110.424883
20
16.269327
11
104.304919
21
16.269358
0
LINE
8
hole
62
5
39
2
10
104.304919
20
16.269358
11
88.167527
21
16.269392
0
LINE
8
hole
62
5
39
2
10
88.167527
20
16.269392
11
87.649559
21
16.337601
0
LINE
8
hole
62
5
39
2
10
87.649559
20
16.337601
11
87.167239
21
16.537448
0
LINE
8
hole
62
5
39
2
10
87.167239
20
16.537448
11
86.753082
21
16.855313
0
LINE
8
hole
62
5
39
2
10
48.631065
20
36.543646
11
48.297383
21
36.939770
0
LINE
8
hole
62
5
39
2
10
48.297383
20
36.939770
11
48.298077
21
37.523076
0
LINE
8
hole
62
5
39
2
10
48.298077
20
37.523076
11
48.467505
21
39.407803
0
LINE
8
hole
62
5
39
2
10
48.467505
20
39.407803
11
48.467505
21
43.669330
0
LINE
8
hole
62
5
39
2
10
48.467505
20
43.669330
11
40.166496
21
43.669325
0
LINE
8
hole
62
5
39
2
10
40.166496
20
43.669325
11
33.370169
21
43.669342
0
LINE
8
hole
62
5
39
2
10
33.370169
20
43.669342
11
26.573823
21
43.669330
0
LINE
8
hole
62
5
39
2
10
26.573823
20
43.669330
11
18.267509
21
43.669341
0
LINE
8
hole
62
5
39
2
10
18.267509
20
43.669341
11
17.749606
21
43.737517
0
LINE
8
hole
62
5
39
2
10
17.749606
20
43.737517
11
17.267261
21
43.937344
0
LINE
8
hole
62
5
39
2
10
17.267261
20
43.937344
11
16.853047
21
44.255271
0
LINE
8
hole
62
5
39
2
10
16.853047
20
44.255271
11
16.535261
21
44.669702
0
LINE
8
hole
62
5
39
2
10
16.535261
20
44.669702
11
16.335540
21
45.152045
0
LINE
8
hole
62
5
39
2
10
16.335540
20
45.152045
11
16.267447
21
45.669658
0
LINE
8
hole
62
5
39
2
10
16.267447
20
45.669658
11
16.267482
21
54.504083
0
LINE
8
hole
62
5
39
2
10
16.267482
20
54.504083
11
16.267493
21
57.854365
0
LINE
8
hole
62
5
39
2
10
16.267493
20
57.854365
11
16.324997
21
58.438926
0
LINE
8
hole
62
5
39
2
10
16.324997
20
58.438926
11
16.495170
21
59.000770
0
LINE
8
hole
62
5
39
2
10
16.495170
20
59.000770
11
16.771492
21
59.518728
0
LINE
8
hole
62
5
39
2
10
16.771492
20
59.518728
11
19.775470
21
64.024660
0
LINE
8
hole
62
5
39
2
10
19.775470
20
64.024660
11
20.914672
21
65.733448
0
LINE
8
hole
62
5
39
2
10
20.914672
20
65.733448
11
21.288033
21
66.189103
0
LINE
8
hole
62
5
39
2
10
21.288033
20
66.189103
11
21.742967
21
66.562828
0
LINE
8
hole
62
5
39
2
10
21.742967
20
66.562828
11
22.262007
21
66.840577
0
LINE
8
hole
62
5
39
2
10
22.262007
20
66.840577
11
22.825300
21
67.011606
0
LINE
8
hole
62
5
39
2
10
22.825300
20
67.011606
11
23.411163
21
67.069345
0
LINE
8
hole
62
5
39
2
10
23.411163
20
67.069345
11
25.409613
21
67.069343
0
LINE
8
hole
62
5
39
2
10
25.409613
20
67.069343
11
26.167438
21
67.069346
0
LINE
8
hole
62
5
39
2
10
26.167438
20
67.069346
11
26.167500
21
67.722024
0
LINE
8
hole
62
5
39
2
10
26.167500
20
67.722024
11
26.274498
21
68.403769
0
LINE
8
hole
62
5
39
2
10
26.274498
20
68.403769
11
26.668138
21
68.835753
0
LINE
8
hole
62
5
39
2
10
26.668138
20
68.835753
11
27.168179
21
68.969430
0
LINE
8
hole
62
5
39
2
10
27.168179
20
68.969430
11
29.197357
21
68.969419
0
LINE
8
hole
62
5
39
2
10
29.197357
20
68.969419
11
29.966902
21
68.969430
0
LINE
8
hole
62
5
39
2
10
29.966902
20
68.969430
11
30.466902
21
68.835752
0
LINE
8
hole
62
5
39
2
10
30.466902
20
68.835752
11
30.833024
21
68.470040
0
LINE
8
hole
62
5
39
2
10
30.833024
20
68.470040
11
30.967507
21
67.969579
0
LINE
8
hole
62
5
39
2
10
30.967507
20
67.969579
11
30.967547
21
67.316844
0
LINE
8
hole
62
5
39
2
10
30.967547
20
67.316844
11
33.287633
21
67.069325
0
LINE
8
hole
62
5
39
2
10
33.287633
20
67.069325
11
34.167441
21
67.069325
0
LINE
8
hole
62
5
39
2
10
34.167441
20
67.069325
11
34.167498
21
67.722026
0
LINE
8
hole
62
5
39
2
10
34.167498
20
67.722026
11
34.201787
21
68.228884
0
LINE
8
hole
62
5
39
2
10
34.201787
20
68.228884
11
34.461002
21
68.677001
0
LINE
8
hole
62
5
39
2
10
34.461002
20
68.677001
11
34.909337
21
68.935491
0
LINE
8
hole
62
5
39
2
10
34.909337
20
68.935491
11
37.197358
21
68.969419
0
LINE
8
hole
62
5
39
2
10
37.197358
20
68.969419
11
37.966900
21
68.969430
0
LINE
8
hole
62
5
39
2
10
37.966900
20
68.969430
11
38.466896
21
68.835752
0
LINE
8
hole
62
5
39
2
10
38.466896
20
68.835752
11
38.833020
21
68.470040
0
LINE
8
hole
62
5
39
2
10
38.833020
20
68.470040
11
38.967507
21
67.969579
0
LINE
8
hole
62
5
39
2
10
38.967507
20
67.969579
11
38.967544
21
67.316844
0
LINE
8
hole
62
5
39
2
10
38.967544
20
67.316844
11
41.287632
21
67.069325
0
LINE
8
hole
62
5
39
2
10
41.287632
20
67.069325
11
42.167440
21
67.069325
0
LINE
8
hole
62
5
39
2
10
42.167440
20
67.069325
11
42.167493
21
67.722033
0
LINE
8
hole
62
5
39
2
10
42.167493
20
67.722033
11
42.201792
21
68.228891
0
LINE
8
hole
62
5
39
2
10
42.201792
20
68.228891
11
42.461000
21
68.677001
0
LINE
8
hole
62
5
39
2
10
42.461000
20
68.677001
11
42.909337
21
68.935491
0
LINE
8
hole
62
5
39
2
10
42.909337
20
68.935491
11
43.937679
21
68.969366
0
LINE
8
hole
62
5
39
2
10
43.937679
20
68.969366
11
45.966785
21
68.969355
0
LINE
8
hole
62
5
39
2
10
45.966785
20
68.969355
11
46.466744
21
68.835730
0
LINE
8
hole
62
5
39
2
10
46.466744
20
68.835730
11
46.833330
21
68.469780
0
LINE
8
hole
62
5
39
2
10
46.833330
20
68.469780
11
46.967488
21
67.969550
0
LINE
8
hole
62
5
39
2
10
46.967488
20
67.969550
11
46.967540
21
67.316852
0
LINE
8
hole
62
5
39
2
10
46.967540
20
67.316852
11
47.709810
21
67.069354
0
LINE
8
hole
62
5
39
2
10
47.709810
20
67.069354
11
49.667449
21
67.069359
0
LINE
8
hole
62
5
39
2
10
49.667449
20
67.069359
11
50.185021
21
67.001215
0
LINE
8
hole
62
5
39
2
10
50.185021
20
67.001215
11
50.667089
21
66.801554
0
LINE
8
hole
62
5
39
2
10
50.667089
20
66.801554
11
51.081683
21
66.483611
0
LINE
8
hole
62
5
39
2
10
51.081683
20
66.483611
11
51.399635
21
66.069050
0
LINE
8
hole
62
5
39
2
10
51.399635
20
66.069050
11
51.599396
21
65.586731
0
LINE
8
hole
62
5
39
2
10
51.599396
20
65.586731
11
51.667500
21
65.069038
0
LINE
8
hole
62
5
39
2
10
51.667500
20
65.069038
11
51.667507
21
59.185033
0
LINE
8
hole
62
5
39
2
10
51.667507
20
59.185033
11
51.667508
21
43.669325
0
LINE
8
hole
62
5
39
2
10
51.667508
20
43.669325
11
53.173873
21
43.669325
0
LINE
8
hole
62
5
39
2
10
53.173873
20
43.669325
11
53.744935
21
43.669325
0
LINE
8
hole
62
5
39
2
10
53.744935
20
43.669325
11
54.306361
21
43.901809
0
LINE
8
hole
62
5
39
2
10
54.306361
20
43.901809
11
54.866780
21
43.670003
0
LINE
8
hole
62
5
39
2
10
54.866780
20
43.670003
11
55.087689
21
43.201458
0
LINE
8
hole
62
5
39
2
10
55.087689
20
43.201458
11
54.936986
21
42.637334
0
LINE
8
hole
62
5
39
2
10
54.936986
20
42.637334
11
54.867505
21
39.099028
0
LINE
8
hole
62
5
39
2
10
54.867505
20
39.099028
11
54.867505
21
37.791897
0
LINE
8
hole
62
5
39
2
10
54.867505
20
37.791897
11
55.100027
21
37.231455
0
LINE
8
hole
62
5
39
2
10
55.100027
20
37.231455
11
54.868084
21
36.670246
0
LINE
8
hole
62
5
39
2
10
54.868084
20
36.670246
11
54.399149
21
36.449151
0
LINE
8
hole
62
5
39
2
10
54.399149
20
36.449151
11
53.835085
21
36.600092
0
LINE
8
hole
62
5
39
2
10
53.835085
20
36.600092
11
50.732334
21
36.669324
0
LINE
8
hole
62
5
39
2
10
50.732334
20
36.669324
11
49.590077
21
36.669324
0
LINE
8
hole
62
5
39
2
10
49.590077
20
36.669324
11
49.028770
21
36.436819
0
LINE
8
hole
62
5
39
2
10
49.028770
20
36.436819
11
48.631065
21
36.543646
0
LINE
8
hole
62
5
39
2
10
78.631059
20
36.543662
11
78.261819
21
37.026052
0
LINE
8
hole
62
5
39
2
10
78.261819
20
37.026052
11
78.342251
21
37.628120
0
LINE
8
hole
62
5
39
2
10
78.342251
20
37.628120
11
78.467507
21
39.099145
0
LINE
8
hole
62
5
39
2
10
78.467507
20
39.099145
11
78.467507
21
42.546754
0
LINE
8
hole
62
5
39
2
10
78.467507
20
42.546754
11
78.234996
21
43.108993
0
LINE
8
hole
62
5
39
2
10
78.234996
20
43.108993
11
78.411427
21
43.596105
0
LINE
8
hole
62
5
39
2
10
78.411427
20
43.596105
11
78.916164
21
43.887064
0
LINE
8
hole
62
5
39
2
10
78.916164
20
43.887064
11
79.425496
21
43.795572
0
LINE
8
hole
62
5
39
2
10
79.425496
20
43.795572
11
81.096250
21
43.669325
0
LINE
8
hole
62
5
39
2
10
81.096250
20
43.669325
11
81.667503
21
43.669324
0
LINE
8
hole
62
5
39
2
10
81.667503
20
43.669324
11
81.667504
21
59.184589
0
LINE
8
hole
62
5
39
2
10
81.667504
20
59.184589
11
81.667511
21
65.069038
0
LINE
8
hole
62
5
39
2
10
81.667511
20
65.069038
11
81.735659
21
65.587051
0
LINE
8
hole
62
5
39
2
10
81.735659
20
65.587051
11
81.935549
21
66.069600
0
LINE
8
hole
62
5
39
2
10
81.935549
20
66.069600
11
82.253259
21
66.483650
0
LINE
8
hole
62
5
39
2
10
82.253259
20
66.483650
11
82.667404
21
66.801341
0
LINE
8
hole
62
5
39
2
10
82.667404
20
66.801341
11
83.149975
21
67.001214
0
LINE
8
hole
62
5
39
2
10
83.149975
20
67.001214
11
83.667873
21
67.069365
0
LINE
8
hole
62
5
39
2
10
83.667873
20
67.069365
11
85.625211
21
67.069350
0
LINE
8
hole
62
5
39
2
10
85.625211
20
67.069350
11
86.367443
21
67.069349
0
LINE
8
hole
62
5
39
2
10
86.367443
20
67.069349
11
86.367500
21
67.722025
0
LINE
8
hole
62
5
39
2
10
86.367500
20
67.722025
11
86.429170
21
68.295008
0
LINE
8
hole
62
5
39
2
10
86.429170
20
68.295008
11
86.717730
21
68.720541
0
LINE
8
hole
62
5
39
2
10
86.717730
20
68.720541
11
87.180660
21
68.944726
0
LINE
8
hole
62
5
39
2
10
87.180660
20
68.944726
11
89.397401
21
68.969335
0
LINE
8
hole
62
5
39
2
10
89.397401
20
68.969335
11
90.166918
21
68.969420
0
LINE
8
hole
62
5
39
2
10
90.166918
20
68.969420
11
90.666900
21
68.835752
0
LINE
8
hole
62
5
39
2
10
90.666900
20
68.835752
11
91.033024
21
68.470040
0
LINE
8
hole
62
5
39
2
10
91.033024
20
68.470040
11
91.167510
21
67.969579
0
LINE
8
hole
62
5
39
2
10
91.167510
20
67.969579
11
91.167547
21
67.316844
0
LINE
8
hole
62
5
39
2
10
91.167547
20
67.316844
11
93.487634
21
67.069325
0
LINE
8
hole
62
5
39
2
10
93.487634
20
67.069325
11
94.367442
21
67.069325
0
LINE
8
hole
62
5
39
2
10
94.367442
20
67.069325
11
94.367499
21
67.722026
0
LINE
8
hole
62
5
39
2
10
94.367499
20
67.722026
11
94.401789
21
68.228884
0
LINE
8
hole
62
5
39
2
10
94.401789
20
68.228884
11
94.661004
21
68.677001
0
LINE
8
hole
62
5
39
2
10
94.661004
20
68.677001
11
95.109340
21
68.935491
0
LINE
8
hole
62
5
39
2
10
95.109340
20
68.935491
11
97.397374
21
68.969413
0
LINE
8
hole
62
5
39
2
10
97.397374
20
68.969413
11
98.166916
21
68.969424
0
LINE
8
hole
62
5
39
2
10
98.166916
20
68.969424
11
98.666901
21
68.835752
0
LINE
8
hole
62
5
39
2
10
98.666901
20
68.835752
11
99.033025
21
68.470040
0
LINE
8
hole
62
5
39
2
10
99.033025
20
68.470040
11
99.167511
21
67.969579
0
LINE
8
hole
62
5
39
2
10
99.167511
20
67.969579
11
99.167551
21
67.316844
0
LINE
8
hole
62
5
39
2
10
99.167551
20
67.316844
11
101.487637
21
67.069325
0
LINE
8
hole
62
5
39
2
10
101.487637
20
67.069325
11
102.367444
21
67.069325
0
LINE
8
hole
62
5
39
2
10
102.367444
20
67.069325
11
102.367502
21
67.722026
0
LINE
8
hole
62
5
39
2
10
102.367502
20
67.722026
11
102.401791
21
68.228884
0
LINE
8
hole
62
5
39
2
10
102.401791
20
68.228884
11
102.661006
21
68.677001
0
LINE
8
hole
62
5
39
2
10
102.661006
20
68.677001
11
103.109339
21
68.935491
0
LINE
8
hole
62
5
39
2
10
103.109339
20
68.935491
11
105.397371
21
68.969413
0
LINE
8
hole
62
5
39
2
10
105.397371
20
68.969413
11
106.166913
21
68.969424
0
LINE
8
hole
62
5
39
2
10
106.166913
20
68.969424
11
106.666902
21
68.835752
0
LINE
8
hole
62
5
39
2
10
106.666902
20
68.835752
11
107.033022
21
68.470040
0
LINE
8
hole
62
5
39
2
10
107.033022
20
68.470040
11
107.167493
21
67.969553
0
LINE
8
hole
62
5
39
2
10
107.167493
20
67.969553
11
107.167575
21
67.069346
0
LINE
8
hole
62
5
39
2
10
107.167575
20
67.069346
11
107.925414
21
67.069340
0
LINE
8
hole
62
5
39
2
10
107.925414
20
67.069340
11
109.923899
21
67.069356
0
LINE
8
hole
62
5
39
2
10
109.923899
20
67.069356
11
110.509704
21
67.011607
0
LINE
8
hole
62
5
39
2
10
110.509704
20
67.011607
11
111.073010
21
66.840584
0
LINE
8
hole
62
5
39
2
10
111.073010
20
66.840584
11
111.592050
21
66.562833
0
LINE
8
hole
62
5
39
2
10
111.592050
20
66.562833
11
112.046986
21
66.189109
0
LINE
8
hole
62
5
39
2
10
112.046986
20
66.189109
11
112.420340
21
65.733453
0
LINE
8
hole
62
5
39
2
10
112.420340
20
65.733453
11
115.424310
21
61.227539
0
LINE
8
hole
62
5
39
2
10
115.424310
20
61.227539
11
116.563524
21
59.518732
0
LINE
8
hole
62
5
39
2
10
116.563524
20
59.518732
11
116.839847
21
59.000778
0
LINE
8
hole
62
5
39
2
10
116.839847
20
59.000778
11
117.010017
21
58.438926
0
LINE
8
hole
62
5
39
2
10
117.010017
20
58.438926
11
117.067522
21
57.854368
0
LINE
8
hole
62
5
39
2
10
117.067522
20
57.854368
11
117.067555
21
49.019985
0
LINE
8
hole
62
5
39
2
10
117.067555
20
49.019985
11
117.067569
21
45.669655
0
LINE
8
hole
62
5
39
2
10
117.067569
20
45.669655
11
116.999471
21
45.152042
0
LINE
8
hole
62
5
39
2
10
116.999471
20
45.152042
11
116.799744
21
44.669700
0
LINE
8
hole
62
5
39
2
10
116.799744
20
44.669700
11
116.481960
21
44.255270
0
LINE
8
hole
62
5
39
2
10
116.481960
20
44.255270
11
116.067745
21
43.937345
0
LINE
8
hole
62
5
39
2
10
116.067745
20
43.937345
11
115.585408
21
43.737517
0
LINE
8
hole
62
5
39
2
10
115.585408
20
43.737517
11
115.067505
21
43.669341
0
LINE
8
hole
62
5
39
2
10
115.067505
20
43.669341
11
106.761287
21
43.669330
0
LINE
8
hole
62
5
39
2
10
106.761287
20
43.669330
11
99.964846
21
43.669342
0
LINE
8
hole
62
5
39
2
10
99.964846
20
43.669342
11
93.167387
21
43.669333
0
LINE
8
hole
62
5
39
2
10
93.167387
20
43.669333
11
84.867507
21
43.669338
0
LINE
8
hole
62
5
39
2
10
84.867507
20
43.669338
11
84.867507
21
39.407581
0
LINE
8
hole
62
5
39
2
10
84.867507
20
39.407581
11
84.867507
21
37.791897
0
LINE
8
hole
62
5
39
2
10
84.867507
20
37.791897
11
85.087830
21
37.323838
0
LINE
8
hole
62
5
39
2
10
85.087830
20
37.323838
11
84.937444
21
36.760434
0
LINE
8
hole
62
5
39
2
10
84.937444
20
36.760434
11
84.512621
21
36.464164
0
LINE
8
hole
62
5
39
2
10
84.512621
20
36.464164
11
83.994958
21
36.507631
0
LINE
8
hole
62
5
39
2
10
83.994958
20
36.507631
11
80.732323
21
36.669324
0
LINE
8
hole
62
5
39
2
10
80.732323
20
36.669324
11
79.590078
21
36.669324
0
LINE
8
hole
62
5
39
2
10
79.590078
20
36.669324
11
79.121637
21
36.449170
0
LINE
8
hole
62
5
39
2
10
79.121637
20
36.449170
11
78.631059
21
36.543662
0
LINE
8
boundary
62
5
39
2
10
11.461187
20
16.875665
11
20.240059
21
8.096804
0
LINE
8
boundary
62
5
39
2
10
20.240059
20
8.096804
11
20.698465
21
7.708739
0
LINE
8
boundary
62
5
39
2
10
20.698465
20
7.708739
11
21.584244
21
7.138068
0
LINE
8
boundary
62
5
39
2
10
21.584244
20
7.138068
11
22.356258
21
6.837941
0
LINE
8
boundary
62
5
39
2
10
22.356258
20
6.837941
11
23.167425
21
6.669420
0
LINE
8
boundary
62
5
39
2
10
23.167425
20
6.669420
11
23.167512
21
7.322037
0
LINE
8
boundary
62
5
39
2
10
23.167512
20
7.322037
11
23.229177
21
7.895012
0
LINE
8
boundary
62
5
39
2
10
23.229177
20
7.895012
11
23.517683
21
8.320533
0
LINE
8
boundary
62
5
39
2
10
23.517683
20
8.320533
11
24.097273
21
8.559861
0
LINE
8
boundary
62
5
39
2
10
24.097273
20
8.559861
11
24.937819
21
8.569210
0
LINE
8
boundary
62
5
39
2
10
24.937819
20
8.569210
11
26.966917
21
8.569420
0
LINE
8
boundary
62
5
39
2
10
26.966917
20
8.569420
11
27.466900
21
8.435748
0
LINE
8
boundary
62
5
39
2
10
27.466900
20
8.435748
11
27.833023
21
8.070038
0
LINE
8
boundary
62
5
39
2
10
27.833023
20
8.070038
11
27.967508
21
7.569578
0
LINE
8
boundary
62
5
39
2
10
27.967508
20
7.569578
11
27.967547
21
6.916840
0
LINE
8
boundary
62
5
39
2
10
27.967547
20
6.916840
11
30.287632
21
6.669320
0
LINE
8
boundary
62
5
39
2
10
30.287632
20
6.669320
11
31.167439
21
6.669320
0
LINE
8
boundary
62
5
39
2
10
31.167439
20
6.669320
11
31.167500
21
7.322021
0
LINE
8
boundary
62
5
39
2
10
31.167500
20
7.322021
11
31.201786
21
7.828879
0
LINE
8
boundary
62
5
39
2
10
31.201786
20
7.828879
11
31.461002
21
8.276992
0
LINE
8
boundary
62
5
39
2
10
31.461002
20
8.276992
11
31.909337
21
8.535487
0
LINE
8
boundary
62
5
39
2
10
31.909337
20
8.535487
11
34.197358
21
8.569415
0
LINE
8
boundary
62
5
39
2
10
34.197358
20
8.569415
11
34.966901
21
8.569427
0
LINE
8
boundary
62
5
39
2
10
34.966901
20
8.569427
11
35.466898
21
8.435748
0
LINE
8
boundary
62
5
39
2
10
35.466898
20
8.435748
11
35.833024
21
8.070038
0
LINE
8
boundary
62
5
39
2
10
35.833024
20
8.070038
11
35.967506
21
7.569578
0
LINE
8
boundary
62
5
39
2
10
35.967506
20
7.569578
11
35.967546
21
6.916840
0
LINE
8
boundary
62
5
39
2
10
35.967546
20
6.916840
11
38.287631
21
6.669320
0
LINE
8
boundary
62
5
39
2
10
38.287631
20
6.669320
11
39.167438
21
6.669320
0
LINE
8
boundary
62
5
39
2
10
39.167438
20
6.669320
11
39.167491
21
7.322029
0
LINE
8
boundary
62
5
39
2
10
39.167491
20
7.322029
11
39.201792
21
7.828886
0
LINE
8
boundary
62
5
39
2
10
39.201792
20
7.828886
11
39.461000
21
8.276992
0
LINE
8
boundary
62
5
39
2
10
39.461000
20
8.276992
11
39.909336
21
8.535487
0
LINE
8
boundary
62
5
39
2
10
39.909336
20
8.535487
11
42.197355
21
8.569415
0
LINE
8
boundary
62
5
39
2
10
42.197355
20
8.569415
11
42.966900
21
8.569427
0
LINE
8
boundary
62
5
39
2
10
42.966900
20
8.569427
11
43.466897
21
8.435748
0
LINE
8
boundary
62
5
39
2
10
43.466897
20
8.435748
11
43.833021
21
8.070038
0
LINE
8
boundary
62
5
39
2
10
43.833021
20
8.070038
11
43.967506
21
7.569578
0
LINE
8
boundary
62
5
39
2
10
43.967506
20
7.569578
11
43.967544
21
6.916840
0
LINE
8
boundary
62
5
39
2
10
43.967544
20
6.916840
11
46.287631
21
6.669320
0
LINE
8
boundary
62
5
39
2
10
46.287631
20
6.669320
11
47.167439
21
6.669320
0
LINE
8
boundary
62
5
39
2
10
47.167439
20
6.669320
11
47.167493
21
7.322029
0
LINE
8
boundary
62
5
39
2
10
47.167493
20
7.322029
11
47.201793
21
7.828886
0
LINE
8
boundary
62
5
39
2
10
47.201793
20
7.828886
11
47.461000
21
8.276992
0
LINE
8
boundary
62
5
39
2
10
47.461000
20
8.276992
11
47.909336
21
8.535487
0
LINE
8
boundary
62
5
39
2
10
47.909336
20
8.535487
11
50.197285
21
8.569305
0
LINE
8
boundary
62
5
39
2
10
50.197285
20
8.569305
11
50.966714
21
8.569275
0
LINE
8
boundary
62
5
39
2
10
50.966714
20
8.569275
11
51.466699
21
8.435637
0
LINE
8
boundary
62
5
39
2
10
51.466699
20
8.435637
11
51.832935
21
8.069973
0
LINE
8
boundary
62
5
39
2
10
51.832935
20
8.069973
11
51.967492
21
7.569595
0
LINE
8
boundary
62
5
39
2
10
51.967492
20
7.569595
11
51.967545
21
6.916852
0
LINE
8
boundary
62
5
39
2
10
51.967545
20
6.916852
11
60.051238
21
6.669320
0
LINE
8
boundary
62
5
39
2
10
60.051238
20
6.669320
11
66.667506
21
6.667500
0
LINE
8
boundary
62
5
39
2
10
66.667506
20
6.667500
11
73.283840
21
6.669320
0
LINE
8
boundary
62
5
39
2
10
73.283840
20
6.669320
11
81.367441
21
6.669320
0
LINE
8
boundary
62
5
39
2
10
81.367441
20
6.669320
11
81.367507
21
7.322064
0
LINE
8
boundary
62
5
39
2
10
81.367507
20
7.322064
11
81.401826
21
7.828929
0
LINE
8
boundary
62
5
39
2
10
81.401826
20
7.828929
11
81.660970
21
8.276956
0
LINE
8
boundary
62
5
39
2
10
81.660970
20
8.276956
11
82.109621
21
8.535270
0
LINE
8
boundary
62
5
39
2
10
82.109621
20
8.535270
11
83.137775
21
8.569324
0
LINE
8
boundary
62
5
39
2
10
83.137775
20
8.569324
11
85.166920
21
8.569420
0
LINE
8
boundary
62
5
39
2
10
85.166920
20
8.569420
11
85.666900
21
8.435748
0
LINE
8
boundary
62
5
39
2
10
85.666900
20
8.435748
11
86.033024
21
8.070038
0
LINE
8
boundary
62
5
39
2
10
86.033024
20
8.070038
11
86.167510
21
7.569578
0
LINE
8
boundary
62
5
39
2
10
86.167510
20
7.569578
11
86.167549
21
6.916840
0
LINE
8
boundary
62
5
39
2
10
86.167549
20
6.916840
11
88.487635
21
6.669321
0
LINE
8
boundary
62
5
39
2
10
88.487635
20
6.669321
11
89.367443
21
6.669320
0
LINE
8
boundary
62
5
39
2
10
89.367443
20
6.669320
11
89.367500
21
7.322021
0
LINE
8
boundary
62
5
39
2
10
89.367500
20
7.322021
11
89.401788
21
7.828879
0
LINE
8
boundary
62
5
39
2
10
89.401788
20
7.828879
11
89.661004
21
8.276992
0
LINE
8
boundary
62
5
39
2
10
89.661004
20
8.276992
11
90.109339
21
8.535487
0
LINE
8
boundary
62
5
39
2
10
90.109339
20
8.535487
11
92.397371
21
8.569413
0
LINE
8
boundary
62
5
39
2
10
92.397371
20
8.569413
11
93.166913
21
8.569424
0
LINE
8
boundary
62
5
39
2
10
93.166913
20
8.569424
11
93.666900
21
8.435748
0
LINE
8
boundary
62
5
39
2
10
93.666900
20
8.435748
11
94.033024
21
8.070038
0
LINE
8
boundary
62
5
39
2
10
94.033024
20
8.070038
11
94.167510
21
7.569578
0
LINE
8
boundary
62
5
39
2
10
94.167510
20
7.569578
11
94.167549
21
6.916840
0
LINE
8
boundary
62
5
39
2
10
94.167549
20
6.916840
11
96.487638
21
6.669320
0
LINE
8
boundary
62
5
39
2
10
96.487638
20
6.669320
11
97.367447
21
6.669320
0
LINE
8
boundary
62
5
39
2
10
97.367447
20
6.669320
11
97.367500
21
7.322027
0
LINE
8
boundary
62
5
39
2
10
97.367500
20
7.322027
11
97.401790
21
7.828879
0
LINE
8
boundary
62
5
39
2
10
97.401790
20
7.828879
11
97.661005
21
8.276992
0
LINE
8
boundary
62
5
39
2
10
97.661005
20
8.276992
11
98.109341
21
8.535487
0
LINE
8
boundary
62
5
39
2
10
98.109341
20
8.535487
11
100.397374
21
8.569413
0
LINE
8
boundary
62
5
39
2
10
100.397374
20
8.569413
11
101.166915
21
8.569425
0
LINE
8
boundary
62
5
39
2
10
101.166915
20
8.569425
11
101.666904
21
8.435748
0
LINE
8
boundary
62
5
39
2
10
101.666904
20
8.435748
11
102.033022
21
8.070038
0
LINE
8
boundary
62
5
39
2
10
102.033022
20
8.070038
11
102.167512
21
7.569578
0
LINE
8
boundary
62
5
39
2
10
102.167512
20
7.569578
11
102.167551
21
6.916840
0
LINE
8
boundary
62
5
39
2
10
102.167551
20
6.916840
11
104.487636
21
6.669320
0
LINE
8
boundary
62
5
39
2
10
104.487636
20
6.669320
11
105.367443
21
6.669321
0
LINE
8
boundary
62
5
39
2
10
105.367443
20
6.669321
11
105.367502
21
7.322021
0
LINE
8
boundary
62
5
39
2
10
105.367502
20
7.322021
11
105.401790
21
7.828879
0
LINE
8
boundary
62
5
39
2
10
105.401790
20
7.828879
11
105.661006
21
8.276992
0
LINE
8
boundary
62
5
39
2
10
105.661006
20
8.276992
11
106.109341
21
8.535487
0
LINE
8
boundary
62
5
39
2
10
106.109341
20
8.535487
11
108.397251
21
8.569200
0
LINE
8
boundary
62
5
39
2
10
108.397251
20
8.569200
11
109.166586
21
8.569137
0
LINE
8
boundary
62
5
39
2
10
109.166586
20
8.569137
11
109.667142
21
8.435697
0
LINE
8
boundary
62
5
39
2
10
109.667142
20
8.435697
11
110.033369
21
8.069839
0
LINE
8
boundary
62
5
39
2
10
110.033369
20
8.069839
11
110.167471
21
7.569539
0
LINE
8
boundary
62
5
39
2
10
110.167471
20
7.569539
11
110.167552
21
6.916893
0
LINE
8
boundary
62
5
39
2
10
110.167552
20
6.916893
11
110.978759
21
6.837943
0
LINE
8
boundary
62
5
39
2
10
110.978759
20
6.837943
11
111.750777
21
7.138079
0
LINE
8
boundary
62
5
39
2
10
111.750777
20
7.138079
11
112.266950
21
7.445124
0
LINE
8
boundary
62
5
39
2
10
112.266950
20
7.445124
11
113.094956
21
8.096809
0
LINE
8
boundary
62
5
39
2
10
113.094956
20
8.096809
11
116.424233
21
11.426081
0
LINE
8
boundary
62
5
39
2
10
116.424233
20
11.426081
11
125.203041
21
20.204874
0
LINE
8
boundary
62
5
39
2
10
125.203041
20
20.204874
11
125.572564
21
20.637552
0
LINE
8
boundary
62
5
39
2
10
125.572564
20
20.637552
11
126.122614
21
21.470641
0
LINE
8
boundary
62
5
39
2
10
126.122614
20
21.470641
11
126.340293
21
21.996197
0
LINE
8
boundary
62
5
39
2
10
126.340293
20
21.996197
11
126.555626
21
22.748666
0
LINE
8
boundary
62
5
39
2
10
126.555626
20
22.748666
11
126.650596
21
23.525557
0
LINE
8
boundary
62
5
39
2
10
126.650596
20
23.525557
11
126.667511
21
33.752984
0
LINE
8
boundary
62
5
39
2
10
126.667511
20
33.752984
11
126.667517
21
41.947935
0
LINE
8
boundary
62
5
39
2
10
126.667517
20
41.947935
11
126.667506
21
50.142997
0
LINE
8
boundary
62
5
39
2
10
126.667506
20
50.142997
11
126.667504
21
60.155446
0
LINE
8
boundary
62
5
39
2
10
126.667504
20
60.155446
11
126.628383
21
60.686608
0
LINE
8
boundary
62
5
39
2
10
126.628383
20
60.686608
11
126.452895
21
61.604609
0
LINE
8
boundary
62
5
39
2
10
126.452895
20
61.604609
11
126.189026
21
62.289916
0
LINE
8
boundary
62
5
39
2
10
126.189026
20
62.289916
11
125.927004
21
62.753406
0
LINE
8
boundary
62
5
39
2
10
125.927004
20
62.753406
11
120.262358
21
71.277060
0
LINE
8
boundary
62
5
39
2
10
120.262358
20
71.277060
11
118.151840
21
74.442831
0
LINE
8
boundary
62
5
39
2
10
118.151840
20
74.442831
11
117.783450
21
74.907935
0
LINE
8
boundary
62
5
39
2
10
117.783450
20
74.907935
11
117.037989
21
75.634155
0
LINE
8
boundary
62
5
39
2
10
117.037989
20
75.634155
11
116.350677
21
76.077861
0
LINE
8
boundary
62
5
39
2
10
116.350677
20
76.077861
11
115.600209
21
76.403550
0
LINE
8
boundary
62
5
39
2
10
115.600209
20
76.403550
11
115.024875
21
76.547805
0
LINE
8
boundary
62
5
39
2
10
115.024875
20
76.547805
11
114.215511
21
76.651023
0
LINE
8
boundary
62
5
39
2
10
114.215511
20
76.651023
11
106.337541
21
76.668293
0
LINE
8
boundary
62
5
39
2
10
106.337541
20
76.668293
11
93.814093
21
76.668248
0
LINE
8
boundary
62
5
39
2
10
93.814093
20
76.668248
11
86.167573
21
76.669320
0
LINE
8
boundary
62
5
39
2
10
86.167573
20
76.669320
11
86.167531
21
75.769555
0
LINE
8
boundary
62
5
39
2
10
86.167531
20
75.769555
11
86.033896
21
75.270044
0
LINE
8
boundary
62
5
39
2
10
86.033896
20
75.270044
11
85.667358
21
74.903187
0
LINE
8
boundary
62
5
39
2
10
85.667358
20
74.903187
11
85.167575
21
74.769334
0
LINE
8
boundary
62
5
39
2
10
85.167575
20
74.769334
11
83.137407
21
74.769327
0
LINE
8
boundary
62
5
39
2
10
83.137407
20
74.769327
11
82.367505
21
74.769322
0
LINE
8
boundary
62
5
39
2
10
82.367505
20
74.769322
11
81.867684
21
74.903096
0
LINE
8
boundary
62
5
39
2
10
81.867684
20
74.903096
11
81.501104
21
75.270027
0
LINE
8
boundary
62
5
39
2
10
81.501104
20
75.270027
11
81.367469
21
75.769563
0
LINE
8
boundary
62
5
39
2
10
81.367469
20
75.769563
11
81.367441
21
76.422080
0
LINE
8
boundary
62
5
39
2
10
81.367441
20
76.422080
11
73.283886
21
76.669326
0
LINE
8
boundary
62
5
39
2
10
73.283886
20
76.669326
11
66.667506
21
76.671156
0
LINE
8
boundary
62
5
39
2
10
66.667506
20
76.671156
11
60.051127
21
76.669326
0
LINE
8
boundary
62
5
39
2
10
60.051127
20
76.669326
11
51.967571
21
76.669327
0
LINE
8
boundary
62
5
39
2
10
51.967571
20
76.669327
11
51.967542
21
75.769566
0
LINE
8
boundary
62
5
39
2
10
51.967542
20
75.769566
11
51.833905
21
75.270028
0
LINE
8
boundary
62
5
39
2
10
51.833905
20
75.270028
11
51.467325
21
74.903089
0
LINE
8
boundary
62
5
39
2
10
51.467325
20
74.903089
11
50.967565
21
74.769318
0
LINE
8
boundary
62
5
39
2
10
50.967565
20
74.769318
11
48.937399
21
74.769329
0
LINE
8
boundary
62
5
39
2
10
48.937399
20
74.769329
11
48.167506
21
74.769329
0
LINE
8
boundary
62
5
39
2
10
48.167506
20
74.769329
11
47.667652
21
74.903203
0
LINE
8
boundary
62
5
39
2
10
47.667652
20
74.903203
11
47.301110
21
75.270044
0
LINE
8
boundary
62
5
39
2
10
47.301110
20
75.270044
11
47.167482
21
75.769564
0
LINE
8
boundary
62
5
39
2
10
47.167482
20
75.769564
11
47.167439
21
76.422069
0
LINE
8
boundary
62
5
39
2
10
47.167439
20
76.422069
11
39.520849
21
76.668246
0
LINE
8
boundary
62
5
39
2
10
39.520849
20
76.668246
11
26.997490
21
76.668290
0
LINE
8
boundary
62
5
39
2
10
26.997490
20
76.668290
11
19.343684
21
76.669418
0
LINE
8
boundary
62
5
39
2
10
19.343684
20
76.669418
11
18.528333
21
76.602505
0
LINE
8
boundary
62
5
39
2
10
18.528333
20
76.602505
11
17.952981
21
76.458257
0
LINE
8
boundary
62
5
39
2
10
17.952981
20
76.458257
11
16.984333
21
76.077862
0
LINE
8
boundary
62
5
39
2
10
16.984333
20
76.077862
11
16.297028
21
75.634153
0
LINE
8
boundary
62
5
39
2
10
16.297028
20
75.634153
11
15.857828
21
75.235495
0
LINE
8
boundary
62
5
39
2
10
15.857828
20
75.235495
11
15.322881
21
74.619213
0
LINE
8
boundary
62
5
39
2
10
15.322881
20
74.619213
11
9.617906
21
66.094946
0
LINE
8
boundary
62
5
39
2
10
9.617906
20
66.094946
11
7.507389
21
62.929183
0
LINE
8
boundary
62
5
39
2
10
7.507389
20
62.929183
11
7.245350
21
62.465681
0
LINE
8
boundary
62
5
39
2
10
7.245350
20
62.465681
11
6.882113
21
61.604604
0
LINE
8
boundary
62
5
39
2
10
6.882113
20
61.604604
11
6.721471
21
60.888049
0
LINE
8
boundary
62
5
39
2
10
6.721471
20
60.888049
11
6.682345
21
60.356879
0
LINE
8
boundary
62
5
39
2
10
6.682345
20
60.356879
11
6.667511
21
50.142991
0
LINE
8
boundary
62
5
39
2
10
6.667511
20
50.142991
11
6.667500
21
41.947935
0
LINE
8
boundary
62
5
39
2
10
6.667500
20
41.947935
11
6.667511
21
33.753023
0
LINE
8
boundary
62
5
39
2
10
6.667511
20
33.753023
11
6.667508
21
23.740630
0
LINE
8
boundary
62
5
39
2
10
6.667508
20
23.740630
11
6.712117
21
23.173512
0
LINE
8
boundary
62
5
39
2
10
6.712117
20
23.173512
11
6.861819
21
22.405297
0
LINE
8
boundary
62
5
39
2
10
6.861819
20
22.405297
11
7.129849
21
21.669955
0
LINE
8
boundary
62
5
39
2
10
7.129849
20
21.669955
11
7.509602
21
20.985599
0
LINE
8
boundary
62
5
39
2
10
7.509602
20
20.985599
11
7.991839
21
20.368961
0
LINE
8
boundary
62
5
39
2
10
7.991839
20
20.368961
11
11.461187
21
16.875665
0
LINE
8
annotation
62
1
39
211
10
67.191507
20
15.866745
11
67.191507
21
37.468908
0
LINE
8
annotation
62
1
39
211
10
67.191507
20
37.468908
11
62.389070
21
32.665115
0
LINE
8
frame
62
5
39
2
10
0.000000
20
0.000000
11
210.058000
21
0.000000
0
LINE
8
frame
62
5
39
2
10
210.058000
20
0.000000
11
210.058000
21
296.926000
0
LINE
8
frame
62
5
39
2
10
210.058000
20
296.926000
11
0.000000
21
296.926000
0
LINE
8
frame
62
5
39
2
10
0.000000
20
296.926000
11
0.000000
21
0.000000
0
ENDSEC
0
EOF
